%TF.GenerationSoftware,KiCad,Pcbnew,9.0.6*%
%TF.CreationDate,2025-12-28T21:38:09+00:00*%
%TF.ProjectId,ESP32 S3,45535033-3220-4533-932e-6b696361645f,rev?*%
%TF.SameCoordinates,Original*%
%TF.FileFunction,Soldermask,Top*%
%TF.FilePolarity,Negative*%
%FSLAX46Y46*%
G04 Gerber Fmt 4.6, Leading zero omitted, Abs format (unit mm)*
G04 Created by KiCad (PCBNEW 9.0.6) date 2025-12-28 21:38:09*
%MOMM*%
%LPD*%
G01*
G04 APERTURE LIST*
G04 Aperture macros list*
%AMRoundRect*
0 Rectangle with rounded corners*
0 $1 Rounding radius*
0 $2 $3 $4 $5 $6 $7 $8 $9 X,Y pos of 4 corners*
0 Add a 4 corners polygon primitive as box body*
4,1,4,$2,$3,$4,$5,$6,$7,$8,$9,$2,$3,0*
0 Add four circle primitives for the rounded corners*
1,1,$1+$1,$2,$3*
1,1,$1+$1,$4,$5*
1,1,$1+$1,$6,$7*
1,1,$1+$1,$8,$9*
0 Add four rect primitives between the rounded corners*
20,1,$1+$1,$2,$3,$4,$5,0*
20,1,$1+$1,$4,$5,$6,$7,0*
20,1,$1+$1,$6,$7,$8,$9,0*
20,1,$1+$1,$8,$9,$2,$3,0*%
G04 Aperture macros list end*
%ADD10RoundRect,0.150000X-0.825000X-0.150000X0.825000X-0.150000X0.825000X0.150000X-0.825000X0.150000X0*%
%ADD11RoundRect,0.250000X1.000000X0.900000X-1.000000X0.900000X-1.000000X-0.900000X1.000000X-0.900000X0*%
%ADD12RoundRect,0.150000X-0.587500X-0.150000X0.587500X-0.150000X0.587500X0.150000X-0.587500X0.150000X0*%
%ADD13C,0.650000*%
%ADD14RoundRect,0.150000X-0.150000X-0.500000X0.150000X-0.500000X0.150000X0.500000X-0.150000X0.500000X0*%
%ADD15RoundRect,0.075000X-0.075000X-0.575000X0.075000X-0.575000X0.075000X0.575000X-0.075000X0.575000X0*%
%ADD16O,1.000000X2.100000*%
%ADD17O,1.000000X1.600000*%
%ADD18RoundRect,0.135000X0.135000X0.185000X-0.135000X0.185000X-0.135000X-0.185000X0.135000X-0.185000X0*%
%ADD19RoundRect,0.135000X-0.185000X0.135000X-0.185000X-0.135000X0.185000X-0.135000X0.185000X0.135000X0*%
%ADD20RoundRect,0.135000X-0.135000X-0.185000X0.135000X-0.185000X0.135000X0.185000X-0.135000X0.185000X0*%
%ADD21RoundRect,0.140000X0.170000X-0.140000X0.170000X0.140000X-0.170000X0.140000X-0.170000X-0.140000X0*%
%ADD22RoundRect,0.140000X-0.170000X0.140000X-0.170000X-0.140000X0.170000X-0.140000X0.170000X0.140000X0*%
%ADD23RoundRect,0.225000X0.250000X-0.225000X0.250000X0.225000X-0.250000X0.225000X-0.250000X-0.225000X0*%
%ADD24RoundRect,0.140000X0.140000X0.170000X-0.140000X0.170000X-0.140000X-0.170000X0.140000X-0.170000X0*%
%ADD25RoundRect,0.135000X0.185000X-0.135000X0.185000X0.135000X-0.185000X0.135000X-0.185000X-0.135000X0*%
%ADD26RoundRect,0.250000X-0.400000X-0.750000X0.400000X-0.750000X0.400000X0.750000X-0.400000X0.750000X0*%
%ADD27RoundRect,0.250000X-0.750000X-0.750000X0.750000X-0.750000X0.750000X0.750000X-0.750000X0.750000X0*%
%ADD28RoundRect,0.150000X-0.512500X-0.150000X0.512500X-0.150000X0.512500X0.150000X-0.512500X0.150000X0*%
%ADD29RoundRect,0.375000X0.625000X0.375000X-0.625000X0.375000X-0.625000X-0.375000X0.625000X-0.375000X0*%
%ADD30RoundRect,0.500000X0.500000X1.400000X-0.500000X1.400000X-0.500000X-1.400000X0.500000X-1.400000X0*%
%ADD31R,1.500000X0.900000*%
%ADD32R,0.900000X1.500000*%
%ADD33C,0.600000*%
%ADD34R,3.900000X3.900000*%
%ADD35RoundRect,0.250000X-0.900000X1.000000X-0.900000X-1.000000X0.900000X-1.000000X0.900000X1.000000X0*%
%ADD36RoundRect,0.225000X-0.250000X0.225000X-0.250000X-0.225000X0.250000X-0.225000X0.250000X0.225000X0*%
%ADD37RoundRect,0.450000X2.550000X-1.050000X2.550000X1.050000X-2.550000X1.050000X-2.550000X-1.050000X0*%
%ADD38RoundRect,0.225000X0.225000X0.250000X-0.225000X0.250000X-0.225000X-0.250000X0.225000X-0.250000X0*%
%ADD39RoundRect,0.147500X0.147500X0.172500X-0.147500X0.172500X-0.147500X-0.172500X0.147500X-0.172500X0*%
%ADD40R,1.000000X0.900000*%
%ADD41R,0.550000X1.700000*%
%ADD42R,0.300000X1.300000*%
%ADD43R,1.800000X2.200000*%
%ADD44RoundRect,0.250000X-1.000000X-0.900000X1.000000X-0.900000X1.000000X0.900000X-1.000000X0.900000X0*%
%ADD45R,2.290000X3.000000*%
%ADD46R,1.700000X1.700000*%
%ADD47C,1.700000*%
G04 APERTURE END LIST*
D10*
%TO.C,U5*%
X125275000Y-152555000D03*
X125275000Y-153825000D03*
X125275000Y-155095000D03*
X125275000Y-156365000D03*
X125275000Y-157635000D03*
X125275000Y-158905000D03*
X125275000Y-160175000D03*
X125275000Y-161445000D03*
X130225000Y-161445000D03*
X130225000Y-160175000D03*
X130225000Y-158905000D03*
X130225000Y-157635000D03*
X130225000Y-156365000D03*
X130225000Y-155095000D03*
X130225000Y-153825000D03*
X130225000Y-152555000D03*
%TD*%
D11*
%TO.C,D6*%
X119400000Y-159750000D03*
X115100000Y-159750000D03*
%TD*%
D12*
%TO.C,Q2*%
X119812500Y-148600000D03*
X119812500Y-150500000D03*
X121687500Y-149550000D03*
%TD*%
D13*
%TO.C,J1*%
X111110000Y-164895000D03*
X116890000Y-164895000D03*
D14*
X110800000Y-163755000D03*
X111600000Y-163755000D03*
D15*
X112750000Y-163755000D03*
X113750000Y-163755000D03*
X114250000Y-163755000D03*
X115250000Y-163755000D03*
D14*
X116400000Y-163755000D03*
X117200000Y-163755000D03*
X117200000Y-163755000D03*
X116400000Y-163755000D03*
D15*
X115750000Y-163755000D03*
X114750000Y-163755000D03*
X113250000Y-163755000D03*
X112250000Y-163755000D03*
D14*
X111600000Y-163755000D03*
X110800000Y-163755000D03*
D16*
X109680000Y-164395000D03*
D17*
X109680000Y-168575000D03*
D16*
X118320000Y-164395000D03*
D17*
X118320000Y-168575000D03*
%TD*%
D18*
%TO.C,R7*%
X115510000Y-114000000D03*
X114490000Y-114000000D03*
%TD*%
D19*
%TO.C,R22*%
X132000000Y-164490000D03*
X132000000Y-165510000D03*
%TD*%
D18*
%TO.C,R27*%
X131760000Y-97750000D03*
X130740000Y-97750000D03*
%TD*%
D20*
%TO.C,R6*%
X109240000Y-157500000D03*
X110260000Y-157500000D03*
%TD*%
D21*
%TO.C,C10*%
X126950000Y-141000000D03*
X126950000Y-140040000D03*
%TD*%
D22*
%TO.C,C1*%
X108250000Y-95040000D03*
X108250000Y-96000000D03*
%TD*%
D23*
%TO.C,C3*%
X112750000Y-154525000D03*
X112750000Y-152975000D03*
%TD*%
D18*
%TO.C,R26*%
X127510000Y-151000000D03*
X126490000Y-151000000D03*
%TD*%
D24*
%TO.C,C7*%
X123230000Y-156250000D03*
X122270000Y-156250000D03*
%TD*%
D19*
%TO.C,R1*%
X108000000Y-164490000D03*
X108000000Y-165510000D03*
%TD*%
D25*
%TO.C,R12*%
X130750000Y-137010000D03*
X130750000Y-135990000D03*
%TD*%
D18*
%TO.C,R4*%
X111010000Y-161750000D03*
X109990000Y-161750000D03*
%TD*%
%TO.C,R10*%
X117010000Y-135250000D03*
X115990000Y-135250000D03*
%TD*%
%TO.C,R23*%
X123260000Y-155000000D03*
X122240000Y-155000000D03*
%TD*%
D26*
%TO.C,RV1*%
X124900000Y-141750000D03*
D27*
X123750000Y-145750000D03*
D26*
X122600000Y-141750000D03*
%TD*%
D24*
%TO.C,C8*%
X130880000Y-151200000D03*
X129920000Y-151200000D03*
%TD*%
D28*
%TO.C,U3*%
X111862500Y-133050000D03*
X111862500Y-134000000D03*
X111862500Y-134950000D03*
X114137500Y-134950000D03*
X114137500Y-134000000D03*
X114137500Y-133050000D03*
%TD*%
D25*
%TO.C,R8*%
X127050000Y-143110000D03*
X127050000Y-142090000D03*
%TD*%
D29*
%TO.C,U6*%
X116400000Y-150550000D03*
X116400000Y-148250000D03*
D30*
X110100000Y-148250000D03*
D29*
X116400000Y-145950000D03*
%TD*%
D18*
%TO.C,R24*%
X123260000Y-153750000D03*
X122240000Y-153750000D03*
%TD*%
%TO.C,R18*%
X126760000Y-117250000D03*
X125740000Y-117250000D03*
%TD*%
D31*
%TO.C,U1*%
X111250000Y-94740000D03*
X111250000Y-96010000D03*
X111250000Y-97280000D03*
X111250000Y-98550000D03*
X111250000Y-99820000D03*
X111250000Y-101090000D03*
X111250000Y-102360000D03*
X111250000Y-103630000D03*
X111250000Y-104900000D03*
X111250000Y-106170000D03*
X111250000Y-107440000D03*
X111250000Y-108710000D03*
X111250000Y-109980000D03*
X111250000Y-111250000D03*
D32*
X113015000Y-112500000D03*
X114285000Y-112500000D03*
X115555000Y-112500000D03*
X116825000Y-112500000D03*
X118095000Y-112500000D03*
X119365000Y-112500000D03*
X120635000Y-112500000D03*
X121905000Y-112500000D03*
X123175000Y-112500000D03*
X124445000Y-112500000D03*
X125715000Y-112500000D03*
X126985000Y-112500000D03*
D31*
X128750000Y-111250000D03*
X128750000Y-109980000D03*
X128750000Y-108710000D03*
X128750000Y-107440000D03*
X128750000Y-106170000D03*
X128750000Y-104900000D03*
X128750000Y-103630000D03*
X128750000Y-102360000D03*
X128750000Y-101090000D03*
X128750000Y-99820000D03*
X128750000Y-98550000D03*
X128750000Y-97280000D03*
X128750000Y-96010000D03*
X128750000Y-94740000D03*
D33*
X117100000Y-101760000D03*
X117100000Y-103160000D03*
X117800000Y-101060000D03*
X117800000Y-102460000D03*
X117800000Y-103860000D03*
X118500000Y-101760000D03*
D34*
X118500000Y-102460000D03*
D33*
X118500000Y-103160000D03*
X119200000Y-101060000D03*
X119200000Y-102460000D03*
X119200000Y-103860000D03*
X119900000Y-101760000D03*
X119900000Y-103160000D03*
%TD*%
D18*
%TO.C,R25*%
X123260000Y-151500000D03*
X122240000Y-151500000D03*
%TD*%
D20*
%TO.C,R11*%
X115990000Y-134000000D03*
X117010000Y-134000000D03*
%TD*%
D13*
%TO.C,J6*%
X123110000Y-164895000D03*
X128890000Y-164895000D03*
D14*
X122800000Y-163755000D03*
X123600000Y-163755000D03*
D15*
X124750000Y-163755000D03*
X125750000Y-163755000D03*
X126250000Y-163755000D03*
X127250000Y-163755000D03*
D14*
X128400000Y-163755000D03*
X129200000Y-163755000D03*
X129200000Y-163755000D03*
X128400000Y-163755000D03*
D15*
X127750000Y-163755000D03*
X126750000Y-163755000D03*
X125250000Y-163755000D03*
X124250000Y-163755000D03*
D14*
X123600000Y-163755000D03*
X122800000Y-163755000D03*
D16*
X121680000Y-164395000D03*
D17*
X121680000Y-168575000D03*
D16*
X130320000Y-164395000D03*
D17*
X130320000Y-168575000D03*
%TD*%
D12*
%TO.C,Q1*%
X124062500Y-148300000D03*
X124062500Y-150200000D03*
X125937500Y-149250000D03*
%TD*%
D35*
%TO.C,D4*%
X110750000Y-137850000D03*
X110750000Y-142150000D03*
%TD*%
D20*
%TO.C,R20*%
X122240000Y-157750000D03*
X123260000Y-157750000D03*
%TD*%
%TO.C,R5*%
X109240000Y-158750000D03*
X110260000Y-158750000D03*
%TD*%
D36*
%TO.C,C5*%
X110000000Y-133725000D03*
X110000000Y-135275000D03*
%TD*%
D19*
%TO.C,R2*%
X108000000Y-166990000D03*
X108000000Y-168010000D03*
%TD*%
D37*
%TO.C,L1*%
X117000000Y-142500000D03*
X117000000Y-138000000D03*
%TD*%
D38*
%TO.C,C4*%
X111025000Y-152750000D03*
X109475000Y-152750000D03*
%TD*%
D39*
%TO.C,D2*%
X112485000Y-157500000D03*
X111515000Y-157500000D03*
%TD*%
%TO.C,D1*%
X112485000Y-158750000D03*
X111515000Y-158750000D03*
%TD*%
D38*
%TO.C,C9*%
X111025000Y-154500000D03*
X109475000Y-154500000D03*
%TD*%
D19*
%TO.C,R9*%
X127250000Y-145240000D03*
X127250000Y-146260000D03*
%TD*%
D39*
%TO.C,D3*%
X112485000Y-156250000D03*
X111515000Y-156250000D03*
%TD*%
D20*
%TO.C,R15*%
X127990000Y-117750000D03*
X129010000Y-117750000D03*
%TD*%
%TO.C,R14*%
X109240000Y-156250000D03*
X110260000Y-156250000D03*
%TD*%
D25*
%TO.C,R19*%
X123250000Y-160010000D03*
X123250000Y-158990000D03*
%TD*%
D40*
%TO.C,SW1*%
X128950000Y-143550000D03*
X128950000Y-139450000D03*
X130550000Y-143550000D03*
X130550000Y-139450000D03*
D41*
X128325000Y-141500000D03*
%TD*%
D42*
%TO.C,J2*%
X110250000Y-119650000D03*
X110750000Y-119650000D03*
X111250000Y-119650000D03*
X111750000Y-119650000D03*
X112250000Y-119650000D03*
X112750000Y-119650000D03*
X113250000Y-119650000D03*
X113750000Y-119650000D03*
X114250000Y-119650000D03*
X114750000Y-119650000D03*
X115250000Y-119650000D03*
X115750000Y-119650000D03*
X116250000Y-119650000D03*
X116750000Y-119650000D03*
X117250000Y-119650000D03*
X117750000Y-119650000D03*
X118250000Y-119650000D03*
X118750000Y-119650000D03*
X119250000Y-119650000D03*
X119750000Y-119650000D03*
X120250000Y-119650000D03*
X120750000Y-119650000D03*
X121250000Y-119650000D03*
X121750000Y-119650000D03*
X122250000Y-119650000D03*
X122750000Y-119650000D03*
X123250000Y-119650000D03*
X123750000Y-119650000D03*
X124250000Y-119650000D03*
X124750000Y-119650000D03*
X125250000Y-119650000D03*
X125750000Y-119650000D03*
X126250000Y-119650000D03*
X126750000Y-119650000D03*
X127250000Y-119650000D03*
X127750000Y-119650000D03*
X128250000Y-119650000D03*
X128750000Y-119650000D03*
X129250000Y-119650000D03*
X129750000Y-119650000D03*
D43*
X108350000Y-122900000D03*
X131650000Y-122900000D03*
%TD*%
D19*
%TO.C,R21*%
X132000000Y-166990000D03*
X132000000Y-168010000D03*
%TD*%
D23*
%TO.C,C6*%
X120000000Y-146775000D03*
X120000000Y-145225000D03*
%TD*%
D18*
%TO.C,R3*%
X111010000Y-160500000D03*
X109990000Y-160500000D03*
%TD*%
D36*
%TO.C,C2*%
X109500000Y-94725000D03*
X109500000Y-96275000D03*
%TD*%
D40*
%TO.C,SW2*%
X128950000Y-149300000D03*
X128950000Y-145200000D03*
X130550000Y-149300000D03*
X130550000Y-145200000D03*
D41*
X128325000Y-147250000D03*
%TD*%
D44*
%TO.C,D5*%
X115350000Y-154750000D03*
X119650000Y-154750000D03*
%TD*%
D10*
%TO.C,U4*%
X123845000Y-133845000D03*
X123845000Y-135115000D03*
X123845000Y-136385000D03*
X123845000Y-137655000D03*
X128795000Y-137655000D03*
X128795000Y-136385000D03*
X128795000Y-135115000D03*
X128795000Y-133845000D03*
D45*
X126320000Y-135750000D03*
%TD*%
D20*
%TO.C,R13*%
X122490000Y-139750000D03*
X123510000Y-139750000D03*
%TD*%
%TO.C,R17*%
X130240000Y-117500000D03*
X131260000Y-117500000D03*
%TD*%
D46*
%TO.C,J11*%
X133960000Y-129020000D03*
D47*
X133960000Y-131560000D03*
X133960000Y-134100000D03*
X133960000Y-136640000D03*
X133960000Y-139180000D03*
X133960000Y-141720000D03*
X133960000Y-144260000D03*
X133960000Y-146800000D03*
X133960000Y-149340000D03*
X133960000Y-151880000D03*
X133960000Y-154420000D03*
X133960000Y-156960000D03*
X133960000Y-159500000D03*
X133960000Y-162040000D03*
%TD*%
D46*
%TO.C,J10*%
X106040000Y-129020000D03*
D47*
X106040000Y-131560000D03*
X106040000Y-134100000D03*
X106040000Y-136640000D03*
X106040000Y-139180000D03*
X106040000Y-141720000D03*
X106040000Y-144260000D03*
X106040000Y-146800000D03*
X106040000Y-149340000D03*
X106040000Y-151880000D03*
X106040000Y-154420000D03*
X106040000Y-156960000D03*
X106040000Y-159500000D03*
X106040000Y-162040000D03*
%TD*%
D46*
%TO.C,J5*%
X117750000Y-129500000D03*
D47*
X115210000Y-129500000D03*
X112670000Y-129500000D03*
X110130000Y-129500000D03*
%TD*%
D46*
%TO.C,J7*%
X122190000Y-129500000D03*
D47*
X124730000Y-129500000D03*
X127270000Y-129500000D03*
X129810000Y-129500000D03*
%TD*%
D46*
%TO.C,J8*%
X106040000Y-96000000D03*
D47*
X106040000Y-98540000D03*
X106040000Y-101080000D03*
X106040000Y-103620000D03*
X106040000Y-106160000D03*
X106040000Y-108700000D03*
X106040000Y-111240000D03*
X106040000Y-113780000D03*
X106040000Y-116320000D03*
%TD*%
D46*
%TO.C,J9*%
X133960000Y-96000000D03*
D47*
X133960000Y-98540000D03*
X133960000Y-101080000D03*
X133960000Y-103620000D03*
X133960000Y-106160000D03*
X133960000Y-108700000D03*
X133960000Y-111240000D03*
X133960000Y-113780000D03*
X133960000Y-116320000D03*
%TD*%
M02*
