%TF.GenerationSoftware,KiCad,Pcbnew,9.0.6*%
%TF.CreationDate,2025-12-28T21:38:09+00:00*%
%TF.ProjectId,ESP32 S3,45535033-3220-4533-932e-6b696361645f,rev?*%
%TF.SameCoordinates,Original*%
%TF.FileFunction,Legend,Bot*%
%TF.FilePolarity,Positive*%
%FSLAX46Y46*%
G04 Gerber Fmt 4.6, Leading zero omitted, Abs format (unit mm)*
G04 Created by KiCad (PCBNEW 9.0.6) date 2025-12-28 21:38:09*
%MOMM*%
%LPD*%
G01*
G04 APERTURE LIST*
%ADD10C,0.100000*%
%ADD11C,0.120000*%
G04 APERTURE END LIST*
D10*
X118984000Y-125908000D02*
X117460000Y-125908000D01*
X120810000Y-125400000D02*
X131430000Y-125400000D01*
X131430000Y-128120000D01*
X120810000Y-128120000D01*
X120810000Y-125400000D01*
X118984000Y-127432000D02*
X118984000Y-125908000D01*
X108750000Y-125400000D02*
X119365000Y-125400000D01*
X119365000Y-128120000D01*
X108750000Y-128120000D01*
X108750000Y-125400000D01*
X117460000Y-125908000D02*
X117460000Y-127432000D01*
X118984000Y-127432000D02*
X117460000Y-127432000D01*
X111441115Y-106857419D02*
X111441115Y-105857419D01*
X110774449Y-105857419D02*
X110583973Y-105857419D01*
X110583973Y-105857419D02*
X110488735Y-105905038D01*
X110488735Y-105905038D02*
X110393497Y-106000276D01*
X110393497Y-106000276D02*
X110345878Y-106190752D01*
X110345878Y-106190752D02*
X110345878Y-106524085D01*
X110345878Y-106524085D02*
X110393497Y-106714561D01*
X110393497Y-106714561D02*
X110488735Y-106809800D01*
X110488735Y-106809800D02*
X110583973Y-106857419D01*
X110583973Y-106857419D02*
X110774449Y-106857419D01*
X110774449Y-106857419D02*
X110869687Y-106809800D01*
X110869687Y-106809800D02*
X110964925Y-106714561D01*
X110964925Y-106714561D02*
X111012544Y-106524085D01*
X111012544Y-106524085D02*
X111012544Y-106190752D01*
X111012544Y-106190752D02*
X110964925Y-106000276D01*
X110964925Y-106000276D02*
X110869687Y-105905038D01*
X110869687Y-105905038D02*
X110774449Y-105857419D01*
X109488735Y-106190752D02*
X109488735Y-106857419D01*
X109726830Y-105809800D02*
X109964925Y-106524085D01*
X109964925Y-106524085D02*
X109345878Y-106524085D01*
X122966353Y-126177419D02*
X122299687Y-127177419D01*
X122299687Y-126177419D02*
X122966353Y-127177419D01*
X121347306Y-127177419D02*
X121680639Y-126701228D01*
X121918734Y-127177419D02*
X121918734Y-126177419D01*
X121918734Y-126177419D02*
X121537782Y-126177419D01*
X121537782Y-126177419D02*
X121442544Y-126225038D01*
X121442544Y-126225038D02*
X121394925Y-126272657D01*
X121394925Y-126272657D02*
X121347306Y-126367895D01*
X121347306Y-126367895D02*
X121347306Y-126510752D01*
X121347306Y-126510752D02*
X121394925Y-126605990D01*
X121394925Y-126605990D02*
X121442544Y-126653609D01*
X121442544Y-126653609D02*
X121537782Y-126701228D01*
X121537782Y-126701228D02*
X121918734Y-126701228D01*
X130491115Y-114477419D02*
X130491115Y-113477419D01*
X130491115Y-113477419D02*
X130157782Y-114191704D01*
X130157782Y-114191704D02*
X129824449Y-113477419D01*
X129824449Y-113477419D02*
X129824449Y-114477419D01*
X129491115Y-113477419D02*
X128919687Y-113477419D01*
X129205401Y-114477419D02*
X129205401Y-113477419D01*
X128586353Y-114477419D02*
X128586353Y-113477419D01*
X128586353Y-113477419D02*
X128348258Y-113477419D01*
X128348258Y-113477419D02*
X128205401Y-113525038D01*
X128205401Y-113525038D02*
X128110163Y-113620276D01*
X128110163Y-113620276D02*
X128062544Y-113715514D01*
X128062544Y-113715514D02*
X128014925Y-113905990D01*
X128014925Y-113905990D02*
X128014925Y-114048847D01*
X128014925Y-114048847D02*
X128062544Y-114239323D01*
X128062544Y-114239323D02*
X128110163Y-114334561D01*
X128110163Y-114334561D02*
X128205401Y-114429800D01*
X128205401Y-114429800D02*
X128348258Y-114477419D01*
X128348258Y-114477419D02*
X128586353Y-114477419D01*
X127586353Y-114477419D02*
X127586353Y-113477419D01*
X126062544Y-114858371D02*
X126110163Y-114810752D01*
X126110163Y-114810752D02*
X126205401Y-114667895D01*
X126205401Y-114667895D02*
X126253020Y-114572657D01*
X126253020Y-114572657D02*
X126300639Y-114429800D01*
X126300639Y-114429800D02*
X126348258Y-114191704D01*
X126348258Y-114191704D02*
X126348258Y-114001228D01*
X126348258Y-114001228D02*
X126300639Y-113763133D01*
X126300639Y-113763133D02*
X126253020Y-113620276D01*
X126253020Y-113620276D02*
X126205401Y-113525038D01*
X126205401Y-113525038D02*
X126110163Y-113382180D01*
X126110163Y-113382180D02*
X126062544Y-113334561D01*
X125681591Y-114477419D02*
X125681591Y-113477419D01*
X125014925Y-113477419D02*
X124824449Y-113477419D01*
X124824449Y-113477419D02*
X124729211Y-113525038D01*
X124729211Y-113525038D02*
X124633973Y-113620276D01*
X124633973Y-113620276D02*
X124586354Y-113810752D01*
X124586354Y-113810752D02*
X124586354Y-114144085D01*
X124586354Y-114144085D02*
X124633973Y-114334561D01*
X124633973Y-114334561D02*
X124729211Y-114429800D01*
X124729211Y-114429800D02*
X124824449Y-114477419D01*
X124824449Y-114477419D02*
X125014925Y-114477419D01*
X125014925Y-114477419D02*
X125110163Y-114429800D01*
X125110163Y-114429800D02*
X125205401Y-114334561D01*
X125205401Y-114334561D02*
X125253020Y-114144085D01*
X125253020Y-114144085D02*
X125253020Y-113810752D01*
X125253020Y-113810752D02*
X125205401Y-113620276D01*
X125205401Y-113620276D02*
X125110163Y-113525038D01*
X125110163Y-113525038D02*
X125014925Y-113477419D01*
X123729211Y-113810752D02*
X123729211Y-114477419D01*
X123967306Y-113429800D02*
X124205401Y-114144085D01*
X124205401Y-114144085D02*
X123586354Y-114144085D01*
X122681592Y-114477419D02*
X123253020Y-114477419D01*
X122967306Y-114477419D02*
X122967306Y-113477419D01*
X122967306Y-113477419D02*
X123062544Y-113620276D01*
X123062544Y-113620276D02*
X123157782Y-113715514D01*
X123157782Y-113715514D02*
X123253020Y-113763133D01*
X122348258Y-114858371D02*
X122300639Y-114810752D01*
X122300639Y-114810752D02*
X122205401Y-114667895D01*
X122205401Y-114667895D02*
X122157782Y-114572657D01*
X122157782Y-114572657D02*
X122110163Y-114429800D01*
X122110163Y-114429800D02*
X122062544Y-114191704D01*
X122062544Y-114191704D02*
X122062544Y-114001228D01*
X122062544Y-114001228D02*
X122110163Y-113763133D01*
X122110163Y-113763133D02*
X122157782Y-113620276D01*
X122157782Y-113620276D02*
X122205401Y-113525038D01*
X122205401Y-113525038D02*
X122300639Y-113382180D01*
X122300639Y-113382180D02*
X122348258Y-113334561D01*
X111441115Y-111937419D02*
X111441115Y-110937419D01*
X110774449Y-110937419D02*
X110583973Y-110937419D01*
X110583973Y-110937419D02*
X110488735Y-110985038D01*
X110488735Y-110985038D02*
X110393497Y-111080276D01*
X110393497Y-111080276D02*
X110345878Y-111270752D01*
X110345878Y-111270752D02*
X110345878Y-111604085D01*
X110345878Y-111604085D02*
X110393497Y-111794561D01*
X110393497Y-111794561D02*
X110488735Y-111889800D01*
X110488735Y-111889800D02*
X110583973Y-111937419D01*
X110583973Y-111937419D02*
X110774449Y-111937419D01*
X110774449Y-111937419D02*
X110869687Y-111889800D01*
X110869687Y-111889800D02*
X110964925Y-111794561D01*
X110964925Y-111794561D02*
X111012544Y-111604085D01*
X111012544Y-111604085D02*
X111012544Y-111270752D01*
X111012544Y-111270752D02*
X110964925Y-111080276D01*
X110964925Y-111080276D02*
X110869687Y-110985038D01*
X110869687Y-110985038D02*
X110774449Y-110937419D01*
X109488735Y-110937419D02*
X109679211Y-110937419D01*
X109679211Y-110937419D02*
X109774449Y-110985038D01*
X109774449Y-110985038D02*
X109822068Y-111032657D01*
X109822068Y-111032657D02*
X109917306Y-111175514D01*
X109917306Y-111175514D02*
X109964925Y-111365990D01*
X109964925Y-111365990D02*
X109964925Y-111746942D01*
X109964925Y-111746942D02*
X109917306Y-111842180D01*
X109917306Y-111842180D02*
X109869687Y-111889800D01*
X109869687Y-111889800D02*
X109774449Y-111937419D01*
X109774449Y-111937419D02*
X109583973Y-111937419D01*
X109583973Y-111937419D02*
X109488735Y-111889800D01*
X109488735Y-111889800D02*
X109441116Y-111842180D01*
X109441116Y-111842180D02*
X109393497Y-111746942D01*
X109393497Y-111746942D02*
X109393497Y-111508847D01*
X109393497Y-111508847D02*
X109441116Y-111413609D01*
X109441116Y-111413609D02*
X109488735Y-111365990D01*
X109488735Y-111365990D02*
X109583973Y-111318371D01*
X109583973Y-111318371D02*
X109774449Y-111318371D01*
X109774449Y-111318371D02*
X109869687Y-111365990D01*
X109869687Y-111365990D02*
X109917306Y-111413609D01*
X109917306Y-111413609D02*
X109964925Y-111508847D01*
X112076115Y-157657419D02*
X112076115Y-156657419D01*
X111409449Y-156657419D02*
X111218973Y-156657419D01*
X111218973Y-156657419D02*
X111123735Y-156705038D01*
X111123735Y-156705038D02*
X111028497Y-156800276D01*
X111028497Y-156800276D02*
X110980878Y-156990752D01*
X110980878Y-156990752D02*
X110980878Y-157324085D01*
X110980878Y-157324085D02*
X111028497Y-157514561D01*
X111028497Y-157514561D02*
X111123735Y-157609800D01*
X111123735Y-157609800D02*
X111218973Y-157657419D01*
X111218973Y-157657419D02*
X111409449Y-157657419D01*
X111409449Y-157657419D02*
X111504687Y-157609800D01*
X111504687Y-157609800D02*
X111599925Y-157514561D01*
X111599925Y-157514561D02*
X111647544Y-157324085D01*
X111647544Y-157324085D02*
X111647544Y-156990752D01*
X111647544Y-156990752D02*
X111599925Y-156800276D01*
X111599925Y-156800276D02*
X111504687Y-156705038D01*
X111504687Y-156705038D02*
X111409449Y-156657419D01*
X110028497Y-157657419D02*
X110599925Y-157657419D01*
X110314211Y-157657419D02*
X110314211Y-156657419D01*
X110314211Y-156657419D02*
X110409449Y-156800276D01*
X110409449Y-156800276D02*
X110504687Y-156895514D01*
X110504687Y-156895514D02*
X110599925Y-156943133D01*
X109647544Y-156752657D02*
X109599925Y-156705038D01*
X109599925Y-156705038D02*
X109504687Y-156657419D01*
X109504687Y-156657419D02*
X109266592Y-156657419D01*
X109266592Y-156657419D02*
X109171354Y-156705038D01*
X109171354Y-156705038D02*
X109123735Y-156752657D01*
X109123735Y-156752657D02*
X109076116Y-156847895D01*
X109076116Y-156847895D02*
X109076116Y-156943133D01*
X109076116Y-156943133D02*
X109123735Y-157085990D01*
X109123735Y-157085990D02*
X109695163Y-157657419D01*
X109695163Y-157657419D02*
X109076116Y-157657419D01*
X125220639Y-126701228D02*
X125220639Y-127177419D01*
X125553972Y-126177419D02*
X125220639Y-126701228D01*
X125220639Y-126701228D02*
X124887306Y-126177419D01*
X124553972Y-127177419D02*
X124553972Y-126177419D01*
X124553972Y-126177419D02*
X124315877Y-126177419D01*
X124315877Y-126177419D02*
X124173020Y-126225038D01*
X124173020Y-126225038D02*
X124077782Y-126320276D01*
X124077782Y-126320276D02*
X124030163Y-126415514D01*
X124030163Y-126415514D02*
X123982544Y-126605990D01*
X123982544Y-126605990D02*
X123982544Y-126748847D01*
X123982544Y-126748847D02*
X124030163Y-126939323D01*
X124030163Y-126939323D02*
X124077782Y-127034561D01*
X124077782Y-127034561D02*
X124173020Y-127129800D01*
X124173020Y-127129800D02*
X124315877Y-127177419D01*
X124315877Y-127177419D02*
X124553972Y-127177419D01*
X130491115Y-111937419D02*
X130491115Y-110937419D01*
X130491115Y-110937419D02*
X130157782Y-111651704D01*
X130157782Y-111651704D02*
X129824449Y-110937419D01*
X129824449Y-110937419D02*
X129824449Y-111937419D01*
X129491115Y-110937419D02*
X128919687Y-110937419D01*
X129205401Y-111937419D02*
X129205401Y-110937419D01*
X128586353Y-111937419D02*
X128586353Y-110937419D01*
X128586353Y-110937419D02*
X128253020Y-111651704D01*
X128253020Y-111651704D02*
X127919687Y-110937419D01*
X127919687Y-110937419D02*
X127919687Y-111937419D01*
X127491115Y-111889800D02*
X127348258Y-111937419D01*
X127348258Y-111937419D02*
X127110163Y-111937419D01*
X127110163Y-111937419D02*
X127014925Y-111889800D01*
X127014925Y-111889800D02*
X126967306Y-111842180D01*
X126967306Y-111842180D02*
X126919687Y-111746942D01*
X126919687Y-111746942D02*
X126919687Y-111651704D01*
X126919687Y-111651704D02*
X126967306Y-111556466D01*
X126967306Y-111556466D02*
X127014925Y-111508847D01*
X127014925Y-111508847D02*
X127110163Y-111461228D01*
X127110163Y-111461228D02*
X127300639Y-111413609D01*
X127300639Y-111413609D02*
X127395877Y-111365990D01*
X127395877Y-111365990D02*
X127443496Y-111318371D01*
X127443496Y-111318371D02*
X127491115Y-111223133D01*
X127491115Y-111223133D02*
X127491115Y-111127895D01*
X127491115Y-111127895D02*
X127443496Y-111032657D01*
X127443496Y-111032657D02*
X127395877Y-110985038D01*
X127395877Y-110985038D02*
X127300639Y-110937419D01*
X127300639Y-110937419D02*
X127062544Y-110937419D01*
X127062544Y-110937419D02*
X126919687Y-110985038D01*
X125443496Y-112318371D02*
X125491115Y-112270752D01*
X125491115Y-112270752D02*
X125586353Y-112127895D01*
X125586353Y-112127895D02*
X125633972Y-112032657D01*
X125633972Y-112032657D02*
X125681591Y-111889800D01*
X125681591Y-111889800D02*
X125729210Y-111651704D01*
X125729210Y-111651704D02*
X125729210Y-111461228D01*
X125729210Y-111461228D02*
X125681591Y-111223133D01*
X125681591Y-111223133D02*
X125633972Y-111080276D01*
X125633972Y-111080276D02*
X125586353Y-110985038D01*
X125586353Y-110985038D02*
X125491115Y-110842180D01*
X125491115Y-110842180D02*
X125443496Y-110794561D01*
X125062543Y-111937419D02*
X125062543Y-110937419D01*
X124395877Y-110937419D02*
X124205401Y-110937419D01*
X124205401Y-110937419D02*
X124110163Y-110985038D01*
X124110163Y-110985038D02*
X124014925Y-111080276D01*
X124014925Y-111080276D02*
X123967306Y-111270752D01*
X123967306Y-111270752D02*
X123967306Y-111604085D01*
X123967306Y-111604085D02*
X124014925Y-111794561D01*
X124014925Y-111794561D02*
X124110163Y-111889800D01*
X124110163Y-111889800D02*
X124205401Y-111937419D01*
X124205401Y-111937419D02*
X124395877Y-111937419D01*
X124395877Y-111937419D02*
X124491115Y-111889800D01*
X124491115Y-111889800D02*
X124586353Y-111794561D01*
X124586353Y-111794561D02*
X124633972Y-111604085D01*
X124633972Y-111604085D02*
X124633972Y-111270752D01*
X124633972Y-111270752D02*
X124586353Y-111080276D01*
X124586353Y-111080276D02*
X124491115Y-110985038D01*
X124491115Y-110985038D02*
X124395877Y-110937419D01*
X123110163Y-111270752D02*
X123110163Y-111937419D01*
X123348258Y-110889800D02*
X123586353Y-111604085D01*
X123586353Y-111604085D02*
X122967306Y-111604085D01*
X122633972Y-111032657D02*
X122586353Y-110985038D01*
X122586353Y-110985038D02*
X122491115Y-110937419D01*
X122491115Y-110937419D02*
X122253020Y-110937419D01*
X122253020Y-110937419D02*
X122157782Y-110985038D01*
X122157782Y-110985038D02*
X122110163Y-111032657D01*
X122110163Y-111032657D02*
X122062544Y-111127895D01*
X122062544Y-111127895D02*
X122062544Y-111223133D01*
X122062544Y-111223133D02*
X122110163Y-111365990D01*
X122110163Y-111365990D02*
X122681591Y-111937419D01*
X122681591Y-111937419D02*
X122062544Y-111937419D01*
X121729210Y-112318371D02*
X121681591Y-112270752D01*
X121681591Y-112270752D02*
X121586353Y-112127895D01*
X121586353Y-112127895D02*
X121538734Y-112032657D01*
X121538734Y-112032657D02*
X121491115Y-111889800D01*
X121491115Y-111889800D02*
X121443496Y-111651704D01*
X121443496Y-111651704D02*
X121443496Y-111461228D01*
X121443496Y-111461228D02*
X121491115Y-111223133D01*
X121491115Y-111223133D02*
X121538734Y-111080276D01*
X121538734Y-111080276D02*
X121586353Y-110985038D01*
X121586353Y-110985038D02*
X121681591Y-110842180D01*
X121681591Y-110842180D02*
X121729210Y-110794561D01*
X129967306Y-161785038D02*
X130062544Y-161737419D01*
X130062544Y-161737419D02*
X130205401Y-161737419D01*
X130205401Y-161737419D02*
X130348258Y-161785038D01*
X130348258Y-161785038D02*
X130443496Y-161880276D01*
X130443496Y-161880276D02*
X130491115Y-161975514D01*
X130491115Y-161975514D02*
X130538734Y-162165990D01*
X130538734Y-162165990D02*
X130538734Y-162308847D01*
X130538734Y-162308847D02*
X130491115Y-162499323D01*
X130491115Y-162499323D02*
X130443496Y-162594561D01*
X130443496Y-162594561D02*
X130348258Y-162689800D01*
X130348258Y-162689800D02*
X130205401Y-162737419D01*
X130205401Y-162737419D02*
X130110163Y-162737419D01*
X130110163Y-162737419D02*
X129967306Y-162689800D01*
X129967306Y-162689800D02*
X129919687Y-162642180D01*
X129919687Y-162642180D02*
X129919687Y-162308847D01*
X129919687Y-162308847D02*
X130110163Y-162308847D01*
X129491115Y-162737419D02*
X129491115Y-161737419D01*
X129491115Y-161737419D02*
X128919687Y-162737419D01*
X128919687Y-162737419D02*
X128919687Y-161737419D01*
X128443496Y-162737419D02*
X128443496Y-161737419D01*
X128443496Y-161737419D02*
X128205401Y-161737419D01*
X128205401Y-161737419D02*
X128062544Y-161785038D01*
X128062544Y-161785038D02*
X127967306Y-161880276D01*
X127967306Y-161880276D02*
X127919687Y-161975514D01*
X127919687Y-161975514D02*
X127872068Y-162165990D01*
X127872068Y-162165990D02*
X127872068Y-162308847D01*
X127872068Y-162308847D02*
X127919687Y-162499323D01*
X127919687Y-162499323D02*
X127967306Y-162594561D01*
X127967306Y-162594561D02*
X128062544Y-162689800D01*
X128062544Y-162689800D02*
X128205401Y-162737419D01*
X128205401Y-162737419D02*
X128443496Y-162737419D01*
X130491115Y-142417419D02*
X130491115Y-141417419D01*
X129824449Y-141417419D02*
X129633973Y-141417419D01*
X129633973Y-141417419D02*
X129538735Y-141465038D01*
X129538735Y-141465038D02*
X129443497Y-141560276D01*
X129443497Y-141560276D02*
X129395878Y-141750752D01*
X129395878Y-141750752D02*
X129395878Y-142084085D01*
X129395878Y-142084085D02*
X129443497Y-142274561D01*
X129443497Y-142274561D02*
X129538735Y-142369800D01*
X129538735Y-142369800D02*
X129633973Y-142417419D01*
X129633973Y-142417419D02*
X129824449Y-142417419D01*
X129824449Y-142417419D02*
X129919687Y-142369800D01*
X129919687Y-142369800D02*
X130014925Y-142274561D01*
X130014925Y-142274561D02*
X130062544Y-142084085D01*
X130062544Y-142084085D02*
X130062544Y-141750752D01*
X130062544Y-141750752D02*
X130014925Y-141560276D01*
X130014925Y-141560276D02*
X129919687Y-141465038D01*
X129919687Y-141465038D02*
X129824449Y-141417419D01*
X128776830Y-141417419D02*
X128681592Y-141417419D01*
X128681592Y-141417419D02*
X128586354Y-141465038D01*
X128586354Y-141465038D02*
X128538735Y-141512657D01*
X128538735Y-141512657D02*
X128491116Y-141607895D01*
X128491116Y-141607895D02*
X128443497Y-141798371D01*
X128443497Y-141798371D02*
X128443497Y-142036466D01*
X128443497Y-142036466D02*
X128491116Y-142226942D01*
X128491116Y-142226942D02*
X128538735Y-142322180D01*
X128538735Y-142322180D02*
X128586354Y-142369800D01*
X128586354Y-142369800D02*
X128681592Y-142417419D01*
X128681592Y-142417419D02*
X128776830Y-142417419D01*
X128776830Y-142417419D02*
X128872068Y-142369800D01*
X128872068Y-142369800D02*
X128919687Y-142322180D01*
X128919687Y-142322180D02*
X128967306Y-142226942D01*
X128967306Y-142226942D02*
X129014925Y-142036466D01*
X129014925Y-142036466D02*
X129014925Y-141798371D01*
X129014925Y-141798371D02*
X128967306Y-141607895D01*
X128967306Y-141607895D02*
X128919687Y-141512657D01*
X128919687Y-141512657D02*
X128872068Y-141465038D01*
X128872068Y-141465038D02*
X128776830Y-141417419D01*
X111441115Y-150037419D02*
X111441115Y-149037419D01*
X110774449Y-149037419D02*
X110583973Y-149037419D01*
X110583973Y-149037419D02*
X110488735Y-149085038D01*
X110488735Y-149085038D02*
X110393497Y-149180276D01*
X110393497Y-149180276D02*
X110345878Y-149370752D01*
X110345878Y-149370752D02*
X110345878Y-149704085D01*
X110345878Y-149704085D02*
X110393497Y-149894561D01*
X110393497Y-149894561D02*
X110488735Y-149989800D01*
X110488735Y-149989800D02*
X110583973Y-150037419D01*
X110583973Y-150037419D02*
X110774449Y-150037419D01*
X110774449Y-150037419D02*
X110869687Y-149989800D01*
X110869687Y-149989800D02*
X110964925Y-149894561D01*
X110964925Y-149894561D02*
X111012544Y-149704085D01*
X111012544Y-149704085D02*
X111012544Y-149370752D01*
X111012544Y-149370752D02*
X110964925Y-149180276D01*
X110964925Y-149180276D02*
X110869687Y-149085038D01*
X110869687Y-149085038D02*
X110774449Y-149037419D01*
X109869687Y-150037419D02*
X109679211Y-150037419D01*
X109679211Y-150037419D02*
X109583973Y-149989800D01*
X109583973Y-149989800D02*
X109536354Y-149942180D01*
X109536354Y-149942180D02*
X109441116Y-149799323D01*
X109441116Y-149799323D02*
X109393497Y-149608847D01*
X109393497Y-149608847D02*
X109393497Y-149227895D01*
X109393497Y-149227895D02*
X109441116Y-149132657D01*
X109441116Y-149132657D02*
X109488735Y-149085038D01*
X109488735Y-149085038D02*
X109583973Y-149037419D01*
X109583973Y-149037419D02*
X109774449Y-149037419D01*
X109774449Y-149037419D02*
X109869687Y-149085038D01*
X109869687Y-149085038D02*
X109917306Y-149132657D01*
X109917306Y-149132657D02*
X109964925Y-149227895D01*
X109964925Y-149227895D02*
X109964925Y-149465990D01*
X109964925Y-149465990D02*
X109917306Y-149561228D01*
X109917306Y-149561228D02*
X109869687Y-149608847D01*
X109869687Y-149608847D02*
X109774449Y-149656466D01*
X109774449Y-149656466D02*
X109583973Y-149656466D01*
X109583973Y-149656466D02*
X109488735Y-149608847D01*
X109488735Y-149608847D02*
X109441116Y-149561228D01*
X109441116Y-149561228D02*
X109393497Y-149465990D01*
X128046353Y-126177419D02*
X127379687Y-127177419D01*
X127379687Y-126177419D02*
X128046353Y-127177419D01*
X126522544Y-127177419D02*
X126998734Y-127177419D01*
X126998734Y-127177419D02*
X126998734Y-126177419D01*
X111441115Y-114477419D02*
X111441115Y-113477419D01*
X110774449Y-113477419D02*
X110583973Y-113477419D01*
X110583973Y-113477419D02*
X110488735Y-113525038D01*
X110488735Y-113525038D02*
X110393497Y-113620276D01*
X110393497Y-113620276D02*
X110345878Y-113810752D01*
X110345878Y-113810752D02*
X110345878Y-114144085D01*
X110345878Y-114144085D02*
X110393497Y-114334561D01*
X110393497Y-114334561D02*
X110488735Y-114429800D01*
X110488735Y-114429800D02*
X110583973Y-114477419D01*
X110583973Y-114477419D02*
X110774449Y-114477419D01*
X110774449Y-114477419D02*
X110869687Y-114429800D01*
X110869687Y-114429800D02*
X110964925Y-114334561D01*
X110964925Y-114334561D02*
X111012544Y-114144085D01*
X111012544Y-114144085D02*
X111012544Y-113810752D01*
X111012544Y-113810752D02*
X110964925Y-113620276D01*
X110964925Y-113620276D02*
X110869687Y-113525038D01*
X110869687Y-113525038D02*
X110774449Y-113477419D01*
X110012544Y-113477419D02*
X109345878Y-113477419D01*
X109345878Y-113477419D02*
X109774449Y-114477419D01*
X111441115Y-144957419D02*
X111441115Y-143957419D01*
X110774449Y-143957419D02*
X110583973Y-143957419D01*
X110583973Y-143957419D02*
X110488735Y-144005038D01*
X110488735Y-144005038D02*
X110393497Y-144100276D01*
X110393497Y-144100276D02*
X110345878Y-144290752D01*
X110345878Y-144290752D02*
X110345878Y-144624085D01*
X110345878Y-144624085D02*
X110393497Y-144814561D01*
X110393497Y-144814561D02*
X110488735Y-144909800D01*
X110488735Y-144909800D02*
X110583973Y-144957419D01*
X110583973Y-144957419D02*
X110774449Y-144957419D01*
X110774449Y-144957419D02*
X110869687Y-144909800D01*
X110869687Y-144909800D02*
X110964925Y-144814561D01*
X110964925Y-144814561D02*
X111012544Y-144624085D01*
X111012544Y-144624085D02*
X111012544Y-144290752D01*
X111012544Y-144290752D02*
X110964925Y-144100276D01*
X110964925Y-144100276D02*
X110869687Y-144005038D01*
X110869687Y-144005038D02*
X110774449Y-143957419D01*
X110012544Y-143957419D02*
X109393497Y-143957419D01*
X109393497Y-143957419D02*
X109726830Y-144338371D01*
X109726830Y-144338371D02*
X109583973Y-144338371D01*
X109583973Y-144338371D02*
X109488735Y-144385990D01*
X109488735Y-144385990D02*
X109441116Y-144433609D01*
X109441116Y-144433609D02*
X109393497Y-144528847D01*
X109393497Y-144528847D02*
X109393497Y-144766942D01*
X109393497Y-144766942D02*
X109441116Y-144862180D01*
X109441116Y-144862180D02*
X109488735Y-144909800D01*
X109488735Y-144909800D02*
X109583973Y-144957419D01*
X109583973Y-144957419D02*
X109869687Y-144957419D01*
X109869687Y-144957419D02*
X109964925Y-144909800D01*
X109964925Y-144909800D02*
X110012544Y-144862180D01*
X110917306Y-159245038D02*
X111012544Y-159197419D01*
X111012544Y-159197419D02*
X111155401Y-159197419D01*
X111155401Y-159197419D02*
X111298258Y-159245038D01*
X111298258Y-159245038D02*
X111393496Y-159340276D01*
X111393496Y-159340276D02*
X111441115Y-159435514D01*
X111441115Y-159435514D02*
X111488734Y-159625990D01*
X111488734Y-159625990D02*
X111488734Y-159768847D01*
X111488734Y-159768847D02*
X111441115Y-159959323D01*
X111441115Y-159959323D02*
X111393496Y-160054561D01*
X111393496Y-160054561D02*
X111298258Y-160149800D01*
X111298258Y-160149800D02*
X111155401Y-160197419D01*
X111155401Y-160197419D02*
X111060163Y-160197419D01*
X111060163Y-160197419D02*
X110917306Y-160149800D01*
X110917306Y-160149800D02*
X110869687Y-160102180D01*
X110869687Y-160102180D02*
X110869687Y-159768847D01*
X110869687Y-159768847D02*
X111060163Y-159768847D01*
X110441115Y-160197419D02*
X110441115Y-159197419D01*
X110441115Y-159197419D02*
X109869687Y-160197419D01*
X109869687Y-160197419D02*
X109869687Y-159197419D01*
X109393496Y-160197419D02*
X109393496Y-159197419D01*
X109393496Y-159197419D02*
X109155401Y-159197419D01*
X109155401Y-159197419D02*
X109012544Y-159245038D01*
X109012544Y-159245038D02*
X108917306Y-159340276D01*
X108917306Y-159340276D02*
X108869687Y-159435514D01*
X108869687Y-159435514D02*
X108822068Y-159625990D01*
X108822068Y-159625990D02*
X108822068Y-159768847D01*
X108822068Y-159768847D02*
X108869687Y-159959323D01*
X108869687Y-159959323D02*
X108917306Y-160054561D01*
X108917306Y-160054561D02*
X109012544Y-160149800D01*
X109012544Y-160149800D02*
X109155401Y-160197419D01*
X109155401Y-160197419D02*
X109393496Y-160197419D01*
X112076115Y-134797419D02*
X112076115Y-133797419D01*
X111409449Y-133797419D02*
X111218973Y-133797419D01*
X111218973Y-133797419D02*
X111123735Y-133845038D01*
X111123735Y-133845038D02*
X111028497Y-133940276D01*
X111028497Y-133940276D02*
X110980878Y-134130752D01*
X110980878Y-134130752D02*
X110980878Y-134464085D01*
X110980878Y-134464085D02*
X111028497Y-134654561D01*
X111028497Y-134654561D02*
X111123735Y-134749800D01*
X111123735Y-134749800D02*
X111218973Y-134797419D01*
X111218973Y-134797419D02*
X111409449Y-134797419D01*
X111409449Y-134797419D02*
X111504687Y-134749800D01*
X111504687Y-134749800D02*
X111599925Y-134654561D01*
X111599925Y-134654561D02*
X111647544Y-134464085D01*
X111647544Y-134464085D02*
X111647544Y-134130752D01*
X111647544Y-134130752D02*
X111599925Y-133940276D01*
X111599925Y-133940276D02*
X111504687Y-133845038D01*
X111504687Y-133845038D02*
X111409449Y-133797419D01*
X110028497Y-134797419D02*
X110599925Y-134797419D01*
X110314211Y-134797419D02*
X110314211Y-133797419D01*
X110314211Y-133797419D02*
X110409449Y-133940276D01*
X110409449Y-133940276D02*
X110504687Y-134035514D01*
X110504687Y-134035514D02*
X110599925Y-134083133D01*
X109457068Y-134225990D02*
X109552306Y-134178371D01*
X109552306Y-134178371D02*
X109599925Y-134130752D01*
X109599925Y-134130752D02*
X109647544Y-134035514D01*
X109647544Y-134035514D02*
X109647544Y-133987895D01*
X109647544Y-133987895D02*
X109599925Y-133892657D01*
X109599925Y-133892657D02*
X109552306Y-133845038D01*
X109552306Y-133845038D02*
X109457068Y-133797419D01*
X109457068Y-133797419D02*
X109266592Y-133797419D01*
X109266592Y-133797419D02*
X109171354Y-133845038D01*
X109171354Y-133845038D02*
X109123735Y-133892657D01*
X109123735Y-133892657D02*
X109076116Y-133987895D01*
X109076116Y-133987895D02*
X109076116Y-134035514D01*
X109076116Y-134035514D02*
X109123735Y-134130752D01*
X109123735Y-134130752D02*
X109171354Y-134178371D01*
X109171354Y-134178371D02*
X109266592Y-134225990D01*
X109266592Y-134225990D02*
X109457068Y-134225990D01*
X109457068Y-134225990D02*
X109552306Y-134273609D01*
X109552306Y-134273609D02*
X109599925Y-134321228D01*
X109599925Y-134321228D02*
X109647544Y-134416466D01*
X109647544Y-134416466D02*
X109647544Y-134606942D01*
X109647544Y-134606942D02*
X109599925Y-134702180D01*
X109599925Y-134702180D02*
X109552306Y-134749800D01*
X109552306Y-134749800D02*
X109457068Y-134797419D01*
X109457068Y-134797419D02*
X109266592Y-134797419D01*
X109266592Y-134797419D02*
X109171354Y-134749800D01*
X109171354Y-134749800D02*
X109123735Y-134702180D01*
X109123735Y-134702180D02*
X109076116Y-134606942D01*
X109076116Y-134606942D02*
X109076116Y-134416466D01*
X109076116Y-134416466D02*
X109123735Y-134321228D01*
X109123735Y-134321228D02*
X109171354Y-134273609D01*
X109171354Y-134273609D02*
X109266592Y-134225990D01*
X130491115Y-155117419D02*
X130491115Y-154117419D01*
X129824449Y-154117419D02*
X129633973Y-154117419D01*
X129633973Y-154117419D02*
X129538735Y-154165038D01*
X129538735Y-154165038D02*
X129443497Y-154260276D01*
X129443497Y-154260276D02*
X129395878Y-154450752D01*
X129395878Y-154450752D02*
X129395878Y-154784085D01*
X129395878Y-154784085D02*
X129443497Y-154974561D01*
X129443497Y-154974561D02*
X129538735Y-155069800D01*
X129538735Y-155069800D02*
X129633973Y-155117419D01*
X129633973Y-155117419D02*
X129824449Y-155117419D01*
X129824449Y-155117419D02*
X129919687Y-155069800D01*
X129919687Y-155069800D02*
X130014925Y-154974561D01*
X130014925Y-154974561D02*
X130062544Y-154784085D01*
X130062544Y-154784085D02*
X130062544Y-154450752D01*
X130062544Y-154450752D02*
X130014925Y-154260276D01*
X130014925Y-154260276D02*
X129919687Y-154165038D01*
X129919687Y-154165038D02*
X129824449Y-154117419D01*
X128443497Y-155117419D02*
X129014925Y-155117419D01*
X128729211Y-155117419D02*
X128729211Y-154117419D01*
X128729211Y-154117419D02*
X128824449Y-154260276D01*
X128824449Y-154260276D02*
X128919687Y-154355514D01*
X128919687Y-154355514D02*
X129014925Y-154403133D01*
X127586354Y-154450752D02*
X127586354Y-155117419D01*
X127824449Y-154069800D02*
X128062544Y-154784085D01*
X128062544Y-154784085D02*
X127443497Y-154784085D01*
X116521115Y-103793609D02*
X116187782Y-103793609D01*
X116044925Y-104317419D02*
X116521115Y-104317419D01*
X116521115Y-104317419D02*
X116521115Y-103317419D01*
X116521115Y-103317419D02*
X116044925Y-103317419D01*
X115616353Y-104317419D02*
X115616353Y-103317419D01*
X115616353Y-103317419D02*
X115044925Y-104317419D01*
X115044925Y-104317419D02*
X115044925Y-103317419D01*
X113854449Y-103269800D02*
X114711591Y-104555514D01*
X112949687Y-104317419D02*
X113283020Y-103841228D01*
X113521115Y-104317419D02*
X113521115Y-103317419D01*
X113521115Y-103317419D02*
X113140163Y-103317419D01*
X113140163Y-103317419D02*
X113044925Y-103365038D01*
X113044925Y-103365038D02*
X112997306Y-103412657D01*
X112997306Y-103412657D02*
X112949687Y-103507895D01*
X112949687Y-103507895D02*
X112949687Y-103650752D01*
X112949687Y-103650752D02*
X112997306Y-103745990D01*
X112997306Y-103745990D02*
X113044925Y-103793609D01*
X113044925Y-103793609D02*
X113140163Y-103841228D01*
X113140163Y-103841228D02*
X113521115Y-103841228D01*
X112521115Y-103793609D02*
X112187782Y-103793609D01*
X112044925Y-104317419D02*
X112521115Y-104317419D01*
X112521115Y-104317419D02*
X112521115Y-103317419D01*
X112521115Y-103317419D02*
X112044925Y-103317419D01*
X111663972Y-104269800D02*
X111521115Y-104317419D01*
X111521115Y-104317419D02*
X111283020Y-104317419D01*
X111283020Y-104317419D02*
X111187782Y-104269800D01*
X111187782Y-104269800D02*
X111140163Y-104222180D01*
X111140163Y-104222180D02*
X111092544Y-104126942D01*
X111092544Y-104126942D02*
X111092544Y-104031704D01*
X111092544Y-104031704D02*
X111140163Y-103936466D01*
X111140163Y-103936466D02*
X111187782Y-103888847D01*
X111187782Y-103888847D02*
X111283020Y-103841228D01*
X111283020Y-103841228D02*
X111473496Y-103793609D01*
X111473496Y-103793609D02*
X111568734Y-103745990D01*
X111568734Y-103745990D02*
X111616353Y-103698371D01*
X111616353Y-103698371D02*
X111663972Y-103603133D01*
X111663972Y-103603133D02*
X111663972Y-103507895D01*
X111663972Y-103507895D02*
X111616353Y-103412657D01*
X111616353Y-103412657D02*
X111568734Y-103365038D01*
X111568734Y-103365038D02*
X111473496Y-103317419D01*
X111473496Y-103317419D02*
X111235401Y-103317419D01*
X111235401Y-103317419D02*
X111092544Y-103365038D01*
X110663972Y-103793609D02*
X110330639Y-103793609D01*
X110187782Y-104317419D02*
X110663972Y-104317419D01*
X110663972Y-104317419D02*
X110663972Y-103317419D01*
X110663972Y-103317419D02*
X110187782Y-103317419D01*
X109902067Y-103317419D02*
X109330639Y-103317419D01*
X109616353Y-104317419D02*
X109616353Y-103317419D01*
X107631115Y-126542419D02*
X107631115Y-125542419D01*
X106964449Y-125542419D02*
X106773973Y-125542419D01*
X106773973Y-125542419D02*
X106678735Y-125590038D01*
X106678735Y-125590038D02*
X106583497Y-125685276D01*
X106583497Y-125685276D02*
X106535878Y-125875752D01*
X106535878Y-125875752D02*
X106535878Y-126209085D01*
X106535878Y-126209085D02*
X106583497Y-126399561D01*
X106583497Y-126399561D02*
X106678735Y-126494800D01*
X106678735Y-126494800D02*
X106773973Y-126542419D01*
X106773973Y-126542419D02*
X106964449Y-126542419D01*
X106964449Y-126542419D02*
X107059687Y-126494800D01*
X107059687Y-126494800D02*
X107154925Y-126399561D01*
X107154925Y-126399561D02*
X107202544Y-126209085D01*
X107202544Y-126209085D02*
X107202544Y-125875752D01*
X107202544Y-125875752D02*
X107154925Y-125685276D01*
X107154925Y-125685276D02*
X107059687Y-125590038D01*
X107059687Y-125590038D02*
X106964449Y-125542419D01*
X105583497Y-126542419D02*
X106154925Y-126542419D01*
X105869211Y-126542419D02*
X105869211Y-125542419D01*
X105869211Y-125542419D02*
X105964449Y-125685276D01*
X105964449Y-125685276D02*
X106059687Y-125780514D01*
X106059687Y-125780514D02*
X106154925Y-125828133D01*
X104726354Y-125542419D02*
X104916830Y-125542419D01*
X104916830Y-125542419D02*
X105012068Y-125590038D01*
X105012068Y-125590038D02*
X105059687Y-125637657D01*
X105059687Y-125637657D02*
X105154925Y-125780514D01*
X105154925Y-125780514D02*
X105202544Y-125970990D01*
X105202544Y-125970990D02*
X105202544Y-126351942D01*
X105202544Y-126351942D02*
X105154925Y-126447180D01*
X105154925Y-126447180D02*
X105107306Y-126494800D01*
X105107306Y-126494800D02*
X105012068Y-126542419D01*
X105012068Y-126542419D02*
X104821592Y-126542419D01*
X104821592Y-126542419D02*
X104726354Y-126494800D01*
X104726354Y-126494800D02*
X104678735Y-126447180D01*
X104678735Y-126447180D02*
X104631116Y-126351942D01*
X104631116Y-126351942D02*
X104631116Y-126113847D01*
X104631116Y-126113847D02*
X104678735Y-126018609D01*
X104678735Y-126018609D02*
X104726354Y-125970990D01*
X104726354Y-125970990D02*
X104821592Y-125923371D01*
X104821592Y-125923371D02*
X105012068Y-125923371D01*
X105012068Y-125923371D02*
X105107306Y-125970990D01*
X105107306Y-125970990D02*
X105154925Y-126018609D01*
X105154925Y-126018609D02*
X105202544Y-126113847D01*
X127292306Y-142798371D02*
X127316115Y-142750752D01*
X127316115Y-142750752D02*
X127363734Y-142607895D01*
X127363734Y-142607895D02*
X127387544Y-142512657D01*
X127387544Y-142512657D02*
X127411353Y-142369800D01*
X127411353Y-142369800D02*
X127435163Y-142131704D01*
X127435163Y-142131704D02*
X127435163Y-141941228D01*
X127435163Y-141941228D02*
X127411353Y-141703133D01*
X127411353Y-141703133D02*
X127387544Y-141560276D01*
X127387544Y-141560276D02*
X127363734Y-141465038D01*
X127363734Y-141465038D02*
X127316115Y-141322180D01*
X127316115Y-141322180D02*
X127292306Y-141274561D01*
X126935163Y-141893609D02*
X126863735Y-141941228D01*
X126863735Y-141941228D02*
X126839925Y-141988847D01*
X126839925Y-141988847D02*
X126816116Y-142084085D01*
X126816116Y-142084085D02*
X126816116Y-142226942D01*
X126816116Y-142226942D02*
X126839925Y-142322180D01*
X126839925Y-142322180D02*
X126863735Y-142369800D01*
X126863735Y-142369800D02*
X126911354Y-142417419D01*
X126911354Y-142417419D02*
X127101830Y-142417419D01*
X127101830Y-142417419D02*
X127101830Y-141417419D01*
X127101830Y-141417419D02*
X126935163Y-141417419D01*
X126935163Y-141417419D02*
X126887544Y-141465038D01*
X126887544Y-141465038D02*
X126863735Y-141512657D01*
X126863735Y-141512657D02*
X126839925Y-141607895D01*
X126839925Y-141607895D02*
X126839925Y-141703133D01*
X126839925Y-141703133D02*
X126863735Y-141798371D01*
X126863735Y-141798371D02*
X126887544Y-141845990D01*
X126887544Y-141845990D02*
X126935163Y-141893609D01*
X126935163Y-141893609D02*
X127101830Y-141893609D01*
X126506592Y-141417419D02*
X126411354Y-141417419D01*
X126411354Y-141417419D02*
X126363735Y-141465038D01*
X126363735Y-141465038D02*
X126316116Y-141560276D01*
X126316116Y-141560276D02*
X126292306Y-141750752D01*
X126292306Y-141750752D02*
X126292306Y-142084085D01*
X126292306Y-142084085D02*
X126316116Y-142274561D01*
X126316116Y-142274561D02*
X126363735Y-142369800D01*
X126363735Y-142369800D02*
X126411354Y-142417419D01*
X126411354Y-142417419D02*
X126506592Y-142417419D01*
X126506592Y-142417419D02*
X126554211Y-142369800D01*
X126554211Y-142369800D02*
X126601830Y-142274561D01*
X126601830Y-142274561D02*
X126625639Y-142084085D01*
X126625639Y-142084085D02*
X126625639Y-141750752D01*
X126625639Y-141750752D02*
X126601830Y-141560276D01*
X126601830Y-141560276D02*
X126554211Y-141465038D01*
X126554211Y-141465038D02*
X126506592Y-141417419D01*
X125982782Y-141417419D02*
X125887544Y-141417419D01*
X125887544Y-141417419D02*
X125839925Y-141465038D01*
X125839925Y-141465038D02*
X125792306Y-141560276D01*
X125792306Y-141560276D02*
X125768496Y-141750752D01*
X125768496Y-141750752D02*
X125768496Y-142084085D01*
X125768496Y-142084085D02*
X125792306Y-142274561D01*
X125792306Y-142274561D02*
X125839925Y-142369800D01*
X125839925Y-142369800D02*
X125887544Y-142417419D01*
X125887544Y-142417419D02*
X125982782Y-142417419D01*
X125982782Y-142417419D02*
X126030401Y-142369800D01*
X126030401Y-142369800D02*
X126078020Y-142274561D01*
X126078020Y-142274561D02*
X126101829Y-142084085D01*
X126101829Y-142084085D02*
X126101829Y-141750752D01*
X126101829Y-141750752D02*
X126078020Y-141560276D01*
X126078020Y-141560276D02*
X126030401Y-141465038D01*
X126030401Y-141465038D02*
X125982782Y-141417419D01*
X125625638Y-141417419D02*
X125339924Y-141417419D01*
X125482781Y-142417419D02*
X125482781Y-141417419D01*
X124816115Y-142369800D02*
X124744687Y-142417419D01*
X124744687Y-142417419D02*
X124625639Y-142417419D01*
X124625639Y-142417419D02*
X124578020Y-142369800D01*
X124578020Y-142369800D02*
X124554211Y-142322180D01*
X124554211Y-142322180D02*
X124530401Y-142226942D01*
X124530401Y-142226942D02*
X124530401Y-142131704D01*
X124530401Y-142131704D02*
X124554211Y-142036466D01*
X124554211Y-142036466D02*
X124578020Y-141988847D01*
X124578020Y-141988847D02*
X124625639Y-141941228D01*
X124625639Y-141941228D02*
X124720877Y-141893609D01*
X124720877Y-141893609D02*
X124768496Y-141845990D01*
X124768496Y-141845990D02*
X124792306Y-141798371D01*
X124792306Y-141798371D02*
X124816115Y-141703133D01*
X124816115Y-141703133D02*
X124816115Y-141607895D01*
X124816115Y-141607895D02*
X124792306Y-141512657D01*
X124792306Y-141512657D02*
X124768496Y-141465038D01*
X124768496Y-141465038D02*
X124720877Y-141417419D01*
X124720877Y-141417419D02*
X124601830Y-141417419D01*
X124601830Y-141417419D02*
X124530401Y-141465038D01*
X124387544Y-141417419D02*
X124101830Y-141417419D01*
X124244687Y-142417419D02*
X124244687Y-141417419D01*
X123649450Y-142417419D02*
X123816116Y-141941228D01*
X123935164Y-142417419D02*
X123935164Y-141417419D01*
X123935164Y-141417419D02*
X123744688Y-141417419D01*
X123744688Y-141417419D02*
X123697069Y-141465038D01*
X123697069Y-141465038D02*
X123673259Y-141512657D01*
X123673259Y-141512657D02*
X123649450Y-141607895D01*
X123649450Y-141607895D02*
X123649450Y-141750752D01*
X123649450Y-141750752D02*
X123673259Y-141845990D01*
X123673259Y-141845990D02*
X123697069Y-141893609D01*
X123697069Y-141893609D02*
X123744688Y-141941228D01*
X123744688Y-141941228D02*
X123935164Y-141941228D01*
X123458973Y-142131704D02*
X123220878Y-142131704D01*
X123506592Y-142417419D02*
X123339926Y-141417419D01*
X123339926Y-141417419D02*
X123173259Y-142417419D01*
X123006593Y-142417419D02*
X123006593Y-141417419D01*
X123006593Y-141417419D02*
X122816117Y-141417419D01*
X122816117Y-141417419D02*
X122768498Y-141465038D01*
X122768498Y-141465038D02*
X122744688Y-141512657D01*
X122744688Y-141512657D02*
X122720879Y-141607895D01*
X122720879Y-141607895D02*
X122720879Y-141750752D01*
X122720879Y-141750752D02*
X122744688Y-141845990D01*
X122744688Y-141845990D02*
X122768498Y-141893609D01*
X122768498Y-141893609D02*
X122816117Y-141941228D01*
X122816117Y-141941228D02*
X123006593Y-141941228D01*
X122554212Y-142798371D02*
X122530402Y-142750752D01*
X122530402Y-142750752D02*
X122482783Y-142607895D01*
X122482783Y-142607895D02*
X122458974Y-142512657D01*
X122458974Y-142512657D02*
X122435164Y-142369800D01*
X122435164Y-142369800D02*
X122411355Y-142131704D01*
X122411355Y-142131704D02*
X122411355Y-141941228D01*
X122411355Y-141941228D02*
X122435164Y-141703133D01*
X122435164Y-141703133D02*
X122458974Y-141560276D01*
X122458974Y-141560276D02*
X122482783Y-141465038D01*
X122482783Y-141465038D02*
X122530402Y-141322180D01*
X122530402Y-141322180D02*
X122554212Y-141274561D01*
X112076115Y-117017419D02*
X112076115Y-116017419D01*
X111409449Y-116017419D02*
X111218973Y-116017419D01*
X111218973Y-116017419D02*
X111123735Y-116065038D01*
X111123735Y-116065038D02*
X111028497Y-116160276D01*
X111028497Y-116160276D02*
X110980878Y-116350752D01*
X110980878Y-116350752D02*
X110980878Y-116684085D01*
X110980878Y-116684085D02*
X111028497Y-116874561D01*
X111028497Y-116874561D02*
X111123735Y-116969800D01*
X111123735Y-116969800D02*
X111218973Y-117017419D01*
X111218973Y-117017419D02*
X111409449Y-117017419D01*
X111409449Y-117017419D02*
X111504687Y-116969800D01*
X111504687Y-116969800D02*
X111599925Y-116874561D01*
X111599925Y-116874561D02*
X111647544Y-116684085D01*
X111647544Y-116684085D02*
X111647544Y-116350752D01*
X111647544Y-116350752D02*
X111599925Y-116160276D01*
X111599925Y-116160276D02*
X111504687Y-116065038D01*
X111504687Y-116065038D02*
X111409449Y-116017419D01*
X110028497Y-117017419D02*
X110599925Y-117017419D01*
X110314211Y-117017419D02*
X110314211Y-116017419D01*
X110314211Y-116017419D02*
X110409449Y-116160276D01*
X110409449Y-116160276D02*
X110504687Y-116255514D01*
X110504687Y-116255514D02*
X110599925Y-116303133D01*
X109123735Y-116017419D02*
X109599925Y-116017419D01*
X109599925Y-116017419D02*
X109647544Y-116493609D01*
X109647544Y-116493609D02*
X109599925Y-116445990D01*
X109599925Y-116445990D02*
X109504687Y-116398371D01*
X109504687Y-116398371D02*
X109266592Y-116398371D01*
X109266592Y-116398371D02*
X109171354Y-116445990D01*
X109171354Y-116445990D02*
X109123735Y-116493609D01*
X109123735Y-116493609D02*
X109076116Y-116588847D01*
X109076116Y-116588847D02*
X109076116Y-116826942D01*
X109076116Y-116826942D02*
X109123735Y-116922180D01*
X109123735Y-116922180D02*
X109171354Y-116969800D01*
X109171354Y-116969800D02*
X109266592Y-117017419D01*
X109266592Y-117017419D02*
X109504687Y-117017419D01*
X109504687Y-117017419D02*
X109599925Y-116969800D01*
X109599925Y-116969800D02*
X109647544Y-116922180D01*
X119696115Y-138877419D02*
X119696115Y-139686942D01*
X119696115Y-139686942D02*
X119648496Y-139782180D01*
X119648496Y-139782180D02*
X119600877Y-139829800D01*
X119600877Y-139829800D02*
X119505639Y-139877419D01*
X119505639Y-139877419D02*
X119315163Y-139877419D01*
X119315163Y-139877419D02*
X119219925Y-139829800D01*
X119219925Y-139829800D02*
X119172306Y-139782180D01*
X119172306Y-139782180D02*
X119124687Y-139686942D01*
X119124687Y-139686942D02*
X119124687Y-138877419D01*
X118696115Y-139829800D02*
X118553258Y-139877419D01*
X118553258Y-139877419D02*
X118315163Y-139877419D01*
X118315163Y-139877419D02*
X118219925Y-139829800D01*
X118219925Y-139829800D02*
X118172306Y-139782180D01*
X118172306Y-139782180D02*
X118124687Y-139686942D01*
X118124687Y-139686942D02*
X118124687Y-139591704D01*
X118124687Y-139591704D02*
X118172306Y-139496466D01*
X118172306Y-139496466D02*
X118219925Y-139448847D01*
X118219925Y-139448847D02*
X118315163Y-139401228D01*
X118315163Y-139401228D02*
X118505639Y-139353609D01*
X118505639Y-139353609D02*
X118600877Y-139305990D01*
X118600877Y-139305990D02*
X118648496Y-139258371D01*
X118648496Y-139258371D02*
X118696115Y-139163133D01*
X118696115Y-139163133D02*
X118696115Y-139067895D01*
X118696115Y-139067895D02*
X118648496Y-138972657D01*
X118648496Y-138972657D02*
X118600877Y-138925038D01*
X118600877Y-138925038D02*
X118505639Y-138877419D01*
X118505639Y-138877419D02*
X118267544Y-138877419D01*
X118267544Y-138877419D02*
X118124687Y-138925038D01*
X117362782Y-139353609D02*
X117219925Y-139401228D01*
X117219925Y-139401228D02*
X117172306Y-139448847D01*
X117172306Y-139448847D02*
X117124687Y-139544085D01*
X117124687Y-139544085D02*
X117124687Y-139686942D01*
X117124687Y-139686942D02*
X117172306Y-139782180D01*
X117172306Y-139782180D02*
X117219925Y-139829800D01*
X117219925Y-139829800D02*
X117315163Y-139877419D01*
X117315163Y-139877419D02*
X117696115Y-139877419D01*
X117696115Y-139877419D02*
X117696115Y-138877419D01*
X117696115Y-138877419D02*
X117362782Y-138877419D01*
X117362782Y-138877419D02*
X117267544Y-138925038D01*
X117267544Y-138925038D02*
X117219925Y-138972657D01*
X117219925Y-138972657D02*
X117172306Y-139067895D01*
X117172306Y-139067895D02*
X117172306Y-139163133D01*
X117172306Y-139163133D02*
X117219925Y-139258371D01*
X117219925Y-139258371D02*
X117267544Y-139305990D01*
X117267544Y-139305990D02*
X117362782Y-139353609D01*
X117362782Y-139353609D02*
X117696115Y-139353609D01*
X116934211Y-139972657D02*
X116172306Y-139972657D01*
X115934210Y-139877419D02*
X115934210Y-138877419D01*
X115934210Y-138877419D02*
X115696115Y-138877419D01*
X115696115Y-138877419D02*
X115553258Y-138925038D01*
X115553258Y-138925038D02*
X115458020Y-139020276D01*
X115458020Y-139020276D02*
X115410401Y-139115514D01*
X115410401Y-139115514D02*
X115362782Y-139305990D01*
X115362782Y-139305990D02*
X115362782Y-139448847D01*
X115362782Y-139448847D02*
X115410401Y-139639323D01*
X115410401Y-139639323D02*
X115458020Y-139734561D01*
X115458020Y-139734561D02*
X115553258Y-139829800D01*
X115553258Y-139829800D02*
X115696115Y-139877419D01*
X115696115Y-139877419D02*
X115934210Y-139877419D01*
X114934210Y-139496466D02*
X114172306Y-139496466D01*
X112648496Y-140258371D02*
X112696115Y-140210752D01*
X112696115Y-140210752D02*
X112791353Y-140067895D01*
X112791353Y-140067895D02*
X112838972Y-139972657D01*
X112838972Y-139972657D02*
X112886591Y-139829800D01*
X112886591Y-139829800D02*
X112934210Y-139591704D01*
X112934210Y-139591704D02*
X112934210Y-139401228D01*
X112934210Y-139401228D02*
X112886591Y-139163133D01*
X112886591Y-139163133D02*
X112838972Y-139020276D01*
X112838972Y-139020276D02*
X112791353Y-138925038D01*
X112791353Y-138925038D02*
X112696115Y-138782180D01*
X112696115Y-138782180D02*
X112648496Y-138734561D01*
X112267543Y-139877419D02*
X112267543Y-138877419D01*
X111600877Y-138877419D02*
X111410401Y-138877419D01*
X111410401Y-138877419D02*
X111315163Y-138925038D01*
X111315163Y-138925038D02*
X111219925Y-139020276D01*
X111219925Y-139020276D02*
X111172306Y-139210752D01*
X111172306Y-139210752D02*
X111172306Y-139544085D01*
X111172306Y-139544085D02*
X111219925Y-139734561D01*
X111219925Y-139734561D02*
X111315163Y-139829800D01*
X111315163Y-139829800D02*
X111410401Y-139877419D01*
X111410401Y-139877419D02*
X111600877Y-139877419D01*
X111600877Y-139877419D02*
X111696115Y-139829800D01*
X111696115Y-139829800D02*
X111791353Y-139734561D01*
X111791353Y-139734561D02*
X111838972Y-139544085D01*
X111838972Y-139544085D02*
X111838972Y-139210752D01*
X111838972Y-139210752D02*
X111791353Y-139020276D01*
X111791353Y-139020276D02*
X111696115Y-138925038D01*
X111696115Y-138925038D02*
X111600877Y-138877419D01*
X110219925Y-139877419D02*
X110791353Y-139877419D01*
X110505639Y-139877419D02*
X110505639Y-138877419D01*
X110505639Y-138877419D02*
X110600877Y-139020276D01*
X110600877Y-139020276D02*
X110696115Y-139115514D01*
X110696115Y-139115514D02*
X110791353Y-139163133D01*
X109743734Y-139877419D02*
X109553258Y-139877419D01*
X109553258Y-139877419D02*
X109458020Y-139829800D01*
X109458020Y-139829800D02*
X109410401Y-139782180D01*
X109410401Y-139782180D02*
X109315163Y-139639323D01*
X109315163Y-139639323D02*
X109267544Y-139448847D01*
X109267544Y-139448847D02*
X109267544Y-139067895D01*
X109267544Y-139067895D02*
X109315163Y-138972657D01*
X109315163Y-138972657D02*
X109362782Y-138925038D01*
X109362782Y-138925038D02*
X109458020Y-138877419D01*
X109458020Y-138877419D02*
X109648496Y-138877419D01*
X109648496Y-138877419D02*
X109743734Y-138925038D01*
X109743734Y-138925038D02*
X109791353Y-138972657D01*
X109791353Y-138972657D02*
X109838972Y-139067895D01*
X109838972Y-139067895D02*
X109838972Y-139305990D01*
X109838972Y-139305990D02*
X109791353Y-139401228D01*
X109791353Y-139401228D02*
X109743734Y-139448847D01*
X109743734Y-139448847D02*
X109648496Y-139496466D01*
X109648496Y-139496466D02*
X109458020Y-139496466D01*
X109458020Y-139496466D02*
X109362782Y-139448847D01*
X109362782Y-139448847D02*
X109315163Y-139401228D01*
X109315163Y-139401228D02*
X109267544Y-139305990D01*
X108934210Y-140258371D02*
X108886591Y-140210752D01*
X108886591Y-140210752D02*
X108791353Y-140067895D01*
X108791353Y-140067895D02*
X108743734Y-139972657D01*
X108743734Y-139972657D02*
X108696115Y-139829800D01*
X108696115Y-139829800D02*
X108648496Y-139591704D01*
X108648496Y-139591704D02*
X108648496Y-139401228D01*
X108648496Y-139401228D02*
X108696115Y-139163133D01*
X108696115Y-139163133D02*
X108743734Y-139020276D01*
X108743734Y-139020276D02*
X108791353Y-138925038D01*
X108791353Y-138925038D02*
X108886591Y-138782180D01*
X108886591Y-138782180D02*
X108934210Y-138734561D01*
X127292306Y-104698371D02*
X127316115Y-104650752D01*
X127316115Y-104650752D02*
X127363734Y-104507895D01*
X127363734Y-104507895D02*
X127387544Y-104412657D01*
X127387544Y-104412657D02*
X127411353Y-104269800D01*
X127411353Y-104269800D02*
X127435163Y-104031704D01*
X127435163Y-104031704D02*
X127435163Y-103841228D01*
X127435163Y-103841228D02*
X127411353Y-103603133D01*
X127411353Y-103603133D02*
X127387544Y-103460276D01*
X127387544Y-103460276D02*
X127363734Y-103365038D01*
X127363734Y-103365038D02*
X127316115Y-103222180D01*
X127316115Y-103222180D02*
X127292306Y-103174561D01*
X127101830Y-103793609D02*
X126935163Y-103793609D01*
X126863735Y-104317419D02*
X127101830Y-104317419D01*
X127101830Y-104317419D02*
X127101830Y-103317419D01*
X127101830Y-103317419D02*
X126863735Y-103317419D01*
X126673258Y-104269800D02*
X126601830Y-104317419D01*
X126601830Y-104317419D02*
X126482782Y-104317419D01*
X126482782Y-104317419D02*
X126435163Y-104269800D01*
X126435163Y-104269800D02*
X126411354Y-104222180D01*
X126411354Y-104222180D02*
X126387544Y-104126942D01*
X126387544Y-104126942D02*
X126387544Y-104031704D01*
X126387544Y-104031704D02*
X126411354Y-103936466D01*
X126411354Y-103936466D02*
X126435163Y-103888847D01*
X126435163Y-103888847D02*
X126482782Y-103841228D01*
X126482782Y-103841228D02*
X126578020Y-103793609D01*
X126578020Y-103793609D02*
X126625639Y-103745990D01*
X126625639Y-103745990D02*
X126649449Y-103698371D01*
X126649449Y-103698371D02*
X126673258Y-103603133D01*
X126673258Y-103603133D02*
X126673258Y-103507895D01*
X126673258Y-103507895D02*
X126649449Y-103412657D01*
X126649449Y-103412657D02*
X126625639Y-103365038D01*
X126625639Y-103365038D02*
X126578020Y-103317419D01*
X126578020Y-103317419D02*
X126458973Y-103317419D01*
X126458973Y-103317419D02*
X126387544Y-103365038D01*
X126173259Y-104317419D02*
X126173259Y-103317419D01*
X126173259Y-103317419D02*
X125982783Y-103317419D01*
X125982783Y-103317419D02*
X125935164Y-103365038D01*
X125935164Y-103365038D02*
X125911354Y-103412657D01*
X125911354Y-103412657D02*
X125887545Y-103507895D01*
X125887545Y-103507895D02*
X125887545Y-103650752D01*
X125887545Y-103650752D02*
X125911354Y-103745990D01*
X125911354Y-103745990D02*
X125935164Y-103793609D01*
X125935164Y-103793609D02*
X125982783Y-103841228D01*
X125982783Y-103841228D02*
X126173259Y-103841228D01*
X125744687Y-103317419D02*
X125458973Y-103317419D01*
X125601830Y-104317419D02*
X125601830Y-103317419D01*
X125197069Y-103317419D02*
X125101831Y-103317419D01*
X125101831Y-103317419D02*
X125054212Y-103365038D01*
X125054212Y-103365038D02*
X125006593Y-103460276D01*
X125006593Y-103460276D02*
X124982783Y-103650752D01*
X124982783Y-103650752D02*
X124982783Y-103984085D01*
X124982783Y-103984085D02*
X125006593Y-104174561D01*
X125006593Y-104174561D02*
X125054212Y-104269800D01*
X125054212Y-104269800D02*
X125101831Y-104317419D01*
X125101831Y-104317419D02*
X125197069Y-104317419D01*
X125197069Y-104317419D02*
X125244688Y-104269800D01*
X125244688Y-104269800D02*
X125292307Y-104174561D01*
X125292307Y-104174561D02*
X125316116Y-103984085D01*
X125316116Y-103984085D02*
X125316116Y-103650752D01*
X125316116Y-103650752D02*
X125292307Y-103460276D01*
X125292307Y-103460276D02*
X125244688Y-103365038D01*
X125244688Y-103365038D02*
X125197069Y-103317419D01*
X124673259Y-103317419D02*
X124578021Y-103317419D01*
X124578021Y-103317419D02*
X124530402Y-103365038D01*
X124530402Y-103365038D02*
X124482783Y-103460276D01*
X124482783Y-103460276D02*
X124458973Y-103650752D01*
X124458973Y-103650752D02*
X124458973Y-103984085D01*
X124458973Y-103984085D02*
X124482783Y-104174561D01*
X124482783Y-104174561D02*
X124530402Y-104269800D01*
X124530402Y-104269800D02*
X124578021Y-104317419D01*
X124578021Y-104317419D02*
X124673259Y-104317419D01*
X124673259Y-104317419D02*
X124720878Y-104269800D01*
X124720878Y-104269800D02*
X124768497Y-104174561D01*
X124768497Y-104174561D02*
X124792306Y-103984085D01*
X124792306Y-103984085D02*
X124792306Y-103650752D01*
X124792306Y-103650752D02*
X124768497Y-103460276D01*
X124768497Y-103460276D02*
X124720878Y-103365038D01*
X124720878Y-103365038D02*
X124673259Y-103317419D01*
X124006592Y-104317419D02*
X124244687Y-104317419D01*
X124244687Y-104317419D02*
X124244687Y-103317419D01*
X123292306Y-103793609D02*
X123220878Y-103841228D01*
X123220878Y-103841228D02*
X123197068Y-103888847D01*
X123197068Y-103888847D02*
X123173259Y-103984085D01*
X123173259Y-103984085D02*
X123173259Y-104126942D01*
X123173259Y-104126942D02*
X123197068Y-104222180D01*
X123197068Y-104222180D02*
X123220878Y-104269800D01*
X123220878Y-104269800D02*
X123268497Y-104317419D01*
X123268497Y-104317419D02*
X123458973Y-104317419D01*
X123458973Y-104317419D02*
X123458973Y-103317419D01*
X123458973Y-103317419D02*
X123292306Y-103317419D01*
X123292306Y-103317419D02*
X123244687Y-103365038D01*
X123244687Y-103365038D02*
X123220878Y-103412657D01*
X123220878Y-103412657D02*
X123197068Y-103507895D01*
X123197068Y-103507895D02*
X123197068Y-103603133D01*
X123197068Y-103603133D02*
X123220878Y-103698371D01*
X123220878Y-103698371D02*
X123244687Y-103745990D01*
X123244687Y-103745990D02*
X123292306Y-103793609D01*
X123292306Y-103793609D02*
X123458973Y-103793609D01*
X122863735Y-103317419D02*
X122768497Y-103317419D01*
X122768497Y-103317419D02*
X122720878Y-103365038D01*
X122720878Y-103365038D02*
X122673259Y-103460276D01*
X122673259Y-103460276D02*
X122649449Y-103650752D01*
X122649449Y-103650752D02*
X122649449Y-103984085D01*
X122649449Y-103984085D02*
X122673259Y-104174561D01*
X122673259Y-104174561D02*
X122720878Y-104269800D01*
X122720878Y-104269800D02*
X122768497Y-104317419D01*
X122768497Y-104317419D02*
X122863735Y-104317419D01*
X122863735Y-104317419D02*
X122911354Y-104269800D01*
X122911354Y-104269800D02*
X122958973Y-104174561D01*
X122958973Y-104174561D02*
X122982782Y-103984085D01*
X122982782Y-103984085D02*
X122982782Y-103650752D01*
X122982782Y-103650752D02*
X122958973Y-103460276D01*
X122958973Y-103460276D02*
X122911354Y-103365038D01*
X122911354Y-103365038D02*
X122863735Y-103317419D01*
X122339925Y-103317419D02*
X122244687Y-103317419D01*
X122244687Y-103317419D02*
X122197068Y-103365038D01*
X122197068Y-103365038D02*
X122149449Y-103460276D01*
X122149449Y-103460276D02*
X122125639Y-103650752D01*
X122125639Y-103650752D02*
X122125639Y-103984085D01*
X122125639Y-103984085D02*
X122149449Y-104174561D01*
X122149449Y-104174561D02*
X122197068Y-104269800D01*
X122197068Y-104269800D02*
X122244687Y-104317419D01*
X122244687Y-104317419D02*
X122339925Y-104317419D01*
X122339925Y-104317419D02*
X122387544Y-104269800D01*
X122387544Y-104269800D02*
X122435163Y-104174561D01*
X122435163Y-104174561D02*
X122458972Y-103984085D01*
X122458972Y-103984085D02*
X122458972Y-103650752D01*
X122458972Y-103650752D02*
X122435163Y-103460276D01*
X122435163Y-103460276D02*
X122387544Y-103365038D01*
X122387544Y-103365038D02*
X122339925Y-103317419D01*
X121982781Y-103317419D02*
X121697067Y-103317419D01*
X121839924Y-104317419D02*
X121839924Y-103317419D01*
X121578020Y-104698371D02*
X121554210Y-104650752D01*
X121554210Y-104650752D02*
X121506591Y-104507895D01*
X121506591Y-104507895D02*
X121482782Y-104412657D01*
X121482782Y-104412657D02*
X121458972Y-104269800D01*
X121458972Y-104269800D02*
X121435163Y-104031704D01*
X121435163Y-104031704D02*
X121435163Y-103841228D01*
X121435163Y-103841228D02*
X121458972Y-103603133D01*
X121458972Y-103603133D02*
X121482782Y-103460276D01*
X121482782Y-103460276D02*
X121506591Y-103365038D01*
X121506591Y-103365038D02*
X121554210Y-103222180D01*
X121554210Y-103222180D02*
X121578020Y-103174561D01*
X130491115Y-104317419D02*
X130491115Y-103317419D01*
X129824449Y-103317419D02*
X129633973Y-103317419D01*
X129633973Y-103317419D02*
X129538735Y-103365038D01*
X129538735Y-103365038D02*
X129443497Y-103460276D01*
X129443497Y-103460276D02*
X129395878Y-103650752D01*
X129395878Y-103650752D02*
X129395878Y-103984085D01*
X129395878Y-103984085D02*
X129443497Y-104174561D01*
X129443497Y-104174561D02*
X129538735Y-104269800D01*
X129538735Y-104269800D02*
X129633973Y-104317419D01*
X129633973Y-104317419D02*
X129824449Y-104317419D01*
X129824449Y-104317419D02*
X129919687Y-104269800D01*
X129919687Y-104269800D02*
X130014925Y-104174561D01*
X130014925Y-104174561D02*
X130062544Y-103984085D01*
X130062544Y-103984085D02*
X130062544Y-103650752D01*
X130062544Y-103650752D02*
X130014925Y-103460276D01*
X130014925Y-103460276D02*
X129919687Y-103365038D01*
X129919687Y-103365038D02*
X129824449Y-103317419D01*
X129014925Y-103412657D02*
X128967306Y-103365038D01*
X128967306Y-103365038D02*
X128872068Y-103317419D01*
X128872068Y-103317419D02*
X128633973Y-103317419D01*
X128633973Y-103317419D02*
X128538735Y-103365038D01*
X128538735Y-103365038D02*
X128491116Y-103412657D01*
X128491116Y-103412657D02*
X128443497Y-103507895D01*
X128443497Y-103507895D02*
X128443497Y-103603133D01*
X128443497Y-103603133D02*
X128491116Y-103745990D01*
X128491116Y-103745990D02*
X129062544Y-104317419D01*
X129062544Y-104317419D02*
X128443497Y-104317419D01*
X119696115Y-141417419D02*
X119696115Y-142226942D01*
X119696115Y-142226942D02*
X119648496Y-142322180D01*
X119648496Y-142322180D02*
X119600877Y-142369800D01*
X119600877Y-142369800D02*
X119505639Y-142417419D01*
X119505639Y-142417419D02*
X119315163Y-142417419D01*
X119315163Y-142417419D02*
X119219925Y-142369800D01*
X119219925Y-142369800D02*
X119172306Y-142322180D01*
X119172306Y-142322180D02*
X119124687Y-142226942D01*
X119124687Y-142226942D02*
X119124687Y-141417419D01*
X118696115Y-142369800D02*
X118553258Y-142417419D01*
X118553258Y-142417419D02*
X118315163Y-142417419D01*
X118315163Y-142417419D02*
X118219925Y-142369800D01*
X118219925Y-142369800D02*
X118172306Y-142322180D01*
X118172306Y-142322180D02*
X118124687Y-142226942D01*
X118124687Y-142226942D02*
X118124687Y-142131704D01*
X118124687Y-142131704D02*
X118172306Y-142036466D01*
X118172306Y-142036466D02*
X118219925Y-141988847D01*
X118219925Y-141988847D02*
X118315163Y-141941228D01*
X118315163Y-141941228D02*
X118505639Y-141893609D01*
X118505639Y-141893609D02*
X118600877Y-141845990D01*
X118600877Y-141845990D02*
X118648496Y-141798371D01*
X118648496Y-141798371D02*
X118696115Y-141703133D01*
X118696115Y-141703133D02*
X118696115Y-141607895D01*
X118696115Y-141607895D02*
X118648496Y-141512657D01*
X118648496Y-141512657D02*
X118600877Y-141465038D01*
X118600877Y-141465038D02*
X118505639Y-141417419D01*
X118505639Y-141417419D02*
X118267544Y-141417419D01*
X118267544Y-141417419D02*
X118124687Y-141465038D01*
X117362782Y-141893609D02*
X117219925Y-141941228D01*
X117219925Y-141941228D02*
X117172306Y-141988847D01*
X117172306Y-141988847D02*
X117124687Y-142084085D01*
X117124687Y-142084085D02*
X117124687Y-142226942D01*
X117124687Y-142226942D02*
X117172306Y-142322180D01*
X117172306Y-142322180D02*
X117219925Y-142369800D01*
X117219925Y-142369800D02*
X117315163Y-142417419D01*
X117315163Y-142417419D02*
X117696115Y-142417419D01*
X117696115Y-142417419D02*
X117696115Y-141417419D01*
X117696115Y-141417419D02*
X117362782Y-141417419D01*
X117362782Y-141417419D02*
X117267544Y-141465038D01*
X117267544Y-141465038D02*
X117219925Y-141512657D01*
X117219925Y-141512657D02*
X117172306Y-141607895D01*
X117172306Y-141607895D02*
X117172306Y-141703133D01*
X117172306Y-141703133D02*
X117219925Y-141798371D01*
X117219925Y-141798371D02*
X117267544Y-141845990D01*
X117267544Y-141845990D02*
X117362782Y-141893609D01*
X117362782Y-141893609D02*
X117696115Y-141893609D01*
X116934211Y-142512657D02*
X116172306Y-142512657D01*
X115934210Y-142417419D02*
X115934210Y-141417419D01*
X115934210Y-141417419D02*
X115696115Y-141417419D01*
X115696115Y-141417419D02*
X115553258Y-141465038D01*
X115553258Y-141465038D02*
X115458020Y-141560276D01*
X115458020Y-141560276D02*
X115410401Y-141655514D01*
X115410401Y-141655514D02*
X115362782Y-141845990D01*
X115362782Y-141845990D02*
X115362782Y-141988847D01*
X115362782Y-141988847D02*
X115410401Y-142179323D01*
X115410401Y-142179323D02*
X115458020Y-142274561D01*
X115458020Y-142274561D02*
X115553258Y-142369800D01*
X115553258Y-142369800D02*
X115696115Y-142417419D01*
X115696115Y-142417419D02*
X115934210Y-142417419D01*
X114934210Y-142036466D02*
X114172306Y-142036466D01*
X114553258Y-142417419D02*
X114553258Y-141655514D01*
X112648496Y-142798371D02*
X112696115Y-142750752D01*
X112696115Y-142750752D02*
X112791353Y-142607895D01*
X112791353Y-142607895D02*
X112838972Y-142512657D01*
X112838972Y-142512657D02*
X112886591Y-142369800D01*
X112886591Y-142369800D02*
X112934210Y-142131704D01*
X112934210Y-142131704D02*
X112934210Y-141941228D01*
X112934210Y-141941228D02*
X112886591Y-141703133D01*
X112886591Y-141703133D02*
X112838972Y-141560276D01*
X112838972Y-141560276D02*
X112791353Y-141465038D01*
X112791353Y-141465038D02*
X112696115Y-141322180D01*
X112696115Y-141322180D02*
X112648496Y-141274561D01*
X112267543Y-142417419D02*
X112267543Y-141417419D01*
X111600877Y-141417419D02*
X111410401Y-141417419D01*
X111410401Y-141417419D02*
X111315163Y-141465038D01*
X111315163Y-141465038D02*
X111219925Y-141560276D01*
X111219925Y-141560276D02*
X111172306Y-141750752D01*
X111172306Y-141750752D02*
X111172306Y-142084085D01*
X111172306Y-142084085D02*
X111219925Y-142274561D01*
X111219925Y-142274561D02*
X111315163Y-142369800D01*
X111315163Y-142369800D02*
X111410401Y-142417419D01*
X111410401Y-142417419D02*
X111600877Y-142417419D01*
X111600877Y-142417419D02*
X111696115Y-142369800D01*
X111696115Y-142369800D02*
X111791353Y-142274561D01*
X111791353Y-142274561D02*
X111838972Y-142084085D01*
X111838972Y-142084085D02*
X111838972Y-141750752D01*
X111838972Y-141750752D02*
X111791353Y-141560276D01*
X111791353Y-141560276D02*
X111696115Y-141465038D01*
X111696115Y-141465038D02*
X111600877Y-141417419D01*
X110791353Y-141512657D02*
X110743734Y-141465038D01*
X110743734Y-141465038D02*
X110648496Y-141417419D01*
X110648496Y-141417419D02*
X110410401Y-141417419D01*
X110410401Y-141417419D02*
X110315163Y-141465038D01*
X110315163Y-141465038D02*
X110267544Y-141512657D01*
X110267544Y-141512657D02*
X110219925Y-141607895D01*
X110219925Y-141607895D02*
X110219925Y-141703133D01*
X110219925Y-141703133D02*
X110267544Y-141845990D01*
X110267544Y-141845990D02*
X110838972Y-142417419D01*
X110838972Y-142417419D02*
X110219925Y-142417419D01*
X109600877Y-141417419D02*
X109505639Y-141417419D01*
X109505639Y-141417419D02*
X109410401Y-141465038D01*
X109410401Y-141465038D02*
X109362782Y-141512657D01*
X109362782Y-141512657D02*
X109315163Y-141607895D01*
X109315163Y-141607895D02*
X109267544Y-141798371D01*
X109267544Y-141798371D02*
X109267544Y-142036466D01*
X109267544Y-142036466D02*
X109315163Y-142226942D01*
X109315163Y-142226942D02*
X109362782Y-142322180D01*
X109362782Y-142322180D02*
X109410401Y-142369800D01*
X109410401Y-142369800D02*
X109505639Y-142417419D01*
X109505639Y-142417419D02*
X109600877Y-142417419D01*
X109600877Y-142417419D02*
X109696115Y-142369800D01*
X109696115Y-142369800D02*
X109743734Y-142322180D01*
X109743734Y-142322180D02*
X109791353Y-142226942D01*
X109791353Y-142226942D02*
X109838972Y-142036466D01*
X109838972Y-142036466D02*
X109838972Y-141798371D01*
X109838972Y-141798371D02*
X109791353Y-141607895D01*
X109791353Y-141607895D02*
X109743734Y-141512657D01*
X109743734Y-141512657D02*
X109696115Y-141465038D01*
X109696115Y-141465038D02*
X109600877Y-141417419D01*
X108934210Y-142798371D02*
X108886591Y-142750752D01*
X108886591Y-142750752D02*
X108791353Y-142607895D01*
X108791353Y-142607895D02*
X108743734Y-142512657D01*
X108743734Y-142512657D02*
X108696115Y-142369800D01*
X108696115Y-142369800D02*
X108648496Y-142131704D01*
X108648496Y-142131704D02*
X108648496Y-141941228D01*
X108648496Y-141941228D02*
X108696115Y-141703133D01*
X108696115Y-141703133D02*
X108743734Y-141560276D01*
X108743734Y-141560276D02*
X108791353Y-141465038D01*
X108791353Y-141465038D02*
X108886591Y-141322180D01*
X108886591Y-141322180D02*
X108934210Y-141274561D01*
X117767306Y-147878371D02*
X117791115Y-147830752D01*
X117791115Y-147830752D02*
X117838734Y-147687895D01*
X117838734Y-147687895D02*
X117862544Y-147592657D01*
X117862544Y-147592657D02*
X117886353Y-147449800D01*
X117886353Y-147449800D02*
X117910163Y-147211704D01*
X117910163Y-147211704D02*
X117910163Y-147021228D01*
X117910163Y-147021228D02*
X117886353Y-146783133D01*
X117886353Y-146783133D02*
X117862544Y-146640276D01*
X117862544Y-146640276D02*
X117838734Y-146545038D01*
X117838734Y-146545038D02*
X117791115Y-146402180D01*
X117791115Y-146402180D02*
X117767306Y-146354561D01*
X117410163Y-146973609D02*
X117338735Y-147021228D01*
X117338735Y-147021228D02*
X117314925Y-147068847D01*
X117314925Y-147068847D02*
X117291116Y-147164085D01*
X117291116Y-147164085D02*
X117291116Y-147306942D01*
X117291116Y-147306942D02*
X117314925Y-147402180D01*
X117314925Y-147402180D02*
X117338735Y-147449800D01*
X117338735Y-147449800D02*
X117386354Y-147497419D01*
X117386354Y-147497419D02*
X117576830Y-147497419D01*
X117576830Y-147497419D02*
X117576830Y-146497419D01*
X117576830Y-146497419D02*
X117410163Y-146497419D01*
X117410163Y-146497419D02*
X117362544Y-146545038D01*
X117362544Y-146545038D02*
X117338735Y-146592657D01*
X117338735Y-146592657D02*
X117314925Y-146687895D01*
X117314925Y-146687895D02*
X117314925Y-146783133D01*
X117314925Y-146783133D02*
X117338735Y-146878371D01*
X117338735Y-146878371D02*
X117362544Y-146925990D01*
X117362544Y-146925990D02*
X117410163Y-146973609D01*
X117410163Y-146973609D02*
X117576830Y-146973609D01*
X116981592Y-146497419D02*
X116886354Y-146497419D01*
X116886354Y-146497419D02*
X116838735Y-146545038D01*
X116838735Y-146545038D02*
X116791116Y-146640276D01*
X116791116Y-146640276D02*
X116767306Y-146830752D01*
X116767306Y-146830752D02*
X116767306Y-147164085D01*
X116767306Y-147164085D02*
X116791116Y-147354561D01*
X116791116Y-147354561D02*
X116838735Y-147449800D01*
X116838735Y-147449800D02*
X116886354Y-147497419D01*
X116886354Y-147497419D02*
X116981592Y-147497419D01*
X116981592Y-147497419D02*
X117029211Y-147449800D01*
X117029211Y-147449800D02*
X117076830Y-147354561D01*
X117076830Y-147354561D02*
X117100639Y-147164085D01*
X117100639Y-147164085D02*
X117100639Y-146830752D01*
X117100639Y-146830752D02*
X117076830Y-146640276D01*
X117076830Y-146640276D02*
X117029211Y-146545038D01*
X117029211Y-146545038D02*
X116981592Y-146497419D01*
X116457782Y-146497419D02*
X116362544Y-146497419D01*
X116362544Y-146497419D02*
X116314925Y-146545038D01*
X116314925Y-146545038D02*
X116267306Y-146640276D01*
X116267306Y-146640276D02*
X116243496Y-146830752D01*
X116243496Y-146830752D02*
X116243496Y-147164085D01*
X116243496Y-147164085D02*
X116267306Y-147354561D01*
X116267306Y-147354561D02*
X116314925Y-147449800D01*
X116314925Y-147449800D02*
X116362544Y-147497419D01*
X116362544Y-147497419D02*
X116457782Y-147497419D01*
X116457782Y-147497419D02*
X116505401Y-147449800D01*
X116505401Y-147449800D02*
X116553020Y-147354561D01*
X116553020Y-147354561D02*
X116576829Y-147164085D01*
X116576829Y-147164085D02*
X116576829Y-146830752D01*
X116576829Y-146830752D02*
X116553020Y-146640276D01*
X116553020Y-146640276D02*
X116505401Y-146545038D01*
X116505401Y-146545038D02*
X116457782Y-146497419D01*
X116100638Y-146497419D02*
X115814924Y-146497419D01*
X115957781Y-147497419D02*
X115957781Y-146497419D01*
X115291115Y-147449800D02*
X115219687Y-147497419D01*
X115219687Y-147497419D02*
X115100639Y-147497419D01*
X115100639Y-147497419D02*
X115053020Y-147449800D01*
X115053020Y-147449800D02*
X115029211Y-147402180D01*
X115029211Y-147402180D02*
X115005401Y-147306942D01*
X115005401Y-147306942D02*
X115005401Y-147211704D01*
X115005401Y-147211704D02*
X115029211Y-147116466D01*
X115029211Y-147116466D02*
X115053020Y-147068847D01*
X115053020Y-147068847D02*
X115100639Y-147021228D01*
X115100639Y-147021228D02*
X115195877Y-146973609D01*
X115195877Y-146973609D02*
X115243496Y-146925990D01*
X115243496Y-146925990D02*
X115267306Y-146878371D01*
X115267306Y-146878371D02*
X115291115Y-146783133D01*
X115291115Y-146783133D02*
X115291115Y-146687895D01*
X115291115Y-146687895D02*
X115267306Y-146592657D01*
X115267306Y-146592657D02*
X115243496Y-146545038D01*
X115243496Y-146545038D02*
X115195877Y-146497419D01*
X115195877Y-146497419D02*
X115076830Y-146497419D01*
X115076830Y-146497419D02*
X115005401Y-146545038D01*
X114862544Y-146497419D02*
X114576830Y-146497419D01*
X114719687Y-147497419D02*
X114719687Y-146497419D01*
X114124450Y-147497419D02*
X114291116Y-147021228D01*
X114410164Y-147497419D02*
X114410164Y-146497419D01*
X114410164Y-146497419D02*
X114219688Y-146497419D01*
X114219688Y-146497419D02*
X114172069Y-146545038D01*
X114172069Y-146545038D02*
X114148259Y-146592657D01*
X114148259Y-146592657D02*
X114124450Y-146687895D01*
X114124450Y-146687895D02*
X114124450Y-146830752D01*
X114124450Y-146830752D02*
X114148259Y-146925990D01*
X114148259Y-146925990D02*
X114172069Y-146973609D01*
X114172069Y-146973609D02*
X114219688Y-147021228D01*
X114219688Y-147021228D02*
X114410164Y-147021228D01*
X113933973Y-147211704D02*
X113695878Y-147211704D01*
X113981592Y-147497419D02*
X113814926Y-146497419D01*
X113814926Y-146497419D02*
X113648259Y-147497419D01*
X113481593Y-147497419D02*
X113481593Y-146497419D01*
X113481593Y-146497419D02*
X113291117Y-146497419D01*
X113291117Y-146497419D02*
X113243498Y-146545038D01*
X113243498Y-146545038D02*
X113219688Y-146592657D01*
X113219688Y-146592657D02*
X113195879Y-146687895D01*
X113195879Y-146687895D02*
X113195879Y-146830752D01*
X113195879Y-146830752D02*
X113219688Y-146925990D01*
X113219688Y-146925990D02*
X113243498Y-146973609D01*
X113243498Y-146973609D02*
X113291117Y-147021228D01*
X113291117Y-147021228D02*
X113481593Y-147021228D01*
X113029212Y-147878371D02*
X113005402Y-147830752D01*
X113005402Y-147830752D02*
X112957783Y-147687895D01*
X112957783Y-147687895D02*
X112933974Y-147592657D01*
X112933974Y-147592657D02*
X112910164Y-147449800D01*
X112910164Y-147449800D02*
X112886355Y-147211704D01*
X112886355Y-147211704D02*
X112886355Y-147021228D01*
X112886355Y-147021228D02*
X112910164Y-146783133D01*
X112910164Y-146783133D02*
X112933974Y-146640276D01*
X112933974Y-146640276D02*
X112957783Y-146545038D01*
X112957783Y-146545038D02*
X113005402Y-146402180D01*
X113005402Y-146402180D02*
X113029212Y-146354561D01*
X130491115Y-132892419D02*
X130491115Y-131892419D01*
X129824449Y-131892419D02*
X129633973Y-131892419D01*
X129633973Y-131892419D02*
X129538735Y-131940038D01*
X129538735Y-131940038D02*
X129443497Y-132035276D01*
X129443497Y-132035276D02*
X129395878Y-132225752D01*
X129395878Y-132225752D02*
X129395878Y-132559085D01*
X129395878Y-132559085D02*
X129443497Y-132749561D01*
X129443497Y-132749561D02*
X129538735Y-132844800D01*
X129538735Y-132844800D02*
X129633973Y-132892419D01*
X129633973Y-132892419D02*
X129824449Y-132892419D01*
X129824449Y-132892419D02*
X129919687Y-132844800D01*
X129919687Y-132844800D02*
X130014925Y-132749561D01*
X130014925Y-132749561D02*
X130062544Y-132559085D01*
X130062544Y-132559085D02*
X130062544Y-132225752D01*
X130062544Y-132225752D02*
X130014925Y-132035276D01*
X130014925Y-132035276D02*
X129919687Y-131940038D01*
X129919687Y-131940038D02*
X129824449Y-131892419D01*
X129062544Y-131892419D02*
X128443497Y-131892419D01*
X128443497Y-131892419D02*
X128776830Y-132273371D01*
X128776830Y-132273371D02*
X128633973Y-132273371D01*
X128633973Y-132273371D02*
X128538735Y-132320990D01*
X128538735Y-132320990D02*
X128491116Y-132368609D01*
X128491116Y-132368609D02*
X128443497Y-132463847D01*
X128443497Y-132463847D02*
X128443497Y-132701942D01*
X128443497Y-132701942D02*
X128491116Y-132797180D01*
X128491116Y-132797180D02*
X128538735Y-132844800D01*
X128538735Y-132844800D02*
X128633973Y-132892419D01*
X128633973Y-132892419D02*
X128919687Y-132892419D01*
X128919687Y-132892419D02*
X129014925Y-132844800D01*
X129014925Y-132844800D02*
X129062544Y-132797180D01*
X127872068Y-132320990D02*
X127967306Y-132273371D01*
X127967306Y-132273371D02*
X128014925Y-132225752D01*
X128014925Y-132225752D02*
X128062544Y-132130514D01*
X128062544Y-132130514D02*
X128062544Y-132082895D01*
X128062544Y-132082895D02*
X128014925Y-131987657D01*
X128014925Y-131987657D02*
X127967306Y-131940038D01*
X127967306Y-131940038D02*
X127872068Y-131892419D01*
X127872068Y-131892419D02*
X127681592Y-131892419D01*
X127681592Y-131892419D02*
X127586354Y-131940038D01*
X127586354Y-131940038D02*
X127538735Y-131987657D01*
X127538735Y-131987657D02*
X127491116Y-132082895D01*
X127491116Y-132082895D02*
X127491116Y-132130514D01*
X127491116Y-132130514D02*
X127538735Y-132225752D01*
X127538735Y-132225752D02*
X127586354Y-132273371D01*
X127586354Y-132273371D02*
X127681592Y-132320990D01*
X127681592Y-132320990D02*
X127872068Y-132320990D01*
X127872068Y-132320990D02*
X127967306Y-132368609D01*
X127967306Y-132368609D02*
X128014925Y-132416228D01*
X128014925Y-132416228D02*
X128062544Y-132511466D01*
X128062544Y-132511466D02*
X128062544Y-132701942D01*
X128062544Y-132701942D02*
X128014925Y-132797180D01*
X128014925Y-132797180D02*
X127967306Y-132844800D01*
X127967306Y-132844800D02*
X127872068Y-132892419D01*
X127872068Y-132892419D02*
X127681592Y-132892419D01*
X127681592Y-132892419D02*
X127586354Y-132844800D01*
X127586354Y-132844800D02*
X127538735Y-132797180D01*
X127538735Y-132797180D02*
X127491116Y-132701942D01*
X127491116Y-132701942D02*
X127491116Y-132511466D01*
X127491116Y-132511466D02*
X127538735Y-132416228D01*
X127538735Y-132416228D02*
X127586354Y-132368609D01*
X127586354Y-132368609D02*
X127681592Y-132320990D01*
X130491115Y-150037419D02*
X130491115Y-149037419D01*
X129824449Y-149037419D02*
X129633973Y-149037419D01*
X129633973Y-149037419D02*
X129538735Y-149085038D01*
X129538735Y-149085038D02*
X129443497Y-149180276D01*
X129443497Y-149180276D02*
X129395878Y-149370752D01*
X129395878Y-149370752D02*
X129395878Y-149704085D01*
X129395878Y-149704085D02*
X129443497Y-149894561D01*
X129443497Y-149894561D02*
X129538735Y-149989800D01*
X129538735Y-149989800D02*
X129633973Y-150037419D01*
X129633973Y-150037419D02*
X129824449Y-150037419D01*
X129824449Y-150037419D02*
X129919687Y-149989800D01*
X129919687Y-149989800D02*
X130014925Y-149894561D01*
X130014925Y-149894561D02*
X130062544Y-149704085D01*
X130062544Y-149704085D02*
X130062544Y-149370752D01*
X130062544Y-149370752D02*
X130014925Y-149180276D01*
X130014925Y-149180276D02*
X129919687Y-149085038D01*
X129919687Y-149085038D02*
X129824449Y-149037419D01*
X128538735Y-149370752D02*
X128538735Y-150037419D01*
X128776830Y-148989800D02*
X129014925Y-149704085D01*
X129014925Y-149704085D02*
X128395878Y-149704085D01*
X128110163Y-149037419D02*
X127443497Y-149037419D01*
X127443497Y-149037419D02*
X127872068Y-150037419D01*
X130491115Y-157657419D02*
X130491115Y-156657419D01*
X129824449Y-156657419D02*
X129633973Y-156657419D01*
X129633973Y-156657419D02*
X129538735Y-156705038D01*
X129538735Y-156705038D02*
X129443497Y-156800276D01*
X129443497Y-156800276D02*
X129395878Y-156990752D01*
X129395878Y-156990752D02*
X129395878Y-157324085D01*
X129395878Y-157324085D02*
X129443497Y-157514561D01*
X129443497Y-157514561D02*
X129538735Y-157609800D01*
X129538735Y-157609800D02*
X129633973Y-157657419D01*
X129633973Y-157657419D02*
X129824449Y-157657419D01*
X129824449Y-157657419D02*
X129919687Y-157609800D01*
X129919687Y-157609800D02*
X130014925Y-157514561D01*
X130014925Y-157514561D02*
X130062544Y-157324085D01*
X130062544Y-157324085D02*
X130062544Y-156990752D01*
X130062544Y-156990752D02*
X130014925Y-156800276D01*
X130014925Y-156800276D02*
X129919687Y-156705038D01*
X129919687Y-156705038D02*
X129824449Y-156657419D01*
X128443497Y-157657419D02*
X129014925Y-157657419D01*
X128729211Y-157657419D02*
X128729211Y-156657419D01*
X128729211Y-156657419D02*
X128824449Y-156800276D01*
X128824449Y-156800276D02*
X128919687Y-156895514D01*
X128919687Y-156895514D02*
X129014925Y-156943133D01*
X128110163Y-156657419D02*
X127491116Y-156657419D01*
X127491116Y-156657419D02*
X127824449Y-157038371D01*
X127824449Y-157038371D02*
X127681592Y-157038371D01*
X127681592Y-157038371D02*
X127586354Y-157085990D01*
X127586354Y-157085990D02*
X127538735Y-157133609D01*
X127538735Y-157133609D02*
X127491116Y-157228847D01*
X127491116Y-157228847D02*
X127491116Y-157466942D01*
X127491116Y-157466942D02*
X127538735Y-157562180D01*
X127538735Y-157562180D02*
X127586354Y-157609800D01*
X127586354Y-157609800D02*
X127681592Y-157657419D01*
X127681592Y-157657419D02*
X127967306Y-157657419D01*
X127967306Y-157657419D02*
X128062544Y-157609800D01*
X128062544Y-157609800D02*
X128110163Y-157562180D01*
X117187925Y-124637419D02*
X117664115Y-124637419D01*
X117664115Y-124637419D02*
X117664115Y-123637419D01*
X116854591Y-124113609D02*
X116521258Y-124113609D01*
X116378401Y-124637419D02*
X116854591Y-124637419D01*
X116854591Y-124637419D02*
X116854591Y-123637419D01*
X116854591Y-123637419D02*
X116378401Y-123637419D01*
X115949829Y-124637419D02*
X115949829Y-123637419D01*
X115949829Y-123637419D02*
X115711734Y-123637419D01*
X115711734Y-123637419D02*
X115568877Y-123685038D01*
X115568877Y-123685038D02*
X115473639Y-123780276D01*
X115473639Y-123780276D02*
X115426020Y-123875514D01*
X115426020Y-123875514D02*
X115378401Y-124065990D01*
X115378401Y-124065990D02*
X115378401Y-124208847D01*
X115378401Y-124208847D02*
X115426020Y-124399323D01*
X115426020Y-124399323D02*
X115473639Y-124494561D01*
X115473639Y-124494561D02*
X115568877Y-124589800D01*
X115568877Y-124589800D02*
X115711734Y-124637419D01*
X115711734Y-124637419D02*
X115949829Y-124637419D01*
X114235543Y-124589800D02*
X114092686Y-124637419D01*
X114092686Y-124637419D02*
X113854591Y-124637419D01*
X113854591Y-124637419D02*
X113759353Y-124589800D01*
X113759353Y-124589800D02*
X113711734Y-124542180D01*
X113711734Y-124542180D02*
X113664115Y-124446942D01*
X113664115Y-124446942D02*
X113664115Y-124351704D01*
X113664115Y-124351704D02*
X113711734Y-124256466D01*
X113711734Y-124256466D02*
X113759353Y-124208847D01*
X113759353Y-124208847D02*
X113854591Y-124161228D01*
X113854591Y-124161228D02*
X114045067Y-124113609D01*
X114045067Y-124113609D02*
X114140305Y-124065990D01*
X114140305Y-124065990D02*
X114187924Y-124018371D01*
X114187924Y-124018371D02*
X114235543Y-123923133D01*
X114235543Y-123923133D02*
X114235543Y-123827895D01*
X114235543Y-123827895D02*
X114187924Y-123732657D01*
X114187924Y-123732657D02*
X114140305Y-123685038D01*
X114140305Y-123685038D02*
X114045067Y-123637419D01*
X114045067Y-123637419D02*
X113806972Y-123637419D01*
X113806972Y-123637419D02*
X113664115Y-123685038D01*
X113235543Y-124637419D02*
X113235543Y-123970752D01*
X113235543Y-123637419D02*
X113283162Y-123685038D01*
X113283162Y-123685038D02*
X113235543Y-123732657D01*
X113235543Y-123732657D02*
X113187924Y-123685038D01*
X113187924Y-123685038D02*
X113235543Y-123637419D01*
X113235543Y-123637419D02*
X113235543Y-123732657D01*
X112759353Y-123970752D02*
X112759353Y-124637419D01*
X112759353Y-124065990D02*
X112711734Y-124018371D01*
X112711734Y-124018371D02*
X112616496Y-123970752D01*
X112616496Y-123970752D02*
X112473639Y-123970752D01*
X112473639Y-123970752D02*
X112378401Y-124018371D01*
X112378401Y-124018371D02*
X112330782Y-124113609D01*
X112330782Y-124113609D02*
X112330782Y-124637419D01*
X111854591Y-124637419D02*
X111854591Y-123637419D01*
X111759353Y-124256466D02*
X111473639Y-124637419D01*
X111473639Y-123970752D02*
X111854591Y-124351704D01*
X111092686Y-124589800D02*
X110997448Y-124637419D01*
X110997448Y-124637419D02*
X110806972Y-124637419D01*
X110806972Y-124637419D02*
X110711734Y-124589800D01*
X110711734Y-124589800D02*
X110664115Y-124494561D01*
X110664115Y-124494561D02*
X110664115Y-124446942D01*
X110664115Y-124446942D02*
X110711734Y-124351704D01*
X110711734Y-124351704D02*
X110806972Y-124304085D01*
X110806972Y-124304085D02*
X110949829Y-124304085D01*
X110949829Y-124304085D02*
X111045067Y-124256466D01*
X111045067Y-124256466D02*
X111092686Y-124161228D01*
X111092686Y-124161228D02*
X111092686Y-124113609D01*
X111092686Y-124113609D02*
X111045067Y-124018371D01*
X111045067Y-124018371D02*
X110949829Y-123970752D01*
X110949829Y-123970752D02*
X110806972Y-123970752D01*
X110806972Y-123970752D02*
X110711734Y-124018371D01*
X126657306Y-135178371D02*
X126681115Y-135130752D01*
X126681115Y-135130752D02*
X126728734Y-134987895D01*
X126728734Y-134987895D02*
X126752544Y-134892657D01*
X126752544Y-134892657D02*
X126776353Y-134749800D01*
X126776353Y-134749800D02*
X126800163Y-134511704D01*
X126800163Y-134511704D02*
X126800163Y-134321228D01*
X126800163Y-134321228D02*
X126776353Y-134083133D01*
X126776353Y-134083133D02*
X126752544Y-133940276D01*
X126752544Y-133940276D02*
X126728734Y-133845038D01*
X126728734Y-133845038D02*
X126681115Y-133702180D01*
X126681115Y-133702180D02*
X126657306Y-133654561D01*
X126466830Y-134797419D02*
X126466830Y-133797419D01*
X126466830Y-133797419D02*
X126276354Y-133797419D01*
X126276354Y-133797419D02*
X126228735Y-133845038D01*
X126228735Y-133845038D02*
X126204925Y-133892657D01*
X126204925Y-133892657D02*
X126181116Y-133987895D01*
X126181116Y-133987895D02*
X126181116Y-134130752D01*
X126181116Y-134130752D02*
X126204925Y-134225990D01*
X126204925Y-134225990D02*
X126228735Y-134273609D01*
X126228735Y-134273609D02*
X126276354Y-134321228D01*
X126276354Y-134321228D02*
X126466830Y-134321228D01*
X125990639Y-134749800D02*
X125919211Y-134797419D01*
X125919211Y-134797419D02*
X125800163Y-134797419D01*
X125800163Y-134797419D02*
X125752544Y-134749800D01*
X125752544Y-134749800D02*
X125728735Y-134702180D01*
X125728735Y-134702180D02*
X125704925Y-134606942D01*
X125704925Y-134606942D02*
X125704925Y-134511704D01*
X125704925Y-134511704D02*
X125728735Y-134416466D01*
X125728735Y-134416466D02*
X125752544Y-134368847D01*
X125752544Y-134368847D02*
X125800163Y-134321228D01*
X125800163Y-134321228D02*
X125895401Y-134273609D01*
X125895401Y-134273609D02*
X125943020Y-134225990D01*
X125943020Y-134225990D02*
X125966830Y-134178371D01*
X125966830Y-134178371D02*
X125990639Y-134083133D01*
X125990639Y-134083133D02*
X125990639Y-133987895D01*
X125990639Y-133987895D02*
X125966830Y-133892657D01*
X125966830Y-133892657D02*
X125943020Y-133845038D01*
X125943020Y-133845038D02*
X125895401Y-133797419D01*
X125895401Y-133797419D02*
X125776354Y-133797419D01*
X125776354Y-133797419D02*
X125704925Y-133845038D01*
X125204926Y-134797419D02*
X125371592Y-134321228D01*
X125490640Y-134797419D02*
X125490640Y-133797419D01*
X125490640Y-133797419D02*
X125300164Y-133797419D01*
X125300164Y-133797419D02*
X125252545Y-133845038D01*
X125252545Y-133845038D02*
X125228735Y-133892657D01*
X125228735Y-133892657D02*
X125204926Y-133987895D01*
X125204926Y-133987895D02*
X125204926Y-134130752D01*
X125204926Y-134130752D02*
X125228735Y-134225990D01*
X125228735Y-134225990D02*
X125252545Y-134273609D01*
X125252545Y-134273609D02*
X125300164Y-134321228D01*
X125300164Y-134321228D02*
X125490640Y-134321228D01*
X125014449Y-134511704D02*
X124776354Y-134511704D01*
X125062068Y-134797419D02*
X124895402Y-133797419D01*
X124895402Y-133797419D02*
X124728735Y-134797419D01*
X124562069Y-134797419D02*
X124562069Y-133797419D01*
X124562069Y-133797419D02*
X124395402Y-134511704D01*
X124395402Y-134511704D02*
X124228736Y-133797419D01*
X124228736Y-133797419D02*
X124228736Y-134797419D01*
X124038259Y-135178371D02*
X124014449Y-135130752D01*
X124014449Y-135130752D02*
X123966830Y-134987895D01*
X123966830Y-134987895D02*
X123943021Y-134892657D01*
X123943021Y-134892657D02*
X123919211Y-134749800D01*
X123919211Y-134749800D02*
X123895402Y-134511704D01*
X123895402Y-134511704D02*
X123895402Y-134321228D01*
X123895402Y-134321228D02*
X123919211Y-134083133D01*
X123919211Y-134083133D02*
X123943021Y-133940276D01*
X123943021Y-133940276D02*
X123966830Y-133845038D01*
X123966830Y-133845038D02*
X124014449Y-133702180D01*
X124014449Y-133702180D02*
X124038259Y-133654561D01*
X130491115Y-101777419D02*
X130491115Y-100777419D01*
X129824449Y-100777419D02*
X129633973Y-100777419D01*
X129633973Y-100777419D02*
X129538735Y-100825038D01*
X129538735Y-100825038D02*
X129443497Y-100920276D01*
X129443497Y-100920276D02*
X129395878Y-101110752D01*
X129395878Y-101110752D02*
X129395878Y-101444085D01*
X129395878Y-101444085D02*
X129443497Y-101634561D01*
X129443497Y-101634561D02*
X129538735Y-101729800D01*
X129538735Y-101729800D02*
X129633973Y-101777419D01*
X129633973Y-101777419D02*
X129824449Y-101777419D01*
X129824449Y-101777419D02*
X129919687Y-101729800D01*
X129919687Y-101729800D02*
X130014925Y-101634561D01*
X130014925Y-101634561D02*
X130062544Y-101444085D01*
X130062544Y-101444085D02*
X130062544Y-101110752D01*
X130062544Y-101110752D02*
X130014925Y-100920276D01*
X130014925Y-100920276D02*
X129919687Y-100825038D01*
X129919687Y-100825038D02*
X129824449Y-100777419D01*
X128443497Y-101777419D02*
X129014925Y-101777419D01*
X128729211Y-101777419D02*
X128729211Y-100777419D01*
X128729211Y-100777419D02*
X128824449Y-100920276D01*
X128824449Y-100920276D02*
X128919687Y-101015514D01*
X128919687Y-101015514D02*
X129014925Y-101063133D01*
X126657306Y-137718371D02*
X126681115Y-137670752D01*
X126681115Y-137670752D02*
X126728734Y-137527895D01*
X126728734Y-137527895D02*
X126752544Y-137432657D01*
X126752544Y-137432657D02*
X126776353Y-137289800D01*
X126776353Y-137289800D02*
X126800163Y-137051704D01*
X126800163Y-137051704D02*
X126800163Y-136861228D01*
X126800163Y-136861228D02*
X126776353Y-136623133D01*
X126776353Y-136623133D02*
X126752544Y-136480276D01*
X126752544Y-136480276D02*
X126728734Y-136385038D01*
X126728734Y-136385038D02*
X126681115Y-136242180D01*
X126681115Y-136242180D02*
X126657306Y-136194561D01*
X126466830Y-137337419D02*
X126466830Y-136337419D01*
X126466830Y-136337419D02*
X126276354Y-136337419D01*
X126276354Y-136337419D02*
X126228735Y-136385038D01*
X126228735Y-136385038D02*
X126204925Y-136432657D01*
X126204925Y-136432657D02*
X126181116Y-136527895D01*
X126181116Y-136527895D02*
X126181116Y-136670752D01*
X126181116Y-136670752D02*
X126204925Y-136765990D01*
X126204925Y-136765990D02*
X126228735Y-136813609D01*
X126228735Y-136813609D02*
X126276354Y-136861228D01*
X126276354Y-136861228D02*
X126466830Y-136861228D01*
X125990639Y-137289800D02*
X125919211Y-137337419D01*
X125919211Y-137337419D02*
X125800163Y-137337419D01*
X125800163Y-137337419D02*
X125752544Y-137289800D01*
X125752544Y-137289800D02*
X125728735Y-137242180D01*
X125728735Y-137242180D02*
X125704925Y-137146942D01*
X125704925Y-137146942D02*
X125704925Y-137051704D01*
X125704925Y-137051704D02*
X125728735Y-136956466D01*
X125728735Y-136956466D02*
X125752544Y-136908847D01*
X125752544Y-136908847D02*
X125800163Y-136861228D01*
X125800163Y-136861228D02*
X125895401Y-136813609D01*
X125895401Y-136813609D02*
X125943020Y-136765990D01*
X125943020Y-136765990D02*
X125966830Y-136718371D01*
X125966830Y-136718371D02*
X125990639Y-136623133D01*
X125990639Y-136623133D02*
X125990639Y-136527895D01*
X125990639Y-136527895D02*
X125966830Y-136432657D01*
X125966830Y-136432657D02*
X125943020Y-136385038D01*
X125943020Y-136385038D02*
X125895401Y-136337419D01*
X125895401Y-136337419D02*
X125776354Y-136337419D01*
X125776354Y-136337419D02*
X125704925Y-136385038D01*
X125204926Y-137337419D02*
X125371592Y-136861228D01*
X125490640Y-137337419D02*
X125490640Y-136337419D01*
X125490640Y-136337419D02*
X125300164Y-136337419D01*
X125300164Y-136337419D02*
X125252545Y-136385038D01*
X125252545Y-136385038D02*
X125228735Y-136432657D01*
X125228735Y-136432657D02*
X125204926Y-136527895D01*
X125204926Y-136527895D02*
X125204926Y-136670752D01*
X125204926Y-136670752D02*
X125228735Y-136765990D01*
X125228735Y-136765990D02*
X125252545Y-136813609D01*
X125252545Y-136813609D02*
X125300164Y-136861228D01*
X125300164Y-136861228D02*
X125490640Y-136861228D01*
X125014449Y-137051704D02*
X124776354Y-137051704D01*
X125062068Y-137337419D02*
X124895402Y-136337419D01*
X124895402Y-136337419D02*
X124728735Y-137337419D01*
X124562069Y-137337419D02*
X124562069Y-136337419D01*
X124562069Y-136337419D02*
X124395402Y-137051704D01*
X124395402Y-137051704D02*
X124228736Y-136337419D01*
X124228736Y-136337419D02*
X124228736Y-137337419D01*
X124038259Y-137718371D02*
X124014449Y-137670752D01*
X124014449Y-137670752D02*
X123966830Y-137527895D01*
X123966830Y-137527895D02*
X123943021Y-137432657D01*
X123943021Y-137432657D02*
X123919211Y-137289800D01*
X123919211Y-137289800D02*
X123895402Y-137051704D01*
X123895402Y-137051704D02*
X123895402Y-136861228D01*
X123895402Y-136861228D02*
X123919211Y-136623133D01*
X123919211Y-136623133D02*
X123943021Y-136480276D01*
X123943021Y-136480276D02*
X123966830Y-136385038D01*
X123966830Y-136385038D02*
X124014449Y-136242180D01*
X124014449Y-136242180D02*
X124038259Y-136194561D01*
X117902306Y-127177419D02*
X118473734Y-127177419D01*
X118188020Y-127177419D02*
X118188020Y-126177419D01*
X118188020Y-126177419D02*
X118283258Y-126320276D01*
X118283258Y-126320276D02*
X118378496Y-126415514D01*
X118378496Y-126415514D02*
X118473734Y-126463133D01*
X130491115Y-139877419D02*
X130491115Y-138877419D01*
X129824449Y-138877419D02*
X129633973Y-138877419D01*
X129633973Y-138877419D02*
X129538735Y-138925038D01*
X129538735Y-138925038D02*
X129443497Y-139020276D01*
X129443497Y-139020276D02*
X129395878Y-139210752D01*
X129395878Y-139210752D02*
X129395878Y-139544085D01*
X129395878Y-139544085D02*
X129443497Y-139734561D01*
X129443497Y-139734561D02*
X129538735Y-139829800D01*
X129538735Y-139829800D02*
X129633973Y-139877419D01*
X129633973Y-139877419D02*
X129824449Y-139877419D01*
X129824449Y-139877419D02*
X129919687Y-139829800D01*
X129919687Y-139829800D02*
X130014925Y-139734561D01*
X130014925Y-139734561D02*
X130062544Y-139544085D01*
X130062544Y-139544085D02*
X130062544Y-139210752D01*
X130062544Y-139210752D02*
X130014925Y-139020276D01*
X130014925Y-139020276D02*
X129919687Y-138925038D01*
X129919687Y-138925038D02*
X129824449Y-138877419D01*
X129062544Y-138877419D02*
X128443497Y-138877419D01*
X128443497Y-138877419D02*
X128776830Y-139258371D01*
X128776830Y-139258371D02*
X128633973Y-139258371D01*
X128633973Y-139258371D02*
X128538735Y-139305990D01*
X128538735Y-139305990D02*
X128491116Y-139353609D01*
X128491116Y-139353609D02*
X128443497Y-139448847D01*
X128443497Y-139448847D02*
X128443497Y-139686942D01*
X128443497Y-139686942D02*
X128491116Y-139782180D01*
X128491116Y-139782180D02*
X128538735Y-139829800D01*
X128538735Y-139829800D02*
X128633973Y-139877419D01*
X128633973Y-139877419D02*
X128919687Y-139877419D01*
X128919687Y-139877419D02*
X129014925Y-139829800D01*
X129014925Y-139829800D02*
X129062544Y-139782180D01*
X127538735Y-138877419D02*
X128014925Y-138877419D01*
X128014925Y-138877419D02*
X128062544Y-139353609D01*
X128062544Y-139353609D02*
X128014925Y-139305990D01*
X128014925Y-139305990D02*
X127919687Y-139258371D01*
X127919687Y-139258371D02*
X127681592Y-139258371D01*
X127681592Y-139258371D02*
X127586354Y-139305990D01*
X127586354Y-139305990D02*
X127538735Y-139353609D01*
X127538735Y-139353609D02*
X127491116Y-139448847D01*
X127491116Y-139448847D02*
X127491116Y-139686942D01*
X127491116Y-139686942D02*
X127538735Y-139782180D01*
X127538735Y-139782180D02*
X127586354Y-139829800D01*
X127586354Y-139829800D02*
X127681592Y-139877419D01*
X127681592Y-139877419D02*
X127919687Y-139877419D01*
X127919687Y-139877419D02*
X128014925Y-139829800D01*
X128014925Y-139829800D02*
X128062544Y-139782180D01*
X130491115Y-98856466D02*
X129729211Y-98856466D01*
X130110163Y-99237419D02*
X130110163Y-98475514D01*
X129300639Y-98332657D02*
X129253020Y-98285038D01*
X129253020Y-98285038D02*
X129157782Y-98237419D01*
X129157782Y-98237419D02*
X128919687Y-98237419D01*
X128919687Y-98237419D02*
X128824449Y-98285038D01*
X128824449Y-98285038D02*
X128776830Y-98332657D01*
X128776830Y-98332657D02*
X128729211Y-98427895D01*
X128729211Y-98427895D02*
X128729211Y-98523133D01*
X128729211Y-98523133D02*
X128776830Y-98665990D01*
X128776830Y-98665990D02*
X129348258Y-99237419D01*
X129348258Y-99237419D02*
X128729211Y-99237419D01*
X127872068Y-98570752D02*
X127872068Y-99237419D01*
X128110163Y-98189800D02*
X128348258Y-98904085D01*
X128348258Y-98904085D02*
X127729211Y-98904085D01*
X127491115Y-98237419D02*
X127157782Y-99237419D01*
X127157782Y-99237419D02*
X126824449Y-98237419D01*
X130491115Y-137337419D02*
X130491115Y-136337419D01*
X129824449Y-136337419D02*
X129633973Y-136337419D01*
X129633973Y-136337419D02*
X129538735Y-136385038D01*
X129538735Y-136385038D02*
X129443497Y-136480276D01*
X129443497Y-136480276D02*
X129395878Y-136670752D01*
X129395878Y-136670752D02*
X129395878Y-137004085D01*
X129395878Y-137004085D02*
X129443497Y-137194561D01*
X129443497Y-137194561D02*
X129538735Y-137289800D01*
X129538735Y-137289800D02*
X129633973Y-137337419D01*
X129633973Y-137337419D02*
X129824449Y-137337419D01*
X129824449Y-137337419D02*
X129919687Y-137289800D01*
X129919687Y-137289800D02*
X130014925Y-137194561D01*
X130014925Y-137194561D02*
X130062544Y-137004085D01*
X130062544Y-137004085D02*
X130062544Y-136670752D01*
X130062544Y-136670752D02*
X130014925Y-136480276D01*
X130014925Y-136480276D02*
X129919687Y-136385038D01*
X129919687Y-136385038D02*
X129824449Y-136337419D01*
X129062544Y-136337419D02*
X128443497Y-136337419D01*
X128443497Y-136337419D02*
X128776830Y-136718371D01*
X128776830Y-136718371D02*
X128633973Y-136718371D01*
X128633973Y-136718371D02*
X128538735Y-136765990D01*
X128538735Y-136765990D02*
X128491116Y-136813609D01*
X128491116Y-136813609D02*
X128443497Y-136908847D01*
X128443497Y-136908847D02*
X128443497Y-137146942D01*
X128443497Y-137146942D02*
X128491116Y-137242180D01*
X128491116Y-137242180D02*
X128538735Y-137289800D01*
X128538735Y-137289800D02*
X128633973Y-137337419D01*
X128633973Y-137337419D02*
X128919687Y-137337419D01*
X128919687Y-137337419D02*
X129014925Y-137289800D01*
X129014925Y-137289800D02*
X129062544Y-137242180D01*
X127586354Y-136337419D02*
X127776830Y-136337419D01*
X127776830Y-136337419D02*
X127872068Y-136385038D01*
X127872068Y-136385038D02*
X127919687Y-136432657D01*
X127919687Y-136432657D02*
X128014925Y-136575514D01*
X128014925Y-136575514D02*
X128062544Y-136765990D01*
X128062544Y-136765990D02*
X128062544Y-137146942D01*
X128062544Y-137146942D02*
X128014925Y-137242180D01*
X128014925Y-137242180D02*
X127967306Y-137289800D01*
X127967306Y-137289800D02*
X127872068Y-137337419D01*
X127872068Y-137337419D02*
X127681592Y-137337419D01*
X127681592Y-137337419D02*
X127586354Y-137289800D01*
X127586354Y-137289800D02*
X127538735Y-137242180D01*
X127538735Y-137242180D02*
X127491116Y-137146942D01*
X127491116Y-137146942D02*
X127491116Y-136908847D01*
X127491116Y-136908847D02*
X127538735Y-136813609D01*
X127538735Y-136813609D02*
X127586354Y-136765990D01*
X127586354Y-136765990D02*
X127681592Y-136718371D01*
X127681592Y-136718371D02*
X127872068Y-136718371D01*
X127872068Y-136718371D02*
X127967306Y-136765990D01*
X127967306Y-136765990D02*
X128014925Y-136813609D01*
X128014925Y-136813609D02*
X128062544Y-136908847D01*
X129967306Y-95745038D02*
X130062544Y-95697419D01*
X130062544Y-95697419D02*
X130205401Y-95697419D01*
X130205401Y-95697419D02*
X130348258Y-95745038D01*
X130348258Y-95745038D02*
X130443496Y-95840276D01*
X130443496Y-95840276D02*
X130491115Y-95935514D01*
X130491115Y-95935514D02*
X130538734Y-96125990D01*
X130538734Y-96125990D02*
X130538734Y-96268847D01*
X130538734Y-96268847D02*
X130491115Y-96459323D01*
X130491115Y-96459323D02*
X130443496Y-96554561D01*
X130443496Y-96554561D02*
X130348258Y-96649800D01*
X130348258Y-96649800D02*
X130205401Y-96697419D01*
X130205401Y-96697419D02*
X130110163Y-96697419D01*
X130110163Y-96697419D02*
X129967306Y-96649800D01*
X129967306Y-96649800D02*
X129919687Y-96602180D01*
X129919687Y-96602180D02*
X129919687Y-96268847D01*
X129919687Y-96268847D02*
X130110163Y-96268847D01*
X129491115Y-96697419D02*
X129491115Y-95697419D01*
X129491115Y-95697419D02*
X128919687Y-96697419D01*
X128919687Y-96697419D02*
X128919687Y-95697419D01*
X128443496Y-96697419D02*
X128443496Y-95697419D01*
X128443496Y-95697419D02*
X128205401Y-95697419D01*
X128205401Y-95697419D02*
X128062544Y-95745038D01*
X128062544Y-95745038D02*
X127967306Y-95840276D01*
X127967306Y-95840276D02*
X127919687Y-95935514D01*
X127919687Y-95935514D02*
X127872068Y-96125990D01*
X127872068Y-96125990D02*
X127872068Y-96268847D01*
X127872068Y-96268847D02*
X127919687Y-96459323D01*
X127919687Y-96459323D02*
X127967306Y-96554561D01*
X127967306Y-96554561D02*
X128062544Y-96649800D01*
X128062544Y-96649800D02*
X128205401Y-96697419D01*
X128205401Y-96697419D02*
X128443496Y-96697419D01*
X130491115Y-152577419D02*
X130491115Y-151577419D01*
X129824449Y-151577419D02*
X129633973Y-151577419D01*
X129633973Y-151577419D02*
X129538735Y-151625038D01*
X129538735Y-151625038D02*
X129443497Y-151720276D01*
X129443497Y-151720276D02*
X129395878Y-151910752D01*
X129395878Y-151910752D02*
X129395878Y-152244085D01*
X129395878Y-152244085D02*
X129443497Y-152434561D01*
X129443497Y-152434561D02*
X129538735Y-152529800D01*
X129538735Y-152529800D02*
X129633973Y-152577419D01*
X129633973Y-152577419D02*
X129824449Y-152577419D01*
X129824449Y-152577419D02*
X129919687Y-152529800D01*
X129919687Y-152529800D02*
X130014925Y-152434561D01*
X130014925Y-152434561D02*
X130062544Y-152244085D01*
X130062544Y-152244085D02*
X130062544Y-151910752D01*
X130062544Y-151910752D02*
X130014925Y-151720276D01*
X130014925Y-151720276D02*
X129919687Y-151625038D01*
X129919687Y-151625038D02*
X129824449Y-151577419D01*
X129014925Y-151672657D02*
X128967306Y-151625038D01*
X128967306Y-151625038D02*
X128872068Y-151577419D01*
X128872068Y-151577419D02*
X128633973Y-151577419D01*
X128633973Y-151577419D02*
X128538735Y-151625038D01*
X128538735Y-151625038D02*
X128491116Y-151672657D01*
X128491116Y-151672657D02*
X128443497Y-151767895D01*
X128443497Y-151767895D02*
X128443497Y-151863133D01*
X128443497Y-151863133D02*
X128491116Y-152005990D01*
X128491116Y-152005990D02*
X129062544Y-152577419D01*
X129062544Y-152577419D02*
X128443497Y-152577419D01*
X127491116Y-152577419D02*
X128062544Y-152577419D01*
X127776830Y-152577419D02*
X127776830Y-151577419D01*
X127776830Y-151577419D02*
X127872068Y-151720276D01*
X127872068Y-151720276D02*
X127967306Y-151815514D01*
X127967306Y-151815514D02*
X128062544Y-151863133D01*
X126657306Y-145338371D02*
X126681115Y-145290752D01*
X126681115Y-145290752D02*
X126728734Y-145147895D01*
X126728734Y-145147895D02*
X126752544Y-145052657D01*
X126752544Y-145052657D02*
X126776353Y-144909800D01*
X126776353Y-144909800D02*
X126800163Y-144671704D01*
X126800163Y-144671704D02*
X126800163Y-144481228D01*
X126800163Y-144481228D02*
X126776353Y-144243133D01*
X126776353Y-144243133D02*
X126752544Y-144100276D01*
X126752544Y-144100276D02*
X126728734Y-144005038D01*
X126728734Y-144005038D02*
X126681115Y-143862180D01*
X126681115Y-143862180D02*
X126657306Y-143814561D01*
X126300163Y-144433609D02*
X126228735Y-144481228D01*
X126228735Y-144481228D02*
X126204925Y-144528847D01*
X126204925Y-144528847D02*
X126181116Y-144624085D01*
X126181116Y-144624085D02*
X126181116Y-144766942D01*
X126181116Y-144766942D02*
X126204925Y-144862180D01*
X126204925Y-144862180D02*
X126228735Y-144909800D01*
X126228735Y-144909800D02*
X126276354Y-144957419D01*
X126276354Y-144957419D02*
X126466830Y-144957419D01*
X126466830Y-144957419D02*
X126466830Y-143957419D01*
X126466830Y-143957419D02*
X126300163Y-143957419D01*
X126300163Y-143957419D02*
X126252544Y-144005038D01*
X126252544Y-144005038D02*
X126228735Y-144052657D01*
X126228735Y-144052657D02*
X126204925Y-144147895D01*
X126204925Y-144147895D02*
X126204925Y-144243133D01*
X126204925Y-144243133D02*
X126228735Y-144338371D01*
X126228735Y-144338371D02*
X126252544Y-144385990D01*
X126252544Y-144385990D02*
X126300163Y-144433609D01*
X126300163Y-144433609D02*
X126466830Y-144433609D01*
X125871592Y-143957419D02*
X125776354Y-143957419D01*
X125776354Y-143957419D02*
X125728735Y-144005038D01*
X125728735Y-144005038D02*
X125681116Y-144100276D01*
X125681116Y-144100276D02*
X125657306Y-144290752D01*
X125657306Y-144290752D02*
X125657306Y-144624085D01*
X125657306Y-144624085D02*
X125681116Y-144814561D01*
X125681116Y-144814561D02*
X125728735Y-144909800D01*
X125728735Y-144909800D02*
X125776354Y-144957419D01*
X125776354Y-144957419D02*
X125871592Y-144957419D01*
X125871592Y-144957419D02*
X125919211Y-144909800D01*
X125919211Y-144909800D02*
X125966830Y-144814561D01*
X125966830Y-144814561D02*
X125990639Y-144624085D01*
X125990639Y-144624085D02*
X125990639Y-144290752D01*
X125990639Y-144290752D02*
X125966830Y-144100276D01*
X125966830Y-144100276D02*
X125919211Y-144005038D01*
X125919211Y-144005038D02*
X125871592Y-143957419D01*
X125347782Y-143957419D02*
X125252544Y-143957419D01*
X125252544Y-143957419D02*
X125204925Y-144005038D01*
X125204925Y-144005038D02*
X125157306Y-144100276D01*
X125157306Y-144100276D02*
X125133496Y-144290752D01*
X125133496Y-144290752D02*
X125133496Y-144624085D01*
X125133496Y-144624085D02*
X125157306Y-144814561D01*
X125157306Y-144814561D02*
X125204925Y-144909800D01*
X125204925Y-144909800D02*
X125252544Y-144957419D01*
X125252544Y-144957419D02*
X125347782Y-144957419D01*
X125347782Y-144957419D02*
X125395401Y-144909800D01*
X125395401Y-144909800D02*
X125443020Y-144814561D01*
X125443020Y-144814561D02*
X125466829Y-144624085D01*
X125466829Y-144624085D02*
X125466829Y-144290752D01*
X125466829Y-144290752D02*
X125443020Y-144100276D01*
X125443020Y-144100276D02*
X125395401Y-144005038D01*
X125395401Y-144005038D02*
X125347782Y-143957419D01*
X124990638Y-143957419D02*
X124704924Y-143957419D01*
X124847781Y-144957419D02*
X124847781Y-143957419D01*
X124181115Y-144909800D02*
X124109687Y-144957419D01*
X124109687Y-144957419D02*
X123990639Y-144957419D01*
X123990639Y-144957419D02*
X123943020Y-144909800D01*
X123943020Y-144909800D02*
X123919211Y-144862180D01*
X123919211Y-144862180D02*
X123895401Y-144766942D01*
X123895401Y-144766942D02*
X123895401Y-144671704D01*
X123895401Y-144671704D02*
X123919211Y-144576466D01*
X123919211Y-144576466D02*
X123943020Y-144528847D01*
X123943020Y-144528847D02*
X123990639Y-144481228D01*
X123990639Y-144481228D02*
X124085877Y-144433609D01*
X124085877Y-144433609D02*
X124133496Y-144385990D01*
X124133496Y-144385990D02*
X124157306Y-144338371D01*
X124157306Y-144338371D02*
X124181115Y-144243133D01*
X124181115Y-144243133D02*
X124181115Y-144147895D01*
X124181115Y-144147895D02*
X124157306Y-144052657D01*
X124157306Y-144052657D02*
X124133496Y-144005038D01*
X124133496Y-144005038D02*
X124085877Y-143957419D01*
X124085877Y-143957419D02*
X123966830Y-143957419D01*
X123966830Y-143957419D02*
X123895401Y-144005038D01*
X123752544Y-143957419D02*
X123466830Y-143957419D01*
X123609687Y-144957419D02*
X123609687Y-143957419D01*
X123014450Y-144957419D02*
X123181116Y-144481228D01*
X123300164Y-144957419D02*
X123300164Y-143957419D01*
X123300164Y-143957419D02*
X123109688Y-143957419D01*
X123109688Y-143957419D02*
X123062069Y-144005038D01*
X123062069Y-144005038D02*
X123038259Y-144052657D01*
X123038259Y-144052657D02*
X123014450Y-144147895D01*
X123014450Y-144147895D02*
X123014450Y-144290752D01*
X123014450Y-144290752D02*
X123038259Y-144385990D01*
X123038259Y-144385990D02*
X123062069Y-144433609D01*
X123062069Y-144433609D02*
X123109688Y-144481228D01*
X123109688Y-144481228D02*
X123300164Y-144481228D01*
X122823973Y-144671704D02*
X122585878Y-144671704D01*
X122871592Y-144957419D02*
X122704926Y-143957419D01*
X122704926Y-143957419D02*
X122538259Y-144957419D01*
X122371593Y-144957419D02*
X122371593Y-143957419D01*
X122371593Y-143957419D02*
X122181117Y-143957419D01*
X122181117Y-143957419D02*
X122133498Y-144005038D01*
X122133498Y-144005038D02*
X122109688Y-144052657D01*
X122109688Y-144052657D02*
X122085879Y-144147895D01*
X122085879Y-144147895D02*
X122085879Y-144290752D01*
X122085879Y-144290752D02*
X122109688Y-144385990D01*
X122109688Y-144385990D02*
X122133498Y-144433609D01*
X122133498Y-144433609D02*
X122181117Y-144481228D01*
X122181117Y-144481228D02*
X122371593Y-144481228D01*
X121919212Y-145338371D02*
X121895402Y-145290752D01*
X121895402Y-145290752D02*
X121847783Y-145147895D01*
X121847783Y-145147895D02*
X121823974Y-145052657D01*
X121823974Y-145052657D02*
X121800164Y-144909800D01*
X121800164Y-144909800D02*
X121776355Y-144671704D01*
X121776355Y-144671704D02*
X121776355Y-144481228D01*
X121776355Y-144481228D02*
X121800164Y-144243133D01*
X121800164Y-144243133D02*
X121823974Y-144100276D01*
X121823974Y-144100276D02*
X121847783Y-144005038D01*
X121847783Y-144005038D02*
X121895402Y-143862180D01*
X121895402Y-143862180D02*
X121919212Y-143814561D01*
X129967306Y-159245038D02*
X130062544Y-159197419D01*
X130062544Y-159197419D02*
X130205401Y-159197419D01*
X130205401Y-159197419D02*
X130348258Y-159245038D01*
X130348258Y-159245038D02*
X130443496Y-159340276D01*
X130443496Y-159340276D02*
X130491115Y-159435514D01*
X130491115Y-159435514D02*
X130538734Y-159625990D01*
X130538734Y-159625990D02*
X130538734Y-159768847D01*
X130538734Y-159768847D02*
X130491115Y-159959323D01*
X130491115Y-159959323D02*
X130443496Y-160054561D01*
X130443496Y-160054561D02*
X130348258Y-160149800D01*
X130348258Y-160149800D02*
X130205401Y-160197419D01*
X130205401Y-160197419D02*
X130110163Y-160197419D01*
X130110163Y-160197419D02*
X129967306Y-160149800D01*
X129967306Y-160149800D02*
X129919687Y-160102180D01*
X129919687Y-160102180D02*
X129919687Y-159768847D01*
X129919687Y-159768847D02*
X130110163Y-159768847D01*
X129491115Y-160197419D02*
X129491115Y-159197419D01*
X129491115Y-159197419D02*
X128919687Y-160197419D01*
X128919687Y-160197419D02*
X128919687Y-159197419D01*
X128443496Y-160197419D02*
X128443496Y-159197419D01*
X128443496Y-159197419D02*
X128205401Y-159197419D01*
X128205401Y-159197419D02*
X128062544Y-159245038D01*
X128062544Y-159245038D02*
X127967306Y-159340276D01*
X127967306Y-159340276D02*
X127919687Y-159435514D01*
X127919687Y-159435514D02*
X127872068Y-159625990D01*
X127872068Y-159625990D02*
X127872068Y-159768847D01*
X127872068Y-159768847D02*
X127919687Y-159959323D01*
X127919687Y-159959323D02*
X127967306Y-160054561D01*
X127967306Y-160054561D02*
X128062544Y-160149800D01*
X128062544Y-160149800D02*
X128205401Y-160197419D01*
X128205401Y-160197419D02*
X128443496Y-160197419D01*
X112076115Y-152577419D02*
X112076115Y-151577419D01*
X111409449Y-151577419D02*
X111218973Y-151577419D01*
X111218973Y-151577419D02*
X111123735Y-151625038D01*
X111123735Y-151625038D02*
X111028497Y-151720276D01*
X111028497Y-151720276D02*
X110980878Y-151910752D01*
X110980878Y-151910752D02*
X110980878Y-152244085D01*
X110980878Y-152244085D02*
X111028497Y-152434561D01*
X111028497Y-152434561D02*
X111123735Y-152529800D01*
X111123735Y-152529800D02*
X111218973Y-152577419D01*
X111218973Y-152577419D02*
X111409449Y-152577419D01*
X111409449Y-152577419D02*
X111504687Y-152529800D01*
X111504687Y-152529800D02*
X111599925Y-152434561D01*
X111599925Y-152434561D02*
X111647544Y-152244085D01*
X111647544Y-152244085D02*
X111647544Y-151910752D01*
X111647544Y-151910752D02*
X111599925Y-151720276D01*
X111599925Y-151720276D02*
X111504687Y-151625038D01*
X111504687Y-151625038D02*
X111409449Y-151577419D01*
X110028497Y-152577419D02*
X110599925Y-152577419D01*
X110314211Y-152577419D02*
X110314211Y-151577419D01*
X110314211Y-151577419D02*
X110409449Y-151720276D01*
X110409449Y-151720276D02*
X110504687Y-151815514D01*
X110504687Y-151815514D02*
X110599925Y-151863133D01*
X109409449Y-151577419D02*
X109314211Y-151577419D01*
X109314211Y-151577419D02*
X109218973Y-151625038D01*
X109218973Y-151625038D02*
X109171354Y-151672657D01*
X109171354Y-151672657D02*
X109123735Y-151767895D01*
X109123735Y-151767895D02*
X109076116Y-151958371D01*
X109076116Y-151958371D02*
X109076116Y-152196466D01*
X109076116Y-152196466D02*
X109123735Y-152386942D01*
X109123735Y-152386942D02*
X109171354Y-152482180D01*
X109171354Y-152482180D02*
X109218973Y-152529800D01*
X109218973Y-152529800D02*
X109314211Y-152577419D01*
X109314211Y-152577419D02*
X109409449Y-152577419D01*
X109409449Y-152577419D02*
X109504687Y-152529800D01*
X109504687Y-152529800D02*
X109552306Y-152482180D01*
X109552306Y-152482180D02*
X109599925Y-152386942D01*
X109599925Y-152386942D02*
X109647544Y-152196466D01*
X109647544Y-152196466D02*
X109647544Y-151958371D01*
X109647544Y-151958371D02*
X109599925Y-151767895D01*
X109599925Y-151767895D02*
X109552306Y-151672657D01*
X109552306Y-151672657D02*
X109504687Y-151625038D01*
X109504687Y-151625038D02*
X109409449Y-151577419D01*
X111441115Y-162356466D02*
X110679211Y-162356466D01*
X111060163Y-162737419D02*
X111060163Y-161975514D01*
X109726830Y-161737419D02*
X110203020Y-161737419D01*
X110203020Y-161737419D02*
X110250639Y-162213609D01*
X110250639Y-162213609D02*
X110203020Y-162165990D01*
X110203020Y-162165990D02*
X110107782Y-162118371D01*
X110107782Y-162118371D02*
X109869687Y-162118371D01*
X109869687Y-162118371D02*
X109774449Y-162165990D01*
X109774449Y-162165990D02*
X109726830Y-162213609D01*
X109726830Y-162213609D02*
X109679211Y-162308847D01*
X109679211Y-162308847D02*
X109679211Y-162546942D01*
X109679211Y-162546942D02*
X109726830Y-162642180D01*
X109726830Y-162642180D02*
X109774449Y-162689800D01*
X109774449Y-162689800D02*
X109869687Y-162737419D01*
X109869687Y-162737419D02*
X110107782Y-162737419D01*
X110107782Y-162737419D02*
X110203020Y-162689800D01*
X110203020Y-162689800D02*
X110250639Y-162642180D01*
X109393496Y-161737419D02*
X109060163Y-162737419D01*
X109060163Y-162737419D02*
X108726830Y-161737419D01*
X113441353Y-126177419D02*
X112822306Y-126177419D01*
X112822306Y-126177419D02*
X113155639Y-126558371D01*
X113155639Y-126558371D02*
X113012782Y-126558371D01*
X113012782Y-126558371D02*
X112917544Y-126605990D01*
X112917544Y-126605990D02*
X112869925Y-126653609D01*
X112869925Y-126653609D02*
X112822306Y-126748847D01*
X112822306Y-126748847D02*
X112822306Y-126986942D01*
X112822306Y-126986942D02*
X112869925Y-127082180D01*
X112869925Y-127082180D02*
X112917544Y-127129800D01*
X112917544Y-127129800D02*
X113012782Y-127177419D01*
X113012782Y-127177419D02*
X113298496Y-127177419D01*
X113298496Y-127177419D02*
X113393734Y-127129800D01*
X113393734Y-127129800D02*
X113441353Y-127082180D01*
X111552306Y-95745038D02*
X111647544Y-95697419D01*
X111647544Y-95697419D02*
X111790401Y-95697419D01*
X111790401Y-95697419D02*
X111933258Y-95745038D01*
X111933258Y-95745038D02*
X112028496Y-95840276D01*
X112028496Y-95840276D02*
X112076115Y-95935514D01*
X112076115Y-95935514D02*
X112123734Y-96125990D01*
X112123734Y-96125990D02*
X112123734Y-96268847D01*
X112123734Y-96268847D02*
X112076115Y-96459323D01*
X112076115Y-96459323D02*
X112028496Y-96554561D01*
X112028496Y-96554561D02*
X111933258Y-96649800D01*
X111933258Y-96649800D02*
X111790401Y-96697419D01*
X111790401Y-96697419D02*
X111695163Y-96697419D01*
X111695163Y-96697419D02*
X111552306Y-96649800D01*
X111552306Y-96649800D02*
X111504687Y-96602180D01*
X111504687Y-96602180D02*
X111504687Y-96268847D01*
X111504687Y-96268847D02*
X111695163Y-96268847D01*
X111076115Y-96697419D02*
X111076115Y-95697419D01*
X111076115Y-95697419D02*
X110504687Y-96697419D01*
X110504687Y-96697419D02*
X110504687Y-95697419D01*
X110028496Y-96697419D02*
X110028496Y-95697419D01*
X110028496Y-95697419D02*
X109790401Y-95697419D01*
X109790401Y-95697419D02*
X109647544Y-95745038D01*
X109647544Y-95745038D02*
X109552306Y-95840276D01*
X109552306Y-95840276D02*
X109504687Y-95935514D01*
X109504687Y-95935514D02*
X109457068Y-96125990D01*
X109457068Y-96125990D02*
X109457068Y-96268847D01*
X109457068Y-96268847D02*
X109504687Y-96459323D01*
X109504687Y-96459323D02*
X109552306Y-96554561D01*
X109552306Y-96554561D02*
X109647544Y-96649800D01*
X109647544Y-96649800D02*
X109790401Y-96697419D01*
X109790401Y-96697419D02*
X110028496Y-96697419D01*
X130491115Y-144957419D02*
X130491115Y-143957419D01*
X129824449Y-143957419D02*
X129633973Y-143957419D01*
X129633973Y-143957419D02*
X129538735Y-144005038D01*
X129538735Y-144005038D02*
X129443497Y-144100276D01*
X129443497Y-144100276D02*
X129395878Y-144290752D01*
X129395878Y-144290752D02*
X129395878Y-144624085D01*
X129395878Y-144624085D02*
X129443497Y-144814561D01*
X129443497Y-144814561D02*
X129538735Y-144909800D01*
X129538735Y-144909800D02*
X129633973Y-144957419D01*
X129633973Y-144957419D02*
X129824449Y-144957419D01*
X129824449Y-144957419D02*
X129919687Y-144909800D01*
X129919687Y-144909800D02*
X130014925Y-144814561D01*
X130014925Y-144814561D02*
X130062544Y-144624085D01*
X130062544Y-144624085D02*
X130062544Y-144290752D01*
X130062544Y-144290752D02*
X130014925Y-144100276D01*
X130014925Y-144100276D02*
X129919687Y-144005038D01*
X129919687Y-144005038D02*
X129824449Y-143957419D01*
X128538735Y-144290752D02*
X128538735Y-144957419D01*
X128776830Y-143909800D02*
X129014925Y-144624085D01*
X129014925Y-144624085D02*
X128395878Y-144624085D01*
X127538735Y-143957419D02*
X128014925Y-143957419D01*
X128014925Y-143957419D02*
X128062544Y-144433609D01*
X128062544Y-144433609D02*
X128014925Y-144385990D01*
X128014925Y-144385990D02*
X127919687Y-144338371D01*
X127919687Y-144338371D02*
X127681592Y-144338371D01*
X127681592Y-144338371D02*
X127586354Y-144385990D01*
X127586354Y-144385990D02*
X127538735Y-144433609D01*
X127538735Y-144433609D02*
X127491116Y-144528847D01*
X127491116Y-144528847D02*
X127491116Y-144766942D01*
X127491116Y-144766942D02*
X127538735Y-144862180D01*
X127538735Y-144862180D02*
X127586354Y-144909800D01*
X127586354Y-144909800D02*
X127681592Y-144957419D01*
X127681592Y-144957419D02*
X127919687Y-144957419D01*
X127919687Y-144957419D02*
X128014925Y-144909800D01*
X128014925Y-144909800D02*
X128062544Y-144862180D01*
X129919687Y-109397419D02*
X130253020Y-108921228D01*
X130491115Y-109397419D02*
X130491115Y-108397419D01*
X130491115Y-108397419D02*
X130110163Y-108397419D01*
X130110163Y-108397419D02*
X130014925Y-108445038D01*
X130014925Y-108445038D02*
X129967306Y-108492657D01*
X129967306Y-108492657D02*
X129919687Y-108587895D01*
X129919687Y-108587895D02*
X129919687Y-108730752D01*
X129919687Y-108730752D02*
X129967306Y-108825990D01*
X129967306Y-108825990D02*
X130014925Y-108873609D01*
X130014925Y-108873609D02*
X130110163Y-108921228D01*
X130110163Y-108921228D02*
X130491115Y-108921228D01*
X129586353Y-108397419D02*
X128919687Y-109397419D01*
X128919687Y-108397419D02*
X129586353Y-109397419D01*
X128538734Y-109397419D02*
X128538734Y-108397419D01*
X128538734Y-108397419D02*
X128300639Y-108397419D01*
X128300639Y-108397419D02*
X128157782Y-108445038D01*
X128157782Y-108445038D02*
X128062544Y-108540276D01*
X128062544Y-108540276D02*
X128014925Y-108635514D01*
X128014925Y-108635514D02*
X127967306Y-108825990D01*
X127967306Y-108825990D02*
X127967306Y-108968847D01*
X127967306Y-108968847D02*
X128014925Y-109159323D01*
X128014925Y-109159323D02*
X128062544Y-109254561D01*
X128062544Y-109254561D02*
X128157782Y-109349800D01*
X128157782Y-109349800D02*
X128300639Y-109397419D01*
X128300639Y-109397419D02*
X128538734Y-109397419D01*
X127348258Y-108397419D02*
X127253020Y-108397419D01*
X127253020Y-108397419D02*
X127157782Y-108445038D01*
X127157782Y-108445038D02*
X127110163Y-108492657D01*
X127110163Y-108492657D02*
X127062544Y-108587895D01*
X127062544Y-108587895D02*
X127014925Y-108778371D01*
X127014925Y-108778371D02*
X127014925Y-109016466D01*
X127014925Y-109016466D02*
X127062544Y-109206942D01*
X127062544Y-109206942D02*
X127110163Y-109302180D01*
X127110163Y-109302180D02*
X127157782Y-109349800D01*
X127157782Y-109349800D02*
X127253020Y-109397419D01*
X127253020Y-109397419D02*
X127348258Y-109397419D01*
X127348258Y-109397419D02*
X127443496Y-109349800D01*
X127443496Y-109349800D02*
X127491115Y-109302180D01*
X127491115Y-109302180D02*
X127538734Y-109206942D01*
X127538734Y-109206942D02*
X127586353Y-109016466D01*
X127586353Y-109016466D02*
X127586353Y-108778371D01*
X127586353Y-108778371D02*
X127538734Y-108587895D01*
X127538734Y-108587895D02*
X127491115Y-108492657D01*
X127491115Y-108492657D02*
X127443496Y-108445038D01*
X127443496Y-108445038D02*
X127348258Y-108397419D01*
X125538734Y-109778371D02*
X125586353Y-109730752D01*
X125586353Y-109730752D02*
X125681591Y-109587895D01*
X125681591Y-109587895D02*
X125729210Y-109492657D01*
X125729210Y-109492657D02*
X125776829Y-109349800D01*
X125776829Y-109349800D02*
X125824448Y-109111704D01*
X125824448Y-109111704D02*
X125824448Y-108921228D01*
X125824448Y-108921228D02*
X125776829Y-108683133D01*
X125776829Y-108683133D02*
X125729210Y-108540276D01*
X125729210Y-108540276D02*
X125681591Y-108445038D01*
X125681591Y-108445038D02*
X125586353Y-108302180D01*
X125586353Y-108302180D02*
X125538734Y-108254561D01*
X125157781Y-109397419D02*
X125157781Y-108397419D01*
X124491115Y-108397419D02*
X124300639Y-108397419D01*
X124300639Y-108397419D02*
X124205401Y-108445038D01*
X124205401Y-108445038D02*
X124110163Y-108540276D01*
X124110163Y-108540276D02*
X124062544Y-108730752D01*
X124062544Y-108730752D02*
X124062544Y-109064085D01*
X124062544Y-109064085D02*
X124110163Y-109254561D01*
X124110163Y-109254561D02*
X124205401Y-109349800D01*
X124205401Y-109349800D02*
X124300639Y-109397419D01*
X124300639Y-109397419D02*
X124491115Y-109397419D01*
X124491115Y-109397419D02*
X124586353Y-109349800D01*
X124586353Y-109349800D02*
X124681591Y-109254561D01*
X124681591Y-109254561D02*
X124729210Y-109064085D01*
X124729210Y-109064085D02*
X124729210Y-108730752D01*
X124729210Y-108730752D02*
X124681591Y-108540276D01*
X124681591Y-108540276D02*
X124586353Y-108445038D01*
X124586353Y-108445038D02*
X124491115Y-108397419D01*
X123205401Y-108730752D02*
X123205401Y-109397419D01*
X123443496Y-108349800D02*
X123681591Y-109064085D01*
X123681591Y-109064085D02*
X123062544Y-109064085D01*
X122253020Y-108730752D02*
X122253020Y-109397419D01*
X122491115Y-108349800D02*
X122729210Y-109064085D01*
X122729210Y-109064085D02*
X122110163Y-109064085D01*
X121824448Y-109778371D02*
X121776829Y-109730752D01*
X121776829Y-109730752D02*
X121681591Y-109587895D01*
X121681591Y-109587895D02*
X121633972Y-109492657D01*
X121633972Y-109492657D02*
X121586353Y-109349800D01*
X121586353Y-109349800D02*
X121538734Y-109111704D01*
X121538734Y-109111704D02*
X121538734Y-108921228D01*
X121538734Y-108921228D02*
X121586353Y-108683133D01*
X121586353Y-108683133D02*
X121633972Y-108540276D01*
X121633972Y-108540276D02*
X121681591Y-108445038D01*
X121681591Y-108445038D02*
X121776829Y-108302180D01*
X121776829Y-108302180D02*
X121824448Y-108254561D01*
X129919687Y-124637419D02*
X130253020Y-124161228D01*
X130491115Y-124637419D02*
X130491115Y-123637419D01*
X130491115Y-123637419D02*
X130110163Y-123637419D01*
X130110163Y-123637419D02*
X130014925Y-123685038D01*
X130014925Y-123685038D02*
X129967306Y-123732657D01*
X129967306Y-123732657D02*
X129919687Y-123827895D01*
X129919687Y-123827895D02*
X129919687Y-123970752D01*
X129919687Y-123970752D02*
X129967306Y-124065990D01*
X129967306Y-124065990D02*
X130014925Y-124113609D01*
X130014925Y-124113609D02*
X130110163Y-124161228D01*
X130110163Y-124161228D02*
X130491115Y-124161228D01*
X129110163Y-124589800D02*
X129205401Y-124637419D01*
X129205401Y-124637419D02*
X129395877Y-124637419D01*
X129395877Y-124637419D02*
X129491115Y-124589800D01*
X129491115Y-124589800D02*
X129538734Y-124494561D01*
X129538734Y-124494561D02*
X129538734Y-124113609D01*
X129538734Y-124113609D02*
X129491115Y-124018371D01*
X129491115Y-124018371D02*
X129395877Y-123970752D01*
X129395877Y-123970752D02*
X129205401Y-123970752D01*
X129205401Y-123970752D02*
X129110163Y-124018371D01*
X129110163Y-124018371D02*
X129062544Y-124113609D01*
X129062544Y-124113609D02*
X129062544Y-124208847D01*
X129062544Y-124208847D02*
X129538734Y-124304085D01*
X128681591Y-124589800D02*
X128586353Y-124637419D01*
X128586353Y-124637419D02*
X128395877Y-124637419D01*
X128395877Y-124637419D02*
X128300639Y-124589800D01*
X128300639Y-124589800D02*
X128253020Y-124494561D01*
X128253020Y-124494561D02*
X128253020Y-124446942D01*
X128253020Y-124446942D02*
X128300639Y-124351704D01*
X128300639Y-124351704D02*
X128395877Y-124304085D01*
X128395877Y-124304085D02*
X128538734Y-124304085D01*
X128538734Y-124304085D02*
X128633972Y-124256466D01*
X128633972Y-124256466D02*
X128681591Y-124161228D01*
X128681591Y-124161228D02*
X128681591Y-124113609D01*
X128681591Y-124113609D02*
X128633972Y-124018371D01*
X128633972Y-124018371D02*
X128538734Y-123970752D01*
X128538734Y-123970752D02*
X128395877Y-123970752D01*
X128395877Y-123970752D02*
X128300639Y-124018371D01*
X127824448Y-124637419D02*
X127824448Y-123970752D01*
X127824448Y-123637419D02*
X127872067Y-123685038D01*
X127872067Y-123685038D02*
X127824448Y-123732657D01*
X127824448Y-123732657D02*
X127776829Y-123685038D01*
X127776829Y-123685038D02*
X127824448Y-123637419D01*
X127824448Y-123637419D02*
X127824448Y-123732657D01*
X127395877Y-124589800D02*
X127300639Y-124637419D01*
X127300639Y-124637419D02*
X127110163Y-124637419D01*
X127110163Y-124637419D02*
X127014925Y-124589800D01*
X127014925Y-124589800D02*
X126967306Y-124494561D01*
X126967306Y-124494561D02*
X126967306Y-124446942D01*
X126967306Y-124446942D02*
X127014925Y-124351704D01*
X127014925Y-124351704D02*
X127110163Y-124304085D01*
X127110163Y-124304085D02*
X127253020Y-124304085D01*
X127253020Y-124304085D02*
X127348258Y-124256466D01*
X127348258Y-124256466D02*
X127395877Y-124161228D01*
X127395877Y-124161228D02*
X127395877Y-124113609D01*
X127395877Y-124113609D02*
X127348258Y-124018371D01*
X127348258Y-124018371D02*
X127253020Y-123970752D01*
X127253020Y-123970752D02*
X127110163Y-123970752D01*
X127110163Y-123970752D02*
X127014925Y-124018371D01*
X126681591Y-123970752D02*
X126300639Y-123970752D01*
X126538734Y-123637419D02*
X126538734Y-124494561D01*
X126538734Y-124494561D02*
X126491115Y-124589800D01*
X126491115Y-124589800D02*
X126395877Y-124637419D01*
X126395877Y-124637419D02*
X126300639Y-124637419D01*
X125967305Y-124637419D02*
X125967305Y-123970752D01*
X125967305Y-123637419D02*
X126014924Y-123685038D01*
X126014924Y-123685038D02*
X125967305Y-123732657D01*
X125967305Y-123732657D02*
X125919686Y-123685038D01*
X125919686Y-123685038D02*
X125967305Y-123637419D01*
X125967305Y-123637419D02*
X125967305Y-123732657D01*
X125586353Y-123970752D02*
X125348258Y-124637419D01*
X125348258Y-124637419D02*
X125110163Y-123970752D01*
X124348258Y-124589800D02*
X124443496Y-124637419D01*
X124443496Y-124637419D02*
X124633972Y-124637419D01*
X124633972Y-124637419D02*
X124729210Y-124589800D01*
X124729210Y-124589800D02*
X124776829Y-124494561D01*
X124776829Y-124494561D02*
X124776829Y-124113609D01*
X124776829Y-124113609D02*
X124729210Y-124018371D01*
X124729210Y-124018371D02*
X124633972Y-123970752D01*
X124633972Y-123970752D02*
X124443496Y-123970752D01*
X124443496Y-123970752D02*
X124348258Y-124018371D01*
X124348258Y-124018371D02*
X124300639Y-124113609D01*
X124300639Y-124113609D02*
X124300639Y-124208847D01*
X124300639Y-124208847D02*
X124776829Y-124304085D01*
X123253019Y-123637419D02*
X122681591Y-123637419D01*
X122967305Y-124637419D02*
X122967305Y-123637419D01*
X122205400Y-124637419D02*
X122300638Y-124589800D01*
X122300638Y-124589800D02*
X122348257Y-124542180D01*
X122348257Y-124542180D02*
X122395876Y-124446942D01*
X122395876Y-124446942D02*
X122395876Y-124161228D01*
X122395876Y-124161228D02*
X122348257Y-124065990D01*
X122348257Y-124065990D02*
X122300638Y-124018371D01*
X122300638Y-124018371D02*
X122205400Y-123970752D01*
X122205400Y-123970752D02*
X122062543Y-123970752D01*
X122062543Y-123970752D02*
X121967305Y-124018371D01*
X121967305Y-124018371D02*
X121919686Y-124065990D01*
X121919686Y-124065990D02*
X121872067Y-124161228D01*
X121872067Y-124161228D02*
X121872067Y-124446942D01*
X121872067Y-124446942D02*
X121919686Y-124542180D01*
X121919686Y-124542180D02*
X121967305Y-124589800D01*
X121967305Y-124589800D02*
X122062543Y-124637419D01*
X122062543Y-124637419D02*
X122205400Y-124637419D01*
X121014924Y-123970752D02*
X121014924Y-124637419D01*
X121443495Y-123970752D02*
X121443495Y-124494561D01*
X121443495Y-124494561D02*
X121395876Y-124589800D01*
X121395876Y-124589800D02*
X121300638Y-124637419D01*
X121300638Y-124637419D02*
X121157781Y-124637419D01*
X121157781Y-124637419D02*
X121062543Y-124589800D01*
X121062543Y-124589800D02*
X121014924Y-124542180D01*
X120110162Y-124589800D02*
X120205400Y-124637419D01*
X120205400Y-124637419D02*
X120395876Y-124637419D01*
X120395876Y-124637419D02*
X120491114Y-124589800D01*
X120491114Y-124589800D02*
X120538733Y-124542180D01*
X120538733Y-124542180D02*
X120586352Y-124446942D01*
X120586352Y-124446942D02*
X120586352Y-124161228D01*
X120586352Y-124161228D02*
X120538733Y-124065990D01*
X120538733Y-124065990D02*
X120491114Y-124018371D01*
X120491114Y-124018371D02*
X120395876Y-123970752D01*
X120395876Y-123970752D02*
X120205400Y-123970752D01*
X120205400Y-123970752D02*
X120110162Y-124018371D01*
X119681590Y-124637419D02*
X119681590Y-123637419D01*
X119253019Y-124637419D02*
X119253019Y-124113609D01*
X119253019Y-124113609D02*
X119300638Y-124018371D01*
X119300638Y-124018371D02*
X119395876Y-123970752D01*
X119395876Y-123970752D02*
X119538733Y-123970752D01*
X119538733Y-123970752D02*
X119633971Y-124018371D01*
X119633971Y-124018371D02*
X119681590Y-124065990D01*
X112076115Y-132892419D02*
X112076115Y-131892419D01*
X111409449Y-131892419D02*
X111218973Y-131892419D01*
X111218973Y-131892419D02*
X111123735Y-131940038D01*
X111123735Y-131940038D02*
X111028497Y-132035276D01*
X111028497Y-132035276D02*
X110980878Y-132225752D01*
X110980878Y-132225752D02*
X110980878Y-132559085D01*
X110980878Y-132559085D02*
X111028497Y-132749561D01*
X111028497Y-132749561D02*
X111123735Y-132844800D01*
X111123735Y-132844800D02*
X111218973Y-132892419D01*
X111218973Y-132892419D02*
X111409449Y-132892419D01*
X111409449Y-132892419D02*
X111504687Y-132844800D01*
X111504687Y-132844800D02*
X111599925Y-132749561D01*
X111599925Y-132749561D02*
X111647544Y-132559085D01*
X111647544Y-132559085D02*
X111647544Y-132225752D01*
X111647544Y-132225752D02*
X111599925Y-132035276D01*
X111599925Y-132035276D02*
X111504687Y-131940038D01*
X111504687Y-131940038D02*
X111409449Y-131892419D01*
X110028497Y-132892419D02*
X110599925Y-132892419D01*
X110314211Y-132892419D02*
X110314211Y-131892419D01*
X110314211Y-131892419D02*
X110409449Y-132035276D01*
X110409449Y-132035276D02*
X110504687Y-132130514D01*
X110504687Y-132130514D02*
X110599925Y-132178133D01*
X109695163Y-131892419D02*
X109028497Y-131892419D01*
X109028497Y-131892419D02*
X109457068Y-132892419D01*
X130491115Y-134797419D02*
X130491115Y-133797419D01*
X129824449Y-133797419D02*
X129633973Y-133797419D01*
X129633973Y-133797419D02*
X129538735Y-133845038D01*
X129538735Y-133845038D02*
X129443497Y-133940276D01*
X129443497Y-133940276D02*
X129395878Y-134130752D01*
X129395878Y-134130752D02*
X129395878Y-134464085D01*
X129395878Y-134464085D02*
X129443497Y-134654561D01*
X129443497Y-134654561D02*
X129538735Y-134749800D01*
X129538735Y-134749800D02*
X129633973Y-134797419D01*
X129633973Y-134797419D02*
X129824449Y-134797419D01*
X129824449Y-134797419D02*
X129919687Y-134749800D01*
X129919687Y-134749800D02*
X130014925Y-134654561D01*
X130014925Y-134654561D02*
X130062544Y-134464085D01*
X130062544Y-134464085D02*
X130062544Y-134130752D01*
X130062544Y-134130752D02*
X130014925Y-133940276D01*
X130014925Y-133940276D02*
X129919687Y-133845038D01*
X129919687Y-133845038D02*
X129824449Y-133797419D01*
X129062544Y-133797419D02*
X128443497Y-133797419D01*
X128443497Y-133797419D02*
X128776830Y-134178371D01*
X128776830Y-134178371D02*
X128633973Y-134178371D01*
X128633973Y-134178371D02*
X128538735Y-134225990D01*
X128538735Y-134225990D02*
X128491116Y-134273609D01*
X128491116Y-134273609D02*
X128443497Y-134368847D01*
X128443497Y-134368847D02*
X128443497Y-134606942D01*
X128443497Y-134606942D02*
X128491116Y-134702180D01*
X128491116Y-134702180D02*
X128538735Y-134749800D01*
X128538735Y-134749800D02*
X128633973Y-134797419D01*
X128633973Y-134797419D02*
X128919687Y-134797419D01*
X128919687Y-134797419D02*
X129014925Y-134749800D01*
X129014925Y-134749800D02*
X129062544Y-134702180D01*
X128110163Y-133797419D02*
X127443497Y-133797419D01*
X127443497Y-133797419D02*
X127872068Y-134797419D01*
X111441115Y-109397419D02*
X111441115Y-108397419D01*
X110774449Y-108397419D02*
X110583973Y-108397419D01*
X110583973Y-108397419D02*
X110488735Y-108445038D01*
X110488735Y-108445038D02*
X110393497Y-108540276D01*
X110393497Y-108540276D02*
X110345878Y-108730752D01*
X110345878Y-108730752D02*
X110345878Y-109064085D01*
X110345878Y-109064085D02*
X110393497Y-109254561D01*
X110393497Y-109254561D02*
X110488735Y-109349800D01*
X110488735Y-109349800D02*
X110583973Y-109397419D01*
X110583973Y-109397419D02*
X110774449Y-109397419D01*
X110774449Y-109397419D02*
X110869687Y-109349800D01*
X110869687Y-109349800D02*
X110964925Y-109254561D01*
X110964925Y-109254561D02*
X111012544Y-109064085D01*
X111012544Y-109064085D02*
X111012544Y-108730752D01*
X111012544Y-108730752D02*
X110964925Y-108540276D01*
X110964925Y-108540276D02*
X110869687Y-108445038D01*
X110869687Y-108445038D02*
X110774449Y-108397419D01*
X109441116Y-108397419D02*
X109917306Y-108397419D01*
X109917306Y-108397419D02*
X109964925Y-108873609D01*
X109964925Y-108873609D02*
X109917306Y-108825990D01*
X109917306Y-108825990D02*
X109822068Y-108778371D01*
X109822068Y-108778371D02*
X109583973Y-108778371D01*
X109583973Y-108778371D02*
X109488735Y-108825990D01*
X109488735Y-108825990D02*
X109441116Y-108873609D01*
X109441116Y-108873609D02*
X109393497Y-108968847D01*
X109393497Y-108968847D02*
X109393497Y-109206942D01*
X109393497Y-109206942D02*
X109441116Y-109302180D01*
X109441116Y-109302180D02*
X109488735Y-109349800D01*
X109488735Y-109349800D02*
X109583973Y-109397419D01*
X109583973Y-109397419D02*
X109822068Y-109397419D01*
X109822068Y-109397419D02*
X109917306Y-109349800D01*
X109917306Y-109349800D02*
X109964925Y-109302180D01*
X112076115Y-147497419D02*
X112076115Y-146497419D01*
X111409449Y-146497419D02*
X111218973Y-146497419D01*
X111218973Y-146497419D02*
X111123735Y-146545038D01*
X111123735Y-146545038D02*
X111028497Y-146640276D01*
X111028497Y-146640276D02*
X110980878Y-146830752D01*
X110980878Y-146830752D02*
X110980878Y-147164085D01*
X110980878Y-147164085D02*
X111028497Y-147354561D01*
X111028497Y-147354561D02*
X111123735Y-147449800D01*
X111123735Y-147449800D02*
X111218973Y-147497419D01*
X111218973Y-147497419D02*
X111409449Y-147497419D01*
X111409449Y-147497419D02*
X111504687Y-147449800D01*
X111504687Y-147449800D02*
X111599925Y-147354561D01*
X111599925Y-147354561D02*
X111647544Y-147164085D01*
X111647544Y-147164085D02*
X111647544Y-146830752D01*
X111647544Y-146830752D02*
X111599925Y-146640276D01*
X111599925Y-146640276D02*
X111504687Y-146545038D01*
X111504687Y-146545038D02*
X111409449Y-146497419D01*
X110123735Y-146830752D02*
X110123735Y-147497419D01*
X110361830Y-146449800D02*
X110599925Y-147164085D01*
X110599925Y-147164085D02*
X109980878Y-147164085D01*
X109171354Y-146497419D02*
X109361830Y-146497419D01*
X109361830Y-146497419D02*
X109457068Y-146545038D01*
X109457068Y-146545038D02*
X109504687Y-146592657D01*
X109504687Y-146592657D02*
X109599925Y-146735514D01*
X109599925Y-146735514D02*
X109647544Y-146925990D01*
X109647544Y-146925990D02*
X109647544Y-147306942D01*
X109647544Y-147306942D02*
X109599925Y-147402180D01*
X109599925Y-147402180D02*
X109552306Y-147449800D01*
X109552306Y-147449800D02*
X109457068Y-147497419D01*
X109457068Y-147497419D02*
X109266592Y-147497419D01*
X109266592Y-147497419D02*
X109171354Y-147449800D01*
X109171354Y-147449800D02*
X109123735Y-147402180D01*
X109123735Y-147402180D02*
X109076116Y-147306942D01*
X109076116Y-147306942D02*
X109076116Y-147068847D01*
X109076116Y-147068847D02*
X109123735Y-146973609D01*
X109123735Y-146973609D02*
X109171354Y-146925990D01*
X109171354Y-146925990D02*
X109266592Y-146878371D01*
X109266592Y-146878371D02*
X109457068Y-146878371D01*
X109457068Y-146878371D02*
X109552306Y-146925990D01*
X109552306Y-146925990D02*
X109599925Y-146973609D01*
X109599925Y-146973609D02*
X109647544Y-147068847D01*
X112076115Y-155117419D02*
X112076115Y-154117419D01*
X111409449Y-154117419D02*
X111218973Y-154117419D01*
X111218973Y-154117419D02*
X111123735Y-154165038D01*
X111123735Y-154165038D02*
X111028497Y-154260276D01*
X111028497Y-154260276D02*
X110980878Y-154450752D01*
X110980878Y-154450752D02*
X110980878Y-154784085D01*
X110980878Y-154784085D02*
X111028497Y-154974561D01*
X111028497Y-154974561D02*
X111123735Y-155069800D01*
X111123735Y-155069800D02*
X111218973Y-155117419D01*
X111218973Y-155117419D02*
X111409449Y-155117419D01*
X111409449Y-155117419D02*
X111504687Y-155069800D01*
X111504687Y-155069800D02*
X111599925Y-154974561D01*
X111599925Y-154974561D02*
X111647544Y-154784085D01*
X111647544Y-154784085D02*
X111647544Y-154450752D01*
X111647544Y-154450752D02*
X111599925Y-154260276D01*
X111599925Y-154260276D02*
X111504687Y-154165038D01*
X111504687Y-154165038D02*
X111409449Y-154117419D01*
X110028497Y-155117419D02*
X110599925Y-155117419D01*
X110314211Y-155117419D02*
X110314211Y-154117419D01*
X110314211Y-154117419D02*
X110409449Y-154260276D01*
X110409449Y-154260276D02*
X110504687Y-154355514D01*
X110504687Y-154355514D02*
X110599925Y-154403133D01*
X109076116Y-155117419D02*
X109647544Y-155117419D01*
X109361830Y-155117419D02*
X109361830Y-154117419D01*
X109361830Y-154117419D02*
X109457068Y-154260276D01*
X109457068Y-154260276D02*
X109552306Y-154355514D01*
X109552306Y-154355514D02*
X109647544Y-154403133D01*
X111441115Y-137337419D02*
X111441115Y-136337419D01*
X110774449Y-136337419D02*
X110583973Y-136337419D01*
X110583973Y-136337419D02*
X110488735Y-136385038D01*
X110488735Y-136385038D02*
X110393497Y-136480276D01*
X110393497Y-136480276D02*
X110345878Y-136670752D01*
X110345878Y-136670752D02*
X110345878Y-137004085D01*
X110345878Y-137004085D02*
X110393497Y-137194561D01*
X110393497Y-137194561D02*
X110488735Y-137289800D01*
X110488735Y-137289800D02*
X110583973Y-137337419D01*
X110583973Y-137337419D02*
X110774449Y-137337419D01*
X110774449Y-137337419D02*
X110869687Y-137289800D01*
X110869687Y-137289800D02*
X110964925Y-137194561D01*
X110964925Y-137194561D02*
X111012544Y-137004085D01*
X111012544Y-137004085D02*
X111012544Y-136670752D01*
X111012544Y-136670752D02*
X110964925Y-136480276D01*
X110964925Y-136480276D02*
X110869687Y-136385038D01*
X110869687Y-136385038D02*
X110774449Y-136337419D01*
X109774449Y-136765990D02*
X109869687Y-136718371D01*
X109869687Y-136718371D02*
X109917306Y-136670752D01*
X109917306Y-136670752D02*
X109964925Y-136575514D01*
X109964925Y-136575514D02*
X109964925Y-136527895D01*
X109964925Y-136527895D02*
X109917306Y-136432657D01*
X109917306Y-136432657D02*
X109869687Y-136385038D01*
X109869687Y-136385038D02*
X109774449Y-136337419D01*
X109774449Y-136337419D02*
X109583973Y-136337419D01*
X109583973Y-136337419D02*
X109488735Y-136385038D01*
X109488735Y-136385038D02*
X109441116Y-136432657D01*
X109441116Y-136432657D02*
X109393497Y-136527895D01*
X109393497Y-136527895D02*
X109393497Y-136575514D01*
X109393497Y-136575514D02*
X109441116Y-136670752D01*
X109441116Y-136670752D02*
X109488735Y-136718371D01*
X109488735Y-136718371D02*
X109583973Y-136765990D01*
X109583973Y-136765990D02*
X109774449Y-136765990D01*
X109774449Y-136765990D02*
X109869687Y-136813609D01*
X109869687Y-136813609D02*
X109917306Y-136861228D01*
X109917306Y-136861228D02*
X109964925Y-136956466D01*
X109964925Y-136956466D02*
X109964925Y-137146942D01*
X109964925Y-137146942D02*
X109917306Y-137242180D01*
X109917306Y-137242180D02*
X109869687Y-137289800D01*
X109869687Y-137289800D02*
X109774449Y-137337419D01*
X109774449Y-137337419D02*
X109583973Y-137337419D01*
X109583973Y-137337419D02*
X109488735Y-137289800D01*
X109488735Y-137289800D02*
X109441116Y-137242180D01*
X109441116Y-137242180D02*
X109393497Y-137146942D01*
X109393497Y-137146942D02*
X109393497Y-136956466D01*
X109393497Y-136956466D02*
X109441116Y-136861228D01*
X109441116Y-136861228D02*
X109488735Y-136813609D01*
X109488735Y-136813609D02*
X109583973Y-136765990D01*
X130491115Y-147497419D02*
X130491115Y-146497419D01*
X129824449Y-146497419D02*
X129633973Y-146497419D01*
X129633973Y-146497419D02*
X129538735Y-146545038D01*
X129538735Y-146545038D02*
X129443497Y-146640276D01*
X129443497Y-146640276D02*
X129395878Y-146830752D01*
X129395878Y-146830752D02*
X129395878Y-147164085D01*
X129395878Y-147164085D02*
X129443497Y-147354561D01*
X129443497Y-147354561D02*
X129538735Y-147449800D01*
X129538735Y-147449800D02*
X129633973Y-147497419D01*
X129633973Y-147497419D02*
X129824449Y-147497419D01*
X129824449Y-147497419D02*
X129919687Y-147449800D01*
X129919687Y-147449800D02*
X130014925Y-147354561D01*
X130014925Y-147354561D02*
X130062544Y-147164085D01*
X130062544Y-147164085D02*
X130062544Y-146830752D01*
X130062544Y-146830752D02*
X130014925Y-146640276D01*
X130014925Y-146640276D02*
X129919687Y-146545038D01*
X129919687Y-146545038D02*
X129824449Y-146497419D01*
X128538735Y-146830752D02*
X128538735Y-147497419D01*
X128776830Y-146449800D02*
X129014925Y-147164085D01*
X129014925Y-147164085D02*
X128395878Y-147164085D01*
X127872068Y-146925990D02*
X127967306Y-146878371D01*
X127967306Y-146878371D02*
X128014925Y-146830752D01*
X128014925Y-146830752D02*
X128062544Y-146735514D01*
X128062544Y-146735514D02*
X128062544Y-146687895D01*
X128062544Y-146687895D02*
X128014925Y-146592657D01*
X128014925Y-146592657D02*
X127967306Y-146545038D01*
X127967306Y-146545038D02*
X127872068Y-146497419D01*
X127872068Y-146497419D02*
X127681592Y-146497419D01*
X127681592Y-146497419D02*
X127586354Y-146545038D01*
X127586354Y-146545038D02*
X127538735Y-146592657D01*
X127538735Y-146592657D02*
X127491116Y-146687895D01*
X127491116Y-146687895D02*
X127491116Y-146735514D01*
X127491116Y-146735514D02*
X127538735Y-146830752D01*
X127538735Y-146830752D02*
X127586354Y-146878371D01*
X127586354Y-146878371D02*
X127681592Y-146925990D01*
X127681592Y-146925990D02*
X127872068Y-146925990D01*
X127872068Y-146925990D02*
X127967306Y-146973609D01*
X127967306Y-146973609D02*
X128014925Y-147021228D01*
X128014925Y-147021228D02*
X128062544Y-147116466D01*
X128062544Y-147116466D02*
X128062544Y-147306942D01*
X128062544Y-147306942D02*
X128014925Y-147402180D01*
X128014925Y-147402180D02*
X127967306Y-147449800D01*
X127967306Y-147449800D02*
X127872068Y-147497419D01*
X127872068Y-147497419D02*
X127681592Y-147497419D01*
X127681592Y-147497419D02*
X127586354Y-147449800D01*
X127586354Y-147449800D02*
X127538735Y-147402180D01*
X127538735Y-147402180D02*
X127491116Y-147306942D01*
X127491116Y-147306942D02*
X127491116Y-147116466D01*
X127491116Y-147116466D02*
X127538735Y-147021228D01*
X127538735Y-147021228D02*
X127586354Y-146973609D01*
X127586354Y-146973609D02*
X127681592Y-146925990D01*
X135571115Y-124932475D02*
X135571115Y-123932475D01*
X135571115Y-123932475D02*
X135237782Y-124646760D01*
X135237782Y-124646760D02*
X134904449Y-123932475D01*
X134904449Y-123932475D02*
X134904449Y-124932475D01*
X134571115Y-123932475D02*
X133999687Y-123932475D01*
X134285401Y-124932475D02*
X134285401Y-123932475D01*
X133094925Y-124837236D02*
X133142544Y-124884856D01*
X133142544Y-124884856D02*
X133285401Y-124932475D01*
X133285401Y-124932475D02*
X133380639Y-124932475D01*
X133380639Y-124932475D02*
X133523496Y-124884856D01*
X133523496Y-124884856D02*
X133618734Y-124789617D01*
X133618734Y-124789617D02*
X133666353Y-124694379D01*
X133666353Y-124694379D02*
X133713972Y-124503903D01*
X133713972Y-124503903D02*
X133713972Y-124361046D01*
X133713972Y-124361046D02*
X133666353Y-124170570D01*
X133666353Y-124170570D02*
X133618734Y-124075332D01*
X133618734Y-124075332D02*
X133523496Y-123980094D01*
X133523496Y-123980094D02*
X133380639Y-123932475D01*
X133380639Y-123932475D02*
X133285401Y-123932475D01*
X133285401Y-123932475D02*
X133142544Y-123980094D01*
X133142544Y-123980094D02*
X133094925Y-124027713D01*
X132666353Y-124932475D02*
X132666353Y-123932475D01*
X132094925Y-124932475D02*
X132523496Y-124361046D01*
X132094925Y-123932475D02*
X132666353Y-124503903D01*
X135285401Y-126923371D02*
X135333020Y-126875752D01*
X135333020Y-126875752D02*
X135428258Y-126732895D01*
X135428258Y-126732895D02*
X135475877Y-126637657D01*
X135475877Y-126637657D02*
X135523496Y-126494800D01*
X135523496Y-126494800D02*
X135571115Y-126256704D01*
X135571115Y-126256704D02*
X135571115Y-126066228D01*
X135571115Y-126066228D02*
X135523496Y-125828133D01*
X135523496Y-125828133D02*
X135475877Y-125685276D01*
X135475877Y-125685276D02*
X135428258Y-125590038D01*
X135428258Y-125590038D02*
X135333020Y-125447180D01*
X135333020Y-125447180D02*
X135285401Y-125399561D01*
X134904448Y-126542419D02*
X134904448Y-125542419D01*
X134237782Y-125542419D02*
X134047306Y-125542419D01*
X134047306Y-125542419D02*
X133952068Y-125590038D01*
X133952068Y-125590038D02*
X133856830Y-125685276D01*
X133856830Y-125685276D02*
X133809211Y-125875752D01*
X133809211Y-125875752D02*
X133809211Y-126209085D01*
X133809211Y-126209085D02*
X133856830Y-126399561D01*
X133856830Y-126399561D02*
X133952068Y-126494800D01*
X133952068Y-126494800D02*
X134047306Y-126542419D01*
X134047306Y-126542419D02*
X134237782Y-126542419D01*
X134237782Y-126542419D02*
X134333020Y-126494800D01*
X134333020Y-126494800D02*
X134428258Y-126399561D01*
X134428258Y-126399561D02*
X134475877Y-126209085D01*
X134475877Y-126209085D02*
X134475877Y-125875752D01*
X134475877Y-125875752D02*
X134428258Y-125685276D01*
X134428258Y-125685276D02*
X134333020Y-125590038D01*
X134333020Y-125590038D02*
X134237782Y-125542419D01*
X133475877Y-125542419D02*
X132856830Y-125542419D01*
X132856830Y-125542419D02*
X133190163Y-125923371D01*
X133190163Y-125923371D02*
X133047306Y-125923371D01*
X133047306Y-125923371D02*
X132952068Y-125970990D01*
X132952068Y-125970990D02*
X132904449Y-126018609D01*
X132904449Y-126018609D02*
X132856830Y-126113847D01*
X132856830Y-126113847D02*
X132856830Y-126351942D01*
X132856830Y-126351942D02*
X132904449Y-126447180D01*
X132904449Y-126447180D02*
X132952068Y-126494800D01*
X132952068Y-126494800D02*
X133047306Y-126542419D01*
X133047306Y-126542419D02*
X133333020Y-126542419D01*
X133333020Y-126542419D02*
X133428258Y-126494800D01*
X133428258Y-126494800D02*
X133475877Y-126447180D01*
X132380639Y-126542419D02*
X132190163Y-126542419D01*
X132190163Y-126542419D02*
X132094925Y-126494800D01*
X132094925Y-126494800D02*
X132047306Y-126447180D01*
X132047306Y-126447180D02*
X131952068Y-126304323D01*
X131952068Y-126304323D02*
X131904449Y-126113847D01*
X131904449Y-126113847D02*
X131904449Y-125732895D01*
X131904449Y-125732895D02*
X131952068Y-125637657D01*
X131952068Y-125637657D02*
X131999687Y-125590038D01*
X131999687Y-125590038D02*
X132094925Y-125542419D01*
X132094925Y-125542419D02*
X132285401Y-125542419D01*
X132285401Y-125542419D02*
X132380639Y-125590038D01*
X132380639Y-125590038D02*
X132428258Y-125637657D01*
X132428258Y-125637657D02*
X132475877Y-125732895D01*
X132475877Y-125732895D02*
X132475877Y-125970990D01*
X132475877Y-125970990D02*
X132428258Y-126066228D01*
X132428258Y-126066228D02*
X132380639Y-126113847D01*
X132380639Y-126113847D02*
X132285401Y-126161466D01*
X132285401Y-126161466D02*
X132094925Y-126161466D01*
X132094925Y-126161466D02*
X131999687Y-126113847D01*
X131999687Y-126113847D02*
X131952068Y-126066228D01*
X131952068Y-126066228D02*
X131904449Y-125970990D01*
X131571115Y-126923371D02*
X131523496Y-126875752D01*
X131523496Y-126875752D02*
X131428258Y-126732895D01*
X131428258Y-126732895D02*
X131380639Y-126637657D01*
X131380639Y-126637657D02*
X131333020Y-126494800D01*
X131333020Y-126494800D02*
X131285401Y-126256704D01*
X131285401Y-126256704D02*
X131285401Y-126066228D01*
X131285401Y-126066228D02*
X131333020Y-125828133D01*
X131333020Y-125828133D02*
X131380639Y-125685276D01*
X131380639Y-125685276D02*
X131428258Y-125590038D01*
X131428258Y-125590038D02*
X131523496Y-125447180D01*
X131523496Y-125447180D02*
X131571115Y-125399561D01*
X126657306Y-140258371D02*
X126681115Y-140210752D01*
X126681115Y-140210752D02*
X126728734Y-140067895D01*
X126728734Y-140067895D02*
X126752544Y-139972657D01*
X126752544Y-139972657D02*
X126776353Y-139829800D01*
X126776353Y-139829800D02*
X126800163Y-139591704D01*
X126800163Y-139591704D02*
X126800163Y-139401228D01*
X126800163Y-139401228D02*
X126776353Y-139163133D01*
X126776353Y-139163133D02*
X126752544Y-139020276D01*
X126752544Y-139020276D02*
X126728734Y-138925038D01*
X126728734Y-138925038D02*
X126681115Y-138782180D01*
X126681115Y-138782180D02*
X126657306Y-138734561D01*
X126466830Y-139877419D02*
X126466830Y-138877419D01*
X126466830Y-138877419D02*
X126276354Y-138877419D01*
X126276354Y-138877419D02*
X126228735Y-138925038D01*
X126228735Y-138925038D02*
X126204925Y-138972657D01*
X126204925Y-138972657D02*
X126181116Y-139067895D01*
X126181116Y-139067895D02*
X126181116Y-139210752D01*
X126181116Y-139210752D02*
X126204925Y-139305990D01*
X126204925Y-139305990D02*
X126228735Y-139353609D01*
X126228735Y-139353609D02*
X126276354Y-139401228D01*
X126276354Y-139401228D02*
X126466830Y-139401228D01*
X125990639Y-139829800D02*
X125919211Y-139877419D01*
X125919211Y-139877419D02*
X125800163Y-139877419D01*
X125800163Y-139877419D02*
X125752544Y-139829800D01*
X125752544Y-139829800D02*
X125728735Y-139782180D01*
X125728735Y-139782180D02*
X125704925Y-139686942D01*
X125704925Y-139686942D02*
X125704925Y-139591704D01*
X125704925Y-139591704D02*
X125728735Y-139496466D01*
X125728735Y-139496466D02*
X125752544Y-139448847D01*
X125752544Y-139448847D02*
X125800163Y-139401228D01*
X125800163Y-139401228D02*
X125895401Y-139353609D01*
X125895401Y-139353609D02*
X125943020Y-139305990D01*
X125943020Y-139305990D02*
X125966830Y-139258371D01*
X125966830Y-139258371D02*
X125990639Y-139163133D01*
X125990639Y-139163133D02*
X125990639Y-139067895D01*
X125990639Y-139067895D02*
X125966830Y-138972657D01*
X125966830Y-138972657D02*
X125943020Y-138925038D01*
X125943020Y-138925038D02*
X125895401Y-138877419D01*
X125895401Y-138877419D02*
X125776354Y-138877419D01*
X125776354Y-138877419D02*
X125704925Y-138925038D01*
X125204926Y-139877419D02*
X125371592Y-139401228D01*
X125490640Y-139877419D02*
X125490640Y-138877419D01*
X125490640Y-138877419D02*
X125300164Y-138877419D01*
X125300164Y-138877419D02*
X125252545Y-138925038D01*
X125252545Y-138925038D02*
X125228735Y-138972657D01*
X125228735Y-138972657D02*
X125204926Y-139067895D01*
X125204926Y-139067895D02*
X125204926Y-139210752D01*
X125204926Y-139210752D02*
X125228735Y-139305990D01*
X125228735Y-139305990D02*
X125252545Y-139353609D01*
X125252545Y-139353609D02*
X125300164Y-139401228D01*
X125300164Y-139401228D02*
X125490640Y-139401228D01*
X125014449Y-139591704D02*
X124776354Y-139591704D01*
X125062068Y-139877419D02*
X124895402Y-138877419D01*
X124895402Y-138877419D02*
X124728735Y-139877419D01*
X124562069Y-139877419D02*
X124562069Y-138877419D01*
X124562069Y-138877419D02*
X124395402Y-139591704D01*
X124395402Y-139591704D02*
X124228736Y-138877419D01*
X124228736Y-138877419D02*
X124228736Y-139877419D01*
X124038259Y-140258371D02*
X124014449Y-140210752D01*
X124014449Y-140210752D02*
X123966830Y-140067895D01*
X123966830Y-140067895D02*
X123943021Y-139972657D01*
X123943021Y-139972657D02*
X123919211Y-139829800D01*
X123919211Y-139829800D02*
X123895402Y-139591704D01*
X123895402Y-139591704D02*
X123895402Y-139401228D01*
X123895402Y-139401228D02*
X123919211Y-139163133D01*
X123919211Y-139163133D02*
X123943021Y-139020276D01*
X123943021Y-139020276D02*
X123966830Y-138925038D01*
X123966830Y-138925038D02*
X124014449Y-138782180D01*
X124014449Y-138782180D02*
X124038259Y-138734561D01*
X130633972Y-105857419D02*
X130062544Y-105857419D01*
X130348258Y-106857419D02*
X130348258Y-105857419D01*
X129824448Y-105857419D02*
X129157782Y-106857419D01*
X129157782Y-105857419D02*
X129824448Y-106857419D01*
X128776829Y-106857419D02*
X128776829Y-105857419D01*
X128776829Y-105857419D02*
X128538734Y-105857419D01*
X128538734Y-105857419D02*
X128395877Y-105905038D01*
X128395877Y-105905038D02*
X128300639Y-106000276D01*
X128300639Y-106000276D02*
X128253020Y-106095514D01*
X128253020Y-106095514D02*
X128205401Y-106285990D01*
X128205401Y-106285990D02*
X128205401Y-106428847D01*
X128205401Y-106428847D02*
X128253020Y-106619323D01*
X128253020Y-106619323D02*
X128300639Y-106714561D01*
X128300639Y-106714561D02*
X128395877Y-106809800D01*
X128395877Y-106809800D02*
X128538734Y-106857419D01*
X128538734Y-106857419D02*
X128776829Y-106857419D01*
X127586353Y-105857419D02*
X127491115Y-105857419D01*
X127491115Y-105857419D02*
X127395877Y-105905038D01*
X127395877Y-105905038D02*
X127348258Y-105952657D01*
X127348258Y-105952657D02*
X127300639Y-106047895D01*
X127300639Y-106047895D02*
X127253020Y-106238371D01*
X127253020Y-106238371D02*
X127253020Y-106476466D01*
X127253020Y-106476466D02*
X127300639Y-106666942D01*
X127300639Y-106666942D02*
X127348258Y-106762180D01*
X127348258Y-106762180D02*
X127395877Y-106809800D01*
X127395877Y-106809800D02*
X127491115Y-106857419D01*
X127491115Y-106857419D02*
X127586353Y-106857419D01*
X127586353Y-106857419D02*
X127681591Y-106809800D01*
X127681591Y-106809800D02*
X127729210Y-106762180D01*
X127729210Y-106762180D02*
X127776829Y-106666942D01*
X127776829Y-106666942D02*
X127824448Y-106476466D01*
X127824448Y-106476466D02*
X127824448Y-106238371D01*
X127824448Y-106238371D02*
X127776829Y-106047895D01*
X127776829Y-106047895D02*
X127729210Y-105952657D01*
X127729210Y-105952657D02*
X127681591Y-105905038D01*
X127681591Y-105905038D02*
X127586353Y-105857419D01*
X125776829Y-107238371D02*
X125824448Y-107190752D01*
X125824448Y-107190752D02*
X125919686Y-107047895D01*
X125919686Y-107047895D02*
X125967305Y-106952657D01*
X125967305Y-106952657D02*
X126014924Y-106809800D01*
X126014924Y-106809800D02*
X126062543Y-106571704D01*
X126062543Y-106571704D02*
X126062543Y-106381228D01*
X126062543Y-106381228D02*
X126014924Y-106143133D01*
X126014924Y-106143133D02*
X125967305Y-106000276D01*
X125967305Y-106000276D02*
X125919686Y-105905038D01*
X125919686Y-105905038D02*
X125824448Y-105762180D01*
X125824448Y-105762180D02*
X125776829Y-105714561D01*
X125395876Y-106857419D02*
X125395876Y-105857419D01*
X124729210Y-105857419D02*
X124538734Y-105857419D01*
X124538734Y-105857419D02*
X124443496Y-105905038D01*
X124443496Y-105905038D02*
X124348258Y-106000276D01*
X124348258Y-106000276D02*
X124300639Y-106190752D01*
X124300639Y-106190752D02*
X124300639Y-106524085D01*
X124300639Y-106524085D02*
X124348258Y-106714561D01*
X124348258Y-106714561D02*
X124443496Y-106809800D01*
X124443496Y-106809800D02*
X124538734Y-106857419D01*
X124538734Y-106857419D02*
X124729210Y-106857419D01*
X124729210Y-106857419D02*
X124824448Y-106809800D01*
X124824448Y-106809800D02*
X124919686Y-106714561D01*
X124919686Y-106714561D02*
X124967305Y-106524085D01*
X124967305Y-106524085D02*
X124967305Y-106190752D01*
X124967305Y-106190752D02*
X124919686Y-106000276D01*
X124919686Y-106000276D02*
X124824448Y-105905038D01*
X124824448Y-105905038D02*
X124729210Y-105857419D01*
X123443496Y-106190752D02*
X123443496Y-106857419D01*
X123681591Y-105809800D02*
X123919686Y-106524085D01*
X123919686Y-106524085D02*
X123300639Y-106524085D01*
X123014924Y-105857419D02*
X122395877Y-105857419D01*
X122395877Y-105857419D02*
X122729210Y-106238371D01*
X122729210Y-106238371D02*
X122586353Y-106238371D01*
X122586353Y-106238371D02*
X122491115Y-106285990D01*
X122491115Y-106285990D02*
X122443496Y-106333609D01*
X122443496Y-106333609D02*
X122395877Y-106428847D01*
X122395877Y-106428847D02*
X122395877Y-106666942D01*
X122395877Y-106666942D02*
X122443496Y-106762180D01*
X122443496Y-106762180D02*
X122491115Y-106809800D01*
X122491115Y-106809800D02*
X122586353Y-106857419D01*
X122586353Y-106857419D02*
X122872067Y-106857419D01*
X122872067Y-106857419D02*
X122967305Y-106809800D01*
X122967305Y-106809800D02*
X123014924Y-106762180D01*
X122062543Y-107238371D02*
X122014924Y-107190752D01*
X122014924Y-107190752D02*
X121919686Y-107047895D01*
X121919686Y-107047895D02*
X121872067Y-106952657D01*
X121872067Y-106952657D02*
X121824448Y-106809800D01*
X121824448Y-106809800D02*
X121776829Y-106571704D01*
X121776829Y-106571704D02*
X121776829Y-106381228D01*
X121776829Y-106381228D02*
X121824448Y-106143133D01*
X121824448Y-106143133D02*
X121872067Y-106000276D01*
X121872067Y-106000276D02*
X121919686Y-105905038D01*
X121919686Y-105905038D02*
X122014924Y-105762180D01*
X122014924Y-105762180D02*
X122062543Y-105714561D01*
X115933734Y-126272657D02*
X115886115Y-126225038D01*
X115886115Y-126225038D02*
X115790877Y-126177419D01*
X115790877Y-126177419D02*
X115552782Y-126177419D01*
X115552782Y-126177419D02*
X115457544Y-126225038D01*
X115457544Y-126225038D02*
X115409925Y-126272657D01*
X115409925Y-126272657D02*
X115362306Y-126367895D01*
X115362306Y-126367895D02*
X115362306Y-126463133D01*
X115362306Y-126463133D02*
X115409925Y-126605990D01*
X115409925Y-126605990D02*
X115981353Y-127177419D01*
X115981353Y-127177419D02*
X115362306Y-127177419D01*
X117132306Y-145338371D02*
X117156115Y-145290752D01*
X117156115Y-145290752D02*
X117203734Y-145147895D01*
X117203734Y-145147895D02*
X117227544Y-145052657D01*
X117227544Y-145052657D02*
X117251353Y-144909800D01*
X117251353Y-144909800D02*
X117275163Y-144671704D01*
X117275163Y-144671704D02*
X117275163Y-144481228D01*
X117275163Y-144481228D02*
X117251353Y-144243133D01*
X117251353Y-144243133D02*
X117227544Y-144100276D01*
X117227544Y-144100276D02*
X117203734Y-144005038D01*
X117203734Y-144005038D02*
X117156115Y-143862180D01*
X117156115Y-143862180D02*
X117132306Y-143814561D01*
X116775163Y-144433609D02*
X116703735Y-144481228D01*
X116703735Y-144481228D02*
X116679925Y-144528847D01*
X116679925Y-144528847D02*
X116656116Y-144624085D01*
X116656116Y-144624085D02*
X116656116Y-144766942D01*
X116656116Y-144766942D02*
X116679925Y-144862180D01*
X116679925Y-144862180D02*
X116703735Y-144909800D01*
X116703735Y-144909800D02*
X116751354Y-144957419D01*
X116751354Y-144957419D02*
X116941830Y-144957419D01*
X116941830Y-144957419D02*
X116941830Y-143957419D01*
X116941830Y-143957419D02*
X116775163Y-143957419D01*
X116775163Y-143957419D02*
X116727544Y-144005038D01*
X116727544Y-144005038D02*
X116703735Y-144052657D01*
X116703735Y-144052657D02*
X116679925Y-144147895D01*
X116679925Y-144147895D02*
X116679925Y-144243133D01*
X116679925Y-144243133D02*
X116703735Y-144338371D01*
X116703735Y-144338371D02*
X116727544Y-144385990D01*
X116727544Y-144385990D02*
X116775163Y-144433609D01*
X116775163Y-144433609D02*
X116941830Y-144433609D01*
X116346592Y-143957419D02*
X116251354Y-143957419D01*
X116251354Y-143957419D02*
X116203735Y-144005038D01*
X116203735Y-144005038D02*
X116156116Y-144100276D01*
X116156116Y-144100276D02*
X116132306Y-144290752D01*
X116132306Y-144290752D02*
X116132306Y-144624085D01*
X116132306Y-144624085D02*
X116156116Y-144814561D01*
X116156116Y-144814561D02*
X116203735Y-144909800D01*
X116203735Y-144909800D02*
X116251354Y-144957419D01*
X116251354Y-144957419D02*
X116346592Y-144957419D01*
X116346592Y-144957419D02*
X116394211Y-144909800D01*
X116394211Y-144909800D02*
X116441830Y-144814561D01*
X116441830Y-144814561D02*
X116465639Y-144624085D01*
X116465639Y-144624085D02*
X116465639Y-144290752D01*
X116465639Y-144290752D02*
X116441830Y-144100276D01*
X116441830Y-144100276D02*
X116394211Y-144005038D01*
X116394211Y-144005038D02*
X116346592Y-143957419D01*
X115822782Y-143957419D02*
X115727544Y-143957419D01*
X115727544Y-143957419D02*
X115679925Y-144005038D01*
X115679925Y-144005038D02*
X115632306Y-144100276D01*
X115632306Y-144100276D02*
X115608496Y-144290752D01*
X115608496Y-144290752D02*
X115608496Y-144624085D01*
X115608496Y-144624085D02*
X115632306Y-144814561D01*
X115632306Y-144814561D02*
X115679925Y-144909800D01*
X115679925Y-144909800D02*
X115727544Y-144957419D01*
X115727544Y-144957419D02*
X115822782Y-144957419D01*
X115822782Y-144957419D02*
X115870401Y-144909800D01*
X115870401Y-144909800D02*
X115918020Y-144814561D01*
X115918020Y-144814561D02*
X115941829Y-144624085D01*
X115941829Y-144624085D02*
X115941829Y-144290752D01*
X115941829Y-144290752D02*
X115918020Y-144100276D01*
X115918020Y-144100276D02*
X115870401Y-144005038D01*
X115870401Y-144005038D02*
X115822782Y-143957419D01*
X115465638Y-143957419D02*
X115179924Y-143957419D01*
X115322781Y-144957419D02*
X115322781Y-143957419D01*
X114656115Y-144909800D02*
X114584687Y-144957419D01*
X114584687Y-144957419D02*
X114465639Y-144957419D01*
X114465639Y-144957419D02*
X114418020Y-144909800D01*
X114418020Y-144909800D02*
X114394211Y-144862180D01*
X114394211Y-144862180D02*
X114370401Y-144766942D01*
X114370401Y-144766942D02*
X114370401Y-144671704D01*
X114370401Y-144671704D02*
X114394211Y-144576466D01*
X114394211Y-144576466D02*
X114418020Y-144528847D01*
X114418020Y-144528847D02*
X114465639Y-144481228D01*
X114465639Y-144481228D02*
X114560877Y-144433609D01*
X114560877Y-144433609D02*
X114608496Y-144385990D01*
X114608496Y-144385990D02*
X114632306Y-144338371D01*
X114632306Y-144338371D02*
X114656115Y-144243133D01*
X114656115Y-144243133D02*
X114656115Y-144147895D01*
X114656115Y-144147895D02*
X114632306Y-144052657D01*
X114632306Y-144052657D02*
X114608496Y-144005038D01*
X114608496Y-144005038D02*
X114560877Y-143957419D01*
X114560877Y-143957419D02*
X114441830Y-143957419D01*
X114441830Y-143957419D02*
X114370401Y-144005038D01*
X114227544Y-143957419D02*
X113941830Y-143957419D01*
X114084687Y-144957419D02*
X114084687Y-143957419D01*
X113489450Y-144957419D02*
X113656116Y-144481228D01*
X113775164Y-144957419D02*
X113775164Y-143957419D01*
X113775164Y-143957419D02*
X113584688Y-143957419D01*
X113584688Y-143957419D02*
X113537069Y-144005038D01*
X113537069Y-144005038D02*
X113513259Y-144052657D01*
X113513259Y-144052657D02*
X113489450Y-144147895D01*
X113489450Y-144147895D02*
X113489450Y-144290752D01*
X113489450Y-144290752D02*
X113513259Y-144385990D01*
X113513259Y-144385990D02*
X113537069Y-144433609D01*
X113537069Y-144433609D02*
X113584688Y-144481228D01*
X113584688Y-144481228D02*
X113775164Y-144481228D01*
X113298973Y-144671704D02*
X113060878Y-144671704D01*
X113346592Y-144957419D02*
X113179926Y-143957419D01*
X113179926Y-143957419D02*
X113013259Y-144957419D01*
X112846593Y-144957419D02*
X112846593Y-143957419D01*
X112846593Y-143957419D02*
X112656117Y-143957419D01*
X112656117Y-143957419D02*
X112608498Y-144005038D01*
X112608498Y-144005038D02*
X112584688Y-144052657D01*
X112584688Y-144052657D02*
X112560879Y-144147895D01*
X112560879Y-144147895D02*
X112560879Y-144290752D01*
X112560879Y-144290752D02*
X112584688Y-144385990D01*
X112584688Y-144385990D02*
X112608498Y-144433609D01*
X112608498Y-144433609D02*
X112656117Y-144481228D01*
X112656117Y-144481228D02*
X112846593Y-144481228D01*
X112394212Y-145338371D02*
X112370402Y-145290752D01*
X112370402Y-145290752D02*
X112322783Y-145147895D01*
X112322783Y-145147895D02*
X112298974Y-145052657D01*
X112298974Y-145052657D02*
X112275164Y-144909800D01*
X112275164Y-144909800D02*
X112251355Y-144671704D01*
X112251355Y-144671704D02*
X112251355Y-144481228D01*
X112251355Y-144481228D02*
X112275164Y-144243133D01*
X112275164Y-144243133D02*
X112298974Y-144100276D01*
X112298974Y-144100276D02*
X112322783Y-144005038D01*
X112322783Y-144005038D02*
X112370402Y-143862180D01*
X112370402Y-143862180D02*
X112394212Y-143814561D01*
X130300639Y-126701228D02*
X130300639Y-127177419D01*
X130633972Y-126177419D02*
X130300639Y-126701228D01*
X130300639Y-126701228D02*
X129967306Y-126177419D01*
X129633972Y-126177419D02*
X129633972Y-126986942D01*
X129633972Y-126986942D02*
X129586353Y-127082180D01*
X129586353Y-127082180D02*
X129538734Y-127129800D01*
X129538734Y-127129800D02*
X129443496Y-127177419D01*
X129443496Y-127177419D02*
X129253020Y-127177419D01*
X129253020Y-127177419D02*
X129157782Y-127129800D01*
X129157782Y-127129800D02*
X129110163Y-127082180D01*
X129110163Y-127082180D02*
X129062544Y-126986942D01*
X129062544Y-126986942D02*
X129062544Y-126177419D01*
X113346115Y-101396466D02*
X112584211Y-101396466D01*
X112965163Y-101777419D02*
X112965163Y-101015514D01*
X112203258Y-100777419D02*
X111584211Y-100777419D01*
X111584211Y-100777419D02*
X111917544Y-101158371D01*
X111917544Y-101158371D02*
X111774687Y-101158371D01*
X111774687Y-101158371D02*
X111679449Y-101205990D01*
X111679449Y-101205990D02*
X111631830Y-101253609D01*
X111631830Y-101253609D02*
X111584211Y-101348847D01*
X111584211Y-101348847D02*
X111584211Y-101586942D01*
X111584211Y-101586942D02*
X111631830Y-101682180D01*
X111631830Y-101682180D02*
X111679449Y-101729800D01*
X111679449Y-101729800D02*
X111774687Y-101777419D01*
X111774687Y-101777419D02*
X112060401Y-101777419D01*
X112060401Y-101777419D02*
X112155639Y-101729800D01*
X112155639Y-101729800D02*
X112203258Y-101682180D01*
X111155639Y-101682180D02*
X111108020Y-101729800D01*
X111108020Y-101729800D02*
X111155639Y-101777419D01*
X111155639Y-101777419D02*
X111203258Y-101729800D01*
X111203258Y-101729800D02*
X111155639Y-101682180D01*
X111155639Y-101682180D02*
X111155639Y-101777419D01*
X110774687Y-100777419D02*
X110155640Y-100777419D01*
X110155640Y-100777419D02*
X110488973Y-101158371D01*
X110488973Y-101158371D02*
X110346116Y-101158371D01*
X110346116Y-101158371D02*
X110250878Y-101205990D01*
X110250878Y-101205990D02*
X110203259Y-101253609D01*
X110203259Y-101253609D02*
X110155640Y-101348847D01*
X110155640Y-101348847D02*
X110155640Y-101586942D01*
X110155640Y-101586942D02*
X110203259Y-101682180D01*
X110203259Y-101682180D02*
X110250878Y-101729800D01*
X110250878Y-101729800D02*
X110346116Y-101777419D01*
X110346116Y-101777419D02*
X110631830Y-101777419D01*
X110631830Y-101777419D02*
X110727068Y-101729800D01*
X110727068Y-101729800D02*
X110774687Y-101682180D01*
X109869925Y-100777419D02*
X109536592Y-101777419D01*
X109536592Y-101777419D02*
X109203259Y-100777419D01*
X113346115Y-98856466D02*
X112584211Y-98856466D01*
X112965163Y-99237419D02*
X112965163Y-98475514D01*
X112203258Y-98237419D02*
X111584211Y-98237419D01*
X111584211Y-98237419D02*
X111917544Y-98618371D01*
X111917544Y-98618371D02*
X111774687Y-98618371D01*
X111774687Y-98618371D02*
X111679449Y-98665990D01*
X111679449Y-98665990D02*
X111631830Y-98713609D01*
X111631830Y-98713609D02*
X111584211Y-98808847D01*
X111584211Y-98808847D02*
X111584211Y-99046942D01*
X111584211Y-99046942D02*
X111631830Y-99142180D01*
X111631830Y-99142180D02*
X111679449Y-99189800D01*
X111679449Y-99189800D02*
X111774687Y-99237419D01*
X111774687Y-99237419D02*
X112060401Y-99237419D01*
X112060401Y-99237419D02*
X112155639Y-99189800D01*
X112155639Y-99189800D02*
X112203258Y-99142180D01*
X111155639Y-99142180D02*
X111108020Y-99189800D01*
X111108020Y-99189800D02*
X111155639Y-99237419D01*
X111155639Y-99237419D02*
X111203258Y-99189800D01*
X111203258Y-99189800D02*
X111155639Y-99142180D01*
X111155639Y-99142180D02*
X111155639Y-99237419D01*
X110774687Y-98237419D02*
X110155640Y-98237419D01*
X110155640Y-98237419D02*
X110488973Y-98618371D01*
X110488973Y-98618371D02*
X110346116Y-98618371D01*
X110346116Y-98618371D02*
X110250878Y-98665990D01*
X110250878Y-98665990D02*
X110203259Y-98713609D01*
X110203259Y-98713609D02*
X110155640Y-98808847D01*
X110155640Y-98808847D02*
X110155640Y-99046942D01*
X110155640Y-99046942D02*
X110203259Y-99142180D01*
X110203259Y-99142180D02*
X110250878Y-99189800D01*
X110250878Y-99189800D02*
X110346116Y-99237419D01*
X110346116Y-99237419D02*
X110631830Y-99237419D01*
X110631830Y-99237419D02*
X110727068Y-99189800D01*
X110727068Y-99189800D02*
X110774687Y-99142180D01*
X109869925Y-98237419D02*
X109536592Y-99237419D01*
X109536592Y-99237419D02*
X109203259Y-98237419D01*
X110377544Y-126510752D02*
X110377544Y-127177419D01*
X110615639Y-126129800D02*
X110853734Y-126844085D01*
X110853734Y-126844085D02*
X110234687Y-126844085D01*
X130491115Y-117017419D02*
X130491115Y-116017419D01*
X130491115Y-116017419D02*
X130157782Y-116731704D01*
X130157782Y-116731704D02*
X129824449Y-116017419D01*
X129824449Y-116017419D02*
X129824449Y-117017419D01*
X129491115Y-116017419D02*
X128919687Y-116017419D01*
X129205401Y-117017419D02*
X129205401Y-116017419D01*
X128586353Y-117017419D02*
X128586353Y-116017419D01*
X128586353Y-116017419D02*
X128348258Y-116017419D01*
X128348258Y-116017419D02*
X128205401Y-116065038D01*
X128205401Y-116065038D02*
X128110163Y-116160276D01*
X128110163Y-116160276D02*
X128062544Y-116255514D01*
X128062544Y-116255514D02*
X128014925Y-116445990D01*
X128014925Y-116445990D02*
X128014925Y-116588847D01*
X128014925Y-116588847D02*
X128062544Y-116779323D01*
X128062544Y-116779323D02*
X128110163Y-116874561D01*
X128110163Y-116874561D02*
X128205401Y-116969800D01*
X128205401Y-116969800D02*
X128348258Y-117017419D01*
X128348258Y-117017419D02*
X128586353Y-117017419D01*
X127395877Y-116017419D02*
X127205401Y-116017419D01*
X127205401Y-116017419D02*
X127110163Y-116065038D01*
X127110163Y-116065038D02*
X127014925Y-116160276D01*
X127014925Y-116160276D02*
X126967306Y-116350752D01*
X126967306Y-116350752D02*
X126967306Y-116684085D01*
X126967306Y-116684085D02*
X127014925Y-116874561D01*
X127014925Y-116874561D02*
X127110163Y-116969800D01*
X127110163Y-116969800D02*
X127205401Y-117017419D01*
X127205401Y-117017419D02*
X127395877Y-117017419D01*
X127395877Y-117017419D02*
X127491115Y-116969800D01*
X127491115Y-116969800D02*
X127586353Y-116874561D01*
X127586353Y-116874561D02*
X127633972Y-116684085D01*
X127633972Y-116684085D02*
X127633972Y-116350752D01*
X127633972Y-116350752D02*
X127586353Y-116160276D01*
X127586353Y-116160276D02*
X127491115Y-116065038D01*
X127491115Y-116065038D02*
X127395877Y-116017419D01*
X125491115Y-117398371D02*
X125538734Y-117350752D01*
X125538734Y-117350752D02*
X125633972Y-117207895D01*
X125633972Y-117207895D02*
X125681591Y-117112657D01*
X125681591Y-117112657D02*
X125729210Y-116969800D01*
X125729210Y-116969800D02*
X125776829Y-116731704D01*
X125776829Y-116731704D02*
X125776829Y-116541228D01*
X125776829Y-116541228D02*
X125729210Y-116303133D01*
X125729210Y-116303133D02*
X125681591Y-116160276D01*
X125681591Y-116160276D02*
X125633972Y-116065038D01*
X125633972Y-116065038D02*
X125538734Y-115922180D01*
X125538734Y-115922180D02*
X125491115Y-115874561D01*
X125110162Y-117017419D02*
X125110162Y-116017419D01*
X124443496Y-116017419D02*
X124253020Y-116017419D01*
X124253020Y-116017419D02*
X124157782Y-116065038D01*
X124157782Y-116065038D02*
X124062544Y-116160276D01*
X124062544Y-116160276D02*
X124014925Y-116350752D01*
X124014925Y-116350752D02*
X124014925Y-116684085D01*
X124014925Y-116684085D02*
X124062544Y-116874561D01*
X124062544Y-116874561D02*
X124157782Y-116969800D01*
X124157782Y-116969800D02*
X124253020Y-117017419D01*
X124253020Y-117017419D02*
X124443496Y-117017419D01*
X124443496Y-117017419D02*
X124538734Y-116969800D01*
X124538734Y-116969800D02*
X124633972Y-116874561D01*
X124633972Y-116874561D02*
X124681591Y-116684085D01*
X124681591Y-116684085D02*
X124681591Y-116350752D01*
X124681591Y-116350752D02*
X124633972Y-116160276D01*
X124633972Y-116160276D02*
X124538734Y-116065038D01*
X124538734Y-116065038D02*
X124443496Y-116017419D01*
X123157782Y-116350752D02*
X123157782Y-117017419D01*
X123395877Y-115969800D02*
X123633972Y-116684085D01*
X123633972Y-116684085D02*
X123014925Y-116684085D01*
X122443496Y-116017419D02*
X122348258Y-116017419D01*
X122348258Y-116017419D02*
X122253020Y-116065038D01*
X122253020Y-116065038D02*
X122205401Y-116112657D01*
X122205401Y-116112657D02*
X122157782Y-116207895D01*
X122157782Y-116207895D02*
X122110163Y-116398371D01*
X122110163Y-116398371D02*
X122110163Y-116636466D01*
X122110163Y-116636466D02*
X122157782Y-116826942D01*
X122157782Y-116826942D02*
X122205401Y-116922180D01*
X122205401Y-116922180D02*
X122253020Y-116969800D01*
X122253020Y-116969800D02*
X122348258Y-117017419D01*
X122348258Y-117017419D02*
X122443496Y-117017419D01*
X122443496Y-117017419D02*
X122538734Y-116969800D01*
X122538734Y-116969800D02*
X122586353Y-116922180D01*
X122586353Y-116922180D02*
X122633972Y-116826942D01*
X122633972Y-116826942D02*
X122681591Y-116636466D01*
X122681591Y-116636466D02*
X122681591Y-116398371D01*
X122681591Y-116398371D02*
X122633972Y-116207895D01*
X122633972Y-116207895D02*
X122586353Y-116112657D01*
X122586353Y-116112657D02*
X122538734Y-116065038D01*
X122538734Y-116065038D02*
X122443496Y-116017419D01*
X121776829Y-117398371D02*
X121729210Y-117350752D01*
X121729210Y-117350752D02*
X121633972Y-117207895D01*
X121633972Y-117207895D02*
X121586353Y-117112657D01*
X121586353Y-117112657D02*
X121538734Y-116969800D01*
X121538734Y-116969800D02*
X121491115Y-116731704D01*
X121491115Y-116731704D02*
X121491115Y-116541228D01*
X121491115Y-116541228D02*
X121538734Y-116303133D01*
X121538734Y-116303133D02*
X121586353Y-116160276D01*
X121586353Y-116160276D02*
X121633972Y-116065038D01*
X121633972Y-116065038D02*
X121729210Y-115922180D01*
X121729210Y-115922180D02*
X121776829Y-115874561D01*
D11*
%TO.C,J11*%
X132580000Y-130290000D02*
X132580000Y-163420000D01*
X135340000Y-127640000D02*
X133960000Y-127640000D01*
X135340000Y-129020000D02*
X135340000Y-127640000D01*
X135340000Y-130290000D02*
X132580000Y-130290000D01*
X135340000Y-130290000D02*
X135340000Y-163420000D01*
X135340000Y-163420000D02*
X132580000Y-163420000D01*
%TO.C,J10*%
X104660000Y-130290000D02*
X104660000Y-163420000D01*
X107420000Y-127640000D02*
X106040000Y-127640000D01*
X107420000Y-129020000D02*
X107420000Y-127640000D01*
X107420000Y-130290000D02*
X104660000Y-130290000D01*
X107420000Y-130290000D02*
X107420000Y-163420000D01*
X107420000Y-163420000D02*
X104660000Y-163420000D01*
%TO.C,J5*%
X108750000Y-130880000D02*
X108750000Y-128120000D01*
X116480000Y-128120000D02*
X108750000Y-128120000D01*
X116480000Y-130880000D02*
X108750000Y-130880000D01*
X116480000Y-130880000D02*
X116480000Y-128120000D01*
X117750000Y-130880000D02*
X119130000Y-130880000D01*
X119130000Y-130880000D02*
X119130000Y-129500000D01*
%TO.C,J7*%
X120810000Y-128120000D02*
X120810000Y-129500000D01*
X122190000Y-128120000D02*
X120810000Y-128120000D01*
X123460000Y-128120000D02*
X123460000Y-130880000D01*
X123460000Y-128120000D02*
X131190000Y-128120000D01*
X123460000Y-130880000D02*
X131190000Y-130880000D01*
X131190000Y-128120000D02*
X131190000Y-130880000D01*
%TO.C,J8*%
X104660000Y-97270000D02*
X104660000Y-117700000D01*
X107420000Y-94620000D02*
X106040000Y-94620000D01*
X107420000Y-96000000D02*
X107420000Y-94620000D01*
X107420000Y-97270000D02*
X104660000Y-97270000D01*
X107420000Y-97270000D02*
X107420000Y-117700000D01*
X107420000Y-117700000D02*
X104660000Y-117700000D01*
%TO.C,J9*%
X132580000Y-97270000D02*
X132580000Y-117700000D01*
X135340000Y-94620000D02*
X133960000Y-94620000D01*
X135340000Y-96000000D02*
X135340000Y-94620000D01*
X135340000Y-97270000D02*
X132580000Y-97270000D01*
X135340000Y-97270000D02*
X135340000Y-117700000D01*
X135340000Y-117700000D02*
X132580000Y-117700000D01*
%TD*%
M02*
