%TF.GenerationSoftware,KiCad,Pcbnew,9.0.6*%
%TF.CreationDate,2025-12-29T11:34:57+00:00*%
%TF.ProjectId,ESP32 S3,45535033-3220-4533-932e-6b696361645f,rev?*%
%TF.SameCoordinates,Original*%
%TF.FileFunction,Legend,Top*%
%TF.FilePolarity,Positive*%
%FSLAX46Y46*%
G04 Gerber Fmt 4.6, Leading zero omitted, Abs format (unit mm)*
G04 Created by KiCad (PCBNEW 9.0.6) date 2025-12-29 11:34:57*
%MOMM*%
%LPD*%
G01*
G04 APERTURE LIST*
%ADD10C,0.080000*%
%ADD11C,0.100000*%
%ADD12C,0.150000*%
%ADD13C,0.120000*%
%ADD14C,0.400000*%
G04 APERTURE END LIST*
D10*
X108514506Y-159722130D02*
X108514506Y-159417369D01*
X108666887Y-159569749D02*
X108362125Y-159569749D01*
X108266887Y-159036416D02*
X108266887Y-159226892D01*
X108266887Y-159226892D02*
X108457363Y-159245940D01*
X108457363Y-159245940D02*
X108438316Y-159226892D01*
X108438316Y-159226892D02*
X108419268Y-159188797D01*
X108419268Y-159188797D02*
X108419268Y-159093559D01*
X108419268Y-159093559D02*
X108438316Y-159055464D01*
X108438316Y-159055464D02*
X108457363Y-159036416D01*
X108457363Y-159036416D02*
X108495459Y-159017369D01*
X108495459Y-159017369D02*
X108590697Y-159017369D01*
X108590697Y-159017369D02*
X108628792Y-159036416D01*
X108628792Y-159036416D02*
X108647840Y-159055464D01*
X108647840Y-159055464D02*
X108666887Y-159093559D01*
X108666887Y-159093559D02*
X108666887Y-159188797D01*
X108666887Y-159188797D02*
X108647840Y-159226892D01*
X108647840Y-159226892D02*
X108628792Y-159245940D01*
X108266887Y-158903083D02*
X108666887Y-158769750D01*
X108666887Y-158769750D02*
X108266887Y-158636417D01*
X108024506Y-158392130D02*
X108024506Y-158087369D01*
X108176887Y-158239749D02*
X107872125Y-158239749D01*
X107776887Y-157934988D02*
X107776887Y-157687369D01*
X107776887Y-157687369D02*
X107929268Y-157820702D01*
X107929268Y-157820702D02*
X107929268Y-157763559D01*
X107929268Y-157763559D02*
X107948316Y-157725464D01*
X107948316Y-157725464D02*
X107967363Y-157706416D01*
X107967363Y-157706416D02*
X108005459Y-157687369D01*
X108005459Y-157687369D02*
X108100697Y-157687369D01*
X108100697Y-157687369D02*
X108138792Y-157706416D01*
X108138792Y-157706416D02*
X108157840Y-157725464D01*
X108157840Y-157725464D02*
X108176887Y-157763559D01*
X108176887Y-157763559D02*
X108176887Y-157877845D01*
X108176887Y-157877845D02*
X108157840Y-157915940D01*
X108157840Y-157915940D02*
X108138792Y-157934988D01*
X108138792Y-157515940D02*
X108157840Y-157496893D01*
X108157840Y-157496893D02*
X108176887Y-157515940D01*
X108176887Y-157515940D02*
X108157840Y-157534988D01*
X108157840Y-157534988D02*
X108138792Y-157515940D01*
X108138792Y-157515940D02*
X108176887Y-157515940D01*
X107776887Y-157363560D02*
X107776887Y-157115941D01*
X107776887Y-157115941D02*
X107929268Y-157249274D01*
X107929268Y-157249274D02*
X107929268Y-157192131D01*
X107929268Y-157192131D02*
X107948316Y-157154036D01*
X107948316Y-157154036D02*
X107967363Y-157134988D01*
X107967363Y-157134988D02*
X108005459Y-157115941D01*
X108005459Y-157115941D02*
X108100697Y-157115941D01*
X108100697Y-157115941D02*
X108138792Y-157134988D01*
X108138792Y-157134988D02*
X108157840Y-157154036D01*
X108157840Y-157154036D02*
X108176887Y-157192131D01*
X108176887Y-157192131D02*
X108176887Y-157306417D01*
X108176887Y-157306417D02*
X108157840Y-157344512D01*
X108157840Y-157344512D02*
X108138792Y-157363560D01*
X107776887Y-157001655D02*
X108176887Y-156868322D01*
X108176887Y-156868322D02*
X107776887Y-156734989D01*
X108596887Y-156452130D02*
X108196887Y-156452130D01*
X108196887Y-156185464D02*
X108196887Y-156109273D01*
X108196887Y-156109273D02*
X108215935Y-156071178D01*
X108215935Y-156071178D02*
X108254030Y-156033083D01*
X108254030Y-156033083D02*
X108330220Y-156014035D01*
X108330220Y-156014035D02*
X108463554Y-156014035D01*
X108463554Y-156014035D02*
X108539744Y-156033083D01*
X108539744Y-156033083D02*
X108577840Y-156071178D01*
X108577840Y-156071178D02*
X108596887Y-156109273D01*
X108596887Y-156109273D02*
X108596887Y-156185464D01*
X108596887Y-156185464D02*
X108577840Y-156223559D01*
X108577840Y-156223559D02*
X108539744Y-156261654D01*
X108539744Y-156261654D02*
X108463554Y-156280702D01*
X108463554Y-156280702D02*
X108330220Y-156280702D01*
X108330220Y-156280702D02*
X108254030Y-156261654D01*
X108254030Y-156261654D02*
X108215935Y-156223559D01*
X108215935Y-156223559D02*
X108196887Y-156185464D01*
X108330220Y-155671178D02*
X108596887Y-155671178D01*
X108177840Y-155766416D02*
X108463554Y-155861654D01*
X108463554Y-155861654D02*
X108463554Y-155614035D01*
X108196887Y-155290226D02*
X108196887Y-155366416D01*
X108196887Y-155366416D02*
X108215935Y-155404512D01*
X108215935Y-155404512D02*
X108234982Y-155423559D01*
X108234982Y-155423559D02*
X108292125Y-155461654D01*
X108292125Y-155461654D02*
X108368316Y-155480702D01*
X108368316Y-155480702D02*
X108520697Y-155480702D01*
X108520697Y-155480702D02*
X108558792Y-155461654D01*
X108558792Y-155461654D02*
X108577840Y-155442607D01*
X108577840Y-155442607D02*
X108596887Y-155404512D01*
X108596887Y-155404512D02*
X108596887Y-155328321D01*
X108596887Y-155328321D02*
X108577840Y-155290226D01*
X108577840Y-155290226D02*
X108558792Y-155271178D01*
X108558792Y-155271178D02*
X108520697Y-155252131D01*
X108520697Y-155252131D02*
X108425459Y-155252131D01*
X108425459Y-155252131D02*
X108387363Y-155271178D01*
X108387363Y-155271178D02*
X108368316Y-155290226D01*
X108368316Y-155290226D02*
X108349268Y-155328321D01*
X108349268Y-155328321D02*
X108349268Y-155404512D01*
X108349268Y-155404512D02*
X108368316Y-155442607D01*
X108368316Y-155442607D02*
X108387363Y-155461654D01*
X108387363Y-155461654D02*
X108425459Y-155480702D01*
D11*
X104650000Y-94600000D02*
X107450000Y-94600000D01*
X107450000Y-117700000D01*
X104650000Y-117700000D01*
X104650000Y-94600000D01*
X132600000Y-94600000D02*
X135350000Y-94600000D01*
X135350000Y-117700000D01*
X132600000Y-117700000D01*
X132600000Y-94600000D01*
X108570000Y-126035000D02*
X119365000Y-126035000D01*
X119365000Y-128100000D01*
X108570000Y-128100000D01*
X108570000Y-126035000D01*
X120635000Y-126035000D02*
X131430000Y-126035000D01*
X131430000Y-128100000D01*
X120635000Y-128100000D01*
X120635000Y-126035000D01*
X104650000Y-127650000D02*
X107450000Y-127650000D01*
X107450000Y-163450000D01*
X104650000Y-163450000D01*
X104650000Y-127650000D01*
X120800000Y-128100000D02*
X131200000Y-128100000D01*
X131200000Y-130900000D01*
X120800000Y-130900000D01*
X120800000Y-128100000D01*
X108750000Y-128100000D02*
X119150000Y-128100000D01*
X119150000Y-130900000D01*
X108750000Y-130900000D01*
X108750000Y-128100000D01*
X132550000Y-127650000D02*
X135350000Y-127650000D01*
X135350000Y-163450000D01*
X132550000Y-163450000D01*
X132550000Y-127650000D01*
X130791979Y-88420985D02*
X131058646Y-89220985D01*
X131058646Y-89220985D02*
X131325312Y-88420985D01*
X132011026Y-89220985D02*
X131553883Y-89220985D01*
X131782455Y-89220985D02*
X131782455Y-88420985D01*
X131782455Y-88420985D02*
X131706264Y-88535270D01*
X131706264Y-88535270D02*
X131630074Y-88611461D01*
X131630074Y-88611461D02*
X131553883Y-88649556D01*
X132963408Y-89220985D02*
X132963408Y-88420985D01*
X132963408Y-88725747D02*
X133039598Y-88687651D01*
X133039598Y-88687651D02*
X133191979Y-88687651D01*
X133191979Y-88687651D02*
X133268170Y-88725747D01*
X133268170Y-88725747D02*
X133306265Y-88763842D01*
X133306265Y-88763842D02*
X133344360Y-88840032D01*
X133344360Y-88840032D02*
X133344360Y-89068604D01*
X133344360Y-89068604D02*
X133306265Y-89144794D01*
X133306265Y-89144794D02*
X133268170Y-89182890D01*
X133268170Y-89182890D02*
X133191979Y-89220985D01*
X133191979Y-89220985D02*
X133039598Y-89220985D01*
X133039598Y-89220985D02*
X132963408Y-89182890D01*
X133611027Y-88687651D02*
X133801503Y-89220985D01*
X133991980Y-88687651D02*
X133801503Y-89220985D01*
X133801503Y-89220985D02*
X133725313Y-89411461D01*
X133725313Y-89411461D02*
X133687218Y-89449556D01*
X133687218Y-89449556D02*
X133611027Y-89487651D01*
X130906265Y-90089892D02*
X131172931Y-90089892D01*
X131287217Y-90508940D02*
X130906265Y-90508940D01*
X130906265Y-90508940D02*
X130906265Y-89708940D01*
X130906265Y-89708940D02*
X131287217Y-89708940D01*
X131972932Y-90508940D02*
X131972932Y-89708940D01*
X131972932Y-90470845D02*
X131896741Y-90508940D01*
X131896741Y-90508940D02*
X131744360Y-90508940D01*
X131744360Y-90508940D02*
X131668170Y-90470845D01*
X131668170Y-90470845D02*
X131630075Y-90432749D01*
X131630075Y-90432749D02*
X131591979Y-90356559D01*
X131591979Y-90356559D02*
X131591979Y-90127987D01*
X131591979Y-90127987D02*
X131630075Y-90051797D01*
X131630075Y-90051797D02*
X131668170Y-90013702D01*
X131668170Y-90013702D02*
X131744360Y-89975606D01*
X131744360Y-89975606D02*
X131896741Y-89975606D01*
X131896741Y-89975606D02*
X131972932Y-90013702D01*
X132696742Y-89975606D02*
X132696742Y-90508940D01*
X132353885Y-89975606D02*
X132353885Y-90394654D01*
X132353885Y-90394654D02*
X132391980Y-90470845D01*
X132391980Y-90470845D02*
X132468170Y-90508940D01*
X132468170Y-90508940D02*
X132582456Y-90508940D01*
X132582456Y-90508940D02*
X132658647Y-90470845D01*
X132658647Y-90470845D02*
X132696742Y-90432749D01*
X133420552Y-90508940D02*
X133420552Y-90089892D01*
X133420552Y-90089892D02*
X133382457Y-90013702D01*
X133382457Y-90013702D02*
X133306266Y-89975606D01*
X133306266Y-89975606D02*
X133153885Y-89975606D01*
X133153885Y-89975606D02*
X133077695Y-90013702D01*
X133420552Y-90470845D02*
X133344361Y-90508940D01*
X133344361Y-90508940D02*
X133153885Y-90508940D01*
X133153885Y-90508940D02*
X133077695Y-90470845D01*
X133077695Y-90470845D02*
X133039599Y-90394654D01*
X133039599Y-90394654D02*
X133039599Y-90318464D01*
X133039599Y-90318464D02*
X133077695Y-90242273D01*
X133077695Y-90242273D02*
X133153885Y-90204178D01*
X133153885Y-90204178D02*
X133344361Y-90204178D01*
X133344361Y-90204178D02*
X133420552Y-90166083D01*
X133801505Y-90508940D02*
X133801505Y-89975606D01*
X133801505Y-90127987D02*
X133839600Y-90051797D01*
X133839600Y-90051797D02*
X133877695Y-90013702D01*
X133877695Y-90013702D02*
X133953886Y-89975606D01*
X133953886Y-89975606D02*
X134030076Y-89975606D01*
X134639600Y-90508940D02*
X134639600Y-89708940D01*
X134639600Y-90470845D02*
X134563409Y-90508940D01*
X134563409Y-90508940D02*
X134411028Y-90508940D01*
X134411028Y-90508940D02*
X134334838Y-90470845D01*
X134334838Y-90470845D02*
X134296743Y-90432749D01*
X134296743Y-90432749D02*
X134258647Y-90356559D01*
X134258647Y-90356559D02*
X134258647Y-90127987D01*
X134258647Y-90127987D02*
X134296743Y-90051797D01*
X134296743Y-90051797D02*
X134334838Y-90013702D01*
X134334838Y-90013702D02*
X134411028Y-89975606D01*
X134411028Y-89975606D02*
X134563409Y-89975606D01*
X134563409Y-89975606D02*
X134639600Y-90013702D01*
X131172931Y-91377847D02*
X131287217Y-91415942D01*
X131287217Y-91415942D02*
X131325312Y-91454038D01*
X131325312Y-91454038D02*
X131363408Y-91530228D01*
X131363408Y-91530228D02*
X131363408Y-91644514D01*
X131363408Y-91644514D02*
X131325312Y-91720704D01*
X131325312Y-91720704D02*
X131287217Y-91758800D01*
X131287217Y-91758800D02*
X131211027Y-91796895D01*
X131211027Y-91796895D02*
X130906265Y-91796895D01*
X130906265Y-91796895D02*
X130906265Y-90996895D01*
X130906265Y-90996895D02*
X131172931Y-90996895D01*
X131172931Y-90996895D02*
X131249122Y-91034990D01*
X131249122Y-91034990D02*
X131287217Y-91073085D01*
X131287217Y-91073085D02*
X131325312Y-91149276D01*
X131325312Y-91149276D02*
X131325312Y-91225466D01*
X131325312Y-91225466D02*
X131287217Y-91301657D01*
X131287217Y-91301657D02*
X131249122Y-91339752D01*
X131249122Y-91339752D02*
X131172931Y-91377847D01*
X131172931Y-91377847D02*
X130906265Y-91377847D01*
X131706265Y-91796895D02*
X131706265Y-91263561D01*
X131706265Y-91415942D02*
X131744360Y-91339752D01*
X131744360Y-91339752D02*
X131782455Y-91301657D01*
X131782455Y-91301657D02*
X131858646Y-91263561D01*
X131858646Y-91263561D02*
X131934836Y-91263561D01*
X132201503Y-91796895D02*
X132201503Y-91263561D01*
X132201503Y-90996895D02*
X132163407Y-91034990D01*
X132163407Y-91034990D02*
X132201503Y-91073085D01*
X132201503Y-91073085D02*
X132239598Y-91034990D01*
X132239598Y-91034990D02*
X132201503Y-90996895D01*
X132201503Y-90996895D02*
X132201503Y-91073085D01*
X132544359Y-91758800D02*
X132620550Y-91796895D01*
X132620550Y-91796895D02*
X132772931Y-91796895D01*
X132772931Y-91796895D02*
X132849121Y-91758800D01*
X132849121Y-91758800D02*
X132887217Y-91682609D01*
X132887217Y-91682609D02*
X132887217Y-91644514D01*
X132887217Y-91644514D02*
X132849121Y-91568323D01*
X132849121Y-91568323D02*
X132772931Y-91530228D01*
X132772931Y-91530228D02*
X132658645Y-91530228D01*
X132658645Y-91530228D02*
X132582455Y-91492133D01*
X132582455Y-91492133D02*
X132544359Y-91415942D01*
X132544359Y-91415942D02*
X132544359Y-91377847D01*
X132544359Y-91377847D02*
X132582455Y-91301657D01*
X132582455Y-91301657D02*
X132658645Y-91263561D01*
X132658645Y-91263561D02*
X132772931Y-91263561D01*
X132772931Y-91263561D02*
X132849121Y-91301657D01*
X133572931Y-91758800D02*
X133496740Y-91796895D01*
X133496740Y-91796895D02*
X133344359Y-91796895D01*
X133344359Y-91796895D02*
X133268169Y-91758800D01*
X133268169Y-91758800D02*
X133230074Y-91720704D01*
X133230074Y-91720704D02*
X133191978Y-91644514D01*
X133191978Y-91644514D02*
X133191978Y-91415942D01*
X133191978Y-91415942D02*
X133230074Y-91339752D01*
X133230074Y-91339752D02*
X133268169Y-91301657D01*
X133268169Y-91301657D02*
X133344359Y-91263561D01*
X133344359Y-91263561D02*
X133496740Y-91263561D01*
X133496740Y-91263561D02*
X133572931Y-91301657D01*
X134258645Y-91796895D02*
X134258645Y-91377847D01*
X134258645Y-91377847D02*
X134220550Y-91301657D01*
X134220550Y-91301657D02*
X134144359Y-91263561D01*
X134144359Y-91263561D02*
X133991978Y-91263561D01*
X133991978Y-91263561D02*
X133915788Y-91301657D01*
X134258645Y-91758800D02*
X134182454Y-91796895D01*
X134182454Y-91796895D02*
X133991978Y-91796895D01*
X133991978Y-91796895D02*
X133915788Y-91758800D01*
X133915788Y-91758800D02*
X133877692Y-91682609D01*
X133877692Y-91682609D02*
X133877692Y-91606419D01*
X133877692Y-91606419D02*
X133915788Y-91530228D01*
X133915788Y-91530228D02*
X133991978Y-91492133D01*
X133991978Y-91492133D02*
X134182454Y-91492133D01*
X134182454Y-91492133D02*
X134258645Y-91454038D01*
X121891312Y-127558419D02*
X121557979Y-127082228D01*
X121319884Y-127558419D02*
X121319884Y-126558419D01*
X121319884Y-126558419D02*
X121700836Y-126558419D01*
X121700836Y-126558419D02*
X121796074Y-126606038D01*
X121796074Y-126606038D02*
X121843693Y-126653657D01*
X121843693Y-126653657D02*
X121891312Y-126748895D01*
X121891312Y-126748895D02*
X121891312Y-126891752D01*
X121891312Y-126891752D02*
X121843693Y-126986990D01*
X121843693Y-126986990D02*
X121796074Y-127034609D01*
X121796074Y-127034609D02*
X121700836Y-127082228D01*
X121700836Y-127082228D02*
X121319884Y-127082228D01*
X122700836Y-127510800D02*
X122605598Y-127558419D01*
X122605598Y-127558419D02*
X122415122Y-127558419D01*
X122415122Y-127558419D02*
X122319884Y-127510800D01*
X122319884Y-127510800D02*
X122272265Y-127415561D01*
X122272265Y-127415561D02*
X122272265Y-127034609D01*
X122272265Y-127034609D02*
X122319884Y-126939371D01*
X122319884Y-126939371D02*
X122415122Y-126891752D01*
X122415122Y-126891752D02*
X122605598Y-126891752D01*
X122605598Y-126891752D02*
X122700836Y-126939371D01*
X122700836Y-126939371D02*
X122748455Y-127034609D01*
X122748455Y-127034609D02*
X122748455Y-127129847D01*
X122748455Y-127129847D02*
X122272265Y-127225085D01*
X123891312Y-126510800D02*
X123034170Y-127796514D01*
X124224646Y-127558419D02*
X124224646Y-126891752D01*
X124224646Y-126558419D02*
X124177027Y-126606038D01*
X124177027Y-126606038D02*
X124224646Y-126653657D01*
X124224646Y-126653657D02*
X124272265Y-126606038D01*
X124272265Y-126606038D02*
X124224646Y-126558419D01*
X124224646Y-126558419D02*
X124224646Y-126653657D01*
X124605598Y-126891752D02*
X124843693Y-127558419D01*
X124843693Y-127558419D02*
X125081788Y-126891752D01*
X125843693Y-127510800D02*
X125748455Y-127558419D01*
X125748455Y-127558419D02*
X125557979Y-127558419D01*
X125557979Y-127558419D02*
X125462741Y-127510800D01*
X125462741Y-127510800D02*
X125415122Y-127415561D01*
X125415122Y-127415561D02*
X125415122Y-127034609D01*
X125415122Y-127034609D02*
X125462741Y-126939371D01*
X125462741Y-126939371D02*
X125557979Y-126891752D01*
X125557979Y-126891752D02*
X125748455Y-126891752D01*
X125748455Y-126891752D02*
X125843693Y-126939371D01*
X125843693Y-126939371D02*
X125891312Y-127034609D01*
X125891312Y-127034609D02*
X125891312Y-127129847D01*
X125891312Y-127129847D02*
X125415122Y-127225085D01*
X126938932Y-126558419D02*
X127510360Y-126558419D01*
X127224646Y-127558419D02*
X127224646Y-126558419D01*
X127986551Y-127558419D02*
X127891313Y-127510800D01*
X127891313Y-127510800D02*
X127843694Y-127463180D01*
X127843694Y-127463180D02*
X127796075Y-127367942D01*
X127796075Y-127367942D02*
X127796075Y-127082228D01*
X127796075Y-127082228D02*
X127843694Y-126986990D01*
X127843694Y-126986990D02*
X127891313Y-126939371D01*
X127891313Y-126939371D02*
X127986551Y-126891752D01*
X127986551Y-126891752D02*
X128129408Y-126891752D01*
X128129408Y-126891752D02*
X128224646Y-126939371D01*
X128224646Y-126939371D02*
X128272265Y-126986990D01*
X128272265Y-126986990D02*
X128319884Y-127082228D01*
X128319884Y-127082228D02*
X128319884Y-127367942D01*
X128319884Y-127367942D02*
X128272265Y-127463180D01*
X128272265Y-127463180D02*
X128224646Y-127510800D01*
X128224646Y-127510800D02*
X128129408Y-127558419D01*
X128129408Y-127558419D02*
X127986551Y-127558419D01*
X129177027Y-126891752D02*
X129177027Y-127558419D01*
X128748456Y-126891752D02*
X128748456Y-127415561D01*
X128748456Y-127415561D02*
X128796075Y-127510800D01*
X128796075Y-127510800D02*
X128891313Y-127558419D01*
X128891313Y-127558419D02*
X129034170Y-127558419D01*
X129034170Y-127558419D02*
X129129408Y-127510800D01*
X129129408Y-127510800D02*
X129177027Y-127463180D01*
X130081789Y-127510800D02*
X129986551Y-127558419D01*
X129986551Y-127558419D02*
X129796075Y-127558419D01*
X129796075Y-127558419D02*
X129700837Y-127510800D01*
X129700837Y-127510800D02*
X129653218Y-127463180D01*
X129653218Y-127463180D02*
X129605599Y-127367942D01*
X129605599Y-127367942D02*
X129605599Y-127082228D01*
X129605599Y-127082228D02*
X129653218Y-126986990D01*
X129653218Y-126986990D02*
X129700837Y-126939371D01*
X129700837Y-126939371D02*
X129796075Y-126891752D01*
X129796075Y-126891752D02*
X129986551Y-126891752D01*
X129986551Y-126891752D02*
X130081789Y-126939371D01*
X130510361Y-127558419D02*
X130510361Y-126558419D01*
X130938932Y-127558419D02*
X130938932Y-127034609D01*
X130938932Y-127034609D02*
X130891313Y-126939371D01*
X130891313Y-126939371D02*
X130796075Y-126891752D01*
X130796075Y-126891752D02*
X130653218Y-126891752D01*
X130653218Y-126891752D02*
X130557980Y-126939371D01*
X130557980Y-126939371D02*
X130510361Y-126986990D01*
X110874074Y-127558419D02*
X110397884Y-127558419D01*
X110397884Y-127558419D02*
X110397884Y-126558419D01*
X111207408Y-127034609D02*
X111540741Y-127034609D01*
X111683598Y-127558419D02*
X111207408Y-127558419D01*
X111207408Y-127558419D02*
X111207408Y-126558419D01*
X111207408Y-126558419D02*
X111683598Y-126558419D01*
X112112170Y-127558419D02*
X112112170Y-126558419D01*
X112112170Y-126558419D02*
X112350265Y-126558419D01*
X112350265Y-126558419D02*
X112493122Y-126606038D01*
X112493122Y-126606038D02*
X112588360Y-126701276D01*
X112588360Y-126701276D02*
X112635979Y-126796514D01*
X112635979Y-126796514D02*
X112683598Y-126986990D01*
X112683598Y-126986990D02*
X112683598Y-127129847D01*
X112683598Y-127129847D02*
X112635979Y-127320323D01*
X112635979Y-127320323D02*
X112588360Y-127415561D01*
X112588360Y-127415561D02*
X112493122Y-127510800D01*
X112493122Y-127510800D02*
X112350265Y-127558419D01*
X112350265Y-127558419D02*
X112112170Y-127558419D01*
X113826456Y-127510800D02*
X113969313Y-127558419D01*
X113969313Y-127558419D02*
X114207408Y-127558419D01*
X114207408Y-127558419D02*
X114302646Y-127510800D01*
X114302646Y-127510800D02*
X114350265Y-127463180D01*
X114350265Y-127463180D02*
X114397884Y-127367942D01*
X114397884Y-127367942D02*
X114397884Y-127272704D01*
X114397884Y-127272704D02*
X114350265Y-127177466D01*
X114350265Y-127177466D02*
X114302646Y-127129847D01*
X114302646Y-127129847D02*
X114207408Y-127082228D01*
X114207408Y-127082228D02*
X114016932Y-127034609D01*
X114016932Y-127034609D02*
X113921694Y-126986990D01*
X113921694Y-126986990D02*
X113874075Y-126939371D01*
X113874075Y-126939371D02*
X113826456Y-126844133D01*
X113826456Y-126844133D02*
X113826456Y-126748895D01*
X113826456Y-126748895D02*
X113874075Y-126653657D01*
X113874075Y-126653657D02*
X113921694Y-126606038D01*
X113921694Y-126606038D02*
X114016932Y-126558419D01*
X114016932Y-126558419D02*
X114255027Y-126558419D01*
X114255027Y-126558419D02*
X114397884Y-126606038D01*
X114826456Y-127558419D02*
X114826456Y-126891752D01*
X114826456Y-126558419D02*
X114778837Y-126606038D01*
X114778837Y-126606038D02*
X114826456Y-126653657D01*
X114826456Y-126653657D02*
X114874075Y-126606038D01*
X114874075Y-126606038D02*
X114826456Y-126558419D01*
X114826456Y-126558419D02*
X114826456Y-126653657D01*
X115302646Y-126891752D02*
X115302646Y-127558419D01*
X115302646Y-126986990D02*
X115350265Y-126939371D01*
X115350265Y-126939371D02*
X115445503Y-126891752D01*
X115445503Y-126891752D02*
X115588360Y-126891752D01*
X115588360Y-126891752D02*
X115683598Y-126939371D01*
X115683598Y-126939371D02*
X115731217Y-127034609D01*
X115731217Y-127034609D02*
X115731217Y-127558419D01*
X116207408Y-127558419D02*
X116207408Y-126558419D01*
X116302646Y-127177466D02*
X116588360Y-127558419D01*
X116588360Y-126891752D02*
X116207408Y-127272704D01*
X116969313Y-127510800D02*
X117064551Y-127558419D01*
X117064551Y-127558419D02*
X117255027Y-127558419D01*
X117255027Y-127558419D02*
X117350265Y-127510800D01*
X117350265Y-127510800D02*
X117397884Y-127415561D01*
X117397884Y-127415561D02*
X117397884Y-127367942D01*
X117397884Y-127367942D02*
X117350265Y-127272704D01*
X117350265Y-127272704D02*
X117255027Y-127225085D01*
X117255027Y-127225085D02*
X117112170Y-127225085D01*
X117112170Y-127225085D02*
X117016932Y-127177466D01*
X117016932Y-127177466D02*
X116969313Y-127082228D01*
X116969313Y-127082228D02*
X116969313Y-127034609D01*
X116969313Y-127034609D02*
X117016932Y-126939371D01*
X117016932Y-126939371D02*
X117112170Y-126891752D01*
X117112170Y-126891752D02*
X117255027Y-126891752D01*
X117255027Y-126891752D02*
X117350265Y-126939371D01*
X104551081Y-92000291D02*
X104874329Y-91677043D01*
X105278390Y-92404352D02*
X104712705Y-91838667D01*
X105520827Y-91569293D02*
X105332265Y-91757855D01*
X105628577Y-92054166D02*
X105062891Y-91488481D01*
X105062891Y-91488481D02*
X105332265Y-91219107D01*
X105466952Y-91084420D02*
X105790201Y-90761171D01*
X106194262Y-91488481D02*
X105628577Y-90922795D01*
X106975447Y-90707296D02*
X106409762Y-90141610D01*
X106409762Y-90141610D02*
X106544449Y-90006923D01*
X106544449Y-90006923D02*
X106652198Y-89953049D01*
X106652198Y-89953049D02*
X106759948Y-89953049D01*
X106759948Y-89953049D02*
X106840760Y-89979986D01*
X106840760Y-89979986D02*
X106975447Y-90060798D01*
X106975447Y-90060798D02*
X107056259Y-90141610D01*
X107056259Y-90141610D02*
X107137071Y-90276297D01*
X107137071Y-90276297D02*
X107164009Y-90357110D01*
X107164009Y-90357110D02*
X107164009Y-90464859D01*
X107164009Y-90464859D02*
X107110134Y-90572609D01*
X107110134Y-90572609D02*
X106975447Y-90707296D01*
X107541132Y-90141610D02*
X107164009Y-89764487D01*
X106975447Y-89575925D02*
X106975447Y-89629800D01*
X106975447Y-89629800D02*
X107029322Y-89629800D01*
X107029322Y-89629800D02*
X107029322Y-89575925D01*
X107029322Y-89575925D02*
X106975447Y-89575925D01*
X106975447Y-89575925D02*
X107029322Y-89629800D01*
X107756631Y-89872237D02*
X107837444Y-89845299D01*
X107837444Y-89845299D02*
X107945193Y-89737550D01*
X107945193Y-89737550D02*
X107972131Y-89656738D01*
X107972131Y-89656738D02*
X107945193Y-89575925D01*
X107945193Y-89575925D02*
X107918256Y-89548988D01*
X107918256Y-89548988D02*
X107837444Y-89522051D01*
X107837444Y-89522051D02*
X107756631Y-89548988D01*
X107756631Y-89548988D02*
X107675819Y-89629800D01*
X107675819Y-89629800D02*
X107595007Y-89656738D01*
X107595007Y-89656738D02*
X107514195Y-89629800D01*
X107514195Y-89629800D02*
X107487257Y-89602863D01*
X107487257Y-89602863D02*
X107460320Y-89522051D01*
X107460320Y-89522051D02*
X107487257Y-89441238D01*
X107487257Y-89441238D02*
X107568070Y-89360426D01*
X107568070Y-89360426D02*
X107648882Y-89333489D01*
X107891318Y-89037177D02*
X108457004Y-89602863D01*
X107918256Y-89064115D02*
X107945193Y-88983303D01*
X107945193Y-88983303D02*
X108052943Y-88875553D01*
X108052943Y-88875553D02*
X108133755Y-88848616D01*
X108133755Y-88848616D02*
X108187630Y-88848616D01*
X108187630Y-88848616D02*
X108268442Y-88875553D01*
X108268442Y-88875553D02*
X108430066Y-89037177D01*
X108430066Y-89037177D02*
X108457004Y-89117990D01*
X108457004Y-89117990D02*
X108457004Y-89171864D01*
X108457004Y-89171864D02*
X108430066Y-89252677D01*
X108430066Y-89252677D02*
X108322317Y-89360426D01*
X108322317Y-89360426D02*
X108241505Y-89387364D01*
X108861065Y-88821678D02*
X108780253Y-88848615D01*
X108780253Y-88848615D02*
X108699441Y-88821678D01*
X108699441Y-88821678D02*
X108214567Y-88336805D01*
X109319001Y-88363742D02*
X109022690Y-88067430D01*
X109022690Y-88067430D02*
X108941878Y-88040493D01*
X108941878Y-88040493D02*
X108861065Y-88067430D01*
X108861065Y-88067430D02*
X108753316Y-88175180D01*
X108753316Y-88175180D02*
X108726378Y-88255992D01*
X109292064Y-88336804D02*
X109265126Y-88417616D01*
X109265126Y-88417616D02*
X109130439Y-88552303D01*
X109130439Y-88552303D02*
X109049627Y-88579241D01*
X109049627Y-88579241D02*
X108968815Y-88552303D01*
X108968815Y-88552303D02*
X108914940Y-88498429D01*
X108914940Y-88498429D02*
X108888003Y-88417616D01*
X108888003Y-88417616D02*
X108914940Y-88336804D01*
X108914940Y-88336804D02*
X109049627Y-88202117D01*
X109049627Y-88202117D02*
X109076565Y-88121305D01*
X109157377Y-87771119D02*
X109669188Y-88013555D01*
X109426751Y-87501745D02*
X109669188Y-88013555D01*
X109669188Y-88013555D02*
X109750000Y-88202117D01*
X109750000Y-88202117D02*
X109750000Y-88255992D01*
X109750000Y-88255992D02*
X109723063Y-88336804D01*
X105811989Y-93099575D02*
X106000551Y-92911013D01*
X106377674Y-93126513D02*
X106108300Y-93395887D01*
X106108300Y-93395887D02*
X105542615Y-92830201D01*
X105542615Y-92830201D02*
X105811989Y-92560827D01*
X106566236Y-92884076D02*
X106673986Y-92830201D01*
X106673986Y-92830201D02*
X106808673Y-92695514D01*
X106808673Y-92695514D02*
X106835610Y-92614702D01*
X106835610Y-92614702D02*
X106835610Y-92560827D01*
X106835610Y-92560827D02*
X106808673Y-92480015D01*
X106808673Y-92480015D02*
X106754798Y-92426140D01*
X106754798Y-92426140D02*
X106673986Y-92399202D01*
X106673986Y-92399202D02*
X106620111Y-92399202D01*
X106620111Y-92399202D02*
X106539299Y-92426140D01*
X106539299Y-92426140D02*
X106404612Y-92506952D01*
X106404612Y-92506952D02*
X106323800Y-92533889D01*
X106323800Y-92533889D02*
X106269925Y-92533889D01*
X106269925Y-92533889D02*
X106189113Y-92506952D01*
X106189113Y-92506952D02*
X106135238Y-92453077D01*
X106135238Y-92453077D02*
X106108301Y-92372265D01*
X106108301Y-92372265D02*
X106108301Y-92318390D01*
X106108301Y-92318390D02*
X106135238Y-92237578D01*
X106135238Y-92237578D02*
X106269925Y-92102891D01*
X106269925Y-92102891D02*
X106377675Y-92049016D01*
X107158859Y-92345327D02*
X106593174Y-91779642D01*
X106593174Y-91779642D02*
X106808673Y-91564143D01*
X106808673Y-91564143D02*
X106889485Y-91537205D01*
X106889485Y-91537205D02*
X106943360Y-91537205D01*
X106943360Y-91537205D02*
X107024172Y-91564143D01*
X107024172Y-91564143D02*
X107104985Y-91644955D01*
X107104985Y-91644955D02*
X107131922Y-91725767D01*
X107131922Y-91725767D02*
X107131922Y-91779642D01*
X107131922Y-91779642D02*
X107104985Y-91860454D01*
X107104985Y-91860454D02*
X106889485Y-92075953D01*
X107104985Y-91267831D02*
X107455171Y-90917645D01*
X107455171Y-90917645D02*
X107482108Y-91321706D01*
X107482108Y-91321706D02*
X107562920Y-91240894D01*
X107562920Y-91240894D02*
X107643733Y-91213957D01*
X107643733Y-91213957D02*
X107697607Y-91213957D01*
X107697607Y-91213957D02*
X107778420Y-91240894D01*
X107778420Y-91240894D02*
X107913107Y-91375581D01*
X107913107Y-91375581D02*
X107940044Y-91456393D01*
X107940044Y-91456393D02*
X107940044Y-91510268D01*
X107940044Y-91510268D02*
X107913107Y-91591080D01*
X107913107Y-91591080D02*
X107751482Y-91752705D01*
X107751482Y-91752705D02*
X107670670Y-91779642D01*
X107670670Y-91779642D02*
X107616795Y-91779642D01*
X107724545Y-90756021D02*
X107724545Y-90702146D01*
X107724545Y-90702146D02*
X107751482Y-90621334D01*
X107751482Y-90621334D02*
X107886169Y-90486647D01*
X107886169Y-90486647D02*
X107966982Y-90459709D01*
X107966982Y-90459709D02*
X108020856Y-90459709D01*
X108020856Y-90459709D02*
X108101669Y-90486647D01*
X108101669Y-90486647D02*
X108155543Y-90540521D01*
X108155543Y-90540521D02*
X108209418Y-90648271D01*
X108209418Y-90648271D02*
X108209418Y-91294769D01*
X108209418Y-91294769D02*
X108559604Y-90944582D01*
X109179165Y-90271147D02*
X109286915Y-90217272D01*
X109286915Y-90217272D02*
X109421602Y-90082585D01*
X109421602Y-90082585D02*
X109448539Y-90001773D01*
X109448539Y-90001773D02*
X109448539Y-89947898D01*
X109448539Y-89947898D02*
X109421602Y-89867086D01*
X109421602Y-89867086D02*
X109367727Y-89813211D01*
X109367727Y-89813211D02*
X109286915Y-89786274D01*
X109286915Y-89786274D02*
X109233040Y-89786274D01*
X109233040Y-89786274D02*
X109152228Y-89813211D01*
X109152228Y-89813211D02*
X109017541Y-89894023D01*
X109017541Y-89894023D02*
X108936728Y-89920961D01*
X108936728Y-89920961D02*
X108882854Y-89920961D01*
X108882854Y-89920961D02*
X108802041Y-89894023D01*
X108802041Y-89894023D02*
X108748167Y-89840149D01*
X108748167Y-89840149D02*
X108721229Y-89759336D01*
X108721229Y-89759336D02*
X108721229Y-89705462D01*
X108721229Y-89705462D02*
X108748167Y-89624649D01*
X108748167Y-89624649D02*
X108882854Y-89489962D01*
X108882854Y-89489962D02*
X108990603Y-89436088D01*
X109152228Y-89220588D02*
X109502414Y-88870402D01*
X109502414Y-88870402D02*
X109529351Y-89274463D01*
X109529351Y-89274463D02*
X109610164Y-89193651D01*
X109610164Y-89193651D02*
X109690976Y-89166713D01*
X109690976Y-89166713D02*
X109744851Y-89166713D01*
X109744851Y-89166713D02*
X109825663Y-89193651D01*
X109825663Y-89193651D02*
X109960350Y-89328338D01*
X109960350Y-89328338D02*
X109987287Y-89409150D01*
X109987287Y-89409150D02*
X109987287Y-89463025D01*
X109987287Y-89463025D02*
X109960350Y-89543837D01*
X109960350Y-89543837D02*
X109798725Y-89705461D01*
X109798725Y-89705461D02*
X109717913Y-89732399D01*
X109717913Y-89732399D02*
X109664038Y-89732399D01*
D12*
X126988095Y-152454819D02*
X126988095Y-153264342D01*
X126988095Y-153264342D02*
X127035714Y-153359580D01*
X127035714Y-153359580D02*
X127083333Y-153407200D01*
X127083333Y-153407200D02*
X127178571Y-153454819D01*
X127178571Y-153454819D02*
X127369047Y-153454819D01*
X127369047Y-153454819D02*
X127464285Y-153407200D01*
X127464285Y-153407200D02*
X127511904Y-153359580D01*
X127511904Y-153359580D02*
X127559523Y-153264342D01*
X127559523Y-153264342D02*
X127559523Y-152454819D01*
X128511904Y-152454819D02*
X128035714Y-152454819D01*
X128035714Y-152454819D02*
X127988095Y-152931009D01*
X127988095Y-152931009D02*
X128035714Y-152883390D01*
X128035714Y-152883390D02*
X128130952Y-152835771D01*
X128130952Y-152835771D02*
X128369047Y-152835771D01*
X128369047Y-152835771D02*
X128464285Y-152883390D01*
X128464285Y-152883390D02*
X128511904Y-152931009D01*
X128511904Y-152931009D02*
X128559523Y-153026247D01*
X128559523Y-153026247D02*
X128559523Y-153264342D01*
X128559523Y-153264342D02*
X128511904Y-153359580D01*
X128511904Y-153359580D02*
X128464285Y-153407200D01*
X128464285Y-153407200D02*
X128369047Y-153454819D01*
X128369047Y-153454819D02*
X128130952Y-153454819D01*
X128130952Y-153454819D02*
X128035714Y-153407200D01*
X128035714Y-153407200D02*
X127988095Y-153359580D01*
X117704819Y-160488094D02*
X116704819Y-160488094D01*
X116704819Y-160488094D02*
X116704819Y-160249999D01*
X116704819Y-160249999D02*
X116752438Y-160107142D01*
X116752438Y-160107142D02*
X116847676Y-160011904D01*
X116847676Y-160011904D02*
X116942914Y-159964285D01*
X116942914Y-159964285D02*
X117133390Y-159916666D01*
X117133390Y-159916666D02*
X117276247Y-159916666D01*
X117276247Y-159916666D02*
X117466723Y-159964285D01*
X117466723Y-159964285D02*
X117561961Y-160011904D01*
X117561961Y-160011904D02*
X117657200Y-160107142D01*
X117657200Y-160107142D02*
X117704819Y-160249999D01*
X117704819Y-160249999D02*
X117704819Y-160488094D01*
X116704819Y-159059523D02*
X116704819Y-159249999D01*
X116704819Y-159249999D02*
X116752438Y-159345237D01*
X116752438Y-159345237D02*
X116800057Y-159392856D01*
X116800057Y-159392856D02*
X116942914Y-159488094D01*
X116942914Y-159488094D02*
X117133390Y-159535713D01*
X117133390Y-159535713D02*
X117514342Y-159535713D01*
X117514342Y-159535713D02*
X117609580Y-159488094D01*
X117609580Y-159488094D02*
X117657200Y-159440475D01*
X117657200Y-159440475D02*
X117704819Y-159345237D01*
X117704819Y-159345237D02*
X117704819Y-159154761D01*
X117704819Y-159154761D02*
X117657200Y-159059523D01*
X117657200Y-159059523D02*
X117609580Y-159011904D01*
X117609580Y-159011904D02*
X117514342Y-158964285D01*
X117514342Y-158964285D02*
X117276247Y-158964285D01*
X117276247Y-158964285D02*
X117181009Y-159011904D01*
X117181009Y-159011904D02*
X117133390Y-159059523D01*
X117133390Y-159059523D02*
X117085771Y-159154761D01*
X117085771Y-159154761D02*
X117085771Y-159345237D01*
X117085771Y-159345237D02*
X117133390Y-159440475D01*
X117133390Y-159440475D02*
X117181009Y-159488094D01*
X117181009Y-159488094D02*
X117276247Y-159535713D01*
X113666666Y-166454819D02*
X113666666Y-167169104D01*
X113666666Y-167169104D02*
X113619047Y-167311961D01*
X113619047Y-167311961D02*
X113523809Y-167407200D01*
X113523809Y-167407200D02*
X113380952Y-167454819D01*
X113380952Y-167454819D02*
X113285714Y-167454819D01*
X114666666Y-167454819D02*
X114095238Y-167454819D01*
X114380952Y-167454819D02*
X114380952Y-166454819D01*
X114380952Y-166454819D02*
X114285714Y-166597676D01*
X114285714Y-166597676D02*
X114190476Y-166692914D01*
X114190476Y-166692914D02*
X114095238Y-166740533D01*
X123154761Y-144204819D02*
X122821428Y-143728628D01*
X122583333Y-144204819D02*
X122583333Y-143204819D01*
X122583333Y-143204819D02*
X122964285Y-143204819D01*
X122964285Y-143204819D02*
X123059523Y-143252438D01*
X123059523Y-143252438D02*
X123107142Y-143300057D01*
X123107142Y-143300057D02*
X123154761Y-143395295D01*
X123154761Y-143395295D02*
X123154761Y-143538152D01*
X123154761Y-143538152D02*
X123107142Y-143633390D01*
X123107142Y-143633390D02*
X123059523Y-143681009D01*
X123059523Y-143681009D02*
X122964285Y-143728628D01*
X122964285Y-143728628D02*
X122583333Y-143728628D01*
X123440476Y-143204819D02*
X123773809Y-144204819D01*
X123773809Y-144204819D02*
X124107142Y-143204819D01*
X124964285Y-144204819D02*
X124392857Y-144204819D01*
X124678571Y-144204819D02*
X124678571Y-143204819D01*
X124678571Y-143204819D02*
X124583333Y-143347676D01*
X124583333Y-143347676D02*
X124488095Y-143442914D01*
X124488095Y-143442914D02*
X124392857Y-143490533D01*
X112488095Y-150204819D02*
X112488095Y-151014342D01*
X112488095Y-151014342D02*
X112535714Y-151109580D01*
X112535714Y-151109580D02*
X112583333Y-151157200D01*
X112583333Y-151157200D02*
X112678571Y-151204819D01*
X112678571Y-151204819D02*
X112869047Y-151204819D01*
X112869047Y-151204819D02*
X112964285Y-151157200D01*
X112964285Y-151157200D02*
X113011904Y-151109580D01*
X113011904Y-151109580D02*
X113059523Y-151014342D01*
X113059523Y-151014342D02*
X113059523Y-150204819D01*
X113964285Y-150204819D02*
X113773809Y-150204819D01*
X113773809Y-150204819D02*
X113678571Y-150252438D01*
X113678571Y-150252438D02*
X113630952Y-150300057D01*
X113630952Y-150300057D02*
X113535714Y-150442914D01*
X113535714Y-150442914D02*
X113488095Y-150633390D01*
X113488095Y-150633390D02*
X113488095Y-151014342D01*
X113488095Y-151014342D02*
X113535714Y-151109580D01*
X113535714Y-151109580D02*
X113583333Y-151157200D01*
X113583333Y-151157200D02*
X113678571Y-151204819D01*
X113678571Y-151204819D02*
X113869047Y-151204819D01*
X113869047Y-151204819D02*
X113964285Y-151157200D01*
X113964285Y-151157200D02*
X114011904Y-151109580D01*
X114011904Y-151109580D02*
X114059523Y-151014342D01*
X114059523Y-151014342D02*
X114059523Y-150776247D01*
X114059523Y-150776247D02*
X114011904Y-150681009D01*
X114011904Y-150681009D02*
X113964285Y-150633390D01*
X113964285Y-150633390D02*
X113869047Y-150585771D01*
X113869047Y-150585771D02*
X113678571Y-150585771D01*
X113678571Y-150585771D02*
X113583333Y-150633390D01*
X113583333Y-150633390D02*
X113535714Y-150681009D01*
X113535714Y-150681009D02*
X113488095Y-150776247D01*
X117188095Y-90729104D02*
X117664285Y-90729104D01*
X117092857Y-91014819D02*
X117426190Y-90014819D01*
X117426190Y-90014819D02*
X117759523Y-91014819D01*
X118092857Y-90348152D02*
X118092857Y-91014819D01*
X118092857Y-90443390D02*
X118140476Y-90395771D01*
X118140476Y-90395771D02*
X118235714Y-90348152D01*
X118235714Y-90348152D02*
X118378571Y-90348152D01*
X118378571Y-90348152D02*
X118473809Y-90395771D01*
X118473809Y-90395771D02*
X118521428Y-90491009D01*
X118521428Y-90491009D02*
X118521428Y-91014819D01*
X118854762Y-90348152D02*
X119235714Y-90348152D01*
X118997619Y-90014819D02*
X118997619Y-90871961D01*
X118997619Y-90871961D02*
X119045238Y-90967200D01*
X119045238Y-90967200D02*
X119140476Y-91014819D01*
X119140476Y-91014819D02*
X119235714Y-91014819D01*
X119950000Y-90967200D02*
X119854762Y-91014819D01*
X119854762Y-91014819D02*
X119664286Y-91014819D01*
X119664286Y-91014819D02*
X119569048Y-90967200D01*
X119569048Y-90967200D02*
X119521429Y-90871961D01*
X119521429Y-90871961D02*
X119521429Y-90491009D01*
X119521429Y-90491009D02*
X119569048Y-90395771D01*
X119569048Y-90395771D02*
X119664286Y-90348152D01*
X119664286Y-90348152D02*
X119854762Y-90348152D01*
X119854762Y-90348152D02*
X119950000Y-90395771D01*
X119950000Y-90395771D02*
X119997619Y-90491009D01*
X119997619Y-90491009D02*
X119997619Y-90586247D01*
X119997619Y-90586247D02*
X119521429Y-90681485D01*
X120426191Y-90348152D02*
X120426191Y-91014819D01*
X120426191Y-90443390D02*
X120473810Y-90395771D01*
X120473810Y-90395771D02*
X120569048Y-90348152D01*
X120569048Y-90348152D02*
X120711905Y-90348152D01*
X120711905Y-90348152D02*
X120807143Y-90395771D01*
X120807143Y-90395771D02*
X120854762Y-90491009D01*
X120854762Y-90491009D02*
X120854762Y-91014819D01*
X121330953Y-90348152D02*
X121330953Y-91014819D01*
X121330953Y-90443390D02*
X121378572Y-90395771D01*
X121378572Y-90395771D02*
X121473810Y-90348152D01*
X121473810Y-90348152D02*
X121616667Y-90348152D01*
X121616667Y-90348152D02*
X121711905Y-90395771D01*
X121711905Y-90395771D02*
X121759524Y-90491009D01*
X121759524Y-90491009D02*
X121759524Y-91014819D01*
X122664286Y-91014819D02*
X122664286Y-90491009D01*
X122664286Y-90491009D02*
X122616667Y-90395771D01*
X122616667Y-90395771D02*
X122521429Y-90348152D01*
X122521429Y-90348152D02*
X122330953Y-90348152D01*
X122330953Y-90348152D02*
X122235715Y-90395771D01*
X122664286Y-90967200D02*
X122569048Y-91014819D01*
X122569048Y-91014819D02*
X122330953Y-91014819D01*
X122330953Y-91014819D02*
X122235715Y-90967200D01*
X122235715Y-90967200D02*
X122188096Y-90871961D01*
X122188096Y-90871961D02*
X122188096Y-90776723D01*
X122188096Y-90776723D02*
X122235715Y-90681485D01*
X122235715Y-90681485D02*
X122330953Y-90633866D01*
X122330953Y-90633866D02*
X122569048Y-90633866D01*
X122569048Y-90633866D02*
X122664286Y-90586247D01*
X125666666Y-165954819D02*
X125666666Y-166669104D01*
X125666666Y-166669104D02*
X125619047Y-166811961D01*
X125619047Y-166811961D02*
X125523809Y-166907200D01*
X125523809Y-166907200D02*
X125380952Y-166954819D01*
X125380952Y-166954819D02*
X125285714Y-166954819D01*
X126571428Y-165954819D02*
X126380952Y-165954819D01*
X126380952Y-165954819D02*
X126285714Y-166002438D01*
X126285714Y-166002438D02*
X126238095Y-166050057D01*
X126238095Y-166050057D02*
X126142857Y-166192914D01*
X126142857Y-166192914D02*
X126095238Y-166383390D01*
X126095238Y-166383390D02*
X126095238Y-166764342D01*
X126095238Y-166764342D02*
X126142857Y-166859580D01*
X126142857Y-166859580D02*
X126190476Y-166907200D01*
X126190476Y-166907200D02*
X126285714Y-166954819D01*
X126285714Y-166954819D02*
X126476190Y-166954819D01*
X126476190Y-166954819D02*
X126571428Y-166907200D01*
X126571428Y-166907200D02*
X126619047Y-166859580D01*
X126619047Y-166859580D02*
X126666666Y-166764342D01*
X126666666Y-166764342D02*
X126666666Y-166526247D01*
X126666666Y-166526247D02*
X126619047Y-166431009D01*
X126619047Y-166431009D02*
X126571428Y-166383390D01*
X126571428Y-166383390D02*
X126476190Y-166335771D01*
X126476190Y-166335771D02*
X126285714Y-166335771D01*
X126285714Y-166335771D02*
X126190476Y-166383390D01*
X126190476Y-166383390D02*
X126142857Y-166431009D01*
X126142857Y-166431009D02*
X126095238Y-166526247D01*
X110011905Y-140454819D02*
X110011905Y-139454819D01*
X110011905Y-139454819D02*
X110250000Y-139454819D01*
X110250000Y-139454819D02*
X110392857Y-139502438D01*
X110392857Y-139502438D02*
X110488095Y-139597676D01*
X110488095Y-139597676D02*
X110535714Y-139692914D01*
X110535714Y-139692914D02*
X110583333Y-139883390D01*
X110583333Y-139883390D02*
X110583333Y-140026247D01*
X110583333Y-140026247D02*
X110535714Y-140216723D01*
X110535714Y-140216723D02*
X110488095Y-140311961D01*
X110488095Y-140311961D02*
X110392857Y-140407200D01*
X110392857Y-140407200D02*
X110250000Y-140454819D01*
X110250000Y-140454819D02*
X110011905Y-140454819D01*
X111440476Y-139788152D02*
X111440476Y-140454819D01*
X111202381Y-139407200D02*
X110964286Y-140121485D01*
X110964286Y-140121485D02*
X111583333Y-140121485D01*
D11*
X116833333Y-140707419D02*
X116357143Y-140707419D01*
X116357143Y-140707419D02*
X116357143Y-139707419D01*
X117690476Y-140707419D02*
X117119048Y-140707419D01*
X117404762Y-140707419D02*
X117404762Y-139707419D01*
X117404762Y-139707419D02*
X117309524Y-139850276D01*
X117309524Y-139850276D02*
X117214286Y-139945514D01*
X117214286Y-139945514D02*
X117119048Y-139993133D01*
D12*
X117954819Y-155488094D02*
X116954819Y-155488094D01*
X116954819Y-155488094D02*
X116954819Y-155249999D01*
X116954819Y-155249999D02*
X117002438Y-155107142D01*
X117002438Y-155107142D02*
X117097676Y-155011904D01*
X117097676Y-155011904D02*
X117192914Y-154964285D01*
X117192914Y-154964285D02*
X117383390Y-154916666D01*
X117383390Y-154916666D02*
X117526247Y-154916666D01*
X117526247Y-154916666D02*
X117716723Y-154964285D01*
X117716723Y-154964285D02*
X117811961Y-155011904D01*
X117811961Y-155011904D02*
X117907200Y-155107142D01*
X117907200Y-155107142D02*
X117954819Y-155249999D01*
X117954819Y-155249999D02*
X117954819Y-155488094D01*
X116954819Y-154011904D02*
X116954819Y-154488094D01*
X116954819Y-154488094D02*
X117431009Y-154535713D01*
X117431009Y-154535713D02*
X117383390Y-154488094D01*
X117383390Y-154488094D02*
X117335771Y-154392856D01*
X117335771Y-154392856D02*
X117335771Y-154154761D01*
X117335771Y-154154761D02*
X117383390Y-154059523D01*
X117383390Y-154059523D02*
X117431009Y-154011904D01*
X117431009Y-154011904D02*
X117526247Y-153964285D01*
X117526247Y-153964285D02*
X117764342Y-153964285D01*
X117764342Y-153964285D02*
X117859580Y-154011904D01*
X117859580Y-154011904D02*
X117907200Y-154059523D01*
X117907200Y-154059523D02*
X117954819Y-154154761D01*
X117954819Y-154154761D02*
X117954819Y-154392856D01*
X117954819Y-154392856D02*
X117907200Y-154488094D01*
X117907200Y-154488094D02*
X117859580Y-154535713D01*
D13*
%TO.C,U5*%
X125690000Y-151940000D02*
X129810000Y-151940000D01*
X125690000Y-151995000D02*
X125690000Y-151940000D01*
X125690000Y-162060000D02*
X125690000Y-162005000D01*
X129810000Y-151940000D02*
X129810000Y-151995000D01*
X129810000Y-162005000D02*
X129810000Y-162060000D01*
X129810000Y-162060000D02*
X125690000Y-162060000D01*
X125150000Y-151990000D02*
X124910000Y-151660000D01*
X125390000Y-151660000D01*
X125150000Y-151990000D01*
G36*
X125150000Y-151990000D02*
G01*
X124910000Y-151660000D01*
X125390000Y-151660000D01*
X125150000Y-151990000D01*
G37*
%TO.C,D6*%
X120910000Y-157600000D02*
X115100000Y-157600000D01*
X120910000Y-161900000D02*
X115100000Y-161900000D01*
X120910000Y-161900000D02*
X120910000Y-157600000D01*
%TO.C,Q2*%
X119990000Y-147990000D02*
X121510000Y-147990000D01*
X119990000Y-148040000D02*
X119990000Y-147990000D01*
X119990000Y-149940000D02*
X119990000Y-149160000D01*
X119990000Y-151110000D02*
X119990000Y-151060000D01*
X121510000Y-147990000D02*
X121510000Y-148990000D01*
X121510000Y-150110000D02*
X121510000Y-151110000D01*
X121510000Y-151110000D02*
X119990000Y-151110000D01*
X119690000Y-149500000D02*
X119210000Y-149500000D01*
X119450000Y-149170000D01*
X119690000Y-149500000D01*
G36*
X119690000Y-149500000D02*
G01*
X119210000Y-149500000D01*
X119450000Y-149170000D01*
X119690000Y-149500000D01*
G37*
%TO.C,J1*%
X109300000Y-165720000D02*
X109300000Y-167500000D01*
X111200000Y-162800000D02*
X110400000Y-162800000D01*
X118700000Y-165720000D02*
X118700000Y-167500000D01*
%TO.C,R7*%
X115153641Y-113620000D02*
X114846359Y-113620000D01*
X115153641Y-114380000D02*
X114846359Y-114380000D01*
%TO.C,R22*%
X131620000Y-164846359D02*
X131620000Y-165153641D01*
X132380000Y-164846359D02*
X132380000Y-165153641D01*
%TO.C,R27*%
X131403641Y-97370000D02*
X131096359Y-97370000D01*
X131403641Y-98130000D02*
X131096359Y-98130000D01*
%TO.C,R6*%
X109596359Y-157120000D02*
X109903641Y-157120000D01*
X109596359Y-157880000D02*
X109903641Y-157880000D01*
%TO.C,C10*%
X126590000Y-140627836D02*
X126590000Y-140412164D01*
X127310000Y-140627836D02*
X127310000Y-140412164D01*
%TO.C,C1*%
X107890000Y-95412164D02*
X107890000Y-95627836D01*
X108610000Y-95412164D02*
X108610000Y-95627836D01*
%TO.C,C3*%
X112240000Y-153890580D02*
X112240000Y-153609420D01*
X113260000Y-153890580D02*
X113260000Y-153609420D01*
%TO.C,R26*%
X127153641Y-150620000D02*
X126846359Y-150620000D01*
X127153641Y-151380000D02*
X126846359Y-151380000D01*
%TO.C,C7*%
X122857836Y-155890000D02*
X122642164Y-155890000D01*
X122857836Y-156610000D02*
X122642164Y-156610000D01*
%TO.C,R1*%
X107620000Y-164846359D02*
X107620000Y-165153641D01*
X108380000Y-164846359D02*
X108380000Y-165153641D01*
%TO.C,R12*%
X130370000Y-136653641D02*
X130370000Y-136346359D01*
X131130000Y-136653641D02*
X131130000Y-136346359D01*
%TO.C,R4*%
X110653641Y-161370000D02*
X110346359Y-161370000D01*
X110653641Y-162130000D02*
X110346359Y-162130000D01*
%TO.C,R10*%
X116653641Y-134870000D02*
X116346359Y-134870000D01*
X116653641Y-135630000D02*
X116346359Y-135630000D01*
%TO.C,R23*%
X122903641Y-154620000D02*
X122596359Y-154620000D01*
X122903641Y-155380000D02*
X122596359Y-155380000D01*
%TO.C,RV1*%
X121390000Y-141390000D02*
X121720000Y-141390000D01*
X121390000Y-146110000D02*
X121390000Y-141390000D01*
X122520000Y-146110000D02*
X121390000Y-146110000D01*
X123480000Y-141390000D02*
X124020000Y-141390000D01*
X125780000Y-141390000D02*
X126110000Y-141390000D01*
X126110000Y-141390000D02*
X126110000Y-146110000D01*
X126110000Y-146110000D02*
X124980000Y-146110000D01*
%TO.C,C8*%
X130507836Y-150840000D02*
X130292164Y-150840000D01*
X130507836Y-151560000D02*
X130292164Y-151560000D01*
%TO.C,U3*%
X112090000Y-132440000D02*
X113910000Y-132440000D01*
X112090000Y-132490000D02*
X112090000Y-132440000D01*
X112090000Y-135560000D02*
X112090000Y-135510000D01*
X113910000Y-132440000D02*
X113910000Y-132490000D01*
X113910000Y-135510000D02*
X113910000Y-135560000D01*
X113910000Y-135560000D02*
X112090000Y-135560000D01*
X111550000Y-132490000D02*
X111310000Y-132160000D01*
X111790000Y-132160000D01*
X111550000Y-132490000D01*
G36*
X111550000Y-132490000D02*
G01*
X111310000Y-132160000D01*
X111790000Y-132160000D01*
X111550000Y-132490000D01*
G37*
%TO.C,R8*%
X126670000Y-142753641D02*
X126670000Y-142446359D01*
X127430000Y-142753641D02*
X127430000Y-142446359D01*
%TO.C,U6*%
X111340000Y-144840000D02*
X111340000Y-146100000D01*
X111340000Y-151660000D02*
X111340000Y-150400000D01*
X115100000Y-144840000D02*
X111340000Y-144840000D01*
X115100000Y-151660000D02*
X111340000Y-151660000D01*
X116620000Y-151890000D02*
X116140000Y-151890000D01*
X116380000Y-151560000D01*
X116620000Y-151890000D01*
G36*
X116620000Y-151890000D02*
G01*
X116140000Y-151890000D01*
X116380000Y-151560000D01*
X116620000Y-151890000D01*
G37*
%TO.C,R24*%
X122903641Y-153370000D02*
X122596359Y-153370000D01*
X122903641Y-154130000D02*
X122596359Y-154130000D01*
%TO.C,R18*%
X126403641Y-116870000D02*
X126096359Y-116870000D01*
X126403641Y-117630000D02*
X126096359Y-117630000D01*
%TO.C,U1*%
X110800000Y-87100000D02*
X110800000Y-93300000D01*
X110800000Y-87100000D02*
X129200000Y-87100000D01*
X110800000Y-111950000D02*
X110800000Y-112950000D01*
X110800000Y-112950000D02*
X112300000Y-112950000D01*
X129200000Y-87100000D02*
X129200000Y-93300000D01*
X129200000Y-112950000D02*
X127700000Y-112950000D01*
X129200000Y-112950000D02*
X129200000Y-111950000D01*
X110800000Y-93975000D02*
X110300000Y-93975000D01*
X110800000Y-93475000D01*
X110800000Y-93975000D01*
G36*
X110800000Y-93975000D02*
G01*
X110300000Y-93975000D01*
X110800000Y-93475000D01*
X110800000Y-93975000D01*
G37*
%TO.C,R25*%
X122903641Y-151120000D02*
X122596359Y-151120000D01*
X122903641Y-151880000D02*
X122596359Y-151880000D01*
%TO.C,R11*%
X116346359Y-133620000D02*
X116653641Y-133620000D01*
X116346359Y-134380000D02*
X116653641Y-134380000D01*
%TO.C,J6*%
X121300000Y-165720000D02*
X121300000Y-167500000D01*
X123200000Y-162800000D02*
X122400000Y-162800000D01*
X130700000Y-165720000D02*
X130700000Y-167500000D01*
%TO.C,Q1*%
X124240000Y-147690000D02*
X125760000Y-147690000D01*
X124240000Y-147740000D02*
X124240000Y-147690000D01*
X124240000Y-149640000D02*
X124240000Y-148860000D01*
X124240000Y-150810000D02*
X124240000Y-150760000D01*
X125760000Y-147690000D02*
X125760000Y-148690000D01*
X125760000Y-149810000D02*
X125760000Y-150810000D01*
X125760000Y-150810000D02*
X124240000Y-150810000D01*
X123940000Y-149200000D02*
X123460000Y-149200000D01*
X123700000Y-148870000D01*
X123940000Y-149200000D01*
G36*
X123940000Y-149200000D02*
G01*
X123460000Y-149200000D01*
X123700000Y-148870000D01*
X123940000Y-149200000D01*
G37*
%TO.C,D4*%
X108600000Y-136340000D02*
X108600000Y-142150000D01*
X112900000Y-136340000D02*
X108600000Y-136340000D01*
X112900000Y-136340000D02*
X112900000Y-142150000D01*
%TO.C,R20*%
X122596359Y-157370000D02*
X122903641Y-157370000D01*
X122596359Y-158130000D02*
X122903641Y-158130000D01*
%TO.C,R5*%
X109596359Y-158370000D02*
X109903641Y-158370000D01*
X109596359Y-159130000D02*
X109903641Y-159130000D01*
%TO.C,C5*%
X109490000Y-134359420D02*
X109490000Y-134640580D01*
X110510000Y-134359420D02*
X110510000Y-134640580D01*
%TO.C,R2*%
X107620000Y-167346359D02*
X107620000Y-167653641D01*
X108380000Y-167346359D02*
X108380000Y-167653641D01*
D14*
%TO.C,L1*%
X113750000Y-143750000D02*
X113750000Y-136750000D01*
X120250000Y-136750000D02*
X120250000Y-143750000D01*
D13*
%TO.C,C4*%
X110390580Y-152240000D02*
X110109420Y-152240000D01*
X110390580Y-153260000D02*
X110109420Y-153260000D01*
D11*
%TO.C,D2*%
X113140000Y-157500000D02*
G75*
G02*
X113040000Y-157500000I-50000J0D01*
G01*
X113040000Y-157500000D02*
G75*
G02*
X113140000Y-157500000I50000J0D01*
G01*
%TO.C,D1*%
X113140000Y-158750000D02*
G75*
G02*
X113040000Y-158750000I-50000J0D01*
G01*
X113040000Y-158750000D02*
G75*
G02*
X113140000Y-158750000I50000J0D01*
G01*
D13*
%TO.C,C9*%
X110390580Y-153990000D02*
X110109420Y-153990000D01*
X110390580Y-155010000D02*
X110109420Y-155010000D01*
%TO.C,R9*%
X126870000Y-145596359D02*
X126870000Y-145903641D01*
X127630000Y-145596359D02*
X127630000Y-145903641D01*
D11*
%TO.C,D3*%
X113140000Y-156250000D02*
G75*
G02*
X113040000Y-156250000I-50000J0D01*
G01*
X113040000Y-156250000D02*
G75*
G02*
X113140000Y-156250000I50000J0D01*
G01*
D13*
%TO.C,R15*%
X128346359Y-117370000D02*
X128653641Y-117370000D01*
X128346359Y-118130000D02*
X128653641Y-118130000D01*
%TO.C,R14*%
X109596359Y-155870000D02*
X109903641Y-155870000D01*
X109596359Y-156630000D02*
X109903641Y-156630000D01*
%TO.C,R19*%
X122870000Y-159653641D02*
X122870000Y-159346359D01*
X123630000Y-159653641D02*
X123630000Y-159346359D01*
%TO.C,SW1*%
X128200000Y-139300000D02*
X128200000Y-140350000D01*
X128200000Y-142650000D02*
X128200000Y-143700000D01*
X129800000Y-139300000D02*
X129700000Y-139300000D01*
X129800000Y-143700000D02*
X129700000Y-143700000D01*
X131300000Y-143700000D02*
X131300000Y-139300000D01*
%TO.C,J2*%
X108350000Y-120200000D02*
X108350000Y-121540000D01*
X108350000Y-124260000D02*
X108350000Y-126000000D01*
X108350000Y-126000000D02*
X131650000Y-126000000D01*
X109840000Y-120200000D02*
X108350000Y-120200000D01*
X109840000Y-120200000D02*
X109840000Y-119000000D01*
X130160000Y-120200000D02*
X131650000Y-120200000D01*
X131650000Y-120200000D02*
X131650000Y-121540000D01*
X131650000Y-126000000D02*
X131650000Y-124260000D01*
%TO.C,R21*%
X131620000Y-167346359D02*
X131620000Y-167653641D01*
X132380000Y-167346359D02*
X132380000Y-167653641D01*
%TO.C,C6*%
X119490000Y-146140580D02*
X119490000Y-145859420D01*
X120510000Y-146140580D02*
X120510000Y-145859420D01*
%TO.C,R3*%
X110653641Y-160120000D02*
X110346359Y-160120000D01*
X110653641Y-160880000D02*
X110346359Y-160880000D01*
%TO.C,C2*%
X108990000Y-95359420D02*
X108990000Y-95640580D01*
X110010000Y-95359420D02*
X110010000Y-95640580D01*
%TO.C,SW2*%
X128200000Y-145050000D02*
X128200000Y-146100000D01*
X128200000Y-148400000D02*
X128200000Y-149450000D01*
X129800000Y-145050000D02*
X129700000Y-145050000D01*
X129800000Y-149450000D02*
X129700000Y-149450000D01*
X131300000Y-149450000D02*
X131300000Y-145050000D01*
%TO.C,D5*%
X113840000Y-152600000D02*
X113840000Y-156900000D01*
X113840000Y-152600000D02*
X119650000Y-152600000D01*
X113840000Y-156900000D02*
X119650000Y-156900000D01*
%TO.C,U4*%
X124260000Y-133190000D02*
X128380000Y-133190000D01*
X124260000Y-133285000D02*
X124260000Y-133190000D01*
X124260000Y-138310000D02*
X124260000Y-138215000D01*
X128380000Y-133190000D02*
X128380000Y-133285000D01*
X128380000Y-138215000D02*
X128380000Y-138310000D01*
X128380000Y-138310000D02*
X124260000Y-138310000D01*
X123720000Y-133280000D02*
X123480000Y-132950000D01*
X123960000Y-132950000D01*
X123720000Y-133280000D01*
G36*
X123720000Y-133280000D02*
G01*
X123480000Y-132950000D01*
X123960000Y-132950000D01*
X123720000Y-133280000D01*
G37*
%TO.C,R13*%
X122846359Y-139370000D02*
X123153641Y-139370000D01*
X122846359Y-140130000D02*
X123153641Y-140130000D01*
%TO.C,R17*%
X130596359Y-117120000D02*
X130903641Y-117120000D01*
X130596359Y-117880000D02*
X130903641Y-117880000D01*
%TD*%
M02*
