%TF.GenerationSoftware,KiCad,Pcbnew,9.0.6*%
%TF.CreationDate,2025-12-29T11:34:57+00:00*%
%TF.ProjectId,ESP32 S3,45535033-3220-4533-932e-6b696361645f,rev?*%
%TF.SameCoordinates,Original*%
%TF.FileFunction,Copper,L2,Bot*%
%TF.FilePolarity,Positive*%
%FSLAX46Y46*%
G04 Gerber Fmt 4.6, Leading zero omitted, Abs format (unit mm)*
G04 Created by KiCad (PCBNEW 9.0.6) date 2025-12-29 11:34:57*
%MOMM*%
%LPD*%
G01*
G04 APERTURE LIST*
%TA.AperFunction,HeatsinkPad*%
%ADD10O,1.000000X2.100000*%
%TD*%
%TA.AperFunction,HeatsinkPad*%
%ADD11O,1.000000X1.600000*%
%TD*%
%TA.AperFunction,HeatsinkPad*%
%ADD12C,0.600000*%
%TD*%
%TA.AperFunction,ComponentPad*%
%ADD13R,1.700000X1.700000*%
%TD*%
%TA.AperFunction,ComponentPad*%
%ADD14C,1.700000*%
%TD*%
%TA.AperFunction,ViaPad*%
%ADD15C,0.600000*%
%TD*%
%TA.AperFunction,Conductor*%
%ADD16C,0.400000*%
%TD*%
%TA.AperFunction,Conductor*%
%ADD17C,0.200000*%
%TD*%
%TA.AperFunction,Conductor*%
%ADD18C,0.300000*%
%TD*%
G04 APERTURE END LIST*
D10*
%TO.P,J1,S1,SHIELD*%
%TO.N,GND*%
X109680000Y-164395000D03*
D11*
X109680000Y-168575000D03*
D10*
X118320000Y-164395000D03*
D11*
X118320000Y-168575000D03*
%TD*%
D12*
%TO.P,U1,41,GND*%
%TO.N,GND*%
X117100000Y-101760000D03*
X117100000Y-103160000D03*
X117800000Y-101060000D03*
X117800000Y-102460000D03*
X117800000Y-103860000D03*
X118500000Y-101760000D03*
X118500000Y-103160000D03*
X119200000Y-101060000D03*
X119200000Y-102460000D03*
X119200000Y-103860000D03*
X119900000Y-101760000D03*
X119900000Y-103160000D03*
%TD*%
D10*
%TO.P,J6,S1,SHIELD*%
%TO.N,GND*%
X121680000Y-164395000D03*
D11*
X121680000Y-168575000D03*
D10*
X130320000Y-164395000D03*
D11*
X130320000Y-168575000D03*
%TD*%
D13*
%TO.P,J11,1,Pin_1*%
%TO.N,B1*%
X133960000Y-129020000D03*
D14*
%TO.P,J11,2,Pin_2*%
%TO.N,B0*%
X133960000Y-131560000D03*
%TO.P,J11,3,Pin_3*%
%TO.N,IO37*%
X133960000Y-134100000D03*
%TO.P,J11,4,Pin_4*%
%TO.N,IO36*%
X133960000Y-136640000D03*
%TO.P,J11,5,Pin_5*%
%TO.N,IO35*%
X133960000Y-139180000D03*
%TO.P,J11,6,Pin_6*%
%TO.N,BOOT0*%
X133960000Y-141720000D03*
%TO.P,J11,7,Pin_7*%
%TO.N,HSYNC*%
X133960000Y-144260000D03*
%TO.P,J11,8,Pin_8*%
%TO.N,IO48*%
X133960000Y-146800000D03*
%TO.P,J11,9,Pin_9*%
%TO.N,G7*%
X133960000Y-149340000D03*
%TO.P,J11,10,Pin_10*%
%TO.N,G6*%
X133960000Y-151880000D03*
%TO.P,J11,11,Pin_11*%
%TO.N,G5*%
X133960000Y-154420000D03*
%TO.P,J11,12,Pin_12*%
%TO.N,G4*%
X133960000Y-156960000D03*
%TO.P,J11,13,Pin_13*%
%TO.N,GND*%
X133960000Y-159500000D03*
%TO.P,J11,14,Pin_14*%
X133960000Y-162040000D03*
%TD*%
D13*
%TO.P,J10,1,Pin_1*%
%TO.N,IO16*%
X106040000Y-129020000D03*
D14*
%TO.P,J10,2,Pin_2*%
%TO.N,IO17*%
X106040000Y-131560000D03*
%TO.P,J10,3,Pin_3*%
%TO.N,IO18*%
X106040000Y-134100000D03*
%TO.P,J10,4,Pin_4*%
%TO.N,IO8*%
X106040000Y-136640000D03*
%TO.P,J10,5,Pin_5*%
%TO.N,GPIO19*%
X106040000Y-139180000D03*
%TO.P,J10,6,Pin_6*%
%TO.N,GPIO20*%
X106040000Y-141720000D03*
%TO.P,J10,7,Pin_7*%
%TO.N,IO3*%
X106040000Y-144260000D03*
%TO.P,J10,8,Pin_8*%
%TO.N,GPIO_LED*%
X106040000Y-146800000D03*
%TO.P,J10,9,Pin_9*%
%TO.N,G0*%
X106040000Y-149340000D03*
%TO.P,J10,10,Pin_10*%
%TO.N,G1*%
X106040000Y-151880000D03*
%TO.P,J10,11,Pin_11*%
%TO.N,G2*%
X106040000Y-154420000D03*
%TO.P,J10,12,Pin_12*%
%TO.N,G3*%
X106040000Y-156960000D03*
%TO.P,J10,13,Pin_13*%
%TO.N,GND*%
X106040000Y-159500000D03*
%TO.P,J10,14,Pin_14*%
%TO.N,+5V*%
X106040000Y-162040000D03*
%TD*%
D13*
%TO.P,J5,1,Pin_1*%
%TO.N,LED_SINK_1*%
X117750000Y-129500000D03*
D14*
%TO.P,J5,2,Pin_2*%
%TO.N,LED_SINK_2*%
X115210000Y-129500000D03*
%TO.P,J5,3,Pin_3*%
%TO.N,LED_SINK_3*%
X112670000Y-129500000D03*
%TO.P,J5,4,Pin_4*%
%TO.N,LED_SINK_4*%
X110130000Y-129500000D03*
%TD*%
D13*
%TO.P,J7,1,Pin_1*%
%TO.N,XR*%
X122190000Y-129500000D03*
D14*
%TO.P,J7,2,Pin_2*%
%TO.N,YD*%
X124730000Y-129500000D03*
%TO.P,J7,3,Pin_3*%
%TO.N,XL*%
X127270000Y-129500000D03*
%TO.P,J7,4,Pin_4*%
%TO.N,YU*%
X129810000Y-129500000D03*
%TD*%
D13*
%TO.P,J8,1,Pin_1*%
%TO.N,GND*%
X106040000Y-96000000D03*
D14*
%TO.P,J8,2,Pin_2*%
%TO.N,+3.3V*%
X106040000Y-98540000D03*
%TO.P,J8,3,Pin_3*%
X106040000Y-101080000D03*
%TO.P,J8,4,Pin_4*%
%TO.N,EN*%
X106040000Y-103620000D03*
%TO.P,J8,5,Pin_5*%
%TO.N,IO4*%
X106040000Y-106160000D03*
%TO.P,J8,6,Pin_6*%
%TO.N,IO5*%
X106040000Y-108700000D03*
%TO.P,J8,7,Pin_7*%
%TO.N,IO6*%
X106040000Y-111240000D03*
%TO.P,J8,8,Pin_8*%
%TO.N,IO7*%
X106040000Y-113780000D03*
%TO.P,J8,9,Pin_9*%
%TO.N,IO15*%
X106040000Y-116320000D03*
%TD*%
D13*
%TO.P,J9,1,Pin_1*%
%TO.N,GND*%
X133960000Y-96000000D03*
D14*
%TO.P,J9,2,Pin_2*%
%TO.N,VLED+*%
X133960000Y-98540000D03*
%TO.P,J9,3,Pin_3*%
%TO.N,DE*%
X133960000Y-101080000D03*
%TO.P,J9,4,Pin_4*%
%TO.N,B7*%
X133960000Y-103620000D03*
%TO.P,J9,5,Pin_5*%
%TO.N,B6*%
X133960000Y-106160000D03*
%TO.P,J9,6,Pin_6*%
%TO.N,B5*%
X133960000Y-108700000D03*
%TO.P,J9,7,Pin_7*%
%TO.N,B4*%
X133960000Y-111240000D03*
%TO.P,J9,8,Pin_8*%
%TO.N,B3*%
X133960000Y-113780000D03*
%TO.P,J9,9,Pin_9*%
%TO.N,B2*%
X133960000Y-116320000D03*
%TD*%
D15*
%TO.N,+3.3V*%
X127250000Y-132000000D03*
X126951028Y-123757966D03*
X120750000Y-121000000D03*
X115000000Y-149250000D03*
X125000000Y-140000000D03*
X130000000Y-124250000D03*
X127250000Y-139100000D03*
X114750000Y-121250000D03*
X114250000Y-150250000D03*
X112500000Y-121500000D03*
X124000000Y-143500000D03*
X112119000Y-125000000D03*
X121750000Y-146000000D03*
X121750000Y-147250000D03*
%TO.N,GND*%
X127450000Y-147200000D03*
X134200000Y-121700000D03*
X112350514Y-159725000D03*
X110400000Y-124200000D03*
X129800000Y-122300000D03*
X131750000Y-98750000D03*
X129400000Y-140800000D03*
X129000000Y-147300000D03*
X134100000Y-119350000D03*
X115650000Y-115051473D03*
X116200000Y-105900000D03*
X121450000Y-148350000D03*
X122600000Y-121400000D03*
X110050000Y-131750000D03*
X117100000Y-127400000D03*
X125100000Y-144350000D03*
X125200000Y-166400000D03*
X127900000Y-160600000D03*
X110900000Y-122350000D03*
X114950000Y-125700000D03*
X112129748Y-156875112D03*
X115750000Y-167900000D03*
X121350000Y-123250000D03*
X124100000Y-123200000D03*
X119150000Y-135800000D03*
X124100000Y-149300000D03*
X114600000Y-127700000D03*
X127350000Y-120850000D03*
X112100000Y-147300000D03*
X108250000Y-115700000D03*
X106800000Y-164100000D03*
X130400000Y-137900000D03*
X110750000Y-144100000D03*
X122050000Y-126950000D03*
X121400000Y-155400000D03*
X123550000Y-125300000D03*
X127900000Y-158400000D03*
X132000000Y-151800000D03*
X110000000Y-140000000D03*
X131100000Y-141000000D03*
X115250000Y-147100000D03*
X115800000Y-109900000D03*
X130600000Y-147000000D03*
X131400000Y-147350000D03*
X111800000Y-153700000D03*
%TO.N,+5V*%
X119750000Y-157250000D03*
X130500000Y-134750000D03*
X129500000Y-132750000D03*
X122850000Y-143250000D03*
X131500000Y-157000000D03*
X111875000Y-160375000D03*
X122750000Y-131250000D03*
%TO.N,VLED+*%
X113000000Y-122750000D03*
X122250000Y-124000000D03*
X124250000Y-109750000D03*
X112750000Y-126500000D03*
X122250000Y-110500000D03*
%TO.N,EN*%
X118500000Y-140250000D03*
X125749065Y-140280900D03*
X120750000Y-142000000D03*
X106000000Y-126250000D03*
X123750000Y-138500000D03*
%TO.N,Net-(D4-A)*%
X116961000Y-132250000D03*
X118000000Y-135500000D03*
%TO.N,Net-(D5-A)*%
X124350000Y-165450000D03*
X128450000Y-165800000D03*
%TO.N,Net-(D6-A)*%
X116050000Y-165500000D03*
X112050000Y-165500000D03*
%TO.N,Net-(J1-D+-PadA6)*%
X113750000Y-164900000D03*
X114951000Y-164900000D03*
%TO.N,G3*%
X118100000Y-123750000D03*
%TO.N,G7*%
X120250000Y-123500000D03*
%TO.N,HSYNC*%
X127499998Y-111250000D03*
X130500000Y-119000000D03*
X125750000Y-122750000D03*
%TO.N,IO15*%
X113250000Y-103000000D03*
%TO.N,IO48*%
X126000000Y-121500000D03*
X125750000Y-111250000D03*
%TO.N,B6*%
X122200000Y-152850000D03*
X131750000Y-158000000D03*
X127000000Y-98000000D03*
%TO.N,B1*%
X127000000Y-104500000D03*
%TO.N,IO7*%
X113250000Y-101750000D03*
%TO.N,IO18*%
X113500000Y-106750000D03*
%TO.N,G6*%
X119850000Y-124250000D03*
%TO.N,G4*%
X118501000Y-124500000D03*
%TO.N,IO17*%
X113250000Y-105750000D03*
%TO.N,B0*%
X127250000Y-105500000D03*
%TO.N,DE*%
X127000000Y-96250000D03*
X126375001Y-122250622D03*
%TO.N,B2*%
X127000000Y-103250000D03*
%TO.N,G0*%
X116000000Y-121500000D03*
%TO.N,B3*%
X127000000Y-102000000D03*
%TO.N,IO5*%
X113250000Y-99000000D03*
%TO.N,IO16*%
X113250000Y-104250000D03*
%TO.N,B5*%
X132508949Y-158252983D03*
X127000000Y-99500000D03*
X121550000Y-152250000D03*
X134750000Y-123500000D03*
%TO.N,G5*%
X119388585Y-125155855D03*
%TO.N,IO6*%
X113250000Y-100500000D03*
%TO.N,B4*%
X127000000Y-100750000D03*
%TO.N,LED_SINK_1*%
X122500000Y-133750000D03*
X122500000Y-132250000D03*
%TO.N,G2*%
X117561000Y-123044070D03*
%TO.N,G1*%
X116961000Y-122500000D03*
%TO.N,GPIO20*%
X111600000Y-112250000D03*
%TO.N,GPIO19*%
X113500000Y-109250000D03*
%TO.N,GPIO_LED*%
X113250000Y-114000000D03*
X108600000Y-151750000D03*
%TO.N,IO3*%
X112750000Y-110500000D03*
%TO.N,IO8*%
X127250000Y-124500000D03*
X127575735Y-116958000D03*
X113250000Y-108250000D03*
X124750000Y-125000000D03*
%TO.N,IO36*%
X127000000Y-108250000D03*
%TO.N,IO37*%
X127000000Y-107000000D03*
%TO.N,BOOT0*%
X127947000Y-112500000D03*
X132000000Y-143250000D03*
X129900000Y-146300000D03*
X133409000Y-142750000D03*
X132209000Y-150400000D03*
%TO.N,IO35*%
X127198902Y-109047431D03*
%TD*%
D16*
%TO.N,+3.3V*%
X120750000Y-121000000D02*
X120500000Y-120750000D01*
X120500000Y-120750000D02*
X115250000Y-120750000D01*
X124000000Y-141000000D02*
X125000000Y-140000000D01*
X124000000Y-143500000D02*
X124000000Y-141000000D01*
X128500000Y-122750000D02*
X130000000Y-124250000D01*
X117500000Y-150250000D02*
X121750000Y-146000000D01*
X112020000Y-124901000D02*
X112119000Y-125000000D01*
X114250000Y-150250000D02*
X117500000Y-150250000D01*
X112020000Y-121980000D02*
X112020000Y-124901000D01*
X112500000Y-121500000D02*
X112020000Y-121980000D01*
X115250000Y-120750000D02*
X114750000Y-121250000D01*
X127958994Y-122750000D02*
X128500000Y-122750000D01*
X127250000Y-139100000D02*
X127250000Y-132000000D01*
D17*
X115000000Y-149250000D02*
X117000000Y-147250000D01*
X117000000Y-147250000D02*
X121750000Y-147250000D01*
D16*
X126951028Y-123757966D02*
X127958994Y-122750000D01*
D17*
%TO.N,+5V*%
X123101000Y-140601000D02*
X123101000Y-142999000D01*
X131500000Y-157000000D02*
X120000000Y-157000000D01*
X130500000Y-134750000D02*
X130500000Y-133750000D01*
X120000000Y-157000000D02*
X119750000Y-157250000D01*
D16*
X106500000Y-162500000D02*
X106040000Y-162040000D01*
X109750000Y-162500000D02*
X106500000Y-162500000D01*
D17*
X123101000Y-131601000D02*
X123101000Y-140601000D01*
X130500000Y-133750000D02*
X129500000Y-132750000D01*
D16*
X111875000Y-160375000D02*
X109750000Y-162500000D01*
D17*
X122750000Y-131250000D02*
X123101000Y-131601000D01*
X123101000Y-142999000D02*
X122850000Y-143250000D01*
D16*
%TO.N,VLED+*%
X122250000Y-110500000D02*
X124249000Y-112499000D01*
X124250000Y-97500000D02*
X124250000Y-109750000D01*
X124247000Y-121544480D02*
X124247000Y-122003000D01*
X124249000Y-112499000D02*
X124249000Y-121542479D01*
X124249000Y-121542479D02*
X124247000Y-121544480D01*
X126250000Y-95500000D02*
X124250000Y-97500000D01*
X124247000Y-122003000D02*
X122250000Y-124000000D01*
X133960000Y-98540000D02*
X130920000Y-95500000D01*
X112750000Y-126500000D02*
X113000000Y-126250000D01*
X130920000Y-95500000D02*
X126250000Y-95500000D01*
X113000000Y-126250000D02*
X113000000Y-122750000D01*
D17*
%TO.N,EN*%
X104750000Y-104910000D02*
X106040000Y-103620000D01*
X106000000Y-126250000D02*
X104750000Y-125000000D01*
X125749065Y-140280900D02*
X125749065Y-139899122D01*
X124349943Y-138500000D02*
X123750000Y-138500000D01*
X119000000Y-140250000D02*
X118500000Y-140250000D01*
X104750000Y-125000000D02*
X104750000Y-104910000D01*
X125749065Y-139899122D02*
X124349943Y-138500000D01*
X120750000Y-142000000D02*
X119000000Y-140250000D01*
D16*
%TO.N,Net-(D4-A)*%
X118000000Y-132500000D02*
X118000000Y-135500000D01*
X116961000Y-132250000D02*
X117750000Y-132250000D01*
X117750000Y-132250000D02*
X118000000Y-132500000D01*
D17*
%TO.N,Net-(D5-A)*%
X128100000Y-165450000D02*
X128450000Y-165800000D01*
X124350000Y-165450000D02*
X128100000Y-165450000D01*
%TO.N,Net-(D6-A)*%
X113500000Y-165500000D02*
X112050000Y-165500000D01*
X116050000Y-165500000D02*
X113500000Y-165500000D01*
%TO.N,Net-(J1-D+-PadA6)*%
X113750000Y-164900000D02*
X114951000Y-164900000D01*
%TO.N,G3*%
X119703000Y-126885900D02*
X119703000Y-133504243D01*
X118100000Y-123750000D02*
X117901000Y-123949000D01*
X106040000Y-155571000D02*
X106040000Y-156960000D01*
X117901000Y-124250057D02*
X117900000Y-124251057D01*
X117901000Y-125083900D02*
X118386585Y-125569485D01*
X112602000Y-150398000D02*
X108698000Y-154302000D01*
X107191000Y-154896760D02*
X106516760Y-155571000D01*
X121047000Y-136587200D02*
X114552000Y-143082200D01*
X114552000Y-147132200D02*
X112602000Y-149082200D01*
X117900000Y-124251057D02*
X117900000Y-124748943D01*
X114552000Y-143082200D02*
X114552000Y-147132200D01*
X112602000Y-149082200D02*
X112602000Y-150398000D01*
X118386585Y-125569485D02*
X118386585Y-125570898D01*
X121047000Y-134848243D02*
X121047000Y-136587200D01*
X107191000Y-154165200D02*
X107191000Y-154896760D01*
X117901000Y-123949000D02*
X117901000Y-124250057D01*
X118386585Y-125570898D02*
X118973542Y-126157855D01*
X106516760Y-155571000D02*
X106040000Y-155571000D01*
X117901000Y-124749943D02*
X117901000Y-125083900D01*
X117900000Y-124748943D02*
X117901000Y-124749943D01*
X118974955Y-126157855D02*
X119703000Y-126885900D01*
X108698000Y-154302000D02*
X107327800Y-154302000D01*
X119703000Y-133504243D02*
X121047000Y-134848243D01*
X107327800Y-154302000D02*
X107191000Y-154165200D01*
X118973542Y-126157855D02*
X118974955Y-126157855D01*
%TO.N,G7*%
X123579000Y-137079000D02*
X123579000Y-126829000D01*
X132435000Y-145935000D02*
X123579000Y-137079000D01*
X133960000Y-149340000D02*
X132435000Y-147815000D01*
X132435000Y-147815000D02*
X132435000Y-145935000D01*
X123579000Y-126829000D02*
X120250000Y-123500000D01*
%TO.N,HSYNC*%
X127499998Y-111250000D02*
X127000000Y-111250000D01*
X128659000Y-140909000D02*
X128659000Y-128909000D01*
X126802000Y-115302000D02*
X130500000Y-119000000D01*
X126802000Y-111448000D02*
X126802000Y-112948000D01*
X126351028Y-123633871D02*
X125750000Y-123032843D01*
X126802000Y-112948000D02*
X126802000Y-115302000D01*
X128659000Y-128909000D02*
X126351028Y-126601028D01*
X132010000Y-144260000D02*
X128659000Y-140909000D01*
X133960000Y-144260000D02*
X132010000Y-144260000D01*
X125750000Y-123032843D02*
X125750000Y-122750000D01*
X127000000Y-111250000D02*
X126802000Y-111448000D01*
X126351028Y-126601028D02*
X126351028Y-123633871D01*
%TO.N,IO15*%
X108750000Y-113610000D02*
X108750000Y-104000000D01*
X106040000Y-116320000D02*
X108750000Y-113610000D01*
X113000000Y-102750000D02*
X113250000Y-103000000D01*
X110000000Y-102750000D02*
X113000000Y-102750000D01*
X108750000Y-104000000D02*
X110000000Y-102750000D01*
%TO.N,IO48*%
X125950028Y-138790028D02*
X125950028Y-123799971D01*
X125750000Y-111250000D02*
X126000000Y-111500000D01*
X125149000Y-122998943D02*
X125149000Y-122351000D01*
X125149000Y-122351000D02*
X126000000Y-121500000D01*
X125950028Y-123799971D02*
X125149000Y-122998943D01*
X133960000Y-146800000D02*
X125950028Y-138790028D01*
X126000000Y-111500000D02*
X126000000Y-121500000D01*
%TO.N,B6*%
X132215544Y-157534456D02*
X131750000Y-158000000D01*
X122200000Y-152850000D02*
X122290950Y-152940950D01*
X132215544Y-156865601D02*
X132215544Y-157534456D01*
X127250000Y-97750000D02*
X127000000Y-98000000D01*
X122290950Y-152940950D02*
X128290893Y-152940950D01*
X128290893Y-152940950D02*
X132215544Y-156865601D01*
X129500000Y-97750000D02*
X128750000Y-97750000D01*
X133960000Y-106160000D02*
X132500000Y-104700000D01*
X128750000Y-97750000D02*
X127250000Y-97750000D01*
X132500000Y-100750000D02*
X129500000Y-97750000D01*
X132500000Y-104700000D02*
X132500000Y-100750000D01*
%TO.N,B1*%
X129750000Y-104000000D02*
X127500000Y-104000000D01*
X133960000Y-129020000D02*
X133210000Y-128270000D01*
X133210000Y-117710000D02*
X130250000Y-114750000D01*
X133210000Y-128270000D02*
X133210000Y-117710000D01*
X130250000Y-104500000D02*
X129750000Y-104000000D01*
X127500000Y-104000000D02*
X127000000Y-104500000D01*
X130250000Y-114750000D02*
X130250000Y-104500000D01*
%TO.N,IO7*%
X108250000Y-103000000D02*
X110000000Y-101250000D01*
X106040000Y-113780000D02*
X108250000Y-111570000D01*
X112750000Y-101250000D02*
X113250000Y-101750000D01*
X108250000Y-111570000D02*
X108250000Y-103000000D01*
X110000000Y-101250000D02*
X112750000Y-101250000D01*
%TO.N,IO18*%
X106040000Y-134100000D02*
X107150000Y-134100000D01*
X111151000Y-106750000D02*
X113500000Y-106750000D01*
X110151000Y-107750000D02*
X111151000Y-106750000D01*
X107150000Y-134100000D02*
X107651000Y-133599000D01*
X110151000Y-116166100D02*
X110151000Y-107750000D01*
X107651000Y-118666100D02*
X110151000Y-116166100D01*
X107651000Y-133599000D02*
X107651000Y-118666100D01*
%TO.N,G6*%
X122250000Y-144115800D02*
X122250000Y-134349943D01*
X121000000Y-133099943D02*
X121000000Y-125400000D01*
X133960000Y-151880000D02*
X132340000Y-153500000D01*
X132340000Y-153500000D02*
X131634200Y-153500000D01*
X122250000Y-134349943D02*
X121000000Y-133099943D01*
X121000000Y-125400000D02*
X119850000Y-124250000D01*
X131634200Y-153500000D02*
X122250000Y-144115800D01*
%TO.N,G4*%
X118501000Y-125116800D02*
X118501000Y-124500000D01*
X121448000Y-134682143D02*
X120104000Y-133338143D01*
X121448000Y-144448000D02*
X121448000Y-134682143D01*
X119139642Y-125756855D02*
X118787585Y-125404798D01*
X133960000Y-156960000D02*
X121448000Y-144448000D01*
X118787585Y-125403385D02*
X118501000Y-125116800D01*
X120104000Y-133338143D02*
X120104000Y-126719800D01*
X119141055Y-125756855D02*
X119139642Y-125756855D01*
X118787585Y-125404798D02*
X118787585Y-125403385D01*
X120104000Y-126719800D02*
X119141055Y-125756855D01*
%TO.N,IO17*%
X109750000Y-116000000D02*
X109750000Y-106000000D01*
X109750000Y-106000000D02*
X110500000Y-105250000D01*
X106040000Y-131560000D02*
X107250000Y-130350000D01*
X112750000Y-105250000D02*
X113250000Y-105750000D01*
X110500000Y-105250000D02*
X112750000Y-105250000D01*
X107250000Y-118500000D02*
X109750000Y-116000000D01*
X107250000Y-130350000D02*
X107250000Y-118500000D01*
%TO.N,B0*%
X128750000Y-105500000D02*
X127250000Y-105500000D01*
X129750000Y-106500000D02*
X128750000Y-105500000D01*
X132809000Y-117876100D02*
X130716450Y-115783550D01*
X129750000Y-114817100D02*
X129750000Y-106500000D01*
X133960000Y-131560000D02*
X132809000Y-130409000D01*
X132809000Y-130409000D02*
X132809000Y-117876100D01*
X130716450Y-115783550D02*
X129750000Y-114817100D01*
%TO.N,DE*%
X126401000Y-108500943D02*
X126399000Y-108498943D01*
X126375001Y-122250622D02*
X126375001Y-121974942D01*
X126399000Y-108498943D02*
X126399000Y-96851000D01*
X126401000Y-121051057D02*
X126401000Y-108500943D01*
X126601000Y-121748943D02*
X126601000Y-121251057D01*
X126399000Y-96851000D02*
X127000000Y-96250000D01*
X126375001Y-121974942D02*
X126601000Y-121748943D01*
X126601000Y-121251057D02*
X126401000Y-121051057D01*
%TO.N,B2*%
X128750000Y-102500000D02*
X127750000Y-102500000D01*
X127750000Y-102500000D02*
X127000000Y-103250000D01*
X133960000Y-116320000D02*
X130750000Y-113110000D01*
X130750000Y-103500000D02*
X129750000Y-102500000D01*
X130750000Y-113110000D02*
X130750000Y-103500000D01*
X129750000Y-102500000D02*
X128750000Y-102500000D01*
%TO.N,G0*%
X106040000Y-149261450D02*
X106040000Y-149340000D01*
X116361000Y-137139000D02*
X107775725Y-145724275D01*
X116000000Y-121500000D02*
X116000000Y-123389000D01*
X107775725Y-147525725D02*
X106040000Y-149261450D01*
X107775725Y-145724275D02*
X107775725Y-147525725D01*
X116000000Y-123389000D02*
X116361000Y-123750000D01*
X116361000Y-123750000D02*
X116361000Y-137139000D01*
%TO.N,B3*%
X131250000Y-102500000D02*
X131250000Y-102000000D01*
X131250000Y-111070000D02*
X131250000Y-102500000D01*
X133960000Y-113780000D02*
X131250000Y-111070000D01*
X131250000Y-102000000D02*
X130500000Y-101250000D01*
X127750000Y-101250000D02*
X127000000Y-102000000D01*
X130500000Y-101250000D02*
X127750000Y-101250000D01*
%TO.N,IO5*%
X106040000Y-108700000D02*
X107250000Y-107490000D01*
X112750000Y-98500000D02*
X113250000Y-99000000D01*
X107250000Y-107490000D02*
X107250000Y-100250000D01*
X107250000Y-100250000D02*
X109000000Y-98500000D01*
X109000000Y-98500000D02*
X112750000Y-98500000D01*
%TO.N,IO16*%
X106750000Y-118250000D02*
X109250000Y-115750000D01*
X112750000Y-103750000D02*
X113250000Y-104250000D01*
X109250000Y-115750000D02*
X109250000Y-105000000D01*
X106750000Y-128310000D02*
X106750000Y-118250000D01*
X109250000Y-105000000D02*
X110500000Y-103750000D01*
X106040000Y-129020000D02*
X106750000Y-128310000D01*
X110500000Y-103750000D02*
X112750000Y-103750000D01*
%TO.N,B5*%
X122660050Y-152339950D02*
X128256993Y-152339950D01*
X128256993Y-152339950D02*
X132616544Y-156699501D01*
X132099000Y-106839000D02*
X132099000Y-101000000D01*
X132616544Y-158145388D02*
X132508949Y-158252983D01*
X127750000Y-98750000D02*
X127000000Y-99500000D01*
X132099000Y-100916100D02*
X130091450Y-98908550D01*
X133960000Y-108700000D02*
X132099000Y-106839000D01*
X135111000Y-123139000D02*
X135111000Y-109851000D01*
X128000000Y-98750000D02*
X127750000Y-98750000D01*
X135111000Y-109851000D02*
X133960000Y-108700000D01*
X134750000Y-123500000D02*
X135111000Y-123139000D01*
X132616544Y-156699501D02*
X132616544Y-158145388D01*
X121550000Y-152250000D02*
X122570100Y-152250000D01*
X122570100Y-152250000D02*
X122660050Y-152339950D01*
X129932900Y-98750000D02*
X128000000Y-98750000D01*
X132099000Y-101000000D02*
X132099000Y-100916100D01*
X130091450Y-98908550D02*
X129932900Y-98750000D01*
%TO.N,G5*%
X121849000Y-134516043D02*
X120505000Y-133172043D01*
X120505000Y-133172043D02*
X120505000Y-126272270D01*
X133960000Y-154420000D02*
X131987100Y-154420000D01*
X121849000Y-144281900D02*
X121849000Y-134516043D01*
X120505000Y-126272270D02*
X119388585Y-125155855D01*
X131987100Y-154420000D02*
X121849000Y-144281900D01*
%TO.N,IO6*%
X110000000Y-100000000D02*
X112750000Y-100000000D01*
X106040000Y-111240000D02*
X107750000Y-109530000D01*
X107750000Y-102250000D02*
X110000000Y-100000000D01*
X112750000Y-100000000D02*
X113250000Y-100500000D01*
X107750000Y-109530000D02*
X107750000Y-102250000D01*
%TO.N,B4*%
X130500000Y-100000000D02*
X129250000Y-100000000D01*
X129250000Y-100000000D02*
X127750000Y-100000000D01*
X133960000Y-111240000D02*
X131698000Y-108978000D01*
X131698000Y-108978000D02*
X131698000Y-101250000D01*
X127750000Y-100000000D02*
X127000000Y-100750000D01*
X131698000Y-101198000D02*
X130500000Y-100000000D01*
X131698000Y-101250000D02*
X131698000Y-101198000D01*
D18*
%TO.N,LED_SINK_1*%
X122500000Y-132250000D02*
X122500000Y-133750000D01*
D17*
%TO.N,G2*%
X106516760Y-153031000D02*
X106570330Y-152977430D01*
X112201000Y-148916100D02*
X114151000Y-146966100D01*
X119302000Y-133670343D02*
X119302000Y-127052000D01*
X117499000Y-123501057D02*
X117500000Y-123500057D01*
X107493900Y-153901000D02*
X108531900Y-153901000D01*
X117500000Y-125250000D02*
X117500000Y-124916043D01*
X117500000Y-123500057D02*
X117500000Y-123105070D01*
X117500000Y-123999943D02*
X117499000Y-123998943D01*
X119302000Y-127052000D02*
X118808855Y-126558855D01*
X117985585Y-125736998D02*
X117985585Y-125735585D01*
X120646000Y-136421100D02*
X120646000Y-135014343D01*
X106040000Y-154420000D02*
X106040000Y-153031000D01*
X118808855Y-126558855D02*
X118807442Y-126558855D01*
X120646000Y-135014343D02*
X119302000Y-133670343D01*
X117499000Y-124915043D02*
X117499000Y-124084957D01*
X114151000Y-146966100D02*
X114151000Y-142916100D01*
X108531900Y-153901000D02*
X112201000Y-150231900D01*
X117499000Y-124084957D02*
X117500000Y-124083957D01*
X118807442Y-126558855D02*
X117985585Y-125736998D01*
X117499000Y-123998943D02*
X117499000Y-123501057D01*
X117985585Y-125735585D02*
X117500000Y-125250000D01*
X106570330Y-152977430D02*
X107493900Y-153901000D01*
X117500000Y-124083957D02*
X117500000Y-123999943D01*
X117500000Y-124916043D02*
X117499000Y-124915043D01*
X114151000Y-142916100D02*
X120646000Y-136421100D01*
X106040000Y-153031000D02*
X106516760Y-153031000D01*
X112201000Y-150231900D02*
X112201000Y-148916100D01*
X117500000Y-123105070D02*
X117561000Y-123044070D01*
%TO.N,G1*%
X118642755Y-126959855D02*
X118641342Y-126959855D01*
X116961000Y-122794127D02*
X116961000Y-122500000D01*
X111800000Y-148750000D02*
X113750000Y-146800000D01*
X120157271Y-135092720D02*
X120157271Y-135092717D01*
X117098000Y-125081143D02*
X117098000Y-123431013D01*
X118901000Y-127218100D02*
X118642755Y-126959855D01*
X117584585Y-125901685D02*
X117099000Y-125416100D01*
X118901000Y-133836443D02*
X118901000Y-127218100D01*
X120157271Y-135092717D02*
X118901000Y-133836443D01*
X120245000Y-135180449D02*
X120157271Y-135092720D01*
X116960000Y-123293013D02*
X116960000Y-122795127D01*
X118641342Y-126959855D02*
X117584585Y-125903098D01*
X107660000Y-153500000D02*
X108365800Y-153500000D01*
X117584585Y-125903098D02*
X117584585Y-125901685D01*
X117099000Y-125416100D02*
X117099000Y-125082143D01*
X113750000Y-146800000D02*
X113750000Y-142750000D01*
X116960000Y-122795127D02*
X116961000Y-122794127D01*
X117099000Y-125082143D02*
X117098000Y-125081143D01*
X117098000Y-123431013D02*
X116960000Y-123293013D01*
X108365800Y-153500000D02*
X111800000Y-150065800D01*
X113750000Y-142750000D02*
X120245000Y-136255000D01*
X111800000Y-150065800D02*
X111800000Y-148750000D01*
X106040000Y-151880000D02*
X107660000Y-153500000D01*
X120245000Y-136255000D02*
X120245000Y-135180449D01*
%TO.N,GPIO20*%
X108854000Y-138906000D02*
X108854000Y-119463100D01*
X106040000Y-141720000D02*
X108854000Y-138906000D01*
X108854000Y-119463100D02*
X111401000Y-116916100D01*
X111401000Y-116916100D02*
X111401000Y-112449000D01*
X111401000Y-112449000D02*
X111600000Y-112250000D01*
%TO.N,GPIO19*%
X108012900Y-139180000D02*
X108453000Y-138739900D01*
X108453000Y-138739900D02*
X108453000Y-119297000D01*
X110999000Y-112001057D02*
X111000000Y-112000057D01*
X111000000Y-112000057D02*
X111000000Y-110250000D01*
X111000000Y-112499943D02*
X110999000Y-112498943D01*
X108453000Y-119297000D02*
X111000000Y-116750000D01*
X112000000Y-109250000D02*
X113500000Y-109250000D01*
X111000000Y-116750000D02*
X111000000Y-112499943D01*
X110999000Y-112498943D02*
X110999000Y-112001057D01*
X111000000Y-110250000D02*
X112000000Y-109250000D01*
X106040000Y-139180000D02*
X108012900Y-139180000D01*
%TO.N,GPIO_LED*%
X113821000Y-126321000D02*
X113750000Y-126250000D01*
X113821000Y-139019000D02*
X113821000Y-126321000D01*
X108600000Y-151750000D02*
X107341000Y-150491000D01*
X106040000Y-146800000D02*
X113821000Y-139019000D01*
X107341000Y-150491000D02*
X105563240Y-150491000D01*
X104889000Y-147951000D02*
X106040000Y-146800000D01*
X113750000Y-114500000D02*
X113250000Y-114000000D01*
X113750000Y-126250000D02*
X113750000Y-114500000D01*
X104889000Y-149816760D02*
X104889000Y-147951000D01*
X105563240Y-150491000D02*
X104889000Y-149816760D01*
%TO.N,IO3*%
X112250000Y-111000000D02*
X112750000Y-110500000D01*
X107990000Y-144260000D02*
X111519000Y-140731000D01*
X111519000Y-117365200D02*
X111802000Y-117082200D01*
X111802000Y-114198000D02*
X112250000Y-113750000D01*
X112250000Y-113750000D02*
X112250000Y-111000000D01*
X106040000Y-144260000D02*
X107990000Y-144260000D01*
X111802000Y-117082200D02*
X111802000Y-114198000D01*
X111519000Y-140731000D02*
X111519000Y-117365200D01*
%TO.N,IO8*%
X111052000Y-107500000D02*
X112500000Y-107500000D01*
X127575735Y-116958000D02*
X130797000Y-120179265D01*
X124748000Y-121752000D02*
X124750000Y-121750000D01*
X130797000Y-125203000D02*
X130500000Y-125500000D01*
X129750000Y-125500000D02*
X128250000Y-125500000D01*
X130500000Y-125500000D02*
X129750000Y-125500000D01*
X128250000Y-125500000D02*
X127250000Y-124500000D01*
X124748000Y-124998000D02*
X124748000Y-121752000D01*
X108052000Y-134628000D02*
X108052000Y-119000000D01*
X108052000Y-119000000D02*
X110552000Y-116500000D01*
X124750000Y-125000000D02*
X124748000Y-124998000D01*
X121500000Y-108250000D02*
X113250000Y-108250000D01*
X130797000Y-120179265D02*
X130797000Y-121250000D01*
X110552000Y-108000000D02*
X111052000Y-107500000D01*
X112500000Y-107500000D02*
X113250000Y-108250000D01*
X110552000Y-116500000D02*
X110552000Y-108000000D01*
X124750000Y-111500000D02*
X121500000Y-108250000D01*
X130797000Y-121250000D02*
X130797000Y-125203000D01*
X124750000Y-121750000D02*
X124750000Y-111500000D01*
X106040000Y-136640000D02*
X108052000Y-134628000D01*
%TO.N,IO36*%
X132000000Y-118201300D02*
X129899350Y-116100650D01*
X128948000Y-115149300D02*
X128948000Y-109000000D01*
X133960000Y-136640000D02*
X132000000Y-134680000D01*
X128948000Y-108198000D02*
X128500000Y-107750000D01*
X127750000Y-107750000D02*
X128000000Y-107750000D01*
X128500000Y-107750000D02*
X127750000Y-107750000D01*
X129899350Y-116100650D02*
X128948000Y-115149300D01*
X132000000Y-120000000D02*
X132000000Y-118201300D01*
X128948000Y-109000000D02*
X128948000Y-108198000D01*
X128000000Y-107750000D02*
X127500000Y-107750000D01*
X127500000Y-107750000D02*
X127000000Y-108250000D01*
X132000000Y-134680000D02*
X132000000Y-120000000D01*
%TO.N,IO37*%
X128349000Y-106500000D02*
X127500000Y-106500000D01*
X127500000Y-106500000D02*
X127000000Y-107000000D01*
X132408000Y-133408000D02*
X132408000Y-118042200D01*
X129349000Y-114983200D02*
X129349000Y-107500000D01*
X132408000Y-118042200D02*
X129349000Y-114983200D01*
X133100000Y-134100000D02*
X132408000Y-133408000D01*
X129349000Y-107500000D02*
X128349000Y-106500000D01*
X133960000Y-134100000D02*
X133100000Y-134100000D01*
%TO.N,BOOT0*%
X132209000Y-150400000D02*
X131400000Y-149591000D01*
X132909000Y-143250000D02*
X133409000Y-142750000D01*
X131400000Y-148250000D02*
X130550000Y-148250000D01*
X132000000Y-143250000D02*
X132909000Y-143250000D01*
X127947000Y-115282500D02*
X127947000Y-112500000D01*
X133960000Y-141720000D02*
X131198000Y-138958000D01*
X131400000Y-149591000D02*
X131400000Y-148250000D01*
X129900000Y-147600000D02*
X129900000Y-146300000D01*
X131198000Y-118533500D02*
X127947000Y-115282500D01*
X131198000Y-138958000D02*
X131198000Y-118533500D01*
X130550000Y-148250000D02*
X129900000Y-147600000D01*
%TO.N,IO35*%
X128547000Y-109750000D02*
X127844431Y-109047431D01*
X131599000Y-118367400D02*
X128547000Y-115315400D01*
X127844431Y-109047431D02*
X127198902Y-109047431D01*
X133960000Y-139180000D02*
X132180000Y-139180000D01*
X131599000Y-138599000D02*
X131599000Y-118367400D01*
X132180000Y-139180000D02*
X131599000Y-138599000D01*
X128547000Y-115315400D02*
X128547000Y-109750000D01*
%TD*%
%TA.AperFunction,Conductor*%
%TO.N,GND*%
G36*
X134701142Y-117264192D02*
G01*
X134710500Y-117292994D01*
X134710500Y-122851319D01*
X134696148Y-122885967D01*
X134673641Y-122897162D01*
X134674045Y-122898668D01*
X134518217Y-122940422D01*
X134518213Y-122940423D01*
X134381290Y-123019475D01*
X134381281Y-123019482D01*
X134269482Y-123131281D01*
X134269475Y-123131290D01*
X134190423Y-123268213D01*
X134190422Y-123268217D01*
X134149500Y-123420939D01*
X134149500Y-123579060D01*
X134190422Y-123731782D01*
X134190423Y-123731786D01*
X134269475Y-123868709D01*
X134269478Y-123868713D01*
X134269480Y-123868716D01*
X134381284Y-123980520D01*
X134381287Y-123980521D01*
X134381290Y-123980524D01*
X134518213Y-124059576D01*
X134518215Y-124059576D01*
X134518216Y-124059577D01*
X134590928Y-124079060D01*
X134670939Y-124100499D01*
X134670940Y-124100500D01*
X134670943Y-124100500D01*
X134829060Y-124100500D01*
X134829060Y-124100499D01*
X134981784Y-124059577D01*
X135118716Y-123980520D01*
X135230520Y-123868716D01*
X135253417Y-123829057D01*
X135309576Y-123731786D01*
X135309576Y-123731785D01*
X135309577Y-123731784D01*
X135350499Y-123579060D01*
X135350500Y-123579060D01*
X135350500Y-123486189D01*
X135364852Y-123451541D01*
X135365852Y-123450541D01*
X135400500Y-123436189D01*
X135435148Y-123450541D01*
X135449500Y-123485189D01*
X135449500Y-167998073D01*
X135449349Y-168001918D01*
X135431956Y-168222909D01*
X135430753Y-168230503D01*
X135379455Y-168444171D01*
X135377079Y-168451483D01*
X135292989Y-168654497D01*
X135289498Y-168661348D01*
X135174687Y-168848703D01*
X135170168Y-168854924D01*
X135027455Y-169022018D01*
X135022018Y-169027455D01*
X134854924Y-169170168D01*
X134848703Y-169174687D01*
X134661348Y-169289498D01*
X134654497Y-169292989D01*
X134451483Y-169377079D01*
X134444171Y-169379455D01*
X134230503Y-169430753D01*
X134222909Y-169431956D01*
X134001919Y-169449349D01*
X133998074Y-169449500D01*
X130989956Y-169449500D01*
X130955308Y-169435148D01*
X130940956Y-169400500D01*
X130949214Y-169373277D01*
X131028953Y-169253936D01*
X131089254Y-169108358D01*
X131089257Y-169108348D01*
X131120000Y-168953789D01*
X131120000Y-168825000D01*
X130620000Y-168825000D01*
X130620000Y-168325000D01*
X131120000Y-168325000D01*
X131120000Y-168196210D01*
X131089257Y-168041651D01*
X131089254Y-168041641D01*
X131028953Y-167896063D01*
X130941401Y-167765030D01*
X130829969Y-167653598D01*
X130698938Y-167566047D01*
X130570000Y-167512639D01*
X130570000Y-168108011D01*
X130560060Y-168090795D01*
X130504205Y-168034940D01*
X130435796Y-167995444D01*
X130359496Y-167975000D01*
X130280504Y-167975000D01*
X130204204Y-167995444D01*
X130135795Y-168034940D01*
X130079940Y-168090795D01*
X130070000Y-168108011D01*
X130070000Y-167512639D01*
X129941061Y-167566047D01*
X129810030Y-167653598D01*
X129698598Y-167765030D01*
X129611046Y-167896063D01*
X129550745Y-168041641D01*
X129550742Y-168041651D01*
X129520000Y-168196210D01*
X129520000Y-168325000D01*
X130020000Y-168325000D01*
X130020000Y-168825000D01*
X129520000Y-168825000D01*
X129520000Y-168953789D01*
X129550742Y-169108348D01*
X129550745Y-169108358D01*
X129611046Y-169253936D01*
X129690786Y-169373277D01*
X129698102Y-169410060D01*
X129677267Y-169441242D01*
X129650044Y-169449500D01*
X122349956Y-169449500D01*
X122315308Y-169435148D01*
X122300956Y-169400500D01*
X122309214Y-169373277D01*
X122388953Y-169253936D01*
X122449254Y-169108358D01*
X122449257Y-169108348D01*
X122480000Y-168953789D01*
X122480000Y-168825000D01*
X121980000Y-168825000D01*
X121980000Y-168325000D01*
X122480000Y-168325000D01*
X122480000Y-168196210D01*
X122449257Y-168041651D01*
X122449254Y-168041641D01*
X122388953Y-167896063D01*
X122301401Y-167765030D01*
X122189969Y-167653598D01*
X122058938Y-167566047D01*
X121930000Y-167512639D01*
X121930000Y-168108011D01*
X121920060Y-168090795D01*
X121864205Y-168034940D01*
X121795796Y-167995444D01*
X121719496Y-167975000D01*
X121640504Y-167975000D01*
X121564204Y-167995444D01*
X121495795Y-168034940D01*
X121439940Y-168090795D01*
X121430000Y-168108011D01*
X121430000Y-167512639D01*
X121301061Y-167566047D01*
X121170030Y-167653598D01*
X121058598Y-167765030D01*
X120971046Y-167896063D01*
X120910745Y-168041641D01*
X120910742Y-168041651D01*
X120880000Y-168196210D01*
X120880000Y-168325000D01*
X121380000Y-168325000D01*
X121380000Y-168825000D01*
X120880000Y-168825000D01*
X120880000Y-168953789D01*
X120910742Y-169108348D01*
X120910745Y-169108358D01*
X120971046Y-169253936D01*
X121050786Y-169373277D01*
X121058102Y-169410060D01*
X121037267Y-169441242D01*
X121010044Y-169449500D01*
X118989956Y-169449500D01*
X118955308Y-169435148D01*
X118940956Y-169400500D01*
X118949214Y-169373277D01*
X119028953Y-169253936D01*
X119089254Y-169108358D01*
X119089257Y-169108348D01*
X119120000Y-168953789D01*
X119120000Y-168825000D01*
X118620000Y-168825000D01*
X118620000Y-168325000D01*
X119120000Y-168325000D01*
X119120000Y-168196210D01*
X119089257Y-168041651D01*
X119089254Y-168041641D01*
X119028953Y-167896063D01*
X118941401Y-167765030D01*
X118829969Y-167653598D01*
X118698938Y-167566047D01*
X118570000Y-167512639D01*
X118570000Y-168108011D01*
X118560060Y-168090795D01*
X118504205Y-168034940D01*
X118435796Y-167995444D01*
X118359496Y-167975000D01*
X118280504Y-167975000D01*
X118204204Y-167995444D01*
X118135795Y-168034940D01*
X118079940Y-168090795D01*
X118070000Y-168108011D01*
X118070000Y-167512639D01*
X117941061Y-167566047D01*
X117810030Y-167653598D01*
X117698598Y-167765030D01*
X117611046Y-167896063D01*
X117550745Y-168041641D01*
X117550742Y-168041651D01*
X117520000Y-168196210D01*
X117520000Y-168325000D01*
X118020000Y-168325000D01*
X118020000Y-168825000D01*
X117520000Y-168825000D01*
X117520000Y-168953789D01*
X117550742Y-169108348D01*
X117550745Y-169108358D01*
X117611046Y-169253936D01*
X117690786Y-169373277D01*
X117698102Y-169410060D01*
X117677267Y-169441242D01*
X117650044Y-169449500D01*
X110349956Y-169449500D01*
X110315308Y-169435148D01*
X110300956Y-169400500D01*
X110309214Y-169373277D01*
X110388953Y-169253936D01*
X110449254Y-169108358D01*
X110449257Y-169108348D01*
X110480000Y-168953789D01*
X110480000Y-168825000D01*
X109980000Y-168825000D01*
X109980000Y-168325000D01*
X110480000Y-168325000D01*
X110480000Y-168196210D01*
X110449257Y-168041651D01*
X110449254Y-168041641D01*
X110388953Y-167896063D01*
X110301401Y-167765030D01*
X110189969Y-167653598D01*
X110058938Y-167566047D01*
X109930000Y-167512639D01*
X109930000Y-168108011D01*
X109920060Y-168090795D01*
X109864205Y-168034940D01*
X109795796Y-167995444D01*
X109719496Y-167975000D01*
X109640504Y-167975000D01*
X109564204Y-167995444D01*
X109495795Y-168034940D01*
X109439940Y-168090795D01*
X109430000Y-168108011D01*
X109430000Y-167512639D01*
X109301061Y-167566047D01*
X109170030Y-167653598D01*
X109058598Y-167765030D01*
X108971046Y-167896063D01*
X108910745Y-168041641D01*
X108910742Y-168041651D01*
X108880000Y-168196210D01*
X108880000Y-168325000D01*
X109380000Y-168325000D01*
X109380000Y-168825000D01*
X108880000Y-168825000D01*
X108880000Y-168953789D01*
X108910742Y-169108348D01*
X108910745Y-169108358D01*
X108971046Y-169253936D01*
X109050786Y-169373277D01*
X109058102Y-169410060D01*
X109037267Y-169441242D01*
X109010044Y-169449500D01*
X106001926Y-169449500D01*
X105998081Y-169449349D01*
X105777090Y-169431956D01*
X105769496Y-169430753D01*
X105555828Y-169379455D01*
X105548516Y-169377079D01*
X105345502Y-169292989D01*
X105338651Y-169289498D01*
X105151296Y-169174687D01*
X105145078Y-169170170D01*
X104977981Y-169027455D01*
X104972544Y-169022018D01*
X104934583Y-168977572D01*
X104829827Y-168854919D01*
X104825316Y-168848708D01*
X104710498Y-168661343D01*
X104707013Y-168654503D01*
X104622920Y-168451483D01*
X104620544Y-168444171D01*
X104570447Y-168235504D01*
X104569244Y-168230496D01*
X104568043Y-168222913D01*
X104550651Y-168001917D01*
X104550500Y-167998073D01*
X104550500Y-161949454D01*
X104889500Y-161949454D01*
X104889500Y-162130545D01*
X104917828Y-162309406D01*
X104917829Y-162309409D01*
X104945168Y-162393553D01*
X104973789Y-162481639D01*
X105056004Y-162642994D01*
X105067294Y-162658533D01*
X105162448Y-162789502D01*
X105162452Y-162789507D01*
X105290493Y-162917548D01*
X105290497Y-162917551D01*
X105290499Y-162917553D01*
X105437006Y-163023996D01*
X105598361Y-163106211D01*
X105770591Y-163162171D01*
X105949454Y-163190500D01*
X105949455Y-163190500D01*
X106130545Y-163190500D01*
X106130546Y-163190500D01*
X106309409Y-163162171D01*
X106481639Y-163106211D01*
X106642994Y-163023996D01*
X106662454Y-163009857D01*
X106691255Y-163000500D01*
X109381962Y-163000500D01*
X109416610Y-163014852D01*
X109430962Y-163049500D01*
X109416610Y-163084148D01*
X109400713Y-163094770D01*
X109301063Y-163136046D01*
X109170030Y-163223598D01*
X109058598Y-163335030D01*
X108971046Y-163466063D01*
X108910745Y-163611641D01*
X108910742Y-163611651D01*
X108880000Y-163766210D01*
X108880000Y-164145000D01*
X109380000Y-164145000D01*
X109380000Y-164645000D01*
X108880000Y-164645000D01*
X108880000Y-165023789D01*
X108910742Y-165178348D01*
X108910745Y-165178358D01*
X108971046Y-165323936D01*
X109058598Y-165454969D01*
X109170030Y-165566401D01*
X109301061Y-165653952D01*
X109429999Y-165707360D01*
X109430000Y-165707360D01*
X109430000Y-165111988D01*
X109439940Y-165129205D01*
X109495795Y-165185060D01*
X109564204Y-165224556D01*
X109640504Y-165245000D01*
X109719496Y-165245000D01*
X109795796Y-165224556D01*
X109864205Y-165185060D01*
X109920060Y-165129205D01*
X109930000Y-165111988D01*
X109930000Y-165707360D01*
X110058938Y-165653952D01*
X110189969Y-165566401D01*
X110301401Y-165454969D01*
X110388953Y-165323936D01*
X110449254Y-165178358D01*
X110449257Y-165178348D01*
X110480000Y-165023789D01*
X110480000Y-164828446D01*
X110604500Y-164828446D01*
X110604500Y-164961553D01*
X110638948Y-165090114D01*
X110638949Y-165090118D01*
X110693765Y-165185060D01*
X110705499Y-165205384D01*
X110799616Y-165299501D01*
X110820645Y-165311642D01*
X110914881Y-165366050D01*
X110914883Y-165366050D01*
X110914884Y-165366051D01*
X111016279Y-165393219D01*
X111043446Y-165400499D01*
X111043447Y-165400500D01*
X111043450Y-165400500D01*
X111176553Y-165400500D01*
X111176553Y-165400499D01*
X111305116Y-165366051D01*
X111390877Y-165316536D01*
X111428058Y-165311642D01*
X111457811Y-165334472D01*
X111462706Y-165371654D01*
X111449500Y-165420939D01*
X111449500Y-165579060D01*
X111490422Y-165731782D01*
X111490423Y-165731786D01*
X111569475Y-165868709D01*
X111569478Y-165868713D01*
X111569480Y-165868716D01*
X111681284Y-165980520D01*
X111681287Y-165980521D01*
X111681290Y-165980524D01*
X111818213Y-166059576D01*
X111818215Y-166059576D01*
X111818216Y-166059577D01*
X111938665Y-166091851D01*
X111970939Y-166100499D01*
X111970940Y-166100500D01*
X111970943Y-166100500D01*
X112129060Y-166100500D01*
X112129060Y-166100499D01*
X112281784Y-166059577D01*
X112418716Y-165980520D01*
X112484384Y-165914852D01*
X112519032Y-165900500D01*
X113447273Y-165900500D01*
X115580968Y-165900500D01*
X115615616Y-165914852D01*
X115681284Y-165980520D01*
X115681287Y-165980521D01*
X115681290Y-165980524D01*
X115818213Y-166059576D01*
X115818215Y-166059576D01*
X115818216Y-166059577D01*
X115938665Y-166091851D01*
X115970939Y-166100499D01*
X115970940Y-166100500D01*
X115970943Y-166100500D01*
X116129060Y-166100500D01*
X116129060Y-166100499D01*
X116281784Y-166059577D01*
X116418716Y-165980520D01*
X116530520Y-165868716D01*
X116609577Y-165731784D01*
X116650499Y-165579060D01*
X116650500Y-165579060D01*
X116650500Y-165418016D01*
X116664852Y-165383368D01*
X116699500Y-165369016D01*
X116712182Y-165370686D01*
X116823446Y-165400499D01*
X116823447Y-165400500D01*
X116823450Y-165400500D01*
X116956553Y-165400500D01*
X116956553Y-165400499D01*
X117085116Y-165366051D01*
X117200384Y-165299501D01*
X117294501Y-165205384D01*
X117356597Y-165097830D01*
X117361050Y-165090118D01*
X117361050Y-165090117D01*
X117361051Y-165090116D01*
X117395499Y-164961553D01*
X117395500Y-164961553D01*
X117395500Y-164828447D01*
X117395499Y-164828446D01*
X117361051Y-164699885D01*
X117361050Y-164699881D01*
X117331791Y-164649204D01*
X117294500Y-164584615D01*
X117200384Y-164490499D01*
X117085118Y-164423949D01*
X117085114Y-164423948D01*
X116956553Y-164389500D01*
X116956550Y-164389500D01*
X116823450Y-164389500D01*
X116823447Y-164389500D01*
X116694885Y-164423948D01*
X116694881Y-164423949D01*
X116579615Y-164490499D01*
X116579615Y-164490500D01*
X116485500Y-164584615D01*
X116485499Y-164584615D01*
X116418949Y-164699881D01*
X116418948Y-164699885D01*
X116384500Y-164828446D01*
X116384500Y-164914855D01*
X116370148Y-164949503D01*
X116335500Y-164963855D01*
X116311000Y-164957291D01*
X116281784Y-164940423D01*
X116281781Y-164940422D01*
X116129060Y-164899500D01*
X116129057Y-164899500D01*
X115970943Y-164899500D01*
X115970940Y-164899500D01*
X115818217Y-164940422D01*
X115818213Y-164940423D01*
X115681290Y-165019475D01*
X115681281Y-165019482D01*
X115618508Y-165082255D01*
X115583860Y-165096607D01*
X115549212Y-165082255D01*
X115534860Y-165047607D01*
X115536530Y-165034924D01*
X115540669Y-165019480D01*
X115551500Y-164979057D01*
X115551500Y-164820943D01*
X115551500Y-164820940D01*
X115551499Y-164820939D01*
X115542851Y-164788665D01*
X115510577Y-164668216D01*
X115510576Y-164668215D01*
X115510576Y-164668213D01*
X115431524Y-164531290D01*
X115431521Y-164531287D01*
X115431520Y-164531284D01*
X115319716Y-164419480D01*
X115319713Y-164419478D01*
X115319709Y-164419475D01*
X115182786Y-164340423D01*
X115182782Y-164340422D01*
X115030060Y-164299500D01*
X115030057Y-164299500D01*
X114871943Y-164299500D01*
X114871940Y-164299500D01*
X114719217Y-164340422D01*
X114719213Y-164340423D01*
X114582290Y-164419475D01*
X114582281Y-164419482D01*
X114516616Y-164485148D01*
X114481968Y-164499500D01*
X114219032Y-164499500D01*
X114184384Y-164485148D01*
X114118718Y-164419482D01*
X114118716Y-164419480D01*
X114118713Y-164419478D01*
X114118709Y-164419475D01*
X113981786Y-164340423D01*
X113981782Y-164340422D01*
X113829060Y-164299500D01*
X113829057Y-164299500D01*
X113670943Y-164299500D01*
X113670940Y-164299500D01*
X113518217Y-164340422D01*
X113518213Y-164340423D01*
X113381290Y-164419475D01*
X113381281Y-164419482D01*
X113269482Y-164531281D01*
X113269475Y-164531290D01*
X113190423Y-164668213D01*
X113190422Y-164668217D01*
X113149500Y-164820939D01*
X113149500Y-164979058D01*
X113165245Y-165037817D01*
X113160351Y-165074999D01*
X113130598Y-165097830D01*
X113117915Y-165099500D01*
X112519032Y-165099500D01*
X112484384Y-165085148D01*
X112418718Y-165019482D01*
X112418716Y-165019480D01*
X112418713Y-165019478D01*
X112418709Y-165019475D01*
X112281786Y-164940423D01*
X112281782Y-164940422D01*
X112129060Y-164899500D01*
X112129057Y-164899500D01*
X111970943Y-164899500D01*
X111970940Y-164899500D01*
X111818217Y-164940422D01*
X111818213Y-164940423D01*
X111687545Y-165015864D01*
X111650362Y-165020759D01*
X111620610Y-164997929D01*
X111616260Y-164964892D01*
X111615081Y-164964737D01*
X111615500Y-164961553D01*
X111615500Y-164828447D01*
X111615499Y-164828446D01*
X111581051Y-164699885D01*
X111581050Y-164699881D01*
X111514500Y-164584615D01*
X111420384Y-164490499D01*
X111305118Y-164423949D01*
X111305114Y-164423948D01*
X111176553Y-164389500D01*
X111176550Y-164389500D01*
X111043450Y-164389500D01*
X111043447Y-164389500D01*
X110914885Y-164423948D01*
X110914881Y-164423949D01*
X110799615Y-164490499D01*
X110799615Y-164490500D01*
X110705500Y-164584615D01*
X110705499Y-164584615D01*
X110638949Y-164699881D01*
X110638948Y-164699885D01*
X110604500Y-164828446D01*
X110480000Y-164828446D01*
X110480000Y-164645000D01*
X109980000Y-164645000D01*
X109980000Y-164145000D01*
X110480000Y-164145000D01*
X110480000Y-163766210D01*
X117520000Y-163766210D01*
X117520000Y-164145000D01*
X118020000Y-164145000D01*
X118020000Y-164645000D01*
X117520000Y-164645000D01*
X117520000Y-165023789D01*
X117550742Y-165178348D01*
X117550745Y-165178358D01*
X117611046Y-165323936D01*
X117698598Y-165454969D01*
X117810030Y-165566401D01*
X117941061Y-165653952D01*
X118069999Y-165707360D01*
X118070000Y-165707360D01*
X118070000Y-165111988D01*
X118079940Y-165129205D01*
X118135795Y-165185060D01*
X118204204Y-165224556D01*
X118280504Y-165245000D01*
X118359496Y-165245000D01*
X118435796Y-165224556D01*
X118504205Y-165185060D01*
X118560060Y-165129205D01*
X118570000Y-165111988D01*
X118570000Y-165707360D01*
X118698938Y-165653952D01*
X118829969Y-165566401D01*
X118941401Y-165454969D01*
X119028953Y-165323936D01*
X119089254Y-165178358D01*
X119089257Y-165178348D01*
X119120000Y-165023789D01*
X119120000Y-164645000D01*
X118620000Y-164645000D01*
X118620000Y-164145000D01*
X119120000Y-164145000D01*
X119120000Y-163766210D01*
X120880000Y-163766210D01*
X120880000Y-164145000D01*
X121380000Y-164145000D01*
X121380000Y-164645000D01*
X120880000Y-164645000D01*
X120880000Y-165023789D01*
X120910742Y-165178348D01*
X120910745Y-165178358D01*
X120971046Y-165323936D01*
X121058598Y-165454969D01*
X121170030Y-165566401D01*
X121301061Y-165653952D01*
X121429999Y-165707360D01*
X121430000Y-165707360D01*
X121430000Y-165111988D01*
X121439940Y-165129205D01*
X121495795Y-165185060D01*
X121564204Y-165224556D01*
X121640504Y-165245000D01*
X121719496Y-165245000D01*
X121795796Y-165224556D01*
X121864205Y-165185060D01*
X121920060Y-165129205D01*
X121930000Y-165111988D01*
X121930000Y-165707360D01*
X122058938Y-165653952D01*
X122189969Y-165566401D01*
X122301401Y-165454969D01*
X122388953Y-165323936D01*
X122449254Y-165178358D01*
X122449257Y-165178348D01*
X122480000Y-165023789D01*
X122480000Y-164828446D01*
X122604500Y-164828446D01*
X122604500Y-164961553D01*
X122638948Y-165090114D01*
X122638949Y-165090118D01*
X122693765Y-165185060D01*
X122705499Y-165205384D01*
X122799616Y-165299501D01*
X122820645Y-165311642D01*
X122914881Y-165366050D01*
X122914883Y-165366050D01*
X122914884Y-165366051D01*
X123016279Y-165393219D01*
X123043446Y-165400499D01*
X123043447Y-165400500D01*
X123043450Y-165400500D01*
X123176553Y-165400500D01*
X123176553Y-165400499D01*
X123286874Y-165370939D01*
X123749500Y-165370939D01*
X123749500Y-165529060D01*
X123790422Y-165681782D01*
X123790423Y-165681786D01*
X123869475Y-165818709D01*
X123869478Y-165818713D01*
X123869480Y-165818716D01*
X123981284Y-165930520D01*
X123981287Y-165930521D01*
X123981290Y-165930524D01*
X124118213Y-166009576D01*
X124118215Y-166009576D01*
X124118216Y-166009577D01*
X124238665Y-166041851D01*
X124270939Y-166050499D01*
X124270940Y-166050500D01*
X124270943Y-166050500D01*
X124429060Y-166050500D01*
X124429060Y-166050499D01*
X124581784Y-166009577D01*
X124718716Y-165930520D01*
X124784384Y-165864852D01*
X124819032Y-165850500D01*
X127804249Y-165850500D01*
X127838897Y-165864852D01*
X127851579Y-165886818D01*
X127890422Y-166031782D01*
X127890423Y-166031786D01*
X127969475Y-166168709D01*
X127969478Y-166168713D01*
X127969480Y-166168716D01*
X128081284Y-166280520D01*
X128081287Y-166280521D01*
X128081290Y-166280524D01*
X128218213Y-166359576D01*
X128218215Y-166359576D01*
X128218216Y-166359577D01*
X128338665Y-166391851D01*
X128370939Y-166400499D01*
X128370940Y-166400500D01*
X128370943Y-166400500D01*
X128529060Y-166400500D01*
X128529060Y-166400499D01*
X128681784Y-166359577D01*
X128818716Y-166280520D01*
X128930520Y-166168716D01*
X128993531Y-166059577D01*
X129009576Y-166031786D01*
X129009576Y-166031785D01*
X129009577Y-166031784D01*
X129050499Y-165879060D01*
X129050500Y-165879060D01*
X129050500Y-165720940D01*
X129050499Y-165720939D01*
X129032550Y-165653952D01*
X129009577Y-165568216D01*
X129009576Y-165568215D01*
X129009576Y-165568213D01*
X128950544Y-165465967D01*
X128945649Y-165428785D01*
X128968479Y-165399032D01*
X128980297Y-165394137D01*
X129085116Y-165366051D01*
X129200384Y-165299501D01*
X129294501Y-165205384D01*
X129356597Y-165097830D01*
X129361050Y-165090118D01*
X129361050Y-165090117D01*
X129361051Y-165090116D01*
X129395499Y-164961553D01*
X129395500Y-164961553D01*
X129395500Y-164828447D01*
X129395499Y-164828446D01*
X129361051Y-164699885D01*
X129361050Y-164699881D01*
X129331791Y-164649204D01*
X129294500Y-164584615D01*
X129200384Y-164490499D01*
X129085118Y-164423949D01*
X129085114Y-164423948D01*
X128956553Y-164389500D01*
X128956550Y-164389500D01*
X128823450Y-164389500D01*
X128823447Y-164389500D01*
X128694885Y-164423948D01*
X128694881Y-164423949D01*
X128579615Y-164490499D01*
X128579615Y-164490500D01*
X128485500Y-164584615D01*
X128485499Y-164584615D01*
X128418949Y-164699881D01*
X128418948Y-164699885D01*
X128384500Y-164828446D01*
X128384500Y-164961553D01*
X128414188Y-165072351D01*
X128409293Y-165109533D01*
X128379540Y-165132363D01*
X128342359Y-165127468D01*
X128288907Y-165096607D01*
X128254589Y-165076793D01*
X128254587Y-165076792D01*
X128152730Y-165049500D01*
X128152727Y-165049500D01*
X124819032Y-165049500D01*
X124784384Y-165035148D01*
X124718718Y-164969482D01*
X124718716Y-164969480D01*
X124718713Y-164969478D01*
X124718709Y-164969475D01*
X124581786Y-164890423D01*
X124581782Y-164890422D01*
X124429060Y-164849500D01*
X124429057Y-164849500D01*
X124270943Y-164849500D01*
X124270940Y-164849500D01*
X124118217Y-164890422D01*
X124118213Y-164890423D01*
X123981290Y-164969475D01*
X123981281Y-164969482D01*
X123869482Y-165081281D01*
X123869475Y-165081290D01*
X123790423Y-165218213D01*
X123790422Y-165218217D01*
X123749500Y-165370939D01*
X123286874Y-165370939D01*
X123305116Y-165366051D01*
X123359813Y-165334472D01*
X123375706Y-165325296D01*
X123381495Y-165321953D01*
X123420384Y-165299501D01*
X123514501Y-165205384D01*
X123576597Y-165097830D01*
X123581050Y-165090118D01*
X123581050Y-165090117D01*
X123581051Y-165090116D01*
X123615499Y-164961553D01*
X123615500Y-164961553D01*
X123615500Y-164828447D01*
X123615499Y-164828446D01*
X123581051Y-164699885D01*
X123581050Y-164699881D01*
X123514500Y-164584615D01*
X123420384Y-164490499D01*
X123305118Y-164423949D01*
X123305114Y-164423948D01*
X123176553Y-164389500D01*
X123176550Y-164389500D01*
X123043450Y-164389500D01*
X123043447Y-164389500D01*
X122914885Y-164423948D01*
X122914881Y-164423949D01*
X122799615Y-164490499D01*
X122799615Y-164490500D01*
X122705500Y-164584615D01*
X122705499Y-164584615D01*
X122638949Y-164699881D01*
X122638948Y-164699885D01*
X122604500Y-164828446D01*
X122480000Y-164828446D01*
X122480000Y-164645000D01*
X121980000Y-164645000D01*
X121980000Y-164145000D01*
X122480000Y-164145000D01*
X122480000Y-163766210D01*
X129520000Y-163766210D01*
X129520000Y-164145000D01*
X130020000Y-164145000D01*
X130020000Y-164645000D01*
X129520000Y-164645000D01*
X129520000Y-165023789D01*
X129550742Y-165178348D01*
X129550745Y-165178358D01*
X129611046Y-165323936D01*
X129698598Y-165454969D01*
X129810030Y-165566401D01*
X129941061Y-165653952D01*
X130069999Y-165707360D01*
X130070000Y-165707360D01*
X130070000Y-165111988D01*
X130079940Y-165129205D01*
X130135795Y-165185060D01*
X130204204Y-165224556D01*
X130280504Y-165245000D01*
X130359496Y-165245000D01*
X130435796Y-165224556D01*
X130504205Y-165185060D01*
X130560060Y-165129205D01*
X130570000Y-165111988D01*
X130570000Y-165707360D01*
X130698938Y-165653952D01*
X130829969Y-165566401D01*
X130941401Y-165454969D01*
X131028953Y-165323936D01*
X131089254Y-165178358D01*
X131089257Y-165178348D01*
X131120000Y-165023789D01*
X131120000Y-164645000D01*
X130620000Y-164645000D01*
X130620000Y-164145000D01*
X131120000Y-164145000D01*
X131120000Y-163766210D01*
X131089257Y-163611651D01*
X131089254Y-163611641D01*
X131028953Y-163466063D01*
X130941401Y-163335030D01*
X130829969Y-163223598D01*
X130698938Y-163136047D01*
X130570000Y-163082639D01*
X130570000Y-163678011D01*
X130560060Y-163660795D01*
X130504205Y-163604940D01*
X130435796Y-163565444D01*
X130359496Y-163545000D01*
X130280504Y-163545000D01*
X130204204Y-163565444D01*
X130135795Y-163604940D01*
X130079940Y-163660795D01*
X130070000Y-163678011D01*
X130070000Y-163082639D01*
X129941061Y-163136047D01*
X129810030Y-163223598D01*
X129698598Y-163335030D01*
X129611046Y-163466063D01*
X129550745Y-163611641D01*
X129550742Y-163611651D01*
X129520000Y-163766210D01*
X122480000Y-163766210D01*
X122449257Y-163611651D01*
X122449254Y-163611641D01*
X122388953Y-163466063D01*
X122301401Y-163335030D01*
X122189969Y-163223598D01*
X122058938Y-163136047D01*
X121930000Y-163082639D01*
X121930000Y-163678011D01*
X121920060Y-163660795D01*
X121864205Y-163604940D01*
X121795796Y-163565444D01*
X121719496Y-163545000D01*
X121640504Y-163545000D01*
X121564204Y-163565444D01*
X121495795Y-163604940D01*
X121439940Y-163660795D01*
X121430000Y-163678011D01*
X121430000Y-163082639D01*
X121301061Y-163136047D01*
X121170030Y-163223598D01*
X121058598Y-163335030D01*
X120971046Y-163466063D01*
X120910745Y-163611641D01*
X120910742Y-163611651D01*
X120880000Y-163766210D01*
X119120000Y-163766210D01*
X119089257Y-163611651D01*
X119089254Y-163611641D01*
X119028953Y-163466063D01*
X118941401Y-163335030D01*
X118829969Y-163223598D01*
X118698938Y-163136047D01*
X118570000Y-163082639D01*
X118570000Y-163678011D01*
X118560060Y-163660795D01*
X118504205Y-163604940D01*
X118435796Y-163565444D01*
X118359496Y-163545000D01*
X118280504Y-163545000D01*
X118204204Y-163565444D01*
X118135795Y-163604940D01*
X118079940Y-163660795D01*
X118070000Y-163678011D01*
X118070000Y-163082639D01*
X117941061Y-163136047D01*
X117810030Y-163223598D01*
X117698598Y-163335030D01*
X117611046Y-163466063D01*
X117550745Y-163611641D01*
X117550742Y-163611651D01*
X117520000Y-163766210D01*
X110480000Y-163766210D01*
X110449257Y-163611651D01*
X110449254Y-163611641D01*
X110388953Y-163466063D01*
X110301401Y-163335030D01*
X110189969Y-163223598D01*
X110058936Y-163136046D01*
X109913358Y-163075745D01*
X109913340Y-163075740D01*
X109902359Y-163073556D01*
X109897743Y-163070472D01*
X109892192Y-163070352D01*
X109882649Y-163060386D01*
X109871177Y-163052721D01*
X109870093Y-163047274D01*
X109866254Y-163043265D01*
X109866552Y-163029469D01*
X109863861Y-163015938D01*
X109866944Y-163011322D01*
X109867065Y-163005771D01*
X109875476Y-162998554D01*
X109884696Y-162984756D01*
X109894152Y-162979833D01*
X109896649Y-162978861D01*
X109943186Y-162966392D01*
X110057314Y-162900500D01*
X111008320Y-161949493D01*
X132810000Y-161949493D01*
X132810000Y-162130506D01*
X132838316Y-162309289D01*
X132838317Y-162309292D01*
X132894252Y-162481445D01*
X132976432Y-162642730D01*
X132987912Y-162658533D01*
X133477037Y-162169408D01*
X133494075Y-162232993D01*
X133559901Y-162347007D01*
X133652993Y-162440099D01*
X133767007Y-162505925D01*
X133830590Y-162522962D01*
X133341466Y-163012085D01*
X133357268Y-163023567D01*
X133518554Y-163105747D01*
X133690707Y-163161682D01*
X133690710Y-163161683D01*
X133869494Y-163190000D01*
X134050506Y-163190000D01*
X134229289Y-163161683D01*
X134229292Y-163161682D01*
X134401445Y-163105747D01*
X134562724Y-163023571D01*
X134578532Y-163012085D01*
X134089409Y-162522962D01*
X134152993Y-162505925D01*
X134267007Y-162440099D01*
X134360099Y-162347007D01*
X134425925Y-162232993D01*
X134442962Y-162169409D01*
X134932085Y-162658532D01*
X134943571Y-162642724D01*
X135025747Y-162481445D01*
X135081682Y-162309292D01*
X135081683Y-162309289D01*
X135110000Y-162130506D01*
X135110000Y-161949493D01*
X135081683Y-161770710D01*
X135081682Y-161770707D01*
X135025747Y-161598554D01*
X134943567Y-161437268D01*
X134932085Y-161421466D01*
X134442962Y-161910589D01*
X134425925Y-161847007D01*
X134360099Y-161732993D01*
X134267007Y-161639901D01*
X134152993Y-161574075D01*
X134089407Y-161557037D01*
X134578533Y-161067912D01*
X134562730Y-161056432D01*
X134401445Y-160974252D01*
X134229292Y-160918317D01*
X134229289Y-160918316D01*
X134050506Y-160890000D01*
X133869494Y-160890000D01*
X133690710Y-160918316D01*
X133690707Y-160918317D01*
X133518554Y-160974252D01*
X133357270Y-161056431D01*
X133357265Y-161056434D01*
X133341466Y-161067912D01*
X133341466Y-161067913D01*
X133830590Y-161557037D01*
X133767007Y-161574075D01*
X133652993Y-161639901D01*
X133559901Y-161732993D01*
X133494075Y-161847007D01*
X133477037Y-161910590D01*
X132987913Y-161421466D01*
X132987912Y-161421466D01*
X132976434Y-161437265D01*
X132976431Y-161437270D01*
X132894252Y-161598554D01*
X132838317Y-161770707D01*
X132838316Y-161770710D01*
X132810000Y-161949493D01*
X111008320Y-161949493D01*
X111983374Y-160974438D01*
X112005333Y-160961760D01*
X112106784Y-160934577D01*
X112243716Y-160855520D01*
X112355520Y-160743716D01*
X112372218Y-160714792D01*
X112434576Y-160606786D01*
X112434576Y-160606785D01*
X112434577Y-160606784D01*
X112475499Y-160454060D01*
X112475500Y-160454060D01*
X112475500Y-160295940D01*
X112475499Y-160295939D01*
X112434577Y-160143217D01*
X112434576Y-160143213D01*
X112355524Y-160006290D01*
X112355521Y-160006287D01*
X112355520Y-160006284D01*
X112243716Y-159894480D01*
X112243713Y-159894478D01*
X112243709Y-159894475D01*
X112106786Y-159815423D01*
X112106782Y-159815422D01*
X111954060Y-159774500D01*
X111954057Y-159774500D01*
X111795943Y-159774500D01*
X111795940Y-159774500D01*
X111643217Y-159815422D01*
X111643213Y-159815423D01*
X111506290Y-159894475D01*
X111506281Y-159894482D01*
X111394482Y-160006281D01*
X111394475Y-160006290D01*
X111315423Y-160143213D01*
X111315423Y-160143215D01*
X111288240Y-160244661D01*
X111275558Y-160266626D01*
X109557038Y-161985148D01*
X109522390Y-161999500D01*
X107239500Y-161999500D01*
X107204852Y-161985148D01*
X107190854Y-161951355D01*
X107190651Y-161951372D01*
X107190601Y-161950745D01*
X107190500Y-161950500D01*
X107190500Y-161949454D01*
X107162171Y-161770593D01*
X107162171Y-161770591D01*
X107106211Y-161598361D01*
X107023996Y-161437006D01*
X106917553Y-161290499D01*
X106917551Y-161290497D01*
X106917548Y-161290493D01*
X106789507Y-161162452D01*
X106789502Y-161162448D01*
X106789501Y-161162447D01*
X106642994Y-161056004D01*
X106481639Y-160973789D01*
X106481638Y-160973788D01*
X106481637Y-160973788D01*
X106309409Y-160917829D01*
X106309406Y-160917828D01*
X106172007Y-160896066D01*
X106130546Y-160889500D01*
X105949454Y-160889500D01*
X105915794Y-160894831D01*
X105770593Y-160917828D01*
X105770590Y-160917829D01*
X105598362Y-160973788D01*
X105437006Y-161056004D01*
X105290497Y-161162448D01*
X105162448Y-161290497D01*
X105056004Y-161437006D01*
X104973788Y-161598362D01*
X104917829Y-161770590D01*
X104917828Y-161770593D01*
X104889500Y-161949454D01*
X104550500Y-161949454D01*
X104550500Y-159409493D01*
X104890000Y-159409493D01*
X104890000Y-159590506D01*
X104918316Y-159769289D01*
X104918317Y-159769292D01*
X104974252Y-159941445D01*
X105056432Y-160102730D01*
X105067912Y-160118533D01*
X105557037Y-159629408D01*
X105574075Y-159692993D01*
X105639901Y-159807007D01*
X105732993Y-159900099D01*
X105847007Y-159965925D01*
X105910590Y-159982962D01*
X105421466Y-160472085D01*
X105437268Y-160483567D01*
X105598554Y-160565747D01*
X105770707Y-160621682D01*
X105770710Y-160621683D01*
X105949494Y-160650000D01*
X106130506Y-160650000D01*
X106309289Y-160621683D01*
X106309292Y-160621682D01*
X106481445Y-160565747D01*
X106642724Y-160483571D01*
X106658532Y-160472085D01*
X106169409Y-159982962D01*
X106232993Y-159965925D01*
X106347007Y-159900099D01*
X106440099Y-159807007D01*
X106505925Y-159692993D01*
X106522962Y-159629409D01*
X107012085Y-160118532D01*
X107023571Y-160102724D01*
X107105747Y-159941445D01*
X107161682Y-159769292D01*
X107161683Y-159769289D01*
X107190000Y-159590506D01*
X107190000Y-159409493D01*
X132810000Y-159409493D01*
X132810000Y-159590506D01*
X132838316Y-159769289D01*
X132838317Y-159769292D01*
X132894252Y-159941445D01*
X132976432Y-160102730D01*
X132987912Y-160118533D01*
X133477037Y-159629408D01*
X133494075Y-159692993D01*
X133559901Y-159807007D01*
X133652993Y-159900099D01*
X133767007Y-159965925D01*
X133830590Y-159982962D01*
X133341466Y-160472085D01*
X133357268Y-160483567D01*
X133518554Y-160565747D01*
X133690707Y-160621682D01*
X133690710Y-160621683D01*
X133869494Y-160650000D01*
X134050506Y-160650000D01*
X134229289Y-160621683D01*
X134229292Y-160621682D01*
X134401445Y-160565747D01*
X134562724Y-160483571D01*
X134578532Y-160472085D01*
X134089409Y-159982962D01*
X134152993Y-159965925D01*
X134267007Y-159900099D01*
X134360099Y-159807007D01*
X134425925Y-159692993D01*
X134442962Y-159629409D01*
X134932085Y-160118532D01*
X134943571Y-160102724D01*
X135025747Y-159941445D01*
X135081682Y-159769292D01*
X135081683Y-159769289D01*
X135110000Y-159590506D01*
X135110000Y-159409493D01*
X135081683Y-159230710D01*
X135081682Y-159230707D01*
X135025747Y-159058554D01*
X134943567Y-158897268D01*
X134932085Y-158881466D01*
X134442962Y-159370589D01*
X134425925Y-159307007D01*
X134360099Y-159192993D01*
X134267007Y-159099901D01*
X134152993Y-159034075D01*
X134089407Y-159017037D01*
X134578533Y-158527912D01*
X134562730Y-158516432D01*
X134401445Y-158434252D01*
X134229292Y-158378317D01*
X134229289Y-158378316D01*
X134050506Y-158350000D01*
X133869494Y-158350000D01*
X133690710Y-158378316D01*
X133690707Y-158378317D01*
X133518554Y-158434252D01*
X133357270Y-158516431D01*
X133357265Y-158516434D01*
X133341466Y-158527912D01*
X133341466Y-158527913D01*
X133830590Y-159017037D01*
X133767007Y-159034075D01*
X133652993Y-159099901D01*
X133559901Y-159192993D01*
X133494075Y-159307007D01*
X133477037Y-159370590D01*
X132987913Y-158881466D01*
X132987912Y-158881466D01*
X132976434Y-158897265D01*
X132976431Y-158897270D01*
X132894252Y-159058554D01*
X132838317Y-159230707D01*
X132838316Y-159230710D01*
X132810000Y-159409493D01*
X107190000Y-159409493D01*
X107161683Y-159230710D01*
X107161682Y-159230707D01*
X107105747Y-159058554D01*
X107023567Y-158897268D01*
X107012085Y-158881466D01*
X106522962Y-159370589D01*
X106505925Y-159307007D01*
X106440099Y-159192993D01*
X106347007Y-159099901D01*
X106232993Y-159034075D01*
X106169407Y-159017037D01*
X106658533Y-158527912D01*
X106642730Y-158516432D01*
X106481445Y-158434252D01*
X106309292Y-158378317D01*
X106309289Y-158378316D01*
X106130506Y-158350000D01*
X105949494Y-158350000D01*
X105770710Y-158378316D01*
X105770707Y-158378317D01*
X105598554Y-158434252D01*
X105437270Y-158516431D01*
X105437265Y-158516434D01*
X105421466Y-158527912D01*
X105421466Y-158527913D01*
X105910590Y-159017037D01*
X105847007Y-159034075D01*
X105732993Y-159099901D01*
X105639901Y-159192993D01*
X105574075Y-159307007D01*
X105557037Y-159370590D01*
X105067913Y-158881466D01*
X105067912Y-158881466D01*
X105056434Y-158897265D01*
X105056431Y-158897270D01*
X104974252Y-159058554D01*
X104918317Y-159230707D01*
X104918316Y-159230710D01*
X104890000Y-159409493D01*
X104550500Y-159409493D01*
X104550500Y-150162949D01*
X104564852Y-150128301D01*
X104599500Y-150113949D01*
X104634148Y-150128301D01*
X105242759Y-150736912D01*
X105242760Y-150736913D01*
X105317327Y-150811480D01*
X105370047Y-150841918D01*
X105383493Y-150849681D01*
X105406323Y-150879434D01*
X105401428Y-150916616D01*
X105387795Y-150931758D01*
X105290492Y-151002452D01*
X105162452Y-151130493D01*
X105162448Y-151130497D01*
X105056004Y-151277006D01*
X104973788Y-151438362D01*
X104917829Y-151610590D01*
X104917828Y-151610593D01*
X104889500Y-151789454D01*
X104889500Y-151970545D01*
X104917828Y-152149406D01*
X104917829Y-152149409D01*
X104969869Y-152309576D01*
X104973789Y-152321639D01*
X105056004Y-152482994D01*
X105154613Y-152618718D01*
X105162448Y-152629502D01*
X105162452Y-152629507D01*
X105290493Y-152757548D01*
X105290497Y-152757551D01*
X105290499Y-152757553D01*
X105437006Y-152863996D01*
X105598361Y-152946211D01*
X105604035Y-152948054D01*
X105605640Y-152948576D01*
X105634159Y-152972931D01*
X105639500Y-152995178D01*
X105639500Y-153304821D01*
X105625148Y-153339469D01*
X105605643Y-153351422D01*
X105598366Y-153353786D01*
X105437006Y-153436004D01*
X105290497Y-153542448D01*
X105162448Y-153670497D01*
X105056004Y-153817006D01*
X104973788Y-153978362D01*
X104917829Y-154150590D01*
X104917828Y-154150593D01*
X104889500Y-154329454D01*
X104889500Y-154510545D01*
X104917828Y-154689406D01*
X104917829Y-154689409D01*
X104965085Y-154834852D01*
X104973789Y-154861639D01*
X105056004Y-155022994D01*
X105142957Y-155142675D01*
X105162448Y-155169502D01*
X105162452Y-155169507D01*
X105290493Y-155297548D01*
X105290497Y-155297551D01*
X105290499Y-155297553D01*
X105437006Y-155403996D01*
X105598361Y-155486211D01*
X105604035Y-155488054D01*
X105605640Y-155488576D01*
X105634159Y-155512931D01*
X105639500Y-155535178D01*
X105639500Y-155844821D01*
X105625148Y-155879469D01*
X105605643Y-155891422D01*
X105598366Y-155893786D01*
X105437006Y-155976004D01*
X105290497Y-156082448D01*
X105162448Y-156210497D01*
X105056004Y-156357006D01*
X104973788Y-156518362D01*
X104917829Y-156690590D01*
X104917828Y-156690593D01*
X104889500Y-156869454D01*
X104889500Y-157050545D01*
X104917828Y-157229406D01*
X104917829Y-157229409D01*
X104973789Y-157401639D01*
X105056004Y-157562994D01*
X105105624Y-157631290D01*
X105162448Y-157709502D01*
X105162452Y-157709507D01*
X105290493Y-157837548D01*
X105290497Y-157837551D01*
X105290499Y-157837553D01*
X105437006Y-157943996D01*
X105598361Y-158026211D01*
X105770591Y-158082171D01*
X105949454Y-158110500D01*
X105949455Y-158110500D01*
X106130545Y-158110500D01*
X106130546Y-158110500D01*
X106309409Y-158082171D01*
X106481639Y-158026211D01*
X106642994Y-157943996D01*
X106789501Y-157837553D01*
X106789504Y-157837549D01*
X106789507Y-157837548D01*
X106917548Y-157709507D01*
X106917549Y-157709504D01*
X106917553Y-157709501D01*
X107023996Y-157562994D01*
X107106211Y-157401639D01*
X107162171Y-157229409D01*
X107190500Y-157050546D01*
X107190500Y-156869454D01*
X107162171Y-156690591D01*
X107106211Y-156518361D01*
X107023996Y-156357006D01*
X106917553Y-156210499D01*
X106917551Y-156210497D01*
X106917548Y-156210493D01*
X106789507Y-156082452D01*
X106789502Y-156082448D01*
X106692205Y-156011758D01*
X106672609Y-155979781D01*
X106681364Y-155943315D01*
X106696503Y-155929683D01*
X106762673Y-155891480D01*
X107511480Y-155142673D01*
X107564206Y-155051348D01*
X107564207Y-155051347D01*
X107571805Y-155022993D01*
X107591499Y-154949490D01*
X107591500Y-154949490D01*
X107591500Y-154751500D01*
X107605852Y-154716852D01*
X107640500Y-154702500D01*
X108750730Y-154702500D01*
X108750730Y-154702499D01*
X108852588Y-154675207D01*
X108943913Y-154622480D01*
X112843878Y-150722512D01*
X112843883Y-150722509D01*
X112847911Y-150718480D01*
X112847913Y-150718480D01*
X112922480Y-150643913D01*
X112974052Y-150554588D01*
X112974053Y-150554589D01*
X112974055Y-150554582D01*
X112975207Y-150552588D01*
X113002500Y-150450730D01*
X113002501Y-150450730D01*
X113002501Y-150342277D01*
X113002500Y-150342259D01*
X113002500Y-149268389D01*
X113016852Y-149233741D01*
X113894589Y-148356004D01*
X114872480Y-147378113D01*
X114886351Y-147354087D01*
X114925207Y-147286787D01*
X114952499Y-147184930D01*
X114952500Y-147184930D01*
X114952500Y-143268389D01*
X114966852Y-143233741D01*
X116390048Y-141810545D01*
X117833578Y-140367014D01*
X117868225Y-140352663D01*
X117902873Y-140367015D01*
X117915555Y-140388980D01*
X117940423Y-140481784D01*
X117940423Y-140481786D01*
X118019475Y-140618709D01*
X118019478Y-140618713D01*
X118019480Y-140618716D01*
X118131284Y-140730520D01*
X118131287Y-140730521D01*
X118131290Y-140730524D01*
X118268213Y-140809576D01*
X118268215Y-140809576D01*
X118268216Y-140809577D01*
X118383533Y-140840476D01*
X118420939Y-140850499D01*
X118420940Y-140850500D01*
X118420943Y-140850500D01*
X118579060Y-140850500D01*
X118579060Y-140850499D01*
X118731784Y-140809577D01*
X118864945Y-140732696D01*
X118902125Y-140727802D01*
X118924091Y-140740484D01*
X120135148Y-141951540D01*
X120149500Y-141986188D01*
X120149500Y-142079060D01*
X120190422Y-142231782D01*
X120190423Y-142231786D01*
X120269475Y-142368709D01*
X120269478Y-142368713D01*
X120269480Y-142368716D01*
X120381284Y-142480520D01*
X120381287Y-142480521D01*
X120381290Y-142480524D01*
X120518213Y-142559576D01*
X120518215Y-142559576D01*
X120518216Y-142559577D01*
X120620336Y-142586940D01*
X120670939Y-142600499D01*
X120670940Y-142600500D01*
X120670943Y-142600500D01*
X120829060Y-142600500D01*
X120829060Y-142600499D01*
X120911006Y-142578541D01*
X120984886Y-142558746D01*
X120985334Y-142560419D01*
X121017253Y-142560421D01*
X121043771Y-142586940D01*
X121047500Y-142605690D01*
X121047500Y-144500730D01*
X121074792Y-144602587D01*
X121074793Y-144602589D01*
X121127520Y-144693913D01*
X121749459Y-145315852D01*
X121763811Y-145350500D01*
X121749459Y-145385148D01*
X121714811Y-145399500D01*
X121670940Y-145399500D01*
X121518217Y-145440422D01*
X121518213Y-145440423D01*
X121381290Y-145519475D01*
X121381281Y-145519482D01*
X121269482Y-145631281D01*
X121269475Y-145631290D01*
X121190423Y-145768213D01*
X121190423Y-145768215D01*
X121163240Y-145869661D01*
X121150558Y-145891626D01*
X120207038Y-146835148D01*
X120172390Y-146849500D01*
X116947270Y-146849500D01*
X116845412Y-146876792D01*
X116845410Y-146876793D01*
X116754086Y-146929520D01*
X116754086Y-146929521D01*
X115048459Y-148635148D01*
X115013811Y-148649500D01*
X114920940Y-148649500D01*
X114768217Y-148690422D01*
X114768213Y-148690423D01*
X114631290Y-148769475D01*
X114631281Y-148769482D01*
X114519482Y-148881281D01*
X114519475Y-148881290D01*
X114440423Y-149018213D01*
X114440422Y-149018217D01*
X114399500Y-149170939D01*
X114399500Y-149329060D01*
X114440422Y-149481782D01*
X114440423Y-149481786D01*
X114516206Y-149613047D01*
X114521101Y-149650229D01*
X114498271Y-149679982D01*
X114461089Y-149684877D01*
X114329060Y-149649500D01*
X114329057Y-149649500D01*
X114170943Y-149649500D01*
X114170940Y-149649500D01*
X114018217Y-149690422D01*
X114018213Y-149690423D01*
X113881290Y-149769475D01*
X113881281Y-149769482D01*
X113769482Y-149881281D01*
X113769475Y-149881290D01*
X113690423Y-150018213D01*
X113690422Y-150018217D01*
X113649500Y-150170939D01*
X113649500Y-150329060D01*
X113690422Y-150481782D01*
X113690423Y-150481786D01*
X113769475Y-150618709D01*
X113769478Y-150618713D01*
X113769480Y-150618716D01*
X113881284Y-150730520D01*
X113881287Y-150730521D01*
X113881290Y-150730524D01*
X114018213Y-150809576D01*
X114018215Y-150809576D01*
X114018216Y-150809577D01*
X114138665Y-150841851D01*
X114170939Y-150850499D01*
X114170940Y-150850500D01*
X114170943Y-150850500D01*
X114329060Y-150850500D01*
X114329060Y-150850499D01*
X114481784Y-150809577D01*
X114572738Y-150757064D01*
X114597238Y-150750500D01*
X117565895Y-150750500D01*
X117565895Y-150750499D01*
X117693186Y-150716392D01*
X117807314Y-150650500D01*
X120792962Y-147664852D01*
X120827610Y-147650500D01*
X121280968Y-147650500D01*
X121315616Y-147664852D01*
X121381284Y-147730520D01*
X121381287Y-147730521D01*
X121381290Y-147730524D01*
X121518213Y-147809576D01*
X121518215Y-147809576D01*
X121518216Y-147809577D01*
X121638665Y-147841851D01*
X121670939Y-147850499D01*
X121670940Y-147850500D01*
X121670943Y-147850500D01*
X121829060Y-147850500D01*
X121829060Y-147850499D01*
X121981784Y-147809577D01*
X122118716Y-147730520D01*
X122230520Y-147618716D01*
X122247218Y-147589792D01*
X122309576Y-147481786D01*
X122309576Y-147481785D01*
X122309577Y-147481784D01*
X122350499Y-147329060D01*
X122350500Y-147329060D01*
X122350500Y-147170940D01*
X122350499Y-147170939D01*
X122309577Y-147018217D01*
X122309576Y-147018213D01*
X122230524Y-146881290D01*
X122230521Y-146881287D01*
X122230520Y-146881284D01*
X122118716Y-146769480D01*
X122118713Y-146769478D01*
X122118709Y-146769475D01*
X121981785Y-146690423D01*
X121914259Y-146672329D01*
X121884506Y-146649499D01*
X121879612Y-146612316D01*
X121902442Y-146582563D01*
X121914251Y-146577672D01*
X121981784Y-146559577D01*
X122118716Y-146480520D01*
X122230520Y-146368716D01*
X122309577Y-146231784D01*
X122350499Y-146079060D01*
X122350500Y-146079060D01*
X122350500Y-146035189D01*
X122364852Y-146000541D01*
X122399500Y-145986189D01*
X122434148Y-146000541D01*
X128289409Y-151855802D01*
X128303761Y-151890450D01*
X128289409Y-151925098D01*
X128254761Y-151939450D01*
X122845587Y-151939450D01*
X122819165Y-151930482D01*
X122818794Y-151931126D01*
X122816013Y-151929520D01*
X122781794Y-151909763D01*
X122724689Y-151876793D01*
X122724687Y-151876792D01*
X122622830Y-151849500D01*
X122622827Y-151849500D01*
X122019032Y-151849500D01*
X121984384Y-151835148D01*
X121918718Y-151769482D01*
X121918716Y-151769480D01*
X121918713Y-151769478D01*
X121918709Y-151769475D01*
X121781786Y-151690423D01*
X121781782Y-151690422D01*
X121629060Y-151649500D01*
X121629057Y-151649500D01*
X121470943Y-151649500D01*
X121470940Y-151649500D01*
X121318217Y-151690422D01*
X121318213Y-151690423D01*
X121181290Y-151769475D01*
X121181281Y-151769482D01*
X121069482Y-151881281D01*
X121069475Y-151881290D01*
X120990423Y-152018213D01*
X120990422Y-152018217D01*
X120949500Y-152170939D01*
X120949500Y-152329060D01*
X120990422Y-152481782D01*
X120990423Y-152481786D01*
X121069475Y-152618709D01*
X121069478Y-152618713D01*
X121069480Y-152618716D01*
X121181284Y-152730520D01*
X121181287Y-152730521D01*
X121181290Y-152730524D01*
X121318213Y-152809576D01*
X121318215Y-152809576D01*
X121318216Y-152809577D01*
X121438665Y-152841851D01*
X121470939Y-152850499D01*
X121470940Y-152850500D01*
X121470943Y-152850500D01*
X121550500Y-152850500D01*
X121585148Y-152864852D01*
X121599500Y-152899500D01*
X121599500Y-152929060D01*
X121640422Y-153081782D01*
X121640423Y-153081786D01*
X121719475Y-153218709D01*
X121719478Y-153218713D01*
X121719480Y-153218716D01*
X121831284Y-153330520D01*
X121831287Y-153330521D01*
X121831290Y-153330524D01*
X121968213Y-153409576D01*
X121968215Y-153409576D01*
X121968216Y-153409577D01*
X122066843Y-153436004D01*
X122120939Y-153450499D01*
X122120940Y-153450500D01*
X122120943Y-153450500D01*
X122279060Y-153450500D01*
X122279060Y-153450499D01*
X122431784Y-153409577D01*
X122538414Y-153348015D01*
X122562914Y-153341450D01*
X128104704Y-153341450D01*
X128139352Y-153355802D01*
X131195012Y-156411462D01*
X131209364Y-156446110D01*
X131195012Y-156480758D01*
X131184865Y-156488544D01*
X131133221Y-156518362D01*
X131131281Y-156519482D01*
X131065616Y-156585148D01*
X131030968Y-156599500D01*
X119947270Y-156599500D01*
X119845417Y-156626791D01*
X119845411Y-156626794D01*
X119817454Y-156642935D01*
X119792954Y-156649500D01*
X119670940Y-156649500D01*
X119518217Y-156690422D01*
X119518213Y-156690423D01*
X119381290Y-156769475D01*
X119381281Y-156769482D01*
X119269482Y-156881281D01*
X119269475Y-156881290D01*
X119190423Y-157018213D01*
X119190422Y-157018217D01*
X119149500Y-157170939D01*
X119149500Y-157329060D01*
X119190422Y-157481782D01*
X119190423Y-157481786D01*
X119269475Y-157618709D01*
X119269478Y-157618713D01*
X119269480Y-157618716D01*
X119381284Y-157730520D01*
X119381287Y-157730521D01*
X119381290Y-157730524D01*
X119518213Y-157809576D01*
X119518215Y-157809576D01*
X119518216Y-157809577D01*
X119622617Y-157837551D01*
X119670939Y-157850499D01*
X119670940Y-157850500D01*
X119670943Y-157850500D01*
X119829060Y-157850500D01*
X119829060Y-157850499D01*
X119981784Y-157809577D01*
X120118716Y-157730520D01*
X120230520Y-157618716D01*
X120309577Y-157481784D01*
X120321626Y-157436818D01*
X120344456Y-157407065D01*
X120368956Y-157400500D01*
X131030968Y-157400500D01*
X131065616Y-157414852D01*
X131131284Y-157480520D01*
X131131287Y-157480521D01*
X131131290Y-157480524D01*
X131259175Y-157554357D01*
X131282005Y-157584109D01*
X131277110Y-157621292D01*
X131271409Y-157628722D01*
X131271433Y-157628740D01*
X131269475Y-157631290D01*
X131190423Y-157768213D01*
X131190422Y-157768217D01*
X131149500Y-157920939D01*
X131149500Y-158079060D01*
X131190422Y-158231782D01*
X131190423Y-158231786D01*
X131269475Y-158368709D01*
X131269478Y-158368713D01*
X131269480Y-158368716D01*
X131381284Y-158480520D01*
X131381287Y-158480521D01*
X131381290Y-158480524D01*
X131518213Y-158559576D01*
X131518215Y-158559576D01*
X131518216Y-158559577D01*
X131630402Y-158589637D01*
X131670939Y-158600499D01*
X131670940Y-158600500D01*
X131670943Y-158600500D01*
X131829059Y-158600500D01*
X131954801Y-158566807D01*
X131991983Y-158571702D01*
X132009918Y-158589637D01*
X132028429Y-158621699D01*
X132140233Y-158733503D01*
X132140236Y-158733504D01*
X132140239Y-158733507D01*
X132277162Y-158812559D01*
X132277164Y-158812559D01*
X132277165Y-158812560D01*
X132397614Y-158844834D01*
X132429888Y-158853482D01*
X132429889Y-158853483D01*
X132429892Y-158853483D01*
X132588009Y-158853483D01*
X132588009Y-158853482D01*
X132740733Y-158812560D01*
X132877665Y-158733503D01*
X132989469Y-158621699D01*
X133043616Y-158527913D01*
X133046979Y-158522088D01*
X133068525Y-158484769D01*
X133068525Y-158484768D01*
X133068526Y-158484767D01*
X133109448Y-158332043D01*
X133109449Y-158332043D01*
X133109449Y-158173923D01*
X133109448Y-158173922D01*
X133068527Y-158021203D01*
X133068526Y-158021199D01*
X133023609Y-157943399D01*
X133017044Y-157918899D01*
X133017044Y-157762395D01*
X133031396Y-157727747D01*
X133066044Y-157713395D01*
X133100692Y-157727747D01*
X133210493Y-157837548D01*
X133210497Y-157837551D01*
X133210499Y-157837553D01*
X133357006Y-157943996D01*
X133518361Y-158026211D01*
X133690591Y-158082171D01*
X133869454Y-158110500D01*
X133869455Y-158110500D01*
X134050545Y-158110500D01*
X134050546Y-158110500D01*
X134229409Y-158082171D01*
X134401639Y-158026211D01*
X134562994Y-157943996D01*
X134709501Y-157837553D01*
X134709504Y-157837549D01*
X134709507Y-157837548D01*
X134837548Y-157709507D01*
X134837549Y-157709504D01*
X134837553Y-157709501D01*
X134943996Y-157562994D01*
X135026211Y-157401639D01*
X135082171Y-157229409D01*
X135110500Y-157050546D01*
X135110500Y-156869454D01*
X135082171Y-156690591D01*
X135026211Y-156518361D01*
X134943996Y-156357006D01*
X134837553Y-156210499D01*
X134837551Y-156210497D01*
X134837548Y-156210493D01*
X134709507Y-156082452D01*
X134709502Y-156082448D01*
X134612205Y-156011758D01*
X134562994Y-155976004D01*
X134401639Y-155893789D01*
X134401638Y-155893788D01*
X134401637Y-155893788D01*
X134229409Y-155837829D01*
X134229406Y-155837828D01*
X134092007Y-155816066D01*
X134050546Y-155809500D01*
X133869454Y-155809500D01*
X133835794Y-155814831D01*
X133690593Y-155837828D01*
X133690590Y-155837829D01*
X133518361Y-155893789D01*
X133518353Y-155893792D01*
X133511538Y-155897265D01*
X133474151Y-155900206D01*
X133454646Y-155888253D01*
X132470541Y-154904148D01*
X132456189Y-154869500D01*
X132470541Y-154834852D01*
X132505189Y-154820500D01*
X132844821Y-154820500D01*
X132879469Y-154834852D01*
X132891422Y-154854357D01*
X132893786Y-154861633D01*
X132893788Y-154861637D01*
X132893789Y-154861639D01*
X132976004Y-155022994D01*
X133062957Y-155142675D01*
X133082448Y-155169502D01*
X133082452Y-155169507D01*
X133210493Y-155297548D01*
X133210497Y-155297551D01*
X133210499Y-155297553D01*
X133357006Y-155403996D01*
X133518361Y-155486211D01*
X133690591Y-155542171D01*
X133869454Y-155570500D01*
X133869455Y-155570500D01*
X134050545Y-155570500D01*
X134050546Y-155570500D01*
X134229409Y-155542171D01*
X134401639Y-155486211D01*
X134562994Y-155403996D01*
X134709501Y-155297553D01*
X134709504Y-155297549D01*
X134709507Y-155297548D01*
X134837548Y-155169507D01*
X134837549Y-155169504D01*
X134837553Y-155169501D01*
X134943996Y-155022994D01*
X135026211Y-154861639D01*
X135082171Y-154689409D01*
X135110500Y-154510546D01*
X135110500Y-154329454D01*
X135082171Y-154150591D01*
X135026211Y-153978361D01*
X134943996Y-153817006D01*
X134837553Y-153670499D01*
X134837551Y-153670497D01*
X134837548Y-153670493D01*
X134709507Y-153542452D01*
X134709502Y-153542448D01*
X134709501Y-153542447D01*
X134562994Y-153436004D01*
X134401639Y-153353789D01*
X134401638Y-153353788D01*
X134401637Y-153353788D01*
X134229409Y-153297829D01*
X134229406Y-153297828D01*
X134092007Y-153276066D01*
X134050546Y-153269500D01*
X133869454Y-153269500D01*
X133835794Y-153274831D01*
X133690593Y-153297828D01*
X133690590Y-153297829D01*
X133518362Y-153353788D01*
X133357006Y-153436004D01*
X133210497Y-153542448D01*
X133082448Y-153670497D01*
X132976004Y-153817006D01*
X132893786Y-153978366D01*
X132891422Y-153985643D01*
X132867065Y-154014160D01*
X132844821Y-154019500D01*
X132173288Y-154019500D01*
X132138640Y-154005148D01*
X132117640Y-153984148D01*
X132103288Y-153949500D01*
X132117640Y-153914852D01*
X132152288Y-153900500D01*
X132392730Y-153900500D01*
X132392730Y-153900499D01*
X132494588Y-153873207D01*
X132585913Y-153820480D01*
X133454646Y-152951745D01*
X133489293Y-152937394D01*
X133511536Y-152942733D01*
X133518361Y-152946211D01*
X133690591Y-153002171D01*
X133869454Y-153030500D01*
X133869455Y-153030500D01*
X134050545Y-153030500D01*
X134050546Y-153030500D01*
X134229409Y-153002171D01*
X134401639Y-152946211D01*
X134562994Y-152863996D01*
X134709501Y-152757553D01*
X134709504Y-152757549D01*
X134709507Y-152757548D01*
X134837548Y-152629507D01*
X134837549Y-152629504D01*
X134837553Y-152629501D01*
X134943996Y-152482994D01*
X135026211Y-152321639D01*
X135082171Y-152149409D01*
X135110500Y-151970546D01*
X135110500Y-151789454D01*
X135082171Y-151610591D01*
X135026211Y-151438361D01*
X134943996Y-151277006D01*
X134837553Y-151130499D01*
X134837551Y-151130497D01*
X134837548Y-151130493D01*
X134709507Y-151002452D01*
X134709502Y-151002448D01*
X134706821Y-151000500D01*
X134562994Y-150896004D01*
X134401639Y-150813789D01*
X134401638Y-150813788D01*
X134401637Y-150813788D01*
X134229409Y-150757829D01*
X134229406Y-150757828D01*
X134092007Y-150736066D01*
X134050546Y-150729500D01*
X133869454Y-150729500D01*
X133862989Y-150730524D01*
X133690593Y-150757828D01*
X133690590Y-150757829D01*
X133518362Y-150813788D01*
X133357006Y-150896004D01*
X133210497Y-151002448D01*
X133082448Y-151130497D01*
X132976004Y-151277006D01*
X132893788Y-151438362D01*
X132837829Y-151610590D01*
X132837828Y-151610593D01*
X132809500Y-151789454D01*
X132809500Y-151970545D01*
X132837828Y-152149406D01*
X132837829Y-152149409D01*
X132893789Y-152321639D01*
X132893792Y-152321647D01*
X132897264Y-152328461D01*
X132900205Y-152365848D01*
X132888252Y-152385353D01*
X132188459Y-153085148D01*
X132153811Y-153099500D01*
X131820389Y-153099500D01*
X131785741Y-153085148D01*
X124921532Y-146220939D01*
X129299500Y-146220939D01*
X129299500Y-146379060D01*
X129340422Y-146531782D01*
X129340423Y-146531786D01*
X129419475Y-146668709D01*
X129419482Y-146668718D01*
X129485148Y-146734384D01*
X129499500Y-146769032D01*
X129499500Y-147652730D01*
X129526792Y-147754587D01*
X129526793Y-147754589D01*
X129558541Y-147809577D01*
X129579520Y-147845913D01*
X130304087Y-148570480D01*
X130338757Y-148590497D01*
X130395410Y-148623206D01*
X130395412Y-148623207D01*
X130497269Y-148650499D01*
X130497270Y-148650500D01*
X130497273Y-148650500D01*
X130602727Y-148650500D01*
X130950500Y-148650500D01*
X130985148Y-148664852D01*
X130999500Y-148699500D01*
X130999500Y-149643730D01*
X131026792Y-149745587D01*
X131026793Y-149745589D01*
X131079520Y-149836913D01*
X131594148Y-150351540D01*
X131608500Y-150386188D01*
X131608500Y-150479060D01*
X131649422Y-150631782D01*
X131649423Y-150631786D01*
X131728475Y-150768709D01*
X131728478Y-150768713D01*
X131728480Y-150768716D01*
X131840284Y-150880520D01*
X131840287Y-150880521D01*
X131840290Y-150880524D01*
X131977213Y-150959576D01*
X131977215Y-150959576D01*
X131977216Y-150959577D01*
X132053966Y-150980142D01*
X132129939Y-151000499D01*
X132129940Y-151000500D01*
X132129943Y-151000500D01*
X132288060Y-151000500D01*
X132288060Y-151000499D01*
X132440784Y-150959577D01*
X132460551Y-150948165D01*
X132577709Y-150880524D01*
X132577708Y-150880524D01*
X132577716Y-150880520D01*
X132689520Y-150768716D01*
X132719730Y-150716391D01*
X132768576Y-150631786D01*
X132768576Y-150631785D01*
X132768577Y-150631784D01*
X132809499Y-150479060D01*
X132809500Y-150479060D01*
X132809500Y-150320940D01*
X132809499Y-150320939D01*
X132781795Y-150217548D01*
X132768577Y-150168216D01*
X132768576Y-150168215D01*
X132768576Y-150168213D01*
X132689524Y-150031290D01*
X132689521Y-150031287D01*
X132689520Y-150031284D01*
X132577716Y-149919480D01*
X132577713Y-149919478D01*
X132577709Y-149919475D01*
X132440786Y-149840423D01*
X132440782Y-149840422D01*
X132288060Y-149799500D01*
X132288057Y-149799500D01*
X132195188Y-149799500D01*
X132160540Y-149785148D01*
X131814852Y-149439459D01*
X131800500Y-149404811D01*
X131800500Y-148197270D01*
X131800499Y-148197269D01*
X131778962Y-148116893D01*
X131773207Y-148095413D01*
X131773206Y-148095412D01*
X131773206Y-148095410D01*
X131720479Y-148004086D01*
X131645913Y-147929520D01*
X131554589Y-147876793D01*
X131554585Y-147876792D01*
X131452730Y-147849500D01*
X131452727Y-147849500D01*
X130736189Y-147849500D01*
X130701541Y-147835148D01*
X130314852Y-147448459D01*
X130300500Y-147413811D01*
X130300500Y-146769032D01*
X130314852Y-146734384D01*
X130339782Y-146709454D01*
X130380520Y-146668716D01*
X130443531Y-146559577D01*
X130459576Y-146531786D01*
X130459576Y-146531785D01*
X130459577Y-146531784D01*
X130500499Y-146379060D01*
X130500500Y-146379060D01*
X130500500Y-146220940D01*
X130500499Y-146220939D01*
X130468333Y-146100893D01*
X130459577Y-146068216D01*
X130459576Y-146068215D01*
X130459576Y-146068213D01*
X130380524Y-145931290D01*
X130380521Y-145931287D01*
X130380520Y-145931284D01*
X130268716Y-145819480D01*
X130268713Y-145819478D01*
X130268709Y-145819475D01*
X130131786Y-145740423D01*
X130131782Y-145740422D01*
X129979060Y-145699500D01*
X129979057Y-145699500D01*
X129820943Y-145699500D01*
X129820940Y-145699500D01*
X129668217Y-145740422D01*
X129668213Y-145740423D01*
X129531290Y-145819475D01*
X129531281Y-145819482D01*
X129419482Y-145931281D01*
X129419475Y-145931290D01*
X129340423Y-146068213D01*
X129340422Y-146068217D01*
X129299500Y-146220939D01*
X124921532Y-146220939D01*
X122664852Y-143964259D01*
X122650500Y-143929611D01*
X122650500Y-143882085D01*
X122664852Y-143847437D01*
X122699500Y-143833085D01*
X122712183Y-143834755D01*
X122770941Y-143850500D01*
X122770943Y-143850500D01*
X122929060Y-143850500D01*
X122929060Y-143850499D01*
X123081784Y-143809577D01*
X123218716Y-143730520D01*
X123330520Y-143618716D01*
X123330520Y-143618715D01*
X123332791Y-143616445D01*
X123334086Y-143617740D01*
X123361495Y-143601902D01*
X123397723Y-143611594D01*
X123415239Y-143637798D01*
X123440422Y-143731782D01*
X123440423Y-143731786D01*
X123519475Y-143868709D01*
X123519478Y-143868713D01*
X123519480Y-143868716D01*
X123631284Y-143980520D01*
X123631287Y-143980521D01*
X123631290Y-143980524D01*
X123768213Y-144059576D01*
X123768215Y-144059576D01*
X123768216Y-144059577D01*
X123888665Y-144091851D01*
X123920939Y-144100499D01*
X123920940Y-144100500D01*
X123920943Y-144100500D01*
X124079060Y-144100500D01*
X124079060Y-144100499D01*
X124231784Y-144059577D01*
X124368716Y-143980520D01*
X124480520Y-143868716D01*
X124501754Y-143831938D01*
X124559576Y-143731786D01*
X124559576Y-143731785D01*
X124559577Y-143731784D01*
X124600499Y-143579060D01*
X124600500Y-143579060D01*
X124600500Y-143420940D01*
X124600499Y-143420939D01*
X124559578Y-143268220D01*
X124559577Y-143268216D01*
X124507065Y-143177261D01*
X124500500Y-143152761D01*
X124500500Y-141227609D01*
X124514851Y-141192962D01*
X125108374Y-140599438D01*
X125130335Y-140586759D01*
X125182283Y-140572840D01*
X125219464Y-140577735D01*
X125237399Y-140595670D01*
X125268545Y-140649616D01*
X125380349Y-140761420D01*
X125380352Y-140761421D01*
X125380355Y-140761424D01*
X125517278Y-140840476D01*
X125517280Y-140840476D01*
X125517281Y-140840477D01*
X125637730Y-140872751D01*
X125670004Y-140881399D01*
X125670005Y-140881400D01*
X125670008Y-140881400D01*
X125828125Y-140881400D01*
X125828125Y-140881399D01*
X125980849Y-140840477D01*
X126117781Y-140761420D01*
X126229585Y-140649616D01*
X126308642Y-140512684D01*
X126315765Y-140486099D01*
X126338593Y-140456349D01*
X126375775Y-140451452D01*
X126397742Y-140464135D01*
X132020148Y-146086541D01*
X132034500Y-146121189D01*
X132034500Y-147867730D01*
X132061792Y-147969587D01*
X132061793Y-147969589D01*
X132114520Y-148060913D01*
X132888253Y-148834646D01*
X132902605Y-148869294D01*
X132897265Y-148891538D01*
X132893792Y-148898353D01*
X132893789Y-148898361D01*
X132837829Y-149070590D01*
X132837828Y-149070593D01*
X132809500Y-149249454D01*
X132809500Y-149430545D01*
X132837828Y-149609406D01*
X132837829Y-149609409D01*
X132889836Y-149769475D01*
X132893789Y-149781639D01*
X132976004Y-149942994D01*
X133072746Y-150076148D01*
X133082448Y-150089502D01*
X133082452Y-150089507D01*
X133210493Y-150217548D01*
X133210497Y-150217551D01*
X133210499Y-150217553D01*
X133357006Y-150323996D01*
X133518361Y-150406211D01*
X133690591Y-150462171D01*
X133869454Y-150490500D01*
X133869455Y-150490500D01*
X134050545Y-150490500D01*
X134050546Y-150490500D01*
X134229409Y-150462171D01*
X134401639Y-150406211D01*
X134562994Y-150323996D01*
X134709501Y-150217553D01*
X134709504Y-150217549D01*
X134709507Y-150217548D01*
X134837548Y-150089507D01*
X134837549Y-150089504D01*
X134837553Y-150089501D01*
X134943996Y-149942994D01*
X135026211Y-149781639D01*
X135082171Y-149609409D01*
X135110500Y-149430546D01*
X135110500Y-149249454D01*
X135082171Y-149070591D01*
X135026211Y-148898361D01*
X134943996Y-148737006D01*
X134837553Y-148590499D01*
X134837551Y-148590497D01*
X134837548Y-148590493D01*
X134709507Y-148462452D01*
X134709502Y-148462448D01*
X134709501Y-148462447D01*
X134562994Y-148356004D01*
X134401639Y-148273789D01*
X134401638Y-148273788D01*
X134401637Y-148273788D01*
X134229409Y-148217829D01*
X134229406Y-148217828D01*
X134092007Y-148196066D01*
X134050546Y-148189500D01*
X133869454Y-148189500D01*
X133835794Y-148194831D01*
X133690593Y-148217828D01*
X133690590Y-148217829D01*
X133518361Y-148273789D01*
X133518353Y-148273792D01*
X133511538Y-148277265D01*
X133474151Y-148280206D01*
X133454646Y-148268253D01*
X132849852Y-147663459D01*
X132835500Y-147628811D01*
X132835500Y-147331338D01*
X132849852Y-147296690D01*
X132884500Y-147282338D01*
X132919148Y-147296690D01*
X132928158Y-147309091D01*
X132976004Y-147402994D01*
X133080828Y-147547273D01*
X133082448Y-147549502D01*
X133082452Y-147549507D01*
X133210493Y-147677548D01*
X133210497Y-147677551D01*
X133210499Y-147677553D01*
X133357006Y-147783996D01*
X133518361Y-147866211D01*
X133690591Y-147922171D01*
X133869454Y-147950500D01*
X133869455Y-147950500D01*
X134050545Y-147950500D01*
X134050546Y-147950500D01*
X134229409Y-147922171D01*
X134401639Y-147866211D01*
X134562994Y-147783996D01*
X134709501Y-147677553D01*
X134709504Y-147677549D01*
X134709507Y-147677548D01*
X134837548Y-147549507D01*
X134837549Y-147549504D01*
X134837553Y-147549501D01*
X134943996Y-147402994D01*
X135026211Y-147241639D01*
X135082171Y-147069409D01*
X135110500Y-146890546D01*
X135110500Y-146709454D01*
X135082171Y-146530591D01*
X135026211Y-146358361D01*
X134943996Y-146197006D01*
X134837553Y-146050499D01*
X134837551Y-146050497D01*
X134837548Y-146050493D01*
X134709507Y-145922452D01*
X134709502Y-145922448D01*
X134699815Y-145915410D01*
X134562994Y-145816004D01*
X134401639Y-145733789D01*
X134401638Y-145733788D01*
X134401637Y-145733788D01*
X134229409Y-145677829D01*
X134229406Y-145677828D01*
X134092007Y-145656066D01*
X134050546Y-145649500D01*
X133869454Y-145649500D01*
X133835794Y-145654831D01*
X133690593Y-145677828D01*
X133690590Y-145677829D01*
X133518361Y-145733789D01*
X133518353Y-145733792D01*
X133511538Y-145737265D01*
X133474151Y-145740206D01*
X133454646Y-145728253D01*
X132470541Y-144744148D01*
X132456189Y-144709500D01*
X132470541Y-144674852D01*
X132505189Y-144660500D01*
X132844821Y-144660500D01*
X132879469Y-144674852D01*
X132891422Y-144694357D01*
X132893786Y-144701633D01*
X132893788Y-144701637D01*
X132893789Y-144701639D01*
X132976004Y-144862994D01*
X133082447Y-145009501D01*
X133082448Y-145009502D01*
X133082452Y-145009507D01*
X133210493Y-145137548D01*
X133210497Y-145137551D01*
X133210499Y-145137553D01*
X133357006Y-145243996D01*
X133518361Y-145326211D01*
X133690591Y-145382171D01*
X133869454Y-145410500D01*
X133869455Y-145410500D01*
X134050545Y-145410500D01*
X134050546Y-145410500D01*
X134229409Y-145382171D01*
X134401639Y-145326211D01*
X134562994Y-145243996D01*
X134709501Y-145137553D01*
X134709504Y-145137549D01*
X134709507Y-145137548D01*
X134837548Y-145009507D01*
X134837549Y-145009504D01*
X134837553Y-145009501D01*
X134943996Y-144862994D01*
X135026211Y-144701639D01*
X135082171Y-144529409D01*
X135110500Y-144350546D01*
X135110500Y-144169454D01*
X135082171Y-143990591D01*
X135026211Y-143818361D01*
X134943996Y-143657006D01*
X134837553Y-143510499D01*
X134837551Y-143510497D01*
X134837548Y-143510493D01*
X134709507Y-143382452D01*
X134709502Y-143382448D01*
X134709501Y-143382447D01*
X134562994Y-143276004D01*
X134401639Y-143193789D01*
X134401638Y-143193788D01*
X134401637Y-143193788D01*
X134229409Y-143137829D01*
X134229406Y-143137828D01*
X134092007Y-143116066D01*
X134050546Y-143109500D01*
X134050545Y-143109500D01*
X133979711Y-143109500D01*
X133945063Y-143095148D01*
X133930711Y-143060500D01*
X133937274Y-143036002D01*
X133968577Y-142981784D01*
X133988664Y-142906818D01*
X134011494Y-142877065D01*
X134035994Y-142870500D01*
X134050545Y-142870500D01*
X134050546Y-142870500D01*
X134229409Y-142842171D01*
X134401639Y-142786211D01*
X134562994Y-142703996D01*
X134709501Y-142597553D01*
X134709504Y-142597549D01*
X134709507Y-142597548D01*
X134837548Y-142469507D01*
X134837549Y-142469504D01*
X134837553Y-142469501D01*
X134943996Y-142322994D01*
X135026211Y-142161639D01*
X135082171Y-141989409D01*
X135110500Y-141810546D01*
X135110500Y-141629454D01*
X135082171Y-141450591D01*
X135026211Y-141278361D01*
X134943996Y-141117006D01*
X134837553Y-140970499D01*
X134837551Y-140970497D01*
X134837548Y-140970493D01*
X134709507Y-140842452D01*
X134709502Y-140842448D01*
X134709501Y-140842447D01*
X134562994Y-140736004D01*
X134401639Y-140653789D01*
X134401638Y-140653788D01*
X134401637Y-140653788D01*
X134229409Y-140597829D01*
X134229406Y-140597828D01*
X134071634Y-140572840D01*
X134050546Y-140569500D01*
X133869454Y-140569500D01*
X133848366Y-140572840D01*
X133690593Y-140597828D01*
X133690590Y-140597829D01*
X133518361Y-140653789D01*
X133518353Y-140653792D01*
X133511538Y-140657265D01*
X133474151Y-140660206D01*
X133454646Y-140648253D01*
X132470541Y-139664148D01*
X132456189Y-139629500D01*
X132470541Y-139594852D01*
X132505189Y-139580500D01*
X132844821Y-139580500D01*
X132879469Y-139594852D01*
X132891422Y-139614357D01*
X132893786Y-139621633D01*
X132893788Y-139621637D01*
X132893789Y-139621639D01*
X132976004Y-139782994D01*
X133082447Y-139929501D01*
X133082448Y-139929502D01*
X133082452Y-139929507D01*
X133210493Y-140057548D01*
X133210497Y-140057551D01*
X133210499Y-140057553D01*
X133357006Y-140163996D01*
X133518361Y-140246211D01*
X133690591Y-140302171D01*
X133869454Y-140330500D01*
X133869455Y-140330500D01*
X134050545Y-140330500D01*
X134050546Y-140330500D01*
X134229409Y-140302171D01*
X134401639Y-140246211D01*
X134562994Y-140163996D01*
X134709501Y-140057553D01*
X134709504Y-140057549D01*
X134709507Y-140057548D01*
X134837548Y-139929507D01*
X134837549Y-139929504D01*
X134837553Y-139929501D01*
X134943996Y-139782994D01*
X135026211Y-139621639D01*
X135082171Y-139449409D01*
X135110500Y-139270546D01*
X135110500Y-139089454D01*
X135082171Y-138910591D01*
X135026211Y-138738361D01*
X134943996Y-138577006D01*
X134837553Y-138430499D01*
X134837551Y-138430497D01*
X134837548Y-138430493D01*
X134709507Y-138302452D01*
X134709502Y-138302448D01*
X134709501Y-138302447D01*
X134562994Y-138196004D01*
X134401639Y-138113789D01*
X134401638Y-138113788D01*
X134401637Y-138113788D01*
X134229409Y-138057829D01*
X134229406Y-138057828D01*
X134092007Y-138036066D01*
X134050546Y-138029500D01*
X133869454Y-138029500D01*
X133835794Y-138034831D01*
X133690593Y-138057828D01*
X133690590Y-138057829D01*
X133518362Y-138113788D01*
X133357006Y-138196004D01*
X133210497Y-138302448D01*
X133082448Y-138430497D01*
X132976004Y-138577006D01*
X132893786Y-138738366D01*
X132891422Y-138745643D01*
X132867065Y-138774160D01*
X132844821Y-138779500D01*
X132366189Y-138779500D01*
X132331541Y-138765148D01*
X132013852Y-138447459D01*
X131999500Y-138412811D01*
X131999500Y-135364188D01*
X132013852Y-135329540D01*
X132048500Y-135315188D01*
X132083148Y-135329540D01*
X132888253Y-136134645D01*
X132902605Y-136169293D01*
X132897267Y-136191533D01*
X132893789Y-136198360D01*
X132837829Y-136370590D01*
X132837828Y-136370593D01*
X132809500Y-136549454D01*
X132809500Y-136730545D01*
X132837828Y-136909406D01*
X132837829Y-136909409D01*
X132863188Y-136987459D01*
X132893789Y-137081639D01*
X132976004Y-137242994D01*
X133079111Y-137384909D01*
X133082448Y-137389502D01*
X133082452Y-137389507D01*
X133210493Y-137517548D01*
X133210497Y-137517551D01*
X133210499Y-137517553D01*
X133357006Y-137623996D01*
X133518361Y-137706211D01*
X133690591Y-137762171D01*
X133869454Y-137790500D01*
X133869455Y-137790500D01*
X134050545Y-137790500D01*
X134050546Y-137790500D01*
X134229409Y-137762171D01*
X134401639Y-137706211D01*
X134562994Y-137623996D01*
X134709501Y-137517553D01*
X134709504Y-137517549D01*
X134709507Y-137517548D01*
X134837548Y-137389507D01*
X134837549Y-137389504D01*
X134837553Y-137389501D01*
X134943996Y-137242994D01*
X135026211Y-137081639D01*
X135082171Y-136909409D01*
X135110500Y-136730546D01*
X135110500Y-136549454D01*
X135082171Y-136370591D01*
X135026211Y-136198361D01*
X134943996Y-136037006D01*
X134837553Y-135890499D01*
X134837551Y-135890497D01*
X134837548Y-135890493D01*
X134709507Y-135762452D01*
X134709502Y-135762448D01*
X134709501Y-135762447D01*
X134562994Y-135656004D01*
X134401639Y-135573789D01*
X134401638Y-135573788D01*
X134401637Y-135573788D01*
X134229409Y-135517829D01*
X134229406Y-135517828D01*
X134092007Y-135496066D01*
X134050546Y-135489500D01*
X133869454Y-135489500D01*
X133835794Y-135494831D01*
X133690593Y-135517828D01*
X133690590Y-135517829D01*
X133518360Y-135573789D01*
X133511533Y-135577267D01*
X133474145Y-135580205D01*
X133454645Y-135568253D01*
X132414852Y-134528459D01*
X132400500Y-134493811D01*
X132400500Y-134085188D01*
X132414852Y-134050540D01*
X132449500Y-134036188D01*
X132484148Y-134050540D01*
X132779518Y-134345910D01*
X132779520Y-134345913D01*
X132803013Y-134369406D01*
X132812110Y-134378503D01*
X132846264Y-134412657D01*
X132858218Y-134432163D01*
X132891423Y-134534357D01*
X132893789Y-134541639D01*
X132976004Y-134702994D01*
X133067594Y-134829057D01*
X133082448Y-134849502D01*
X133082452Y-134849507D01*
X133210493Y-134977548D01*
X133210497Y-134977551D01*
X133210499Y-134977553D01*
X133357006Y-135083996D01*
X133518361Y-135166211D01*
X133690591Y-135222171D01*
X133869454Y-135250500D01*
X133869455Y-135250500D01*
X134050545Y-135250500D01*
X134050546Y-135250500D01*
X134229409Y-135222171D01*
X134401639Y-135166211D01*
X134562994Y-135083996D01*
X134709501Y-134977553D01*
X134709504Y-134977549D01*
X134709507Y-134977548D01*
X134837548Y-134849507D01*
X134837549Y-134849504D01*
X134837553Y-134849501D01*
X134943996Y-134702994D01*
X135026211Y-134541639D01*
X135082171Y-134369409D01*
X135110500Y-134190546D01*
X135110500Y-134009454D01*
X135082171Y-133830591D01*
X135026211Y-133658361D01*
X134943996Y-133497006D01*
X134837553Y-133350499D01*
X134837551Y-133350497D01*
X134837548Y-133350493D01*
X134709507Y-133222452D01*
X134709502Y-133222448D01*
X134709501Y-133222447D01*
X134562994Y-133116004D01*
X134401639Y-133033789D01*
X134401638Y-133033788D01*
X134401637Y-133033788D01*
X134229409Y-132977829D01*
X134229406Y-132977828D01*
X134092007Y-132956066D01*
X134050546Y-132949500D01*
X133869454Y-132949500D01*
X133835794Y-132954831D01*
X133690593Y-132977828D01*
X133690590Y-132977829D01*
X133518362Y-133033788D01*
X133357006Y-133116004D01*
X133210497Y-133222448D01*
X133210493Y-133222452D01*
X133082452Y-133350492D01*
X133082447Y-133350499D01*
X133048329Y-133397459D01*
X133046502Y-133399973D01*
X133014525Y-133419568D01*
X132978058Y-133410813D01*
X132972212Y-133405819D01*
X132822852Y-133256459D01*
X132808500Y-133221811D01*
X132808500Y-132038348D01*
X132822852Y-132003700D01*
X132857500Y-131989348D01*
X132892148Y-132003700D01*
X132901156Y-132016098D01*
X132976004Y-132162994D01*
X133053372Y-132269482D01*
X133082448Y-132309502D01*
X133082452Y-132309507D01*
X133210493Y-132437548D01*
X133210497Y-132437551D01*
X133210499Y-132437553D01*
X133357006Y-132543996D01*
X133518361Y-132626211D01*
X133690591Y-132682171D01*
X133869454Y-132710500D01*
X133869455Y-132710500D01*
X134050545Y-132710500D01*
X134050546Y-132710500D01*
X134229409Y-132682171D01*
X134401639Y-132626211D01*
X134562994Y-132543996D01*
X134709501Y-132437553D01*
X134709504Y-132437549D01*
X134709507Y-132437548D01*
X134837548Y-132309507D01*
X134837549Y-132309504D01*
X134837553Y-132309501D01*
X134943996Y-132162994D01*
X135026211Y-132001639D01*
X135082171Y-131829409D01*
X135110500Y-131650546D01*
X135110500Y-131469454D01*
X135082171Y-131290591D01*
X135026211Y-131118361D01*
X134943996Y-130957006D01*
X134837553Y-130810499D01*
X134837551Y-130810497D01*
X134837548Y-130810493D01*
X134709507Y-130682452D01*
X134709502Y-130682448D01*
X134685282Y-130664851D01*
X134562994Y-130576004D01*
X134401639Y-130493789D01*
X134401638Y-130493788D01*
X134401637Y-130493788D01*
X134229409Y-130437829D01*
X134229406Y-130437828D01*
X134092007Y-130416066D01*
X134050546Y-130409500D01*
X133869454Y-130409500D01*
X133835794Y-130414831D01*
X133690593Y-130437828D01*
X133690590Y-130437829D01*
X133518361Y-130493789D01*
X133518353Y-130493792D01*
X133511538Y-130497265D01*
X133474151Y-130500206D01*
X133454646Y-130488253D01*
X133223852Y-130257459D01*
X133209500Y-130222811D01*
X133209500Y-130219499D01*
X133223852Y-130184851D01*
X133258500Y-130170499D01*
X134854858Y-130170499D01*
X134854864Y-130170499D01*
X134879991Y-130167585D01*
X134982765Y-130122206D01*
X135062206Y-130042765D01*
X135107585Y-129939991D01*
X135110500Y-129914865D01*
X135110499Y-128125136D01*
X135107585Y-128100009D01*
X135062206Y-127997235D01*
X135062205Y-127997234D01*
X135062205Y-127997233D01*
X134982766Y-127917794D01*
X134982767Y-127917794D01*
X134879993Y-127872415D01*
X134854865Y-127869500D01*
X133659500Y-127869500D01*
X133624852Y-127855148D01*
X133610500Y-127820500D01*
X133610500Y-117657270D01*
X133596886Y-117606467D01*
X133584034Y-117558500D01*
X133583207Y-117555412D01*
X133541437Y-117483066D01*
X133541152Y-117482541D01*
X133539238Y-117464489D01*
X133536862Y-117446440D01*
X133537269Y-117445909D01*
X133537199Y-117445247D01*
X133548605Y-117431134D01*
X133559692Y-117416687D01*
X133560354Y-117416599D01*
X133560774Y-117416081D01*
X133578825Y-117414167D01*
X133596875Y-117411791D01*
X133598026Y-117412132D01*
X133598068Y-117412128D01*
X133598100Y-117412154D01*
X133599313Y-117412513D01*
X133690591Y-117442171D01*
X133869454Y-117470500D01*
X133869455Y-117470500D01*
X134050545Y-117470500D01*
X134050546Y-117470500D01*
X134229409Y-117442171D01*
X134401639Y-117386211D01*
X134562994Y-117303996D01*
X134632700Y-117253351D01*
X134669165Y-117244597D01*
X134701142Y-117264192D01*
G37*
%TD.AperFunction*%
%TA.AperFunction,Conductor*%
G36*
X117485148Y-132764852D02*
G01*
X117499500Y-132799500D01*
X117499500Y-135152761D01*
X117492935Y-135177261D01*
X117440424Y-135268214D01*
X117440421Y-135268220D01*
X117399500Y-135420939D01*
X117399500Y-135579060D01*
X117440422Y-135731782D01*
X117440423Y-135731786D01*
X117519475Y-135868709D01*
X117519478Y-135868713D01*
X117519480Y-135868716D01*
X117631284Y-135980520D01*
X117631287Y-135980521D01*
X117631290Y-135980524D01*
X117768213Y-136059576D01*
X117768215Y-136059576D01*
X117768216Y-136059577D01*
X117878424Y-136089107D01*
X117920939Y-136100499D01*
X117920940Y-136100500D01*
X117920943Y-136100500D01*
X118079060Y-136100500D01*
X118079060Y-136100499D01*
X118231784Y-136059577D01*
X118270879Y-136037006D01*
X118368709Y-135980524D01*
X118368708Y-135980524D01*
X118368716Y-135980520D01*
X118480520Y-135868716D01*
X118559577Y-135731784D01*
X118600499Y-135579060D01*
X118600500Y-135579060D01*
X118600500Y-135420940D01*
X118600499Y-135420939D01*
X118578443Y-135338625D01*
X118559577Y-135268216D01*
X118507065Y-135177261D01*
X118500500Y-135152761D01*
X118500500Y-134120632D01*
X118514852Y-134085984D01*
X118549500Y-134071632D01*
X118584148Y-134085984D01*
X118655087Y-134156923D01*
X118655088Y-134156924D01*
X119830148Y-135331987D01*
X119844500Y-135366634D01*
X119844500Y-136068811D01*
X119830148Y-136103459D01*
X113429521Y-142504086D01*
X113429520Y-142504086D01*
X113376793Y-142595410D01*
X113376792Y-142595412D01*
X113356757Y-142670187D01*
X113349500Y-142697269D01*
X113349500Y-146613811D01*
X113335148Y-146648459D01*
X111479521Y-148504086D01*
X111479520Y-148504086D01*
X111426793Y-148595410D01*
X111426792Y-148595412D01*
X111412032Y-148650500D01*
X111399500Y-148697269D01*
X111399500Y-149879611D01*
X111385148Y-149914259D01*
X109206861Y-152092545D01*
X109172213Y-152106897D01*
X109137565Y-152092545D01*
X109123213Y-152057897D01*
X109129778Y-152033397D01*
X109138543Y-152018217D01*
X109159577Y-151981784D01*
X109200499Y-151829060D01*
X109200500Y-151829060D01*
X109200500Y-151670940D01*
X109200499Y-151670939D01*
X109159577Y-151518217D01*
X109159576Y-151518213D01*
X109080524Y-151381290D01*
X109080521Y-151381287D01*
X109080520Y-151381284D01*
X108968716Y-151269480D01*
X108968713Y-151269478D01*
X108968709Y-151269475D01*
X108831786Y-151190423D01*
X108831782Y-151190422D01*
X108679060Y-151149500D01*
X108679057Y-151149500D01*
X108586189Y-151149500D01*
X108551541Y-151135148D01*
X107586913Y-150170520D01*
X107495589Y-150117793D01*
X107495587Y-150117792D01*
X107393730Y-150090500D01*
X107393727Y-150090500D01*
X107012994Y-150090500D01*
X106978346Y-150076148D01*
X106963994Y-150041500D01*
X106973350Y-150012701D01*
X107023996Y-149942994D01*
X107106211Y-149781639D01*
X107162171Y-149609409D01*
X107190500Y-149430546D01*
X107190500Y-149249454D01*
X107162171Y-149070591D01*
X107106211Y-148898361D01*
X107076220Y-148839502D01*
X107073278Y-148802115D01*
X107085230Y-148782611D01*
X108096205Y-147771638D01*
X108148932Y-147680313D01*
X108176224Y-147578455D01*
X108176225Y-147578455D01*
X108176225Y-145910464D01*
X108190577Y-145875816D01*
X112255848Y-141810545D01*
X116681480Y-137384913D01*
X116734206Y-137293588D01*
X116734207Y-137293587D01*
X116747764Y-137242993D01*
X116761499Y-137191730D01*
X116761500Y-137191730D01*
X116761500Y-132882085D01*
X116775852Y-132847437D01*
X116810500Y-132833085D01*
X116823183Y-132834755D01*
X116881941Y-132850500D01*
X116881943Y-132850500D01*
X117040060Y-132850500D01*
X117040060Y-132850499D01*
X117192784Y-132809577D01*
X117283738Y-132757064D01*
X117308238Y-132750500D01*
X117450500Y-132750500D01*
X117485148Y-132764852D01*
G37*
%TD.AperFunction*%
%TA.AperFunction,Conductor*%
G36*
X104634148Y-125450541D02*
G01*
X105385148Y-126201541D01*
X105399500Y-126236189D01*
X105399500Y-126329060D01*
X105440422Y-126481782D01*
X105440423Y-126481786D01*
X105519475Y-126618709D01*
X105519478Y-126618713D01*
X105519480Y-126618716D01*
X105631284Y-126730520D01*
X105631287Y-126730521D01*
X105631290Y-126730524D01*
X105768213Y-126809576D01*
X105768215Y-126809576D01*
X105768216Y-126809577D01*
X105831314Y-126826484D01*
X105920939Y-126850499D01*
X105920940Y-126850500D01*
X105920943Y-126850500D01*
X106079060Y-126850500D01*
X106079060Y-126850499D01*
X106231784Y-126809577D01*
X106276000Y-126784048D01*
X106313182Y-126779154D01*
X106342935Y-126801984D01*
X106349500Y-126826484D01*
X106349500Y-127820500D01*
X106335148Y-127855148D01*
X106300500Y-127869500D01*
X105145141Y-127869500D01*
X105145131Y-127869501D01*
X105120007Y-127872415D01*
X105017233Y-127917794D01*
X104937794Y-127997233D01*
X104892415Y-128100006D01*
X104889500Y-128125134D01*
X104889500Y-129914858D01*
X104889501Y-129914868D01*
X104892415Y-129939992D01*
X104937794Y-130042766D01*
X105017233Y-130122205D01*
X105120006Y-130167584D01*
X105120009Y-130167585D01*
X105145135Y-130170500D01*
X106744811Y-130170499D01*
X106779459Y-130184851D01*
X106793811Y-130219499D01*
X106779459Y-130254147D01*
X106545353Y-130488252D01*
X106510705Y-130502604D01*
X106488461Y-130497264D01*
X106481647Y-130493792D01*
X106481639Y-130493789D01*
X106309409Y-130437829D01*
X106309406Y-130437828D01*
X106172007Y-130416066D01*
X106130546Y-130409500D01*
X105949454Y-130409500D01*
X105915794Y-130414831D01*
X105770593Y-130437828D01*
X105770590Y-130437829D01*
X105598362Y-130493788D01*
X105437006Y-130576004D01*
X105290497Y-130682448D01*
X105162448Y-130810497D01*
X105056004Y-130957006D01*
X104973788Y-131118362D01*
X104917829Y-131290590D01*
X104917828Y-131290593D01*
X104894098Y-131440422D01*
X104889500Y-131469454D01*
X104889500Y-131650546D01*
X104891053Y-131660349D01*
X104917828Y-131829406D01*
X104917829Y-131829409D01*
X104973789Y-132001639D01*
X105056004Y-132162994D01*
X105133372Y-132269482D01*
X105162448Y-132309502D01*
X105162452Y-132309507D01*
X105290493Y-132437548D01*
X105290497Y-132437551D01*
X105290499Y-132437553D01*
X105437006Y-132543996D01*
X105598361Y-132626211D01*
X105770591Y-132682171D01*
X105949454Y-132710500D01*
X105949455Y-132710500D01*
X106130545Y-132710500D01*
X106130546Y-132710500D01*
X106309409Y-132682171D01*
X106481639Y-132626211D01*
X106642994Y-132543996D01*
X106789501Y-132437553D01*
X106789504Y-132437549D01*
X106789507Y-132437548D01*
X106917548Y-132309507D01*
X106917549Y-132309504D01*
X106917553Y-132309501D01*
X107023996Y-132162994D01*
X107106211Y-132001639D01*
X107154898Y-131851792D01*
X107179254Y-131823276D01*
X107216642Y-131820333D01*
X107245159Y-131844689D01*
X107250500Y-131866935D01*
X107250500Y-133412810D01*
X107236148Y-133447458D01*
X107126570Y-133557036D01*
X107091922Y-133571388D01*
X107057274Y-133557036D01*
X107048265Y-133544637D01*
X107023996Y-133497006D01*
X106917553Y-133350499D01*
X106917549Y-133350495D01*
X106917547Y-133350492D01*
X106789507Y-133222452D01*
X106789502Y-133222448D01*
X106789501Y-133222447D01*
X106642994Y-133116004D01*
X106481639Y-133033789D01*
X106481638Y-133033788D01*
X106481637Y-133033788D01*
X106309409Y-132977829D01*
X106309406Y-132977828D01*
X106172007Y-132956066D01*
X106130546Y-132949500D01*
X105949454Y-132949500D01*
X105915794Y-132954831D01*
X105770593Y-132977828D01*
X105770590Y-132977829D01*
X105598362Y-133033788D01*
X105437006Y-133116004D01*
X105290497Y-133222448D01*
X105162448Y-133350497D01*
X105056004Y-133497006D01*
X104973788Y-133658362D01*
X104917829Y-133830590D01*
X104917828Y-133830593D01*
X104889500Y-134009454D01*
X104889500Y-134190545D01*
X104917828Y-134369406D01*
X104917829Y-134369409D01*
X104969506Y-134528459D01*
X104973789Y-134541639D01*
X105056004Y-134702994D01*
X105147594Y-134829057D01*
X105162448Y-134849502D01*
X105162452Y-134849507D01*
X105290493Y-134977548D01*
X105290497Y-134977551D01*
X105290499Y-134977553D01*
X105437006Y-135083996D01*
X105598361Y-135166211D01*
X105770591Y-135222171D01*
X105949454Y-135250500D01*
X105949455Y-135250500D01*
X106130545Y-135250500D01*
X106130546Y-135250500D01*
X106309409Y-135222171D01*
X106481639Y-135166211D01*
X106642994Y-135083996D01*
X106789501Y-134977553D01*
X106789504Y-134977549D01*
X106789507Y-134977548D01*
X106917548Y-134849507D01*
X106917549Y-134849504D01*
X106917553Y-134849501D01*
X107023996Y-134702994D01*
X107106211Y-134541639D01*
X107106213Y-134541633D01*
X107108578Y-134534357D01*
X107132935Y-134505840D01*
X107155179Y-134500500D01*
X107202730Y-134500500D01*
X107202730Y-134500499D01*
X107304588Y-134473207D01*
X107395913Y-134420480D01*
X107567852Y-134248541D01*
X107602500Y-134234189D01*
X107637148Y-134248541D01*
X107651500Y-134283189D01*
X107651500Y-134441810D01*
X107637148Y-134476458D01*
X106545353Y-135568252D01*
X106510705Y-135582604D01*
X106488461Y-135577264D01*
X106481647Y-135573792D01*
X106481639Y-135573789D01*
X106309409Y-135517829D01*
X106309406Y-135517828D01*
X106172007Y-135496066D01*
X106130546Y-135489500D01*
X105949454Y-135489500D01*
X105915794Y-135494831D01*
X105770593Y-135517828D01*
X105770590Y-135517829D01*
X105598362Y-135573788D01*
X105437006Y-135656004D01*
X105290497Y-135762448D01*
X105162448Y-135890497D01*
X105056004Y-136037006D01*
X104973788Y-136198362D01*
X104917829Y-136370590D01*
X104917828Y-136370593D01*
X104889500Y-136549454D01*
X104889500Y-136730545D01*
X104917828Y-136909406D01*
X104917829Y-136909409D01*
X104943188Y-136987459D01*
X104973789Y-137081639D01*
X105056004Y-137242994D01*
X105159111Y-137384909D01*
X105162448Y-137389502D01*
X105162452Y-137389507D01*
X105290493Y-137517548D01*
X105290497Y-137517551D01*
X105290499Y-137517553D01*
X105437006Y-137623996D01*
X105598361Y-137706211D01*
X105770591Y-137762171D01*
X105949454Y-137790500D01*
X105949455Y-137790500D01*
X106130545Y-137790500D01*
X106130546Y-137790500D01*
X106309409Y-137762171D01*
X106481639Y-137706211D01*
X106642994Y-137623996D01*
X106789501Y-137517553D01*
X106789504Y-137517549D01*
X106789507Y-137517548D01*
X106917548Y-137389507D01*
X106917549Y-137389504D01*
X106917553Y-137389501D01*
X107023996Y-137242994D01*
X107106211Y-137081639D01*
X107162171Y-136909409D01*
X107190500Y-136730546D01*
X107190500Y-136549454D01*
X107162171Y-136370591D01*
X107106211Y-136198361D01*
X107102733Y-136191536D01*
X107099793Y-136154150D01*
X107111744Y-136134647D01*
X107968852Y-135277540D01*
X108003500Y-135263188D01*
X108038148Y-135277540D01*
X108052500Y-135312188D01*
X108052500Y-138553711D01*
X108038148Y-138588359D01*
X107861359Y-138765148D01*
X107826711Y-138779500D01*
X107155179Y-138779500D01*
X107120531Y-138765148D01*
X107108578Y-138745643D01*
X107106213Y-138738366D01*
X107106211Y-138738362D01*
X107106211Y-138738361D01*
X107023996Y-138577006D01*
X106917553Y-138430499D01*
X106917551Y-138430497D01*
X106917548Y-138430493D01*
X106789507Y-138302452D01*
X106789502Y-138302448D01*
X106789501Y-138302447D01*
X106642994Y-138196004D01*
X106481639Y-138113789D01*
X106481638Y-138113788D01*
X106481637Y-138113788D01*
X106309409Y-138057829D01*
X106309406Y-138057828D01*
X106172007Y-138036066D01*
X106130546Y-138029500D01*
X105949454Y-138029500D01*
X105915794Y-138034831D01*
X105770593Y-138057828D01*
X105770590Y-138057829D01*
X105598362Y-138113788D01*
X105437006Y-138196004D01*
X105290497Y-138302448D01*
X105162448Y-138430497D01*
X105056004Y-138577006D01*
X104973788Y-138738362D01*
X104917829Y-138910590D01*
X104917828Y-138910593D01*
X104889500Y-139089454D01*
X104889500Y-139270545D01*
X104917828Y-139449406D01*
X104917829Y-139449409D01*
X104965085Y-139594852D01*
X104973789Y-139621639D01*
X105056004Y-139782994D01*
X105162447Y-139929501D01*
X105162448Y-139929502D01*
X105162452Y-139929507D01*
X105290493Y-140057548D01*
X105290497Y-140057551D01*
X105290499Y-140057553D01*
X105437006Y-140163996D01*
X105598361Y-140246211D01*
X105770591Y-140302171D01*
X105949454Y-140330500D01*
X105949455Y-140330500D01*
X106130545Y-140330500D01*
X106130546Y-140330500D01*
X106309409Y-140302171D01*
X106481639Y-140246211D01*
X106642994Y-140163996D01*
X106789501Y-140057553D01*
X106789504Y-140057549D01*
X106789507Y-140057548D01*
X106917548Y-139929507D01*
X106917549Y-139929504D01*
X106917553Y-139929501D01*
X107023996Y-139782994D01*
X107106211Y-139621639D01*
X107106213Y-139621633D01*
X107108578Y-139614357D01*
X107132935Y-139585840D01*
X107155179Y-139580500D01*
X107494811Y-139580500D01*
X107529459Y-139594852D01*
X107543811Y-139629500D01*
X107529459Y-139664148D01*
X106545353Y-140648252D01*
X106510705Y-140662604D01*
X106488461Y-140657264D01*
X106481647Y-140653792D01*
X106481639Y-140653789D01*
X106309409Y-140597829D01*
X106309406Y-140597828D01*
X106151634Y-140572840D01*
X106130546Y-140569500D01*
X105949454Y-140569500D01*
X105928366Y-140572840D01*
X105770593Y-140597828D01*
X105770590Y-140597829D01*
X105598362Y-140653788D01*
X105437006Y-140736004D01*
X105290497Y-140842448D01*
X105162448Y-140970497D01*
X105056004Y-141117006D01*
X104973788Y-141278362D01*
X104917829Y-141450590D01*
X104917828Y-141450593D01*
X104889500Y-141629454D01*
X104889500Y-141810545D01*
X104917828Y-141989406D01*
X104917829Y-141989409D01*
X104973789Y-142161639D01*
X105056004Y-142322994D01*
X105162447Y-142469501D01*
X105162448Y-142469502D01*
X105162452Y-142469507D01*
X105290493Y-142597548D01*
X105290497Y-142597551D01*
X105290499Y-142597553D01*
X105437006Y-142703996D01*
X105598361Y-142786211D01*
X105770591Y-142842171D01*
X105949454Y-142870500D01*
X105949455Y-142870500D01*
X106130545Y-142870500D01*
X106130546Y-142870500D01*
X106309409Y-142842171D01*
X106481639Y-142786211D01*
X106642994Y-142703996D01*
X106789501Y-142597553D01*
X106789504Y-142597549D01*
X106789507Y-142597548D01*
X106917548Y-142469507D01*
X106917549Y-142469504D01*
X106917553Y-142469501D01*
X107023996Y-142322994D01*
X107106211Y-142161639D01*
X107162171Y-141989409D01*
X107190500Y-141810546D01*
X107190500Y-141629454D01*
X107162171Y-141450591D01*
X107106211Y-141278361D01*
X107102733Y-141271536D01*
X107099793Y-141234150D01*
X107111744Y-141214647D01*
X109174480Y-139151913D01*
X109227207Y-139060588D01*
X109254499Y-138958730D01*
X109254500Y-138958730D01*
X109254500Y-130369850D01*
X109268852Y-130335202D01*
X109303500Y-130320850D01*
X109338148Y-130335202D01*
X109380499Y-130377553D01*
X109527006Y-130483996D01*
X109688361Y-130566211D01*
X109860591Y-130622171D01*
X110039454Y-130650500D01*
X110039455Y-130650500D01*
X110220545Y-130650500D01*
X110220546Y-130650500D01*
X110399409Y-130622171D01*
X110571639Y-130566211D01*
X110732994Y-130483996D01*
X110879501Y-130377553D01*
X110879504Y-130377549D01*
X110879507Y-130377548D01*
X111007548Y-130249507D01*
X111007549Y-130249504D01*
X111007553Y-130249501D01*
X111029858Y-130218799D01*
X111061834Y-130199204D01*
X111098301Y-130207959D01*
X111117897Y-130239935D01*
X111118500Y-130247601D01*
X111118500Y-140544811D01*
X111104148Y-140579459D01*
X107838459Y-143845148D01*
X107803811Y-143859500D01*
X107155179Y-143859500D01*
X107120531Y-143845148D01*
X107108578Y-143825643D01*
X107106213Y-143818366D01*
X107106211Y-143818362D01*
X107106211Y-143818361D01*
X107023996Y-143657006D01*
X106917553Y-143510499D01*
X106917551Y-143510497D01*
X106917548Y-143510493D01*
X106789507Y-143382452D01*
X106789502Y-143382448D01*
X106789501Y-143382447D01*
X106642994Y-143276004D01*
X106481639Y-143193789D01*
X106481638Y-143193788D01*
X106481637Y-143193788D01*
X106309409Y-143137829D01*
X106309406Y-143137828D01*
X106172007Y-143116066D01*
X106130546Y-143109500D01*
X105949454Y-143109500D01*
X105915794Y-143114831D01*
X105770593Y-143137828D01*
X105770590Y-143137829D01*
X105598362Y-143193788D01*
X105437006Y-143276004D01*
X105290497Y-143382448D01*
X105162448Y-143510497D01*
X105056004Y-143657006D01*
X104973788Y-143818362D01*
X104917829Y-143990590D01*
X104917828Y-143990593D01*
X104889500Y-144169454D01*
X104889500Y-144350545D01*
X104917828Y-144529406D01*
X104917829Y-144529409D01*
X104971278Y-144693913D01*
X104973789Y-144701639D01*
X105056004Y-144862994D01*
X105162447Y-145009501D01*
X105162448Y-145009502D01*
X105162452Y-145009507D01*
X105290493Y-145137548D01*
X105290497Y-145137551D01*
X105290499Y-145137553D01*
X105437006Y-145243996D01*
X105598361Y-145326211D01*
X105770591Y-145382171D01*
X105949454Y-145410500D01*
X105949455Y-145410500D01*
X106130545Y-145410500D01*
X106130546Y-145410500D01*
X106309409Y-145382171D01*
X106481639Y-145326211D01*
X106642994Y-145243996D01*
X106789501Y-145137553D01*
X106789504Y-145137549D01*
X106789507Y-145137548D01*
X106917548Y-145009507D01*
X106917549Y-145009504D01*
X106917553Y-145009501D01*
X107023996Y-144862994D01*
X107106211Y-144701639D01*
X107106213Y-144701633D01*
X107108578Y-144694357D01*
X107132935Y-144665840D01*
X107155179Y-144660500D01*
X107494811Y-144660500D01*
X107529459Y-144674852D01*
X107543811Y-144709500D01*
X107529459Y-144744148D01*
X106545353Y-145728252D01*
X106510705Y-145742604D01*
X106488461Y-145737264D01*
X106481647Y-145733792D01*
X106481639Y-145733789D01*
X106309409Y-145677829D01*
X106309406Y-145677828D01*
X106172007Y-145656066D01*
X106130546Y-145649500D01*
X105949454Y-145649500D01*
X105915794Y-145654831D01*
X105770593Y-145677828D01*
X105770590Y-145677829D01*
X105598362Y-145733788D01*
X105437006Y-145816004D01*
X105290497Y-145922448D01*
X105162448Y-146050497D01*
X105056004Y-146197006D01*
X104973788Y-146358362D01*
X104917829Y-146530590D01*
X104917828Y-146530593D01*
X104889500Y-146709454D01*
X104889500Y-146890545D01*
X104917828Y-147069406D01*
X104917829Y-147069409D01*
X104973789Y-147241639D01*
X104973792Y-147241647D01*
X104977264Y-147248461D01*
X104980205Y-147285848D01*
X104968252Y-147305353D01*
X104634148Y-147639458D01*
X104599500Y-147653810D01*
X104564852Y-147639458D01*
X104550500Y-147604810D01*
X104550500Y-125485189D01*
X104564852Y-125450541D01*
X104599500Y-125436189D01*
X104634148Y-125450541D01*
G37*
%TD.AperFunction*%
%TA.AperFunction,Conductor*%
G36*
X129133000Y-133231511D02*
G01*
X129268213Y-133309576D01*
X129268215Y-133309576D01*
X129268216Y-133309577D01*
X129388665Y-133341851D01*
X129420939Y-133350499D01*
X129420940Y-133350500D01*
X129420943Y-133350500D01*
X129513811Y-133350500D01*
X129548459Y-133364852D01*
X130085148Y-133901540D01*
X130099500Y-133936188D01*
X130099500Y-134280968D01*
X130085148Y-134315616D01*
X130019482Y-134381281D01*
X130019475Y-134381290D01*
X129940423Y-134518213D01*
X129940422Y-134518217D01*
X129899500Y-134670939D01*
X129899500Y-134829060D01*
X129940422Y-134981782D01*
X129940423Y-134981786D01*
X130019475Y-135118709D01*
X130019478Y-135118713D01*
X130019480Y-135118716D01*
X130131284Y-135230520D01*
X130131287Y-135230521D01*
X130131290Y-135230524D01*
X130268213Y-135309576D01*
X130268215Y-135309576D01*
X130268216Y-135309577D01*
X130289157Y-135315188D01*
X130420939Y-135350499D01*
X130420940Y-135350500D01*
X130420943Y-135350500D01*
X130579060Y-135350500D01*
X130579060Y-135350499D01*
X130661006Y-135328541D01*
X130734886Y-135308746D01*
X130735334Y-135310419D01*
X130767253Y-135310421D01*
X130793771Y-135336940D01*
X130797500Y-135355690D01*
X130797500Y-139010730D01*
X130824792Y-139112587D01*
X130824793Y-139112589D01*
X130877520Y-139203913D01*
X132888253Y-141214646D01*
X132902605Y-141249294D01*
X132897265Y-141271538D01*
X132893792Y-141278353D01*
X132893789Y-141278361D01*
X132837829Y-141450590D01*
X132837828Y-141450593D01*
X132809500Y-141629454D01*
X132809500Y-141810545D01*
X132837828Y-141989406D01*
X132837829Y-141989409D01*
X132893788Y-142161637D01*
X132963475Y-142298404D01*
X132966418Y-142335792D01*
X132954465Y-142355297D01*
X132928482Y-142381280D01*
X132928475Y-142381290D01*
X132849423Y-142518213D01*
X132849422Y-142518217D01*
X132808500Y-142670939D01*
X132808500Y-142763811D01*
X132794148Y-142798459D01*
X132757459Y-142835148D01*
X132722811Y-142849500D01*
X132469032Y-142849500D01*
X132434384Y-142835148D01*
X132368718Y-142769482D01*
X132368716Y-142769480D01*
X132368713Y-142769478D01*
X132368709Y-142769475D01*
X132231786Y-142690423D01*
X132231782Y-142690422D01*
X132079060Y-142649500D01*
X132079057Y-142649500D01*
X131920943Y-142649500D01*
X131920940Y-142649500D01*
X131768217Y-142690422D01*
X131768213Y-142690423D01*
X131631290Y-142769475D01*
X131631281Y-142769482D01*
X131519482Y-142881281D01*
X131519475Y-142881290D01*
X131440424Y-143018213D01*
X131440423Y-143018215D01*
X131440027Y-143019694D01*
X131439557Y-143020306D01*
X131439194Y-143021183D01*
X131438958Y-143021085D01*
X131417194Y-143049446D01*
X131380012Y-143054339D01*
X131358049Y-143041657D01*
X129073852Y-140757459D01*
X129059500Y-140722811D01*
X129059500Y-133273946D01*
X129073852Y-133239298D01*
X129108500Y-133224946D01*
X129133000Y-133231511D01*
G37*
%TD.AperFunction*%
%TA.AperFunction,Conductor*%
G36*
X111104148Y-117848641D02*
G01*
X111118500Y-117883289D01*
X111118500Y-128752398D01*
X111104148Y-128787046D01*
X111069500Y-128801398D01*
X111034852Y-128787046D01*
X111029858Y-128781200D01*
X111028858Y-128779823D01*
X111007553Y-128750499D01*
X111007549Y-128750495D01*
X111007547Y-128750492D01*
X110879507Y-128622452D01*
X110879502Y-128622448D01*
X110879501Y-128622447D01*
X110732994Y-128516004D01*
X110571639Y-128433789D01*
X110571638Y-128433788D01*
X110571637Y-128433788D01*
X110399409Y-128377829D01*
X110399406Y-128377828D01*
X110245056Y-128353382D01*
X110220546Y-128349500D01*
X110039454Y-128349500D01*
X110014944Y-128353382D01*
X109860593Y-128377828D01*
X109860590Y-128377829D01*
X109688362Y-128433788D01*
X109527006Y-128516004D01*
X109380497Y-128622448D01*
X109338148Y-128664797D01*
X109303500Y-128679149D01*
X109268852Y-128664797D01*
X109254500Y-128630149D01*
X109254500Y-119649289D01*
X109268852Y-119614641D01*
X111034852Y-117848641D01*
X111069500Y-117834289D01*
X111104148Y-117848641D01*
G37*
%TD.AperFunction*%
%TA.AperFunction,Conductor*%
G36*
X115362318Y-121464797D02*
G01*
X115375000Y-121466467D01*
X115379031Y-121471720D01*
X115385148Y-121474254D01*
X115390042Y-121486070D01*
X115397830Y-121496219D01*
X115399500Y-121508902D01*
X115399500Y-121579060D01*
X115440422Y-121731782D01*
X115440423Y-121731786D01*
X115519475Y-121868709D01*
X115519482Y-121868718D01*
X115585148Y-121934384D01*
X115599500Y-121969032D01*
X115599500Y-123441730D01*
X115626792Y-123543587D01*
X115626793Y-123543589D01*
X115679520Y-123634913D01*
X115946148Y-123901541D01*
X115960500Y-123936189D01*
X115960500Y-128527005D01*
X115946148Y-128561653D01*
X115911500Y-128576005D01*
X115882699Y-128566647D01*
X115858862Y-128549329D01*
X115812994Y-128516004D01*
X115651639Y-128433789D01*
X115651638Y-128433788D01*
X115651637Y-128433788D01*
X115479409Y-128377829D01*
X115479406Y-128377828D01*
X115325056Y-128353382D01*
X115300546Y-128349500D01*
X115119454Y-128349500D01*
X115094944Y-128353382D01*
X114940593Y-128377828D01*
X114940590Y-128377829D01*
X114768362Y-128433788D01*
X114607006Y-128516004D01*
X114460497Y-128622448D01*
X114460493Y-128622452D01*
X114332452Y-128750492D01*
X114310142Y-128781200D01*
X114278165Y-128800795D01*
X114241698Y-128792040D01*
X114222103Y-128760063D01*
X114221500Y-128752398D01*
X114221500Y-126268270D01*
X114199361Y-126185648D01*
X114199361Y-126185646D01*
X114196784Y-126176030D01*
X114194207Y-126166412D01*
X114171698Y-126127425D01*
X114157065Y-126102079D01*
X114150500Y-126077579D01*
X114150500Y-121595507D01*
X114164852Y-121560859D01*
X114199500Y-121546507D01*
X114234148Y-121560859D01*
X114241935Y-121571007D01*
X114269475Y-121618709D01*
X114269478Y-121618713D01*
X114269480Y-121618716D01*
X114381284Y-121730520D01*
X114381287Y-121730521D01*
X114381290Y-121730524D01*
X114518213Y-121809576D01*
X114518215Y-121809576D01*
X114518216Y-121809577D01*
X114638665Y-121841851D01*
X114670939Y-121850499D01*
X114670940Y-121850500D01*
X114670943Y-121850500D01*
X114829060Y-121850500D01*
X114829060Y-121850499D01*
X114981784Y-121809577D01*
X114995480Y-121801670D01*
X115118709Y-121730524D01*
X115118708Y-121730524D01*
X115118716Y-121730520D01*
X115230520Y-121618716D01*
X115308065Y-121484401D01*
X115313318Y-121480370D01*
X115315852Y-121474254D01*
X115327668Y-121469359D01*
X115337817Y-121461572D01*
X115344381Y-121462436D01*
X115350500Y-121459902D01*
X115362318Y-121464797D01*
G37*
%TD.AperFunction*%
%TA.AperFunction,Conductor*%
G36*
X124333148Y-122693961D02*
G01*
X124347500Y-122728609D01*
X124347500Y-124532968D01*
X124333148Y-124567616D01*
X124269482Y-124631281D01*
X124269475Y-124631290D01*
X124190423Y-124768213D01*
X124190422Y-124768217D01*
X124149500Y-124920939D01*
X124149500Y-125079060D01*
X124190422Y-125231782D01*
X124190423Y-125231786D01*
X124269475Y-125368709D01*
X124269478Y-125368713D01*
X124269480Y-125368716D01*
X124381284Y-125480520D01*
X124381287Y-125480521D01*
X124381290Y-125480524D01*
X124518213Y-125559576D01*
X124518215Y-125559576D01*
X124518216Y-125559577D01*
X124605949Y-125583085D01*
X124670939Y-125600499D01*
X124670940Y-125600500D01*
X124670943Y-125600500D01*
X124829060Y-125600500D01*
X124829060Y-125600499D01*
X124981784Y-125559577D01*
X124983501Y-125558586D01*
X125118709Y-125480524D01*
X125118708Y-125480524D01*
X125118716Y-125480520D01*
X125230520Y-125368716D01*
X125278392Y-125285799D01*
X125309576Y-125231786D01*
X125309576Y-125231785D01*
X125309577Y-125231784D01*
X125350499Y-125079060D01*
X125350500Y-125079060D01*
X125350500Y-124920940D01*
X125350499Y-124920939D01*
X125321794Y-124813811D01*
X125309577Y-124768216D01*
X125309576Y-124768215D01*
X125309576Y-124768213D01*
X125230524Y-124631290D01*
X125230521Y-124631287D01*
X125230520Y-124631284D01*
X125162852Y-124563616D01*
X125148500Y-124528968D01*
X125148500Y-123683131D01*
X125162852Y-123648483D01*
X125197500Y-123634131D01*
X125232148Y-123648483D01*
X125535176Y-123951511D01*
X125549528Y-123986159D01*
X125549528Y-128577156D01*
X125535176Y-128611804D01*
X125500528Y-128626156D01*
X125471727Y-128616798D01*
X125387777Y-128555806D01*
X125332994Y-128516004D01*
X125171639Y-128433789D01*
X125171638Y-128433788D01*
X125171637Y-128433788D01*
X124999409Y-128377829D01*
X124999406Y-128377828D01*
X124845056Y-128353382D01*
X124820546Y-128349500D01*
X124639454Y-128349500D01*
X124614944Y-128353382D01*
X124460593Y-128377828D01*
X124460590Y-128377829D01*
X124288362Y-128433788D01*
X124127006Y-128516004D01*
X124057301Y-128566647D01*
X124020834Y-128575402D01*
X123988858Y-128555806D01*
X123979500Y-128527005D01*
X123979500Y-126776270D01*
X123979499Y-126776269D01*
X123953877Y-126680645D01*
X123953876Y-126680641D01*
X123953876Y-126680642D01*
X123952207Y-126674413D01*
X123952207Y-126674412D01*
X123899480Y-126583087D01*
X121944837Y-124628444D01*
X121930485Y-124593796D01*
X121944837Y-124559148D01*
X121979485Y-124544796D01*
X122003985Y-124551361D01*
X122018213Y-124559576D01*
X122018215Y-124559576D01*
X122018216Y-124559577D01*
X122130540Y-124589674D01*
X122170939Y-124600499D01*
X122170940Y-124600500D01*
X122170943Y-124600500D01*
X122329060Y-124600500D01*
X122329060Y-124600499D01*
X122481784Y-124559577D01*
X122618716Y-124480520D01*
X122730520Y-124368716D01*
X122809577Y-124231784D01*
X122836760Y-124130333D01*
X122849438Y-124108374D01*
X124263853Y-122693960D01*
X124298500Y-122679609D01*
X124333148Y-122693961D01*
G37*
%TD.AperFunction*%
%TA.AperFunction,Conductor*%
G36*
X121471939Y-125290693D02*
G01*
X121482088Y-125298481D01*
X123164148Y-126980541D01*
X123178500Y-127015189D01*
X123178500Y-128307464D01*
X123164148Y-128342112D01*
X123129500Y-128356464D01*
X123113619Y-128353116D01*
X123113547Y-128353382D01*
X123109995Y-128352415D01*
X123084865Y-128349500D01*
X121449500Y-128349500D01*
X121414852Y-128335148D01*
X121400500Y-128300500D01*
X121400500Y-125456683D01*
X121400501Y-125456670D01*
X121400501Y-125347271D01*
X121400110Y-125345812D01*
X121400209Y-125345055D01*
X121400082Y-125344086D01*
X121400341Y-125344051D01*
X121405004Y-125308630D01*
X121434757Y-125285799D01*
X121471939Y-125290693D01*
G37*
%TD.AperFunction*%
%TA.AperFunction,Conductor*%
G36*
X116845148Y-125728641D02*
G01*
X117257612Y-126141105D01*
X117261882Y-126146670D01*
X117262150Y-126146465D01*
X117264102Y-126149009D01*
X117845611Y-126730517D01*
X118395429Y-127280335D01*
X118395432Y-127280337D01*
X118397981Y-127282293D01*
X118397774Y-127282562D01*
X118403335Y-127286828D01*
X118486148Y-127369640D01*
X118500500Y-127404288D01*
X118500500Y-128300500D01*
X118486148Y-128335148D01*
X118451500Y-128349500D01*
X116855141Y-128349500D01*
X116855131Y-128349501D01*
X116830006Y-128352415D01*
X116826450Y-128353383D01*
X116826179Y-128352387D01*
X116792788Y-128353151D01*
X116765670Y-128327245D01*
X116761500Y-128307464D01*
X116761500Y-125763289D01*
X116775852Y-125728641D01*
X116810500Y-125714289D01*
X116845148Y-125728641D01*
G37*
%TD.AperFunction*%
%TA.AperFunction,Conductor*%
G36*
X108835148Y-114160540D02*
G01*
X108849500Y-114195188D01*
X108849500Y-115563811D01*
X108835148Y-115598459D01*
X106429521Y-118004086D01*
X106429520Y-118004086D01*
X106376793Y-118095410D01*
X106376792Y-118095413D01*
X106368384Y-118126794D01*
X106349500Y-118197269D01*
X106349500Y-125673515D01*
X106335148Y-125708163D01*
X106300500Y-125722515D01*
X106276001Y-125715951D01*
X106262511Y-125708163D01*
X106231784Y-125690423D01*
X106231781Y-125690422D01*
X106231779Y-125690421D01*
X106079060Y-125649500D01*
X106079057Y-125649500D01*
X105986189Y-125649500D01*
X105951541Y-125635148D01*
X105164852Y-124848459D01*
X105150500Y-124813811D01*
X105150500Y-117175851D01*
X105164852Y-117141203D01*
X105199500Y-117126851D01*
X105234148Y-117141203D01*
X105290493Y-117197548D01*
X105290497Y-117197551D01*
X105290499Y-117197553D01*
X105437006Y-117303996D01*
X105598361Y-117386211D01*
X105770591Y-117442171D01*
X105949454Y-117470500D01*
X105949455Y-117470500D01*
X106130545Y-117470500D01*
X106130546Y-117470500D01*
X106309409Y-117442171D01*
X106481639Y-117386211D01*
X106642994Y-117303996D01*
X106789501Y-117197553D01*
X106789504Y-117197549D01*
X106789507Y-117197548D01*
X106917548Y-117069507D01*
X106917549Y-117069504D01*
X106917553Y-117069501D01*
X107023996Y-116922994D01*
X107106211Y-116761639D01*
X107162171Y-116589409D01*
X107190500Y-116410546D01*
X107190500Y-116229454D01*
X107162171Y-116050591D01*
X107106211Y-115878361D01*
X107102733Y-115871536D01*
X107099793Y-115834150D01*
X107111744Y-115814647D01*
X108765852Y-114160540D01*
X108800500Y-114146188D01*
X108835148Y-114160540D01*
G37*
%TD.AperFunction*%
%TA.AperFunction,Conductor*%
G36*
X121348459Y-108664852D02*
G01*
X122555162Y-109871555D01*
X122569514Y-109906203D01*
X122555162Y-109940851D01*
X122520514Y-109955203D01*
X122496015Y-109948639D01*
X122481783Y-109940422D01*
X122329060Y-109899500D01*
X122329057Y-109899500D01*
X122170943Y-109899500D01*
X122170940Y-109899500D01*
X122018217Y-109940422D01*
X122018213Y-109940423D01*
X121881290Y-110019475D01*
X121881281Y-110019482D01*
X121769482Y-110131281D01*
X121769475Y-110131290D01*
X121690423Y-110268213D01*
X121690422Y-110268217D01*
X121649500Y-110420939D01*
X121649500Y-110579060D01*
X121690422Y-110731782D01*
X121690423Y-110731786D01*
X121769475Y-110868709D01*
X121769478Y-110868713D01*
X121769480Y-110868716D01*
X121881284Y-110980520D01*
X121881287Y-110980521D01*
X121881290Y-110980524D01*
X121933043Y-111010403D01*
X122018216Y-111059577D01*
X122018218Y-111059577D01*
X122018219Y-111059578D01*
X122042398Y-111066056D01*
X122119662Y-111086759D01*
X122141626Y-111099440D01*
X123734148Y-112691962D01*
X123748500Y-112726610D01*
X123748500Y-121464671D01*
X123746892Y-121477123D01*
X123746500Y-121478588D01*
X123746500Y-121478613D01*
X123746489Y-121478655D01*
X123746482Y-121478705D01*
X123746500Y-121546602D01*
X123746500Y-121775389D01*
X123732148Y-121810037D01*
X122141626Y-123400558D01*
X122119661Y-123413240D01*
X122018215Y-123440423D01*
X122018213Y-123440423D01*
X121881290Y-123519475D01*
X121881281Y-123519482D01*
X121769482Y-123631281D01*
X121769475Y-123631290D01*
X121690423Y-123768213D01*
X121690422Y-123768217D01*
X121649500Y-123920939D01*
X121649500Y-124079060D01*
X121690422Y-124231782D01*
X121690422Y-124231783D01*
X121698639Y-124246015D01*
X121703533Y-124283197D01*
X121680702Y-124312950D01*
X121643520Y-124317844D01*
X121621555Y-124305162D01*
X120864852Y-123548459D01*
X120850500Y-123513811D01*
X120850500Y-123420940D01*
X120850499Y-123420939D01*
X120821526Y-123312811D01*
X120809577Y-123268216D01*
X120809576Y-123268215D01*
X120809576Y-123268213D01*
X120730524Y-123131290D01*
X120730521Y-123131287D01*
X120730520Y-123131284D01*
X120618716Y-123019480D01*
X120618713Y-123019478D01*
X120618709Y-123019475D01*
X120481786Y-122940423D01*
X120481782Y-122940422D01*
X120329060Y-122899500D01*
X120329057Y-122899500D01*
X120170943Y-122899500D01*
X120170940Y-122899500D01*
X120018217Y-122940422D01*
X120018213Y-122940423D01*
X119881290Y-123019475D01*
X119881281Y-123019482D01*
X119769482Y-123131281D01*
X119769475Y-123131290D01*
X119690423Y-123268213D01*
X119690422Y-123268217D01*
X119649500Y-123420939D01*
X119649500Y-123579060D01*
X119662563Y-123627811D01*
X119657668Y-123664993D01*
X119627918Y-123687823D01*
X119618214Y-123690423D01*
X119618213Y-123690424D01*
X119481290Y-123769475D01*
X119481281Y-123769482D01*
X119369482Y-123881281D01*
X119369475Y-123881290D01*
X119290423Y-124018213D01*
X119290422Y-124018217D01*
X119249500Y-124170939D01*
X119249500Y-124329060D01*
X119290422Y-124481782D01*
X119290423Y-124481786D01*
X119297838Y-124494628D01*
X119302733Y-124531810D01*
X119279903Y-124561563D01*
X119268086Y-124566458D01*
X119163183Y-124594568D01*
X119126001Y-124589674D01*
X119103170Y-124559921D01*
X119101500Y-124547238D01*
X119101500Y-124420940D01*
X119101499Y-124420939D01*
X119072563Y-124312950D01*
X119060577Y-124268216D01*
X119060576Y-124268215D01*
X119060576Y-124268213D01*
X118981524Y-124131290D01*
X118981521Y-124131287D01*
X118981520Y-124131284D01*
X118869716Y-124019480D01*
X118869713Y-124019478D01*
X118869709Y-124019475D01*
X118732786Y-123940424D01*
X118732783Y-123940422D01*
X118722149Y-123937573D01*
X118692397Y-123914742D01*
X118687503Y-123877560D01*
X118688023Y-123875622D01*
X118700500Y-123829057D01*
X118700500Y-123670943D01*
X118700500Y-123670940D01*
X118700499Y-123670939D01*
X118675879Y-123579057D01*
X118659577Y-123518216D01*
X118659576Y-123518215D01*
X118659576Y-123518213D01*
X118580524Y-123381290D01*
X118580521Y-123381287D01*
X118580520Y-123381284D01*
X118468716Y-123269480D01*
X118468713Y-123269478D01*
X118468709Y-123269475D01*
X118331786Y-123190423D01*
X118331782Y-123190422D01*
X118197818Y-123154526D01*
X118168065Y-123131696D01*
X118161500Y-123107196D01*
X118161500Y-122965010D01*
X118161499Y-122965009D01*
X118135697Y-122868716D01*
X118120577Y-122812286D01*
X118120576Y-122812285D01*
X118120576Y-122812283D01*
X118041524Y-122675360D01*
X118041521Y-122675357D01*
X118041520Y-122675354D01*
X117929716Y-122563550D01*
X117929713Y-122563548D01*
X117929709Y-122563545D01*
X117792786Y-122484493D01*
X117792782Y-122484492D01*
X117640060Y-122443570D01*
X117640057Y-122443570D01*
X117605162Y-122443570D01*
X117570514Y-122429218D01*
X117557832Y-122407252D01*
X117520577Y-122268216D01*
X117520576Y-122268213D01*
X117441524Y-122131290D01*
X117441521Y-122131287D01*
X117441520Y-122131284D01*
X117329716Y-122019480D01*
X117329713Y-122019478D01*
X117329709Y-122019475D01*
X117192786Y-121940423D01*
X117192782Y-121940422D01*
X117040060Y-121899500D01*
X117040057Y-121899500D01*
X116881943Y-121899500D01*
X116881940Y-121899500D01*
X116729217Y-121940422D01*
X116729213Y-121940423D01*
X116592290Y-122019475D01*
X116592281Y-122019482D01*
X116484148Y-122127616D01*
X116449500Y-122141968D01*
X116414852Y-122127616D01*
X116400500Y-122092968D01*
X116400500Y-121969032D01*
X116414852Y-121934384D01*
X116445706Y-121903530D01*
X116480520Y-121868716D01*
X116559577Y-121731784D01*
X116600499Y-121579060D01*
X116600500Y-121579060D01*
X116600500Y-121420940D01*
X116600499Y-121420939D01*
X116571358Y-121312182D01*
X116576253Y-121275000D01*
X116606006Y-121252170D01*
X116618688Y-121250500D01*
X120172939Y-121250500D01*
X120207587Y-121264852D01*
X120215372Y-121274998D01*
X120231992Y-121303784D01*
X120269477Y-121368712D01*
X120269479Y-121368714D01*
X120269480Y-121368716D01*
X120381284Y-121480520D01*
X120381287Y-121480521D01*
X120381290Y-121480524D01*
X120518213Y-121559576D01*
X120518215Y-121559576D01*
X120518216Y-121559577D01*
X120590928Y-121579060D01*
X120670939Y-121600499D01*
X120670940Y-121600500D01*
X120670943Y-121600500D01*
X120829060Y-121600500D01*
X120829060Y-121600499D01*
X120981784Y-121559577D01*
X121069557Y-121508902D01*
X121118709Y-121480524D01*
X121118708Y-121480524D01*
X121118716Y-121480520D01*
X121230520Y-121368716D01*
X121284626Y-121275001D01*
X121309576Y-121231786D01*
X121309576Y-121231785D01*
X121309577Y-121231784D01*
X121350499Y-121079060D01*
X121350500Y-121079060D01*
X121350500Y-120920940D01*
X121350499Y-120920939D01*
X121339873Y-120881281D01*
X121309577Y-120768216D01*
X121309576Y-120768215D01*
X121309576Y-120768213D01*
X121230524Y-120631290D01*
X121230521Y-120631287D01*
X121230520Y-120631284D01*
X121118716Y-120519480D01*
X121118713Y-120519478D01*
X121118709Y-120519475D01*
X120981786Y-120440423D01*
X120981782Y-120440422D01*
X120880338Y-120413240D01*
X120858372Y-120400558D01*
X120807314Y-120349500D01*
X120693188Y-120283608D01*
X120693184Y-120283607D01*
X120565895Y-120249500D01*
X120565892Y-120249500D01*
X115315893Y-120249500D01*
X115184108Y-120249500D01*
X115184105Y-120249500D01*
X115056815Y-120283607D01*
X115056811Y-120283608D01*
X114942685Y-120349500D01*
X114942684Y-120349501D01*
X114641626Y-120650558D01*
X114619661Y-120663240D01*
X114518215Y-120690423D01*
X114518213Y-120690423D01*
X114381290Y-120769475D01*
X114381281Y-120769482D01*
X114269482Y-120881281D01*
X114269475Y-120881290D01*
X114241935Y-120928992D01*
X114212182Y-120951822D01*
X114175000Y-120946927D01*
X114152170Y-120917174D01*
X114150500Y-120904492D01*
X114150500Y-114447272D01*
X114148914Y-114441355D01*
X114145743Y-114429520D01*
X114123207Y-114345412D01*
X114083485Y-114276613D01*
X114070480Y-114254087D01*
X113995913Y-114179520D01*
X113994207Y-114177814D01*
X113994196Y-114177804D01*
X113864852Y-114048459D01*
X113850500Y-114013811D01*
X113850500Y-113920940D01*
X113850499Y-113920939D01*
X113809577Y-113768217D01*
X113809576Y-113768213D01*
X113730524Y-113631290D01*
X113730521Y-113631287D01*
X113730520Y-113631284D01*
X113618716Y-113519480D01*
X113618713Y-113519478D01*
X113618709Y-113519475D01*
X113481786Y-113440423D01*
X113481782Y-113440422D01*
X113329060Y-113399500D01*
X113329057Y-113399500D01*
X113170943Y-113399500D01*
X113170940Y-113399500D01*
X113018217Y-113440422D01*
X113018213Y-113440423D01*
X112881290Y-113519475D01*
X112881281Y-113519482D01*
X112769482Y-113631281D01*
X112769475Y-113631290D01*
X112741935Y-113678992D01*
X112712182Y-113701822D01*
X112675000Y-113696927D01*
X112652170Y-113667174D01*
X112650500Y-113654492D01*
X112650500Y-111186188D01*
X112651345Y-111184149D01*
X112664851Y-111151541D01*
X112701542Y-111114850D01*
X112736189Y-111100500D01*
X112829060Y-111100500D01*
X112829060Y-111100499D01*
X112981784Y-111059577D01*
X112981788Y-111059575D01*
X113118709Y-110980524D01*
X113118708Y-110980524D01*
X113118716Y-110980520D01*
X113230520Y-110868716D01*
X113287812Y-110769482D01*
X113309576Y-110731786D01*
X113309576Y-110731785D01*
X113309577Y-110731784D01*
X113350499Y-110579060D01*
X113350500Y-110579060D01*
X113350500Y-110420940D01*
X113350499Y-110420939D01*
X113331625Y-110350499D01*
X113309577Y-110268216D01*
X113309576Y-110268214D01*
X113309576Y-110268213D01*
X113230524Y-110131290D01*
X113230521Y-110131287D01*
X113230520Y-110131284D01*
X113118716Y-110019480D01*
X113118713Y-110019478D01*
X113118709Y-110019475D01*
X112981786Y-109940423D01*
X112981782Y-109940422D01*
X112829060Y-109899500D01*
X112829057Y-109899500D01*
X112670943Y-109899500D01*
X112670940Y-109899500D01*
X112518217Y-109940422D01*
X112518213Y-109940423D01*
X112381290Y-110019475D01*
X112381281Y-110019482D01*
X112269482Y-110131281D01*
X112269475Y-110131290D01*
X112190423Y-110268213D01*
X112190422Y-110268217D01*
X112149500Y-110420939D01*
X112149500Y-110513811D01*
X112135148Y-110548459D01*
X111929521Y-110754086D01*
X111929520Y-110754086D01*
X111876793Y-110845410D01*
X111876792Y-110845412D01*
X111866504Y-110883811D01*
X111854257Y-110929520D01*
X111851085Y-110941355D01*
X111849500Y-110947272D01*
X111849500Y-111631311D01*
X111835148Y-111665959D01*
X111800500Y-111680311D01*
X111787818Y-111678641D01*
X111679060Y-111649500D01*
X111679057Y-111649500D01*
X111520943Y-111649500D01*
X111520940Y-111649500D01*
X111462182Y-111665244D01*
X111425000Y-111660349D01*
X111402170Y-111630596D01*
X111400500Y-111617914D01*
X111400500Y-110436188D01*
X111414852Y-110401540D01*
X112151540Y-109664852D01*
X112186188Y-109650500D01*
X113030968Y-109650500D01*
X113065616Y-109664852D01*
X113131284Y-109730520D01*
X113131287Y-109730521D01*
X113131290Y-109730524D01*
X113268213Y-109809576D01*
X113268215Y-109809576D01*
X113268216Y-109809577D01*
X113340928Y-109829060D01*
X113420939Y-109850499D01*
X113420940Y-109850500D01*
X113420943Y-109850500D01*
X113579060Y-109850500D01*
X113579060Y-109850499D01*
X113731784Y-109809577D01*
X113868716Y-109730520D01*
X113980520Y-109618716D01*
X114045105Y-109506851D01*
X114059576Y-109481786D01*
X114059576Y-109481785D01*
X114059577Y-109481784D01*
X114100499Y-109329060D01*
X114100500Y-109329060D01*
X114100500Y-109170940D01*
X114100499Y-109170939D01*
X114091851Y-109138665D01*
X114059577Y-109018216D01*
X114059576Y-109018215D01*
X114059576Y-109018213D01*
X113980524Y-108881290D01*
X113980521Y-108881287D01*
X113980520Y-108881284D01*
X113868716Y-108769480D01*
X113868713Y-108769478D01*
X113868709Y-108769475D01*
X113821007Y-108741935D01*
X113798177Y-108712182D01*
X113803072Y-108675000D01*
X113832825Y-108652170D01*
X113845507Y-108650500D01*
X121313811Y-108650500D01*
X121348459Y-108664852D01*
G37*
%TD.AperFunction*%
%TA.AperFunction,Conductor*%
G36*
X126885148Y-115951540D02*
G01*
X127291238Y-116357631D01*
X127305590Y-116392279D01*
X127291238Y-116426927D01*
X127281091Y-116434714D01*
X127207016Y-116477482D01*
X127095217Y-116589281D01*
X127095210Y-116589290D01*
X127016158Y-116726213D01*
X127016157Y-116726217D01*
X126975235Y-116878939D01*
X126975235Y-117037060D01*
X127016157Y-117189782D01*
X127016158Y-117189786D01*
X127095210Y-117326709D01*
X127095213Y-117326713D01*
X127095215Y-117326716D01*
X127207019Y-117438520D01*
X127207022Y-117438521D01*
X127207025Y-117438524D01*
X127343948Y-117517576D01*
X127343950Y-117517576D01*
X127343951Y-117517577D01*
X127464400Y-117549851D01*
X127496674Y-117558499D01*
X127496675Y-117558500D01*
X127496678Y-117558500D01*
X127589546Y-117558500D01*
X127624194Y-117572852D01*
X130382148Y-120330805D01*
X130396500Y-120365453D01*
X130396500Y-123700650D01*
X130382148Y-123735298D01*
X130347500Y-123749650D01*
X130323000Y-123743085D01*
X130231786Y-123690423D01*
X130231782Y-123690422D01*
X130130338Y-123663240D01*
X130108372Y-123650558D01*
X128807314Y-122349500D01*
X128693188Y-122283608D01*
X128693184Y-122283607D01*
X128565895Y-122249500D01*
X128565892Y-122249500D01*
X128024886Y-122249500D01*
X127893101Y-122249500D01*
X127893099Y-122249500D01*
X127846570Y-122261968D01*
X127823252Y-122268216D01*
X127765808Y-122283607D01*
X127765805Y-122283608D01*
X127651679Y-122349500D01*
X127651679Y-122349501D01*
X127558492Y-122442688D01*
X126842654Y-123158524D01*
X126820689Y-123171206D01*
X126719243Y-123198389D01*
X126719241Y-123198389D01*
X126601359Y-123266448D01*
X126564176Y-123271343D01*
X126542211Y-123258661D01*
X126319769Y-123036219D01*
X126305417Y-123001571D01*
X126309151Y-122982811D01*
X126309574Y-122981788D01*
X126309577Y-122981784D01*
X126334857Y-122887440D01*
X126357687Y-122857687D01*
X126382187Y-122851122D01*
X126454061Y-122851122D01*
X126454061Y-122851121D01*
X126606785Y-122810199D01*
X126743717Y-122731142D01*
X126855521Y-122619338D01*
X126934578Y-122482406D01*
X126975500Y-122329682D01*
X126975501Y-122329682D01*
X126975501Y-122171562D01*
X126975500Y-122171561D01*
X126934579Y-122018841D01*
X126933349Y-122015871D01*
X126934639Y-122015336D01*
X126930352Y-121982835D01*
X126935251Y-121971004D01*
X126936390Y-121969032D01*
X126974207Y-121903531D01*
X127001499Y-121801673D01*
X127001500Y-121801673D01*
X127001500Y-121307740D01*
X127001501Y-121307727D01*
X127001501Y-121198328D01*
X126974207Y-121096471D01*
X126974207Y-121096470D01*
X126963594Y-121078088D01*
X126921480Y-121005144D01*
X126846913Y-120930577D01*
X126844120Y-120927784D01*
X126844119Y-120927784D01*
X126815851Y-120899515D01*
X126801500Y-120864867D01*
X126801500Y-115986188D01*
X126815852Y-115951540D01*
X126850500Y-115937188D01*
X126885148Y-115951540D01*
G37*
%TD.AperFunction*%
%TA.AperFunction,Conductor*%
G36*
X135435148Y-93264352D02*
G01*
X135449500Y-93299000D01*
X135449500Y-109504811D01*
X135435148Y-109539459D01*
X135400500Y-109553811D01*
X135365852Y-109539459D01*
X135031746Y-109205353D01*
X135017394Y-109170705D01*
X135022735Y-109148460D01*
X135026211Y-109141639D01*
X135082171Y-108969409D01*
X135110500Y-108790546D01*
X135110500Y-108609454D01*
X135082171Y-108430591D01*
X135026211Y-108258361D01*
X134943996Y-108097006D01*
X134837553Y-107950499D01*
X134837551Y-107950497D01*
X134837548Y-107950493D01*
X134709507Y-107822452D01*
X134709502Y-107822448D01*
X134709501Y-107822447D01*
X134562994Y-107716004D01*
X134401639Y-107633789D01*
X134401638Y-107633788D01*
X134401637Y-107633788D01*
X134229409Y-107577829D01*
X134229406Y-107577828D01*
X134092007Y-107556066D01*
X134050546Y-107549500D01*
X133869454Y-107549500D01*
X133835794Y-107554831D01*
X133690593Y-107577828D01*
X133690590Y-107577829D01*
X133518361Y-107633789D01*
X133518353Y-107633792D01*
X133511538Y-107637265D01*
X133474151Y-107640206D01*
X133454646Y-107628253D01*
X132513852Y-106687459D01*
X132499500Y-106652811D01*
X132499500Y-105384189D01*
X132513852Y-105349541D01*
X132548500Y-105335189D01*
X132583148Y-105349541D01*
X132888253Y-105654646D01*
X132902605Y-105689294D01*
X132897265Y-105711538D01*
X132893792Y-105718353D01*
X132893789Y-105718361D01*
X132837829Y-105890590D01*
X132837828Y-105890593D01*
X132809500Y-106069454D01*
X132809500Y-106250545D01*
X132837828Y-106429406D01*
X132837829Y-106429409D01*
X132866683Y-106518216D01*
X132893789Y-106601639D01*
X132976004Y-106762994D01*
X133082447Y-106909501D01*
X133082448Y-106909502D01*
X133082452Y-106909507D01*
X133210493Y-107037548D01*
X133210497Y-107037551D01*
X133210499Y-107037553D01*
X133357006Y-107143996D01*
X133518361Y-107226211D01*
X133690591Y-107282171D01*
X133869454Y-107310500D01*
X133869455Y-107310500D01*
X134050545Y-107310500D01*
X134050546Y-107310500D01*
X134229409Y-107282171D01*
X134401639Y-107226211D01*
X134562994Y-107143996D01*
X134709501Y-107037553D01*
X134709504Y-107037549D01*
X134709507Y-107037548D01*
X134837548Y-106909507D01*
X134837549Y-106909504D01*
X134837553Y-106909501D01*
X134943996Y-106762994D01*
X135026211Y-106601639D01*
X135082171Y-106429409D01*
X135110500Y-106250546D01*
X135110500Y-106069454D01*
X135082171Y-105890591D01*
X135026211Y-105718361D01*
X134943996Y-105557006D01*
X134837553Y-105410499D01*
X134837551Y-105410497D01*
X134837548Y-105410493D01*
X134709507Y-105282452D01*
X134709502Y-105282448D01*
X134704579Y-105278871D01*
X134562994Y-105176004D01*
X134401639Y-105093789D01*
X134401638Y-105093788D01*
X134401637Y-105093788D01*
X134229409Y-105037829D01*
X134229406Y-105037828D01*
X134092007Y-105016066D01*
X134050546Y-105009500D01*
X133869454Y-105009500D01*
X133835794Y-105014831D01*
X133690593Y-105037828D01*
X133690590Y-105037829D01*
X133518361Y-105093789D01*
X133518353Y-105093792D01*
X133511538Y-105097265D01*
X133474151Y-105100206D01*
X133454646Y-105088253D01*
X132914852Y-104548459D01*
X132900500Y-104513811D01*
X132900500Y-104269877D01*
X132914852Y-104235229D01*
X132949500Y-104220877D01*
X132984148Y-104235229D01*
X132989137Y-104241070D01*
X133053063Y-104329057D01*
X133082448Y-104369502D01*
X133082452Y-104369507D01*
X133210493Y-104497548D01*
X133210497Y-104497551D01*
X133210499Y-104497553D01*
X133357006Y-104603996D01*
X133518361Y-104686211D01*
X133690591Y-104742171D01*
X133869454Y-104770500D01*
X133869455Y-104770500D01*
X134050545Y-104770500D01*
X134050546Y-104770500D01*
X134229409Y-104742171D01*
X134401639Y-104686211D01*
X134562994Y-104603996D01*
X134709501Y-104497553D01*
X134709504Y-104497549D01*
X134709507Y-104497548D01*
X134837548Y-104369507D01*
X134837549Y-104369504D01*
X134837553Y-104369501D01*
X134943996Y-104222994D01*
X135026211Y-104061639D01*
X135082171Y-103889409D01*
X135110500Y-103710546D01*
X135110500Y-103529454D01*
X135082171Y-103350591D01*
X135026211Y-103178361D01*
X134943996Y-103017006D01*
X134837553Y-102870499D01*
X134837551Y-102870497D01*
X134837548Y-102870493D01*
X134709507Y-102742452D01*
X134709502Y-102742448D01*
X134704579Y-102738871D01*
X134562994Y-102636004D01*
X134401639Y-102553789D01*
X134401638Y-102553788D01*
X134401637Y-102553788D01*
X134229409Y-102497829D01*
X134229406Y-102497828D01*
X134092007Y-102476066D01*
X134050546Y-102469500D01*
X133869454Y-102469500D01*
X133835794Y-102474831D01*
X133690593Y-102497828D01*
X133690590Y-102497829D01*
X133518362Y-102553788D01*
X133357006Y-102636004D01*
X133210497Y-102742448D01*
X133082448Y-102870497D01*
X132989142Y-102998923D01*
X132957165Y-103018519D01*
X132920699Y-103009764D01*
X132901103Y-102977787D01*
X132900500Y-102970122D01*
X132900500Y-101729877D01*
X132914852Y-101695229D01*
X132949500Y-101680877D01*
X132984148Y-101695229D01*
X132989137Y-101701070D01*
X133082127Y-101829060D01*
X133082448Y-101829502D01*
X133082452Y-101829507D01*
X133210493Y-101957548D01*
X133210497Y-101957551D01*
X133210499Y-101957553D01*
X133357006Y-102063996D01*
X133518361Y-102146211D01*
X133690591Y-102202171D01*
X133869454Y-102230500D01*
X133869455Y-102230500D01*
X134050545Y-102230500D01*
X134050546Y-102230500D01*
X134229409Y-102202171D01*
X134401639Y-102146211D01*
X134562994Y-102063996D01*
X134709501Y-101957553D01*
X134709504Y-101957549D01*
X134709507Y-101957548D01*
X134837548Y-101829507D01*
X134837549Y-101829504D01*
X134837553Y-101829501D01*
X134943996Y-101682994D01*
X135026211Y-101521639D01*
X135082171Y-101349409D01*
X135110500Y-101170546D01*
X135110500Y-100989454D01*
X135082171Y-100810591D01*
X135026211Y-100638361D01*
X134943996Y-100477006D01*
X134837553Y-100330499D01*
X134837551Y-100330497D01*
X134837548Y-100330493D01*
X134709507Y-100202452D01*
X134709502Y-100202448D01*
X134704729Y-100198980D01*
X134562994Y-100096004D01*
X134401639Y-100013789D01*
X134401638Y-100013788D01*
X134401637Y-100013788D01*
X134229409Y-99957829D01*
X134229406Y-99957828D01*
X134092007Y-99936066D01*
X134050546Y-99929500D01*
X133869454Y-99929500D01*
X133835794Y-99934831D01*
X133690593Y-99957828D01*
X133690590Y-99957829D01*
X133518362Y-100013788D01*
X133357006Y-100096004D01*
X133210497Y-100202448D01*
X133082448Y-100330497D01*
X132976003Y-100477006D01*
X132936735Y-100554074D01*
X132926094Y-100563161D01*
X132917576Y-100574263D01*
X132912279Y-100574960D01*
X132908217Y-100578430D01*
X132894265Y-100577331D01*
X132880393Y-100579158D01*
X132876155Y-100575906D01*
X132870830Y-100575487D01*
X132850641Y-100556328D01*
X132848562Y-100552727D01*
X132848561Y-100552726D01*
X132820482Y-100504090D01*
X132820477Y-100504084D01*
X132744207Y-100427814D01*
X132744196Y-100427804D01*
X129745913Y-97429520D01*
X129654589Y-97376793D01*
X129654587Y-97376792D01*
X129552730Y-97349500D01*
X129552727Y-97349500D01*
X128802727Y-97349500D01*
X127197273Y-97349500D01*
X127197270Y-97349500D01*
X127095417Y-97376791D01*
X127095411Y-97376794D01*
X127067454Y-97392935D01*
X127042954Y-97399500D01*
X126920940Y-97399500D01*
X126861182Y-97415512D01*
X126824000Y-97410617D01*
X126801170Y-97380864D01*
X126799500Y-97368182D01*
X126799500Y-97037189D01*
X126813852Y-97002541D01*
X126951541Y-96864852D01*
X126986189Y-96850500D01*
X127079060Y-96850500D01*
X127079060Y-96850499D01*
X127231784Y-96809577D01*
X127251364Y-96798273D01*
X127368709Y-96730524D01*
X127368708Y-96730524D01*
X127368716Y-96730520D01*
X127480520Y-96618716D01*
X127559577Y-96481784D01*
X127600499Y-96329060D01*
X127600500Y-96329060D01*
X127600500Y-96170940D01*
X127600499Y-96170939D01*
X127571358Y-96062182D01*
X127576253Y-96025000D01*
X127606006Y-96002170D01*
X127618688Y-96000500D01*
X130692390Y-96000500D01*
X130727038Y-96014852D01*
X132852142Y-98139955D01*
X132866494Y-98174603D01*
X132864096Y-98189744D01*
X132837828Y-98270591D01*
X132810930Y-98440423D01*
X132809500Y-98449454D01*
X132809500Y-98630546D01*
X132809617Y-98631284D01*
X132837828Y-98809406D01*
X132837829Y-98809409D01*
X132888672Y-98965892D01*
X132893789Y-98981639D01*
X132976004Y-99142994D01*
X133040515Y-99231786D01*
X133082448Y-99289502D01*
X133082452Y-99289507D01*
X133210493Y-99417548D01*
X133210497Y-99417551D01*
X133210499Y-99417553D01*
X133357006Y-99523996D01*
X133518361Y-99606211D01*
X133690591Y-99662171D01*
X133869454Y-99690500D01*
X133869455Y-99690500D01*
X134050545Y-99690500D01*
X134050546Y-99690500D01*
X134229409Y-99662171D01*
X134401639Y-99606211D01*
X134562994Y-99523996D01*
X134709501Y-99417553D01*
X134709504Y-99417549D01*
X134709507Y-99417548D01*
X134837548Y-99289507D01*
X134837549Y-99289504D01*
X134837553Y-99289501D01*
X134943996Y-99142994D01*
X135026211Y-98981639D01*
X135082171Y-98809409D01*
X135110500Y-98630546D01*
X135110500Y-98449454D01*
X135082171Y-98270591D01*
X135026211Y-98098361D01*
X134943996Y-97937006D01*
X134837553Y-97790499D01*
X134837551Y-97790497D01*
X134837548Y-97790493D01*
X134709507Y-97662452D01*
X134709502Y-97662448D01*
X134709501Y-97662447D01*
X134562994Y-97556004D01*
X134401639Y-97473789D01*
X134401638Y-97473788D01*
X134401637Y-97473788D01*
X134229409Y-97417829D01*
X134229406Y-97417828D01*
X134092007Y-97396066D01*
X134050546Y-97389500D01*
X133869454Y-97389500D01*
X133847766Y-97392935D01*
X133690591Y-97417828D01*
X133609744Y-97444096D01*
X133572357Y-97441153D01*
X133559955Y-97432142D01*
X133361461Y-97233647D01*
X133347109Y-97198999D01*
X133361461Y-97164351D01*
X133396109Y-97149999D01*
X133710000Y-97149999D01*
X133710000Y-96433012D01*
X133767007Y-96465925D01*
X133894174Y-96500000D01*
X134025826Y-96500000D01*
X134152993Y-96465925D01*
X134210000Y-96433012D01*
X134210000Y-97149999D01*
X134854788Y-97149999D01*
X134854794Y-97149998D01*
X134879876Y-97147089D01*
X134982479Y-97101786D01*
X135061786Y-97022479D01*
X135107090Y-96919873D01*
X135109998Y-96894810D01*
X135110000Y-96894790D01*
X135110000Y-96250000D01*
X134393012Y-96250000D01*
X134425925Y-96192993D01*
X134460000Y-96065826D01*
X134460000Y-95934174D01*
X134425925Y-95807007D01*
X134393012Y-95750000D01*
X135109999Y-95750000D01*
X135109999Y-95105212D01*
X135109998Y-95105205D01*
X135107089Y-95080123D01*
X135061786Y-94977520D01*
X134982479Y-94898213D01*
X134982480Y-94898213D01*
X134879873Y-94852909D01*
X134854810Y-94850001D01*
X134854790Y-94850000D01*
X134210000Y-94850000D01*
X134210000Y-95566988D01*
X134152993Y-95534075D01*
X134025826Y-95500000D01*
X133894174Y-95500000D01*
X133767007Y-95534075D01*
X133710000Y-95566988D01*
X133710000Y-94850000D01*
X133065212Y-94850000D01*
X133065205Y-94850001D01*
X133040123Y-94852910D01*
X132937520Y-94898213D01*
X132858213Y-94977520D01*
X132812909Y-95080126D01*
X132810001Y-95105189D01*
X132810000Y-95105209D01*
X132810000Y-95750000D01*
X133526988Y-95750000D01*
X133494075Y-95807007D01*
X133460000Y-95934174D01*
X133460000Y-96065826D01*
X133494075Y-96192993D01*
X133526988Y-96250000D01*
X132810000Y-96250000D01*
X132810000Y-96563891D01*
X132795648Y-96598539D01*
X132761000Y-96612891D01*
X132726352Y-96598539D01*
X132391624Y-96263811D01*
X131227314Y-95099500D01*
X131113188Y-95033608D01*
X131113184Y-95033607D01*
X130985895Y-94999500D01*
X130985892Y-94999500D01*
X126315892Y-94999500D01*
X126184107Y-94999500D01*
X126184104Y-94999500D01*
X126056815Y-95033607D01*
X126056811Y-95033608D01*
X125942685Y-95099500D01*
X125942685Y-95099501D01*
X123849501Y-97192685D01*
X123849500Y-97192685D01*
X123783608Y-97306811D01*
X123783607Y-97306815D01*
X123749500Y-97434104D01*
X123749500Y-109402761D01*
X123742935Y-109427261D01*
X123690424Y-109518214D01*
X123690421Y-109518220D01*
X123649500Y-109670939D01*
X123649500Y-109714811D01*
X123635148Y-109749459D01*
X123600500Y-109763811D01*
X123565852Y-109749459D01*
X121745913Y-107929520D01*
X121654589Y-107876793D01*
X121654587Y-107876792D01*
X121552730Y-107849500D01*
X121552727Y-107849500D01*
X113719032Y-107849500D01*
X113684384Y-107835148D01*
X113618718Y-107769482D01*
X113618716Y-107769480D01*
X113618713Y-107769478D01*
X113618709Y-107769475D01*
X113481786Y-107690423D01*
X113481782Y-107690422D01*
X113329060Y-107649500D01*
X113329057Y-107649500D01*
X113236189Y-107649500D01*
X113201541Y-107635148D01*
X112800541Y-107234148D01*
X112786189Y-107199500D01*
X112800541Y-107164852D01*
X112835189Y-107150500D01*
X113030968Y-107150500D01*
X113065616Y-107164852D01*
X113131284Y-107230520D01*
X113131287Y-107230521D01*
X113131290Y-107230524D01*
X113268213Y-107309576D01*
X113268215Y-107309576D01*
X113268216Y-107309577D01*
X113376002Y-107338458D01*
X113420939Y-107350499D01*
X113420940Y-107350500D01*
X113420943Y-107350500D01*
X113579060Y-107350500D01*
X113579060Y-107350499D01*
X113731784Y-107309577D01*
X113868716Y-107230520D01*
X113980520Y-107118716D01*
X114039909Y-107015851D01*
X114059576Y-106981786D01*
X114059576Y-106981785D01*
X114059577Y-106981784D01*
X114100499Y-106829060D01*
X114100500Y-106829060D01*
X114100500Y-106670940D01*
X114100499Y-106670939D01*
X114081930Y-106601639D01*
X114059577Y-106518216D01*
X114059576Y-106518215D01*
X114059576Y-106518213D01*
X113980524Y-106381290D01*
X113980521Y-106381287D01*
X113980520Y-106381284D01*
X113868716Y-106269480D01*
X113868713Y-106269478D01*
X113868709Y-106269475D01*
X113740824Y-106195642D01*
X113717994Y-106165889D01*
X113722889Y-106128707D01*
X113728587Y-106121282D01*
X113728564Y-106121265D01*
X113730515Y-106118720D01*
X113730520Y-106118716D01*
X113809577Y-105981784D01*
X113850499Y-105829060D01*
X113850500Y-105829060D01*
X113850500Y-105670940D01*
X113850499Y-105670939D01*
X113809577Y-105518217D01*
X113809576Y-105518213D01*
X113730524Y-105381290D01*
X113730521Y-105381287D01*
X113730520Y-105381284D01*
X113618716Y-105269480D01*
X113618713Y-105269478D01*
X113618709Y-105269475D01*
X113481786Y-105190423D01*
X113481782Y-105190422D01*
X113329060Y-105149500D01*
X113329057Y-105149500D01*
X113236189Y-105149500D01*
X113201541Y-105135148D01*
X112995913Y-104929520D01*
X112904589Y-104876793D01*
X112904587Y-104876792D01*
X112802730Y-104849500D01*
X112802727Y-104849500D01*
X110552727Y-104849500D01*
X110447273Y-104849500D01*
X110447270Y-104849500D01*
X110345412Y-104876792D01*
X110345410Y-104876793D01*
X110254086Y-104929520D01*
X110254086Y-104929521D01*
X109734148Y-105449459D01*
X109699500Y-105463811D01*
X109664852Y-105449459D01*
X109650500Y-105414811D01*
X109650500Y-105186189D01*
X109664852Y-105151541D01*
X110651541Y-104164852D01*
X110686189Y-104150500D01*
X112563811Y-104150500D01*
X112590038Y-104161363D01*
X112598457Y-104164850D01*
X112635148Y-104201541D01*
X112649500Y-104236187D01*
X112649500Y-104329060D01*
X112690422Y-104481782D01*
X112690423Y-104481786D01*
X112769475Y-104618709D01*
X112769478Y-104618713D01*
X112769480Y-104618716D01*
X112881284Y-104730520D01*
X112881287Y-104730521D01*
X112881290Y-104730524D01*
X113018213Y-104809576D01*
X113018215Y-104809576D01*
X113018216Y-104809577D01*
X113138665Y-104841851D01*
X113170939Y-104850499D01*
X113170940Y-104850500D01*
X113170943Y-104850500D01*
X113329060Y-104850500D01*
X113329060Y-104850499D01*
X113481784Y-104809577D01*
X113618716Y-104730520D01*
X113730520Y-104618716D01*
X113771083Y-104548459D01*
X113809576Y-104481786D01*
X113809576Y-104481785D01*
X113809577Y-104481784D01*
X113850499Y-104329060D01*
X113850500Y-104329060D01*
X113850500Y-104170940D01*
X113850499Y-104170939D01*
X113821212Y-104061639D01*
X113809577Y-104018216D01*
X113809576Y-104018215D01*
X113809576Y-104018213D01*
X113730524Y-103881290D01*
X113730521Y-103881287D01*
X113730520Y-103881284D01*
X113618716Y-103769480D01*
X113618713Y-103769478D01*
X113618709Y-103769475D01*
X113481786Y-103690423D01*
X113481782Y-103690422D01*
X113414261Y-103672330D01*
X113384508Y-103649500D01*
X113379613Y-103612318D01*
X113402443Y-103582565D01*
X113414261Y-103577670D01*
X113438515Y-103571170D01*
X113481784Y-103559577D01*
X113618716Y-103480520D01*
X113730520Y-103368716D01*
X113809577Y-103231784D01*
X113850499Y-103079060D01*
X113850500Y-103079060D01*
X113850500Y-102920940D01*
X113850499Y-102920939D01*
X113809577Y-102768217D01*
X113809576Y-102768213D01*
X113730524Y-102631290D01*
X113730521Y-102631287D01*
X113730520Y-102631284D01*
X113618716Y-102519480D01*
X113618713Y-102519478D01*
X113618709Y-102519475D01*
X113481786Y-102440423D01*
X113481782Y-102440422D01*
X113414261Y-102422330D01*
X113384508Y-102399500D01*
X113379613Y-102362318D01*
X113402443Y-102332565D01*
X113414261Y-102327670D01*
X113438515Y-102321170D01*
X113481784Y-102309577D01*
X113618716Y-102230520D01*
X113730520Y-102118716D01*
X113809577Y-101981784D01*
X113850499Y-101829060D01*
X113850500Y-101829060D01*
X113850500Y-101670940D01*
X113850499Y-101670939D01*
X113810494Y-101521639D01*
X113809577Y-101518216D01*
X113809576Y-101518215D01*
X113809576Y-101518213D01*
X113730524Y-101381290D01*
X113730521Y-101381287D01*
X113730520Y-101381284D01*
X113618716Y-101269480D01*
X113618713Y-101269478D01*
X113618709Y-101269475D01*
X113481786Y-101190423D01*
X113481782Y-101190422D01*
X113414261Y-101172330D01*
X113384508Y-101149500D01*
X113379613Y-101112318D01*
X113402443Y-101082565D01*
X113414261Y-101077670D01*
X113438515Y-101071170D01*
X113481784Y-101059577D01*
X113618716Y-100980520D01*
X113730520Y-100868716D01*
X113809577Y-100731784D01*
X113850499Y-100579060D01*
X113850500Y-100579060D01*
X113850500Y-100420940D01*
X113850499Y-100420939D01*
X113809577Y-100268217D01*
X113809576Y-100268213D01*
X113730524Y-100131290D01*
X113730521Y-100131287D01*
X113730520Y-100131284D01*
X113618716Y-100019480D01*
X113618713Y-100019478D01*
X113618709Y-100019475D01*
X113481786Y-99940423D01*
X113481782Y-99940422D01*
X113329060Y-99899500D01*
X113329057Y-99899500D01*
X113236189Y-99899500D01*
X113201541Y-99885148D01*
X112995913Y-99679520D01*
X112904589Y-99626793D01*
X112904587Y-99626792D01*
X112802730Y-99599500D01*
X112802727Y-99599500D01*
X110055740Y-99599500D01*
X110055724Y-99599499D01*
X110052727Y-99599499D01*
X109947274Y-99599499D01*
X109947272Y-99599499D01*
X109845412Y-99626793D01*
X109845410Y-99626793D01*
X109754086Y-99679520D01*
X109754086Y-99679521D01*
X107734148Y-101699459D01*
X107699500Y-101713811D01*
X107664852Y-101699459D01*
X107650500Y-101664811D01*
X107650500Y-100436188D01*
X107664852Y-100401540D01*
X109151540Y-98914852D01*
X109186188Y-98900500D01*
X112563811Y-98900500D01*
X112590038Y-98911363D01*
X112598457Y-98914850D01*
X112635148Y-98951541D01*
X112649500Y-98986187D01*
X112649500Y-99079060D01*
X112690422Y-99231782D01*
X112690423Y-99231786D01*
X112769475Y-99368709D01*
X112769478Y-99368713D01*
X112769480Y-99368716D01*
X112881284Y-99480520D01*
X112881287Y-99480521D01*
X112881290Y-99480524D01*
X113018213Y-99559576D01*
X113018215Y-99559576D01*
X113018216Y-99559577D01*
X113138665Y-99591851D01*
X113170939Y-99600499D01*
X113170940Y-99600500D01*
X113170943Y-99600500D01*
X113329060Y-99600500D01*
X113329060Y-99600499D01*
X113481784Y-99559577D01*
X113543415Y-99523995D01*
X113618709Y-99480524D01*
X113618708Y-99480524D01*
X113618716Y-99480520D01*
X113730520Y-99368716D01*
X113809577Y-99231784D01*
X113850499Y-99079060D01*
X113850500Y-99079060D01*
X113850500Y-98920940D01*
X113850499Y-98920939D01*
X113836363Y-98868182D01*
X113809577Y-98768216D01*
X113809576Y-98768215D01*
X113809576Y-98768213D01*
X113730524Y-98631290D01*
X113730521Y-98631287D01*
X113730520Y-98631284D01*
X113618716Y-98519480D01*
X113618713Y-98519478D01*
X113618709Y-98519475D01*
X113481786Y-98440423D01*
X113481782Y-98440422D01*
X113329060Y-98399500D01*
X113329057Y-98399500D01*
X113236189Y-98399500D01*
X113201541Y-98385148D01*
X112995913Y-98179520D01*
X112904589Y-98126793D01*
X112904587Y-98126792D01*
X112802730Y-98099500D01*
X112802727Y-98099500D01*
X109055740Y-98099500D01*
X109055724Y-98099499D01*
X109052727Y-98099499D01*
X108947273Y-98099499D01*
X108947271Y-98099499D01*
X108888288Y-98115304D01*
X108858796Y-98123207D01*
X108845413Y-98126792D01*
X108845410Y-98126793D01*
X108754086Y-98179520D01*
X108754086Y-98179521D01*
X106929521Y-100004086D01*
X106929520Y-100004086D01*
X106876793Y-100095410D01*
X106876792Y-100095412D01*
X106862300Y-100149500D01*
X106860937Y-100154588D01*
X106858603Y-100163298D01*
X106857014Y-100169228D01*
X106834182Y-100198980D01*
X106797000Y-100203874D01*
X106780883Y-100196186D01*
X106761413Y-100182040D01*
X106642994Y-100096004D01*
X106481639Y-100013789D01*
X106481638Y-100013788D01*
X106481637Y-100013788D01*
X106309409Y-99957829D01*
X106309406Y-99957828D01*
X106172007Y-99936066D01*
X106130546Y-99929500D01*
X105949454Y-99929500D01*
X105915794Y-99934831D01*
X105770593Y-99957828D01*
X105770590Y-99957829D01*
X105598362Y-100013788D01*
X105437006Y-100096004D01*
X105290497Y-100202448D01*
X105162448Y-100330497D01*
X105056004Y-100477006D01*
X104973788Y-100638362D01*
X104917829Y-100810590D01*
X104917828Y-100810593D01*
X104889500Y-100989454D01*
X104889500Y-101170545D01*
X104917828Y-101349406D01*
X104917829Y-101349409D01*
X104972676Y-101518216D01*
X104973789Y-101521639D01*
X105056004Y-101682994D01*
X105162127Y-101829060D01*
X105162448Y-101829502D01*
X105162452Y-101829507D01*
X105290493Y-101957548D01*
X105290497Y-101957551D01*
X105290499Y-101957553D01*
X105437006Y-102063996D01*
X105598361Y-102146211D01*
X105770591Y-102202171D01*
X105949454Y-102230500D01*
X105949455Y-102230500D01*
X106130545Y-102230500D01*
X106130546Y-102230500D01*
X106309409Y-102202171D01*
X106481639Y-102146211D01*
X106642994Y-102063996D01*
X106771701Y-101970485D01*
X106808165Y-101961731D01*
X106840142Y-101981326D01*
X106849500Y-102010128D01*
X106849500Y-102689871D01*
X106835148Y-102724519D01*
X106800500Y-102738871D01*
X106771699Y-102729513D01*
X106706357Y-102682040D01*
X106642994Y-102636004D01*
X106481639Y-102553789D01*
X106481638Y-102553788D01*
X106481637Y-102553788D01*
X106309409Y-102497829D01*
X106309406Y-102497828D01*
X106172007Y-102476066D01*
X106130546Y-102469500D01*
X105949454Y-102469500D01*
X105915794Y-102474831D01*
X105770593Y-102497828D01*
X105770590Y-102497829D01*
X105598362Y-102553788D01*
X105437006Y-102636004D01*
X105290497Y-102742448D01*
X105162448Y-102870497D01*
X105056004Y-103017006D01*
X104973788Y-103178362D01*
X104917829Y-103350590D01*
X104917828Y-103350593D01*
X104889500Y-103529454D01*
X104889500Y-103710545D01*
X104917828Y-103889406D01*
X104917829Y-103889409D01*
X104973789Y-104061639D01*
X104973792Y-104061647D01*
X104977264Y-104068461D01*
X104980205Y-104105848D01*
X104968252Y-104125353D01*
X104634148Y-104459458D01*
X104599500Y-104473810D01*
X104564852Y-104459458D01*
X104550500Y-104424810D01*
X104550500Y-98449454D01*
X104889500Y-98449454D01*
X104889500Y-98630546D01*
X104889617Y-98631284D01*
X104917828Y-98809406D01*
X104917829Y-98809409D01*
X104968672Y-98965892D01*
X104973789Y-98981639D01*
X105056004Y-99142994D01*
X105120515Y-99231786D01*
X105162448Y-99289502D01*
X105162452Y-99289507D01*
X105290493Y-99417548D01*
X105290497Y-99417551D01*
X105290499Y-99417553D01*
X105437006Y-99523996D01*
X105598361Y-99606211D01*
X105770591Y-99662171D01*
X105949454Y-99690500D01*
X105949455Y-99690500D01*
X106130545Y-99690500D01*
X106130546Y-99690500D01*
X106309409Y-99662171D01*
X106481639Y-99606211D01*
X106642994Y-99523996D01*
X106789501Y-99417553D01*
X106789504Y-99417549D01*
X106789507Y-99417548D01*
X106917548Y-99289507D01*
X106917549Y-99289504D01*
X106917553Y-99289501D01*
X107023996Y-99142994D01*
X107106211Y-98981639D01*
X107162171Y-98809409D01*
X107190500Y-98630546D01*
X107190500Y-98449454D01*
X107162171Y-98270591D01*
X107106211Y-98098361D01*
X107023996Y-97937006D01*
X106917553Y-97790499D01*
X106917551Y-97790497D01*
X106917548Y-97790493D01*
X106789507Y-97662452D01*
X106789502Y-97662448D01*
X106789501Y-97662447D01*
X106642994Y-97556004D01*
X106481639Y-97473789D01*
X106481638Y-97473788D01*
X106481637Y-97473788D01*
X106309409Y-97417829D01*
X106309406Y-97417828D01*
X106172007Y-97396066D01*
X106130546Y-97389500D01*
X105949454Y-97389500D01*
X105915794Y-97394831D01*
X105770593Y-97417828D01*
X105770590Y-97417829D01*
X105598362Y-97473788D01*
X105437006Y-97556004D01*
X105290497Y-97662448D01*
X105162448Y-97790497D01*
X105056004Y-97937006D01*
X104973788Y-98098362D01*
X104917829Y-98270590D01*
X104917828Y-98270593D01*
X104890930Y-98440423D01*
X104889500Y-98449454D01*
X104550500Y-98449454D01*
X104550500Y-95105209D01*
X104890000Y-95105209D01*
X104890000Y-95750000D01*
X105606988Y-95750000D01*
X105574075Y-95807007D01*
X105540000Y-95934174D01*
X105540000Y-96065826D01*
X105574075Y-96192993D01*
X105606988Y-96250000D01*
X104890001Y-96250000D01*
X104890001Y-96894794D01*
X104892910Y-96919876D01*
X104938213Y-97022479D01*
X105017520Y-97101786D01*
X105120126Y-97147090D01*
X105145189Y-97149998D01*
X105145209Y-97149999D01*
X105789999Y-97149999D01*
X105790000Y-97149998D01*
X105790000Y-96433012D01*
X105847007Y-96465925D01*
X105974174Y-96500000D01*
X106105826Y-96500000D01*
X106232993Y-96465925D01*
X106290000Y-96433012D01*
X106290000Y-97149999D01*
X106934788Y-97149999D01*
X106934794Y-97149998D01*
X106959876Y-97147089D01*
X107062479Y-97101786D01*
X107141786Y-97022479D01*
X107187090Y-96919873D01*
X107189998Y-96894810D01*
X107190000Y-96894790D01*
X107190000Y-96250000D01*
X106473012Y-96250000D01*
X106505925Y-96192993D01*
X106540000Y-96065826D01*
X106540000Y-95934174D01*
X106505925Y-95807007D01*
X106473012Y-95750000D01*
X107189999Y-95750000D01*
X107189999Y-95105212D01*
X107189998Y-95105205D01*
X107187089Y-95080123D01*
X107141786Y-94977520D01*
X107062479Y-94898213D01*
X107062480Y-94898213D01*
X106959873Y-94852909D01*
X106934810Y-94850001D01*
X106934790Y-94850000D01*
X106290000Y-94850000D01*
X106290000Y-95566988D01*
X106232993Y-95534075D01*
X106105826Y-95500000D01*
X105974174Y-95500000D01*
X105847007Y-95534075D01*
X105790000Y-95566988D01*
X105790000Y-94850000D01*
X105145212Y-94850000D01*
X105145205Y-94850001D01*
X105120123Y-94852910D01*
X105017520Y-94898213D01*
X104938213Y-94977520D01*
X104892909Y-95080126D01*
X104890001Y-95105189D01*
X104890000Y-95105209D01*
X104550500Y-95105209D01*
X104550500Y-93299000D01*
X104564852Y-93264352D01*
X104599500Y-93250000D01*
X135400500Y-93250000D01*
X135435148Y-93264352D01*
G37*
%TD.AperFunction*%
%TD*%
M02*
