M48
; DRILL file {KiCad 9.0.6} date 2025-12-29T11:35:03+0000
; FORMAT={-:-/ absolute / metric / decimal}
; #@! TF.CreationDate,2025-12-29T11:35:03+00:00
; #@! TF.GenerationSoftware,Kicad,Pcbnew,9.0.6
; #@! TF.FileFunction,Plated,1,2,PTH
FMAT,2
METRIC
; #@! TA.AperFunction,Plated,PTH,ComponentDrill
T1C0.200
; #@! TA.AperFunction,Plated,PTH,ViaDrill
T2C0.300
; #@! TA.AperFunction,Plated,PTH,ComponentDrill
T3C0.600
; #@! TA.AperFunction,Plated,PTH,ComponentDrill
T4C1.000
%
G90
G05
T1
X117.1Y-101.76
X117.1Y-103.16
X117.8Y-101.06
X117.8Y-102.46
X117.8Y-103.86
X118.5Y-101.76
X118.5Y-103.16
X119.2Y-101.06
X119.2Y-102.46
X119.2Y-103.86
X119.9Y-101.76
X119.9Y-103.16
T2
X106.0Y-126.25
X106.8Y-164.1
X108.25Y-115.7
X108.6Y-151.75
X110.0Y-140.0
X110.05Y-131.75
X110.4Y-124.2
X110.75Y-144.1
X110.9Y-122.35
X111.6Y-112.25
X111.8Y-153.7
X111.875Y-160.375
X112.05Y-165.5
X112.1Y-147.3
X112.119Y-125.0
X112.13Y-156.875
X112.351Y-159.725
X112.5Y-121.5
X112.75Y-110.5
X112.75Y-126.5
X113.0Y-122.75
X113.25Y-99.0
X113.25Y-100.5
X113.25Y-101.75
X113.25Y-103.0
X113.25Y-104.25
X113.25Y-105.75
X113.25Y-108.25
X113.25Y-114.0
X113.5Y-106.75
X113.5Y-109.25
X113.75Y-164.9
X114.25Y-150.25
X114.6Y-127.7
X114.75Y-121.25
X114.95Y-125.7
X114.951Y-164.9
X115.0Y-149.25
X115.25Y-147.1
X115.65Y-115.051
X115.75Y-167.9
X115.8Y-109.9
X116.0Y-121.5
X116.05Y-165.5
X116.2Y-105.9
X116.961Y-122.5
X116.961Y-132.25
X117.1Y-127.4
X117.561Y-123.044
X118.0Y-135.5
X118.1Y-123.75
X118.5Y-140.25
X118.501Y-124.5
X119.15Y-135.8
X119.389Y-125.156
X119.75Y-157.25
X119.85Y-124.25
X120.25Y-123.5
X120.75Y-121.0
X120.75Y-142.0
X121.35Y-123.25
X121.4Y-155.4
X121.45Y-148.35
X121.55Y-152.25
X121.75Y-146.0
X121.75Y-147.25
X122.05Y-126.95
X122.2Y-152.85
X122.25Y-110.5
X122.25Y-124.0
X122.5Y-132.25
X122.5Y-133.75
X122.6Y-121.4
X122.75Y-131.25
X122.85Y-143.25
X123.55Y-125.3
X123.75Y-138.5
X124.0Y-143.5
X124.1Y-123.2
X124.1Y-149.3
X124.25Y-109.75
X124.35Y-165.45
X124.75Y-125.0
X125.0Y-140.0
X125.1Y-144.35
X125.2Y-166.4
X125.749Y-140.281
X125.75Y-111.25
X125.75Y-122.75
X126.0Y-121.5
X126.375Y-122.251
X126.951Y-123.758
X127.0Y-96.25
X127.0Y-98.0
X127.0Y-99.5
X127.0Y-100.75
X127.0Y-102.0
X127.0Y-103.25
X127.0Y-104.5
X127.0Y-107.0
X127.0Y-108.25
X127.199Y-109.047
X127.25Y-105.5
X127.25Y-124.5
X127.25Y-132.0
X127.25Y-139.1
X127.35Y-120.85
X127.45Y-147.2
X127.5Y-111.25
X127.576Y-116.958
X127.9Y-158.4
X127.9Y-160.6
X127.947Y-112.5
X128.45Y-165.8
X129.0Y-147.3
X129.4Y-140.8
X129.5Y-132.75
X129.8Y-122.3
X129.9Y-146.3
X130.0Y-124.25
X130.4Y-137.9
X130.5Y-119.0
X130.5Y-134.75
X130.6Y-147.0
X131.1Y-141.0
X131.4Y-147.35
X131.5Y-157.0
X131.75Y-98.75
X131.75Y-158.0
X132.0Y-143.25
X132.0Y-151.8
X132.209Y-150.4
X132.509Y-158.253
X133.409Y-142.75
X134.1Y-119.35
X134.2Y-121.7
X134.75Y-123.5
T4
X106.04Y-96.0
X106.04Y-98.54
X106.04Y-101.08
X106.04Y-103.62
X106.04Y-106.16
X106.04Y-108.7
X106.04Y-111.24
X106.04Y-113.78
X106.04Y-116.32
X106.04Y-129.02
X106.04Y-131.56
X106.04Y-134.1
X106.04Y-136.64
X106.04Y-139.18
X106.04Y-141.72
X106.04Y-144.26
X106.04Y-146.8
X106.04Y-149.34
X106.04Y-151.88
X106.04Y-154.42
X106.04Y-156.96
X106.04Y-159.5
X106.04Y-162.04
X110.13Y-129.5
X112.67Y-129.5
X115.21Y-129.5
X117.75Y-129.5
X122.19Y-129.5
X124.73Y-129.5
X127.27Y-129.5
X129.81Y-129.5
X133.96Y-96.0
X133.96Y-98.54
X133.96Y-101.08
X133.96Y-103.62
X133.96Y-106.16
X133.96Y-108.7
X133.96Y-111.24
X133.96Y-113.78
X133.96Y-116.32
X133.96Y-129.02
X133.96Y-131.56
X133.96Y-134.1
X133.96Y-136.64
X133.96Y-139.18
X133.96Y-141.72
X133.96Y-144.26
X133.96Y-146.8
X133.96Y-149.34
X133.96Y-151.88
X133.96Y-154.42
X133.96Y-156.96
X133.96Y-159.5
X133.96Y-162.04
T3
G00X109.68Y-163.845
M15
G01X109.68Y-164.945
M16
G05
G00X109.68Y-168.275
M15
G01X109.68Y-168.875
M16
G05
G00X118.32Y-163.845
M15
G01X118.32Y-164.945
M16
G05
G00X118.32Y-168.275
M15
G01X118.32Y-168.875
M16
G05
G00X121.68Y-163.845
M15
G01X121.68Y-164.945
M16
G05
G00X121.68Y-168.275
M15
G01X121.68Y-168.875
M16
G05
G00X130.32Y-163.845
M15
G01X130.32Y-164.945
M16
G05
G00X130.32Y-168.275
M15
G01X130.32Y-168.875
M16
G05
M30
